<?xml version="1.0" encoding="UTF-8"?>
<svg width="43px" height="42px" viewBox="0 0 43 42" version="1.1" xmlns="http://www.w3.org/2000/svg" xmlns:xlink="http://www.w3.org/1999/xlink">
    <title>after_effects</title>
    <defs>
        <polygon id="path-1" points="0 0 38.7750566 0 38.7750566 37.0384383 0 37.0384383"></polygon>
        <radialGradient cx="32.9351156%" cy="22.4100734%" fx="32.9351156%" fy="22.4100734%" r="79.5633244%" gradientTransform="translate(0.329351,0.224101),scale(0.955213,1.000000),translate(-0.329351,-0.224101)" id="radialGradient-3">
            <stop stop-color="#442F55" offset="0%"></stop>
            <stop stop-color="#13002C" offset="100%"></stop>
        </radialGradient>
        <path d="M42.3,0 L42.3,40.5 L0,40.5 L0,0 L42.3,0 Z M40.5375321,1.73074196 L1.76247691,1.73074196 L1.76247691,38.7691876 L40.5375321,38.7691876 L40.5375321,1.73074196 Z M29.0990237,14.0020423 C32.9412476,14.0020423 34.2807794,17.1693337 34.2807794,19.7481813 C34.2807794,20.5789703 34.2279143,21.2539534 34.1398032,21.5828233 C34.1045573,21.7212685 34.0516921,21.7732479 33.9106412,21.8078665 C33.5581073,21.8597798 32.5182368,21.9289365 30.9672295,21.9289365 L26.3496699,21.9294645 L26.3539219,22.0637827 C26.4405789,24.3066393 27.5779698,25.8057489 30.1916175,25.8057489 C31.2314955,25.8057489 32.13033,25.6673769 33.0645374,25.2692771 C33.1878944,25.2173638 33.2760802,25.2346731 33.2760802,25.390413 L33.2760802,27.5538662 C33.2760802,27.7269228 33.223215,27.8135134 33.0998506,27.9000454 C32.1657178,28.3499778 31.0024082,28.5577118 29.5572058,28.5577118 C24.9042659,28.5577118 23.1593425,25.1827525 23.1593425,21.42701 C23.1593425,17.3423903 25.3096575,14.0020423 29.0990237,14.0020423 Z M16.5497796,9.25968292 C16.6731441,9.25968292 16.7260092,9.2942869 16.7613224,9.43273951 L22.3660366,28.0730946 C22.4012826,28.2114665 22.3660366,28.2980645 22.2250529,28.2980645 L19.3169693,28.2980645 C19.1759781,28.2980645 19.0877998,28.2461512 19.0525464,28.1250813 L17.6072843,22.932782 L11.9497049,22.932782 L10.5573752,28.1076986 C10.5221367,28.2460779 10.4692641,28.2980645 10.2929673,28.2980645 L7.70208194,28.2980645 C7.5258598,28.2980645 7.49054665,28.2461512 7.5258598,28.0384833 L12.5313261,10.8519136 C12.6194372,10.5404117 12.6723098,10.2980738 12.7075483,9.43273951 C12.7075483,9.31159623 12.7604209,9.25968292 12.8485394,9.25968292 L16.5497796,9.25968292 Z M14.7697597,11.9942045 L14.7345138,11.9942045 C14.3644428,14.019205 13.3949745,17.4460776 12.672377,20.1288325 L16.9024555,20.1288325 C16.4089453,18.2076586 15.2103972,14.019205 14.7697597,11.9942045 Z M28.9754427,16.52883 C27.2833919,16.52883 26.5608617,17.9826227 26.3845648,19.5230647 L29.9272096,19.5230647 C30.039563,19.5230647 30.1428297,19.5230647 30.237698,19.5229972 L30.4977958,19.5225241 C30.9703538,19.520902 31.1653449,19.5144137 31.2314282,19.4884608 C31.2314282,19.3673248 31.2666742,19.2807268 31.2666742,19.1942022 C31.2666742,18.2595719 30.8084099,16.52883 28.9754427,16.52883 Z" id="path-4"></path>
    </defs>
    <g id="Page-1" stroke="none" stroke-width="1" fill="none" fill-rule="evenodd">
        <g id="Artboard" transform="translate(-759.000000, -72.000000)">
            <g id="after_effects" transform="translate(759.600000, 72.900000)">
                <g id="Group-3" transform="translate(1.762477, 1.730749)">
                    <mask id="mask-2" fill="white">
                        <use xlink:href="#path-1"></use>
                    </mask>
                    <g id="Clip-2"></g>
                    <polygon id="Fill-1" fill="url(#radialGradient-3)" mask="url(#mask-2)" points="-6.63375045e-16 37.0384383 38.7750566 37.0384383 38.7750566 0 -6.63375045e-16 0"></polygon>
                </g>
                <g id="Group-6">
                    <mask id="mask-5" fill="white">
                        <use xlink:href="#path-4"></use>
                    </mask>
                    <g id="Clip-5"></g>
                    <polygon id="Fill-4" fill="#D8A1FF" mask="url(#mask-5)" points="-0.422999328 40.9153832 42.7229999 40.9153832 42.7229999 -0.415386652 -0.422999328 -0.415386652"></polygon>
                </g>
            </g>
        </g>
    </g>
</svg>