<?xml version="1.0" encoding="UTF-8"?>
<svg width="34px" height="33px" viewBox="0 0 34 33" version="1.1" xmlns="http://www.w3.org/2000/svg" xmlns:xlink="http://www.w3.org/1999/xlink">
    <title>after-effects-2019</title>
    <g id="Page-1" stroke="none" stroke-width="1" fill="none" fill-rule="evenodd">
        <g id="after-effects-2019" fill-rule="nonzero">
            <polygon id="Path" fill="#1F0040" points="1.41666076 1.41025641 32.5831976 1.41025641 32.5831976 31.5897436 1.41666076 31.5897436"></polygon>
            <g id="Group" fill="#D291FF">
                <path d="M0,0 L0,33 L34,33 L34,0 L0,0 Z M1.41666076,1.41025641 L32.5833392,1.41025641 L32.5833392,31.5897436 L1.41666076,31.5897436 L1.41666076,1.41025641 Z" id="Shape"></path>
                <path d="M9.61005996,18.6858974 L8.48806463,22.8976282 C8.46454806,23.0138333 8.41779826,23.0576923 8.27754884,23.0576923 L6.19732418,23.0576923 C6.05707476,23.0576923 6.03355819,23.0111538 6.05707476,22.8484103 L10.0774163,8.84033333 C10.1476827,8.58451282 10.1944325,8.3825641 10.2176658,7.68462821 C10.2176658,7.59155128 10.2644156,7.54501282 10.3346819,7.54501282 L13.3032946,7.54501282 C13.3965108,7.54501282 13.4432607,7.56842308 13.4667772,7.68462821 L17.9782751,22.8715385 C18.0015083,22.9880256 17.9782751,23.0576923 17.8612589,23.0576923 L15.5237687,23.0576923 C15.4070358,23.0576923 15.3367694,23.0138333 15.3135362,22.9210385 L14.1447911,18.6858974 L9.61005996,18.6858974 Z M13.5857767,16.3964872 C13.1884034,14.8374487 12.2277657,11.418141 11.8771422,9.76602564 L11.8539089,9.76602564 C11.5500352,11.418141 10.7827717,14.2077692 10.1983992,16.3950769 L13.5857767,16.3964872 Z M21.1797868,17.8397436 C21.2033033,19.7479615 22.1150662,21.0276282 24.2654156,21.0276282 C25.1067704,21.0276282 25.8278507,20.9169231 26.5758476,20.5910128 C26.6693472,20.5444744 26.7396136,20.5678846 26.7396136,20.6840897 L26.7396136,22.4526923 C26.7396136,22.5923077 26.6928638,22.6619744 26.5993642,22.7317821 C25.851509,23.1042308 24.9199128,23.2669744 23.7511677,23.2669744 C20.011325,23.2669744 18.6086891,20.5213462 18.6086891,17.4496667 C18.6086891,14.1223077 20.3382903,11.3999487 23.3773109,11.3999487 C26.4626564,11.3999487 27.5379019,13.9826923 27.5379019,16.0769231 C27.5379019,16.7517308 27.4911521,17.3103333 27.4211691,17.5661538 C27.3976525,17.682359 27.3509027,17.7233974 27.2341699,17.7465256 C26.953671,17.7930641 26.1121745,17.8396026 24.873163,17.8396026 L21.1797868,17.8396026 L21.1797868,17.8397436 Z M24.0548998,15.900641 C24.7795218,15.900641 25.036929,15.900641 25.1069121,15.8775128 C25.1069121,15.7844359 25.1304286,15.7044744 25.1304286,15.6348077 C25.1304286,14.8669231 24.7562885,13.4575128 23.2838113,13.4575128 C21.928067,13.4575128 21.3436944,14.6441026 21.2033033,15.900641 L24.0548998,15.900641 Z" id="Shape"></path>
            </g>
        </g>
    </g>
</svg>