<?xml version="1.0" encoding="UTF-8"?>
<svg width="49px" height="43px" viewBox="0 0 49 43" version="1.1" xmlns="http://www.w3.org/2000/svg" xmlns:xlink="http://www.w3.org/1999/xlink">
    <title>android</title>
    <defs>
        <path d="M3.39097082,3.44242236 C4.40004922,3.44242236 5.2448585,3.95586643 5.64379634,4.51598857 L5.64379634,3.5824527 L7.19261336,3.5824527 L7.19261336,10.5723016 L5.99579983,10.5723016 C5.80163419,10.5717248 5.64437554,10.4153278 5.64379634,10.2222256 L5.64379634,9.63876553 C5.2448585,10.1988872 4.41178185,10.7123319 3.39097082,10.7123319 C1.46668276,10.7123319 0,9.07864494 0,7.083212 C0,5.0877783 1.45495013,3.44242236 3.39097082,3.44242236 Z M23.7250652,0.0816918736 L23.7250652,10.5723016 L22.5399797,10.5723016 C22.3458171,10.5717248 22.1885631,10.4153278 22.1879777,10.2222256 L22.1879777,9.63876553 C21.7890391,10.1988872 20.9559709,10.7123319 19.935156,10.7123319 C18.010868,10.7123319 16.5441855,9.07864494 16.5441855,7.083212 C16.5441855,5.0877783 17.9991377,3.44242236 19.9234257,3.44242236 C20.9324949,3.44242236 21.7773088,3.95586643 22.1762474,4.51598857 L22.1762474,0.0816918736 L23.7250652,0.0816918736 Z M33.6944484,3.44227868 C35.710045,3.44981725 37.3391188,5.0786423 37.335975,7.083212 C37.3407748,8.05329107 36.9530428,8.98453892 36.259999,9.66719612 C35.5669629,10.3498536 34.626897,10.7265124 33.6515785,10.7123319 C31.6360281,10.6963061 30.0139401,9.06059509 30.0256377,7.05605756 C30.0375933,5.0515208 31.6788518,3.43484363 33.6944484,3.44227868 Z M48.6,0.0816918736 L48.6,10.5723016 L47.4149299,10.5723016 C47.2207673,10.5717248 47.0635056,10.4153278 47.0629202,10.2222256 L47.0629202,9.63876553 C46.6639816,10.1988872 45.8309134,10.7123319 44.8100986,10.7123319 C42.8858105,10.7123319 41.419128,9.07864494 41.419128,7.083212 C41.419128,5.0877783 42.8740802,3.44242236 44.7983682,3.44242236 C45.8074374,3.44242236 46.6522513,3.95586643 47.0511899,4.51598857 L47.0511899,0.0816918736 L48.6,0.0816918736 Z M12.6369424,3.44242236 C14.2678878,3.44242236 15.3239013,4.58600335 15.3239013,6.35972126 L15.3239013,10.5723016 L14.1388312,10.5723016 C13.944661,10.5717248 13.7873992,10.4153278 13.7868139,10.2222256 L13.7868139,6.61644368 C13.7868139,5.50787009 13.2236123,4.84272654 12.3201391,4.84272654 C11.2993242,4.84272654 10.501447,5.6362313 10.501447,7.12988776 L10.501447,10.5723016 L9.31636919,10.5723016 C9.12220664,10.5717248 8.96494491,10.4153278 8.96436725,10.2222256 L8.95262923,3.5824527 L10.501447,3.5824527 L10.501447,4.5276577 C10.9238617,3.82750522 11.7217235,3.44242236 12.6369424,3.44242236 Z M40.1401846,3.5824527 L40.1401846,10.5723016 L38.955099,10.5723016 C38.7609288,10.5717248 38.6036748,10.4153278 38.6030971,10.2222256 L38.5913668,3.5824527 L40.1401846,3.5824527 Z M28.8877911,3.51243791 C29.0888625,3.50870447 29.2896874,3.528284 29.4861914,3.57078357 L29.4861914,5.14612548 C29.2364966,5.0629226 28.9751177,5.01959806 28.7117825,5.01776427 C27.8317699,5.01776427 27.0221624,5.76459251 27.0221624,7.15322679 L27.0221624,10.5606324 L25.8370845,10.5606324 C25.642922,10.5600557 25.485668,10.4036586 25.4850826,10.2105565 L25.4850826,3.5824527 L27.0339004,3.5824527 L27.0339004,4.83105664 C27.312532,4.04826276 28.0528745,3.52167885 28.8877911,3.51243791 Z M3.67257392,4.83105664 C2.41709416,4.83105664 1.57228411,5.81126903 1.57228411,7.0715421 C1.57228411,8.33181594 2.41709416,9.31202833 3.67257392,9.31202833 C4.92805521,9.31202833 5.77286449,8.33181594 5.77286449,7.0715421 C5.76113109,5.81126903 4.91632104,4.83105664 3.67257392,4.83105664 Z M20.2050227,4.83105664 C18.9495475,4.83105664 18.1047336,5.81126903 18.1047336,7.0715421 C18.1047336,8.33181594 18.9495475,9.31202833 20.2050227,9.31202833 C21.4605055,9.31202833 22.3053117,8.33181594 22.3053117,7.0715421 C22.3053117,5.81126903 21.4605055,4.83105664 20.2050227,4.83105664 Z M45.0799652,4.83105664 C43.82449,4.83105664 42.9796761,5.81126903 42.9796761,7.0715421 C42.9796761,8.33181594 43.82449,9.31202833 45.0799652,9.31202833 C46.335448,9.31202833 47.1802619,8.33181594 47.1802619,7.0715421 C47.1567859,5.81126903 46.335448,4.83105664 45.0799652,4.83105664 Z M33.6515785,4.8660648 C32.3960879,4.8660648 31.5278134,5.83460729 31.5278134,7.0715421 C31.5395514,8.32014681 32.3960879,9.27702093 33.6515785,9.27702093 C34.8835853,9.27702093 35.7635978,8.30847691 35.7635978,7.0715421 C35.7635978,5.82293893 34.8953156,4.8660648 33.6515785,4.8660648 Z M39.365768,3.20396066e-06 C39.9360324,3.20396066e-06 40.3983132,0.459762841 40.3983132,1.0268961 C40.3983132,1.59403702 39.9360324,2.05378578 39.365768,2.05378578 C38.7912905,2.04840851 38.3269071,1.5865686 38.3214925,1.01523004 C38.3330071,0.450249213 38.7975677,-0.00138768378 39.365768,3.20396066e-06 Z" id="path-1"></path>
        <path d="M38.8025664,0.407191668 C39.0389211,0.0143600227 39.5488472,-0.116617052 39.9469155,0.113257327 C40.3449991,0.343131707 40.4833907,0.848495324 40.2575109,1.24737831 L40.2575109,1.24737831 L36.2094731,8.21388951 C43.1322088,11.9713666 47.8842581,18.9612253 48.5765394,27.2113409 L48.5765394,27.2113409 L0,27.2113409 C0.692274406,18.9612253 5.43259441,11.9713666 12.4140048,8.21388951 L12.4140048,8.21388951 L8.36595933,1.24737831 C8.14007948,0.848495324 8.27847873,0.343131707 8.67655471,0.113257327 C9.07462299,-0.116617052 9.58454904,0.0143600227 9.82091147,0.407191668 L9.82091147,0.407191668 L13.9158859,7.45539598 C20.5277335,4.49919308 28.0957367,4.49919308 34.7075843,7.45539598 L34.7075843,7.45539598 L38.8025664,0.407191668 Z M13.1180163,16.3123156 C12.0034129,16.3123156 11.0998626,17.2109169 11.0998626,18.3194154 C11.0998626,19.4279063 12.0034129,20.3265152 13.1180163,20.3265152 C14.2326044,20.3265152 15.1361701,19.4279063 15.1361701,18.3194154 C15.1361701,17.2109169 14.2326044,16.3123156 13.1180163,16.3123156 Z M35.4819932,16.3123156 C34.3673974,16.3123156 33.4638395,17.2109169 33.4638395,18.3194154 C33.4638395,19.4279063 34.3673974,20.3265152 35.4819932,20.3265152 C36.596589,20.3265152 37.5001546,19.4279063 37.5001546,18.3194154 C37.5001546,17.2109169 36.596589,16.3123156 35.4819932,16.3123156 Z" id="path-3"></path>
    </defs>
    <g id="Page-1" stroke="none" stroke-width="1" fill="none" fill-rule="evenodd">
        <g id="Artboard" transform="translate(-68.000000, -215.000000)">
            <g id="android" transform="translate(68.400000, 215.100000)">
                <g id="Group-3" transform="translate(0.000000, 31.587282)">
                    <mask id="mask-2" fill="white">
                        <use xlink:href="#path-1"></use>
                    </mask>
                    <g id="Clip-2"></g>
                    <polygon id="Fill-1" fill="#FFFFFF" mask="url(#mask-2)" points="-0.486000066 11.1960564 49.0860047 11.1960564 49.0860047 -0.483339121 -0.486000066 -0.483339121"></polygon>
                </g>
                <g id="Group-6">
                    <mask id="mask-4" fill="white">
                        <use xlink:href="#path-3"></use>
                    </mask>
                    <g id="Clip-5"></g>
                    <polygon id="Fill-4" fill="#3DDC84" mask="url(#mask-4)" points="-0.486000066 27.6946746 49.0625363 27.6946746 49.0625363 -0.483336009 -0.486000066 -0.483336009"></polygon>
                </g>
            </g>
        </g>
    </g>
</svg>