<?xml version="1.0" encoding="UTF-8"?>
<svg width="39px" height="35px" viewBox="0 0 39 35" version="1.1" xmlns="http://www.w3.org/2000/svg" xmlns:xlink="http://www.w3.org/1999/xlink">
    <title>android-logomark (1)</title>
    <g id="Page-1" stroke="none" stroke-width="1" fill="none" fill-rule="evenodd">
        <g id="android-logomark-(1)" fill-rule="nonzero">
            <path d="M2.94712699,30.133377 C1.93964268,30.133377 1.26170932,30.9444276 1.26170932,31.9872068 C1.26170932,33.0299861 1.93964268,33.8410367 2.94712699,33.8410367 C3.9546113,33.8410367 4.63254466,33.0299861 4.63254466,31.9872068 C4.62312892,30.9444276 3.94519556,30.133377 2.94712699,30.133377 M2.7211492,28.9843887 C3.53090295,28.9843887 4.20883631,29.4092247 4.52897151,29.8726822 L4.52897151,29.1002531 L5.77184935,29.1002531 L5.77184935,34.8838159 L4.81144375,34.8838159 C4.6556318,34.8833387 4.52943686,34.7539323 4.52897151,34.594155 L4.52897151,34.1113868 C4.20883631,34.5748443 3.54031869,34.9996803 2.7211492,34.9996803 C1.17696765,34.9996803 0,33.6479294 0,31.9968622 C0,30.345795 1.16755191,28.9843887 2.7211492,28.9843887 M7.18421053,29.1002531 L8.42708836,29.1002531 L8.42708836,29.8823376 C8.76605505,29.3030157 9.40632545,28.9843887 10.1407533,28.9843887 C11.4495413,28.9843887 12.296958,29.9306144 12.296958,31.3982297 L12.296958,34.8838159 L11.3459681,34.8838159 C11.1901562,34.8833387 11.0639612,34.7539323 11.0634959,34.594155 L11.0634959,31.6106477 C11.0634959,30.6933881 10.6115403,30.1430324 9.88652825,30.1430324 C9.06735876,30.1430324 8.42708836,30.7995971 8.42708836,32.0354837 L8.42708836,34.8838159 L7.4760985,34.8838159 C7.32028655,34.8833387 7.19409161,34.7539323 7.19362627,34.594155 L7.18421053,29.1002531 Z M16.2139063,30.133377 C15.206422,30.133377 14.5284887,30.9444276 14.5284887,31.9872068 C14.5284887,33.0299861 15.206422,33.8410367 16.2139063,33.8410367 C17.2213906,33.8410367 17.899324,33.0299861 17.899324,31.9872068 C17.899324,30.9444276 17.2213906,30.133377 16.2139063,30.133377 M15.9879285,28.9843887 C16.7976823,28.9843887 17.4756156,29.4092247 17.7957508,29.8726822 L17.7957508,26.203644 L19.0386287,26.203644 L19.0386287,34.8838159 L18.0876388,34.8838159 C17.9318269,34.8833387 17.8056319,34.7539323 17.8051666,34.594155 L17.8051666,34.1113868 C17.4850314,34.5748443 16.8165138,34.9996803 15.9973443,34.9996803 C14.4531627,34.9996803 13.2761951,33.6479294 13.2761951,31.9968622 C13.2761951,30.345795 14.443747,28.9843887 15.9879285,28.9843887 M20.4509899,29.1002531 L21.6938677,29.1002531 L21.6938677,30.133377 C21.9174612,29.4856746 22.5115604,29.0499676 23.1815548,29.0423209 C23.3429077,29.0392318 23.504062,29.0554333 23.6617576,29.0905977 L23.6617576,30.3940718 C23.4613832,30.3252278 23.2516357,30.2893802 23.0403187,30.2878628 C22.3341381,30.2878628 21.684452,30.9058061 21.684452,32.0547944 L21.684452,34.8741606 L20.7334621,34.8741606 C20.5776501,34.8736834 20.4514552,34.7442769 20.4509899,34.5844997 L20.4509899,29.1002531 Z M27.0043457,33.8120706 C27.9929986,33.8120706 28.6991791,33.0106754 28.6991791,31.9872068 C28.6991791,30.9540829 28.0024143,30.1623431 27.0043457,30.1623431 C25.9968614,30.1623431 25.3000966,30.9637383 25.3000966,31.9872068 C25.3095123,33.0203307 25.9968614,33.8120706 27.0043457,33.8120706 M27.0043457,34.9996803 C25.3869314,34.9864202 24.0852614,33.6329947 24.0946961,31.9743942 C24.1042338,30.3157936 25.4212952,28.9781177 27.0387499,28.9842913 C28.6562046,28.9905078 29.9634849,30.3382353 29.9609252,31.9968622 C29.9648166,32.799528 29.6536672,33.570064 29.0975251,34.1349107 C28.5413831,34.6997574 27.7870176,35.0114136 27.0043457,34.9996803 M30.9683728,29.1002531 L32.2112506,29.1002531 L32.2112506,34.8838159 L31.2602607,34.8838159 C31.1044488,34.8833387 30.9782539,34.7539323 30.9777885,34.594155 L30.9683728,29.1002531 Z M31.5898117,27.8354005 C31.1288066,27.830949 30.7561517,27.4488104 30.7518107,26.9760731 C30.761052,26.508595 31.133843,26.1349073 31.5898117,26.1360538 C32.0474267,26.1360538 32.4183969,26.5164676 32.4183969,26.9857285 C32.4183969,27.4549894 32.0474267,27.8354005 31.5898117,27.8354005 M36.1752776,30.133377 C35.1677933,30.133377 34.48986,30.9444276 34.48986,31.9872068 C34.48986,33.0299861 35.1677933,33.8410367 36.1752776,33.8410367 C37.182762,33.8410367 37.8606953,33.0299861 37.8606953,31.9872068 C37.8418638,30.9444276 37.182762,30.133377 36.1752776,30.133377 M35.9492999,28.9843887 C36.7590536,28.9843887 37.436987,29.4092247 37.7571222,29.8726822 L37.7571222,26.203644 L39,26.203644 L39,34.8838159 L38.0490101,34.8838159 C37.8931982,34.8833387 37.7670032,34.7539323 37.7665379,34.594155 L37.7665379,34.1113868 C37.4464027,34.5748443 36.7778851,34.9996803 35.9587156,34.9996803 C34.414534,34.9996803 33.2375664,33.6479294 33.2375664,31.9968622 C33.2375664,30.345795 34.4051183,28.9843887 35.9492999,28.9843887" id="Shape" fill="#FFFFFF"></path>
            <path d="M29.0569773,6.79636309 L32.305408,1.032111 C32.4866716,0.702064661 32.3756103,0.283913917 32.0561677,0.093710772 C31.7367252,-0.0964923728 31.3275259,0.0118837028 31.1378561,0.336924817 L27.8517624,6.16876446 C22.5459601,3.72274031 16.4728714,3.72274031 11.167069,6.16876446 L7.88097537,0.336924817 C7.69130557,0.0118837028 7.2821063,-0.0964923728 6.96266376,0.093710772 C6.64322121,0.283913917 6.53215984,0.702064661 6.71342347,1.032111 L9.96185418,6.79636309 C4.35948817,9.90539019 0.55552873,15.688953 0,22.5152951 L38.9811685,22.5152951 C38.4256398,15.688953 34.6122646,9.90539019 29.0569773,6.79636309 L29.0569773,6.79636309 Z M10.5267986,16.8186306 C9.63236936,16.8186306 8.90729116,16.0750997 8.90729116,15.157908 C8.90729116,14.2407163 9.63236936,13.4971855 10.5267986,13.4971855 C11.4212279,13.4971855 12.1463061,14.2407163 12.1463061,15.157908 C12.1463061,16.0750997 11.4212279,16.8186306 10.5267986,16.8186306 L10.5267986,16.8186306 Z M28.4732014,16.8186306 C27.5787721,16.8186306 26.8536939,16.0750997 26.8536939,15.157908 C26.8536939,14.2407163 27.5787721,13.4971855 28.4732014,13.4971855 C29.3676306,13.4971855 30.0927088,14.2407163 30.0927088,15.157908 C30.0927088,16.0750997 29.3676306,16.8186306 28.4732014,16.8186306 Z" id="Shape" fill="#3DDC84"></path>
        </g>
    </g>
</svg>