<?xml version="1.0" encoding="UTF-8"?>
<svg width="45px" height="41px" viewBox="0 0 45 41" version="1.1" xmlns="http://www.w3.org/2000/svg" xmlns:xlink="http://www.w3.org/1999/xlink">
    <title>asana-logo (1)</title>
    <defs>
        <radialGradient cx="50.0135415%" cy="54.714503%" fx="50.0135415%" fy="54.714503%" r="72.7683235%" gradientTransform="translate(0.500135,0.547145),scale(0.911111,1.000000),translate(-0.500135,-0.547145)" id="radialGradient-1">
            <stop stop-color="#FFB900" offset="0%"></stop>
            <stop stop-color="#F95D8F" offset="60%"></stop>
            <stop stop-color="#F95353" offset="99.9%"></stop>
        </radialGradient>
    </defs>
    <g id="Page-1" stroke="none" stroke-width="1" fill="none" fill-rule="evenodd">
        <g id="asana-logo-(1)" fill="url(#radialGradient-1)" fill-rule="nonzero">
            <path d="M35.2137491,21.7056449 C29.8079941,21.7056449 25.4265457,26.0245129 25.4265457,31.3521183 C25.4265457,36.68024 29.8079941,41 35.2137491,41 C40.6185991,41 45,36.68024 45,31.3521183 C45,26.0245129 40.6185991,21.7056449 35.2137491,21.7056449 Z M9.78672717,21.7061143 C4.3818771,21.7065838 0,26.0245129 0,31.3525877 C0,36.68024 4.3818771,40.9995306 9.78672717,40.9995306 C15.1920059,40.9995306 19.5739306,36.68024 19.5739306,31.3525877 C19.5739306,26.024466 15.1920059,21.7061143 9.78625093,21.7061143 L9.78672717,21.7061143 L9.78672717,21.7061143 Z M32.286751,9.64694284 C32.286751,14.9745952 27.9053501,19.2948246 22.5005001,19.2948246 C17.0947451,19.2948246 12.7132966,14.9745952 12.7132966,9.64694284 C12.7132966,4.31929052 17.0947451,0 22.5004524,0 C27.9053025,0 32.2862747,4.31929052 32.2862747,9.64694284 L32.286751,9.64694284 Z" id="Shape"></path>
        </g>
    </g>
</svg>