<?xml version="1.0" encoding="UTF-8"?>
<svg width="57px" height="52px" viewBox="0 0 57 52" version="1.1" xmlns="http://www.w3.org/2000/svg" xmlns:xlink="http://www.w3.org/1999/xlink">
    <title>asana</title>
    <defs>
        <path d="M43.6650492,27.1585206 C50.367062,27.1585206 55.8,32.5623764 55.8,39.2283833 C55.8,45.8950326 50.367062,51.3 43.6650492,51.3 C36.9619157,51.3 31.5289154,45.8950326 31.5289154,39.2283833 C31.5289154,32.5623764 36.9619157,27.1585206 43.6650492,27.1585206 Z M12.1351109,27.1591088 L12.3796103,27.161512 C18.969807,27.2910824 24.2716726,32.6436228 24.2716726,39.2289716 C24.2716726,45.8950326 18.8380887,51.2994126 12.1355389,51.2994126 C5.43352756,51.2994126 0,45.8950326 0,39.2289716 C0,32.5623764 5.43352756,27.1596971 12.1355389,27.1591088 L12.1351109,27.1591088 Z M27.9005625,0 C34.6025676,0 40.0349764,5.40438219 40.0349764,12.0704433 L40.0355678,12.0704433 C40.0355678,18.7365043 34.6026376,24.1420631 27.9006248,24.1420631 C21.1974757,24.1420631 15.764491,18.7365043 15.764491,12.0704433 C15.764491,5.40438219 21.1974757,0 27.9005625,0 Z" id="path-1"></path>
        <radialGradient cx="49.9518458%" cy="54.6148394%" fx="49.9518458%" fy="54.6148394%" r="71.9124592%" gradientTransform="translate(0.499518,0.546148),scale(0.919194,1.000000),translate(-0.499518,-0.546148)" id="radialGradient-3">
            <stop stop-color="#FFB900" offset="0%"></stop>
            <stop stop-color="#F95354" offset="100%"></stop>
        </radialGradient>
    </defs>
    <g id="Page-1" stroke="none" stroke-width="1" fill="none" fill-rule="evenodd">
        <g id="Artboard" transform="translate(-64.000000, -506.000000)">
            <g id="asana" transform="translate(64.800000, 506.700000)">
                <mask id="mask-2" fill="white">
                    <use xlink:href="#path-1"></use>
                </mask>
                <g id="Clip-2"></g>
                <polygon id="Fill-1" fill="url(#radialGradient-3)" mask="url(#mask-2)" points="-0.0213185998 51.3936228 55.8902802 51.3936228 55.8902802 0 -0.0213185998 0"></polygon>
            </g>
        </g>
    </g>
</svg>