<?xml version="1.0" encoding="UTF-8"?>
<svg width="46px" height="28px" viewBox="0 0 46 28" version="1.1" xmlns="http://www.w3.org/2000/svg" xmlns:xlink="http://www.w3.org/1999/xlink">
    <title>aws-2</title>
    <g id="Page-1" stroke="none" stroke-width="1" fill="none" fill-rule="evenodd">
        <g id="aws-2">
            <path d="M12.96325,10.1690768 C12.96325,10.7452725 13.0244465,11.2124583 13.1315403,11.5550612 C13.2539332,11.8976641 13.4069244,12.2714127 13.621112,12.676307 C13.6976076,12.8008899 13.7282058,12.9254727 13.7282058,13.0344828 C13.7282058,13.1902113 13.6364111,13.3459399 13.4375226,13.5016685 L12.4736783,14.1557286 C12.3359862,14.2491657 12.1982942,14.2958843 12.0759013,14.2958843 C11.9229101,14.2958843 11.7699189,14.21802 11.6169278,14.0778643 C11.4027401,13.8442714 11.2191507,13.5951057 11.0661596,13.3459399 C10.9131684,13.0812013 10.7601772,12.785317 10.5918869,12.4271413 C9.39855586,13.8598443 7.89924244,14.5761958 6.0939467,14.5761958 C4.80882091,14.5761958 3.7837801,14.2024472 3.03412339,13.4549499 C2.28446669,12.7074527 1.90198877,11.7107898 1.90198877,10.4649611 C1.90198877,9.14126808 2.36096227,8.06674082 3.29420838,7.25695217 C4.22745448,6.44716352 5.46668292,6.04226919 7.04249192,6.04226919 C7.56266188,6.04226919 8.09813096,6.08898776 8.66419827,6.16685206 C9.23026558,6.24471635 9.81163201,6.36929922 10.4235967,6.50945495 L10.4235967,5.37263626 C10.4235967,4.189099 10.1788108,3.36373749 9.70453819,2.88097887 C9.21496646,2.39822024 8.38881417,2.16462736 7.2107822,2.16462736 C6.67531312,2.16462736 6.12454493,2.2269188 5.55847762,2.36707453 C4.99241031,2.50723026 4.44164211,2.6785317 3.90617304,2.89655172 C3.66138717,3.00556174 3.47779777,3.06785317 3.37070396,3.09899889 C3.26361014,3.13014461 3.18711456,3.14571746 3.12591809,3.14571746 C2.91173046,3.14571746 2.80463665,2.98998888 2.80463665,2.66295884 L2.80463665,1.89988877 C2.80463665,1.65072303 2.83523488,1.46384872 2.91173046,1.35483871 C2.98822605,1.2458287 3.12591809,1.13681869 3.34010572,1.02780868 C3.8755748,0.747497219 4.5181377,0.513904338 5.2677944,0.327030033 C6.01745111,0.12458287 6.81300517,0.0311457175 7.65445658,0.0311457175 C9.47505144,0.0311457175 10.8060746,0.451612903 11.6628251,1.29254727 C12.5042765,2.13348165 12.9326518,3.41045606 12.9326518,5.12347052 L12.9326518,10.1690768 L12.96325,10.1690768 Z M6.75180871,12.5361513 C7.25667955,12.5361513 7.77684951,12.4427141 8.32761771,12.2558398 C8.8783859,12.0689655 9.36795763,11.7263626 9.78103377,11.2591769 C10.0258196,10.9632925 10.209409,10.6362625 10.3012037,10.2625139 C10.3929984,9.88876529 10.4541949,9.43715239 10.4541949,8.90767519 L10.4541949,8.25361513 C10.0105205,8.14460512 9.53624791,8.05116796 9.04667618,7.98887653 C8.55710445,7.92658509 8.08283184,7.89543938 7.60855923,7.89543938 C6.58351842,7.89543938 5.83386172,8.09788654 5.32899087,8.51835373 C4.82412003,8.93882091 4.57933416,9.53058954 4.57933416,10.3092325 C4.57933416,11.0411568 4.76292356,11.5862069 5.14540147,11.9599555 C5.51258027,12.349277 6.04804935,12.5361513 6.75180871,12.5361513 L6.75180871,12.5361513 Z M19.0369993,14.21802 C18.7616152,14.21802 18.5780258,14.1713014 18.4556328,14.0622914 C18.3332399,13.9688543 18.2261461,13.7508343 18.1343514,13.4549499 L14.539059,1.41713014 C14.4472643,1.10567297 14.401367,0.903225806 14.401367,0.794215795 C14.401367,0.545050056 14.5237599,0.404894327 14.7685458,0.404894327 L16.2678592,0.404894327 C16.5585424,0.404894327 16.7574309,0.451612903 16.8645247,0.560622914 C16.9869176,0.654060067 17.0787123,0.872080089 17.170507,1.1679644 L19.7407586,11.4771969 L22.1274208,1.1679644 C22.2039164,0.85650723 22.2957111,0.654060067 22.418104,0.560622914 C22.5404969,0.467185762 22.7546846,0.404894327 23.0300687,0.404894327 L24.253998,0.404894327 C24.5446812,0.404894327 24.7435697,0.451612903 24.8659627,0.560622914 C24.9883556,0.654060067 25.0954494,0.872080089 25.1566459,1.1679644 L27.5739063,11.6017798 L30.2206534,1.1679644 C30.3124481,0.85650723 30.4195419,0.654060067 30.5266358,0.560622914 C30.6490287,0.467185762 30.8479172,0.404894327 31.1233013,0.404894327 L32.5461191,0.404894327 C32.790905,0.404894327 32.928597,0.529477197 32.928597,0.794215795 C32.928597,0.872080089 32.9132979,0.949944383 32.8979988,1.04338154 C32.8826997,1.13681869 32.8521015,1.26140156 32.790905,1.432703 L29.1038179,13.4705228 C29.0120232,13.78198 28.9049294,13.9844271 28.7825365,14.0778643 C28.6601435,14.1713014 28.461255,14.2335929 28.20117,14.2335929 L26.885446,14.2335929 C26.5947628,14.2335929 26.3958743,14.1868743 26.2734814,14.0778643 C26.1510884,13.9688543 26.0439946,13.7664071 25.9827982,13.4549499 L23.6114351,3.41045606 L21.2553712,13.4393771 C21.1788756,13.7508343 21.0870809,13.9532814 20.9646879,14.0622914 C20.842295,14.1713014 20.6281074,14.21802 20.3527233,14.21802 L19.0369993,14.21802 Z M38.696364,14.6384872 C37.9008099,14.6384872 37.1052559,14.5450501 36.3403,14.3581758 C35.5753442,14.1713014 34.9786787,13.9688543 34.5809016,13.7352614 C34.3361158,13.5951057 34.1678255,13.4393771 34.106629,13.2992214 C34.0454326,13.1590656 34.0148343,13.003337 34.0148343,12.8631813 L34.0148343,12.0689655 C34.0148343,11.7419355 34.1372273,11.5862069 34.366714,11.5862069 C34.4585087,11.5862069 34.5503034,11.6017798 34.6420981,11.6329255 C34.7338928,11.6640712 34.8715848,11.7263626 35.024576,11.7886541 C35.544746,12.0222469 36.1108133,12.2091212 36.7074788,12.3337041 C37.3194435,12.458287 37.916109,12.5205784 38.5280737,12.5205784 C39.491918,12.5205784 40.2415747,12.349277 40.7617447,12.0066741 C41.2819147,11.6640712 41.5572988,11.1657397 41.5572988,10.5272525 C41.5572988,10.0912125 41.4196067,9.73303671 41.1442226,9.43715239 C40.8688385,9.14126808 40.3486686,8.87652948 39.5990118,8.62736374 L37.38064,7.92658509 C36.2638044,7.56840934 35.4376522,7.03893215 34.9327813,6.3381535 C34.4279105,5.65294772 34.1678255,4.88987764 34.1678255,4.08008899 C34.1678255,3.42602892 34.3055175,2.84983315 34.5809016,2.35150167 C34.8562857,1.85317019 35.2234645,1.41713014 35.682438,1.07452725 C36.1414115,0.716351502 36.6615815,0.451612903 37.2735461,0.264738598 C37.8855108,0.0778642937 38.5280737,0 39.2012348,0 C39.5378154,0 39.8896951,0.0155728587 40.2262756,0.0622914349 C40.5781553,0.109010011 40.8994367,0.171301446 41.2207182,0.233592881 C41.5267005,0.311457175 41.8173837,0.389321468 42.0927678,0.482758621 C42.3681519,0.576195773 42.5823396,0.669632925 42.7353307,0.763070078 C42.9495184,0.887652948 43.1025095,1.01223582 43.1943042,1.15239155 C43.2860989,1.27697442 43.3319963,1.44827586 43.3319963,1.66629588 L43.3319963,2.39822024 C43.3319963,2.72525028 43.2096033,2.89655172 42.9801166,2.89655172 C42.8577237,2.89655172 42.6588351,2.83426029 42.3987502,2.70967742 C41.5267005,2.30478309 40.5475571,2.10233593 39.4613198,2.10233593 C38.5892702,2.10233593 37.9008099,2.24249166 37.4265373,2.53837597 C36.9522647,2.83426029 36.7074788,3.28587319 36.7074788,3.9243604 C36.7074788,4.36040044 36.86047,4.73414905 37.1664523,5.03003337 C37.4724347,5.32591769 38.038502,5.621802 38.8493551,5.8865406 L41.0218297,6.58731924 C42.1233661,6.94549499 42.9189201,7.44382647 43.3931927,8.08231368 C43.8674654,8.72080089 44.0969521,9.45272525 44.0969521,10.2625139 C44.0969521,10.9321468 43.9592601,11.5394883 43.6991751,12.0689655 C43.423791,12.5984427 43.0566122,13.0656285 42.5823396,13.4393771 C42.108067,13.8286986 41.5419996,14.10901 40.8841376,14.3114572 C40.1956774,14.5294772 39.4766189,14.6384872 38.696364,14.6384872 L38.696364,14.6384872 Z" id="Shape" fill="#252F3E" fill-rule="nonzero"></path>
            <g id="Group" transform="translate(0.000000, 17.455967)" fill="#FF9900">
                <path d="M41.587897,4.75092938 C36.5544877,8.53513405 29.24151,10.5440328 22.9535731,10.5440328 C14.141282,10.5440328 6.20104051,7.22701392 0.203786841,1.71422193 C-0.270485771,1.27818188 0.157889491,0.686413253 0.723956802,1.02901615 C7.2107822,4.85993939 15.2122201,7.18029534 23.4890422,7.18029534 C29.0732197,7.18029534 35.2081654,5.99675808 40.8535394,3.56739212 C41.6949908,3.17807065 42.4140493,4.12801503 41.587897,4.75092938 L41.587897,4.75092938 Z" id="Path"></path>
                <path d="M43.683876,2.32156342 C43.0413131,1.48062905 39.4307216,1.91666909 37.7937161,2.11911626 C37.3041444,2.18140769 37.2276488,1.74536765 37.6713232,1.41833761 C40.5475571,-0.637279739 45.2749841,-0.0455111074 45.8257523,0.639694677 C46.3765205,1.34047332 45.6727611,6.15248667 42.9801166,8.45726976 C42.5670404,8.81544551 42.1692634,8.62857121 42.3528528,8.16138544 C42.9648175,6.61967243 44.3264388,3.14692493 43.683876,2.32156342 L43.683876,2.32156342 Z" id="Path"></path>
            </g>
        </g>
    </g>
</svg>