<?xml version="1.0" encoding="UTF-8"?>
<svg width="65px" height="51px" viewBox="0 0 65 51" version="1.1" xmlns="http://www.w3.org/2000/svg" xmlns:xlink="http://www.w3.org/1999/xlink">
    <title>aws</title>
    <defs>
        <path d="M9.84216535,35.2800196 L18.2107845,38.6266458 L18.2107845,50.4 L9.64601548,46.6200057 L9.84216535,35.2800196 Z M27.4444641,35.2800196 L27.4444641,46.1866374 L19.7044398,49.3366333 L19.7044398,38.2334427 L27.4444641,35.2800196 Z M18.643338,32.130026 L24.4973608,34.6500224 L18.2108388,36.9735027 L12.7893308,34.6500224 L18.643338,32.130026 Z M0.196152301,19.1104527 L8.5647713,22.4570167 L8.5647713,34.2304933 L0,30.4505026 L0.196152301,19.1104527 Z M19.0556871,18.6921672 L27.4242985,22.0399671 L27.4242985,33.8121378 L18.8595372,30.0321471 L19.0556871,18.6921672 Z M17.7984432,19.1104527 L17.7984432,30.0170137 L10.0584731,33.1670073 L10.0584731,22.0638835 L17.7984432,19.1104527 Z M36.6579704,18.6921672 L36.6579704,29.5987204 L28.9180081,32.748714 L28.9180081,21.6455824 L36.6579704,18.6921672 Z M8.99727052,15.9604591 L14.8512855,18.4804633 L8.5647713,20.8039436 L3.14325629,18.4804633 L8.99727052,15.9604591 Z M27.8568598,15.5421114 L33.710867,18.0621078 L27.4243605,20.3855881 L22.0028447,18.0621078 L27.8568598,15.5421114 Z M46.297709,3.14999356 L54.6663824,6.49781678 L54.6663824,18.2699797 L46.1016134,14.489989 L46.297709,3.14999356 Z M44.8506519,3.97781261 L44.8506519,14.9247681 L37.9354342,18.0747617 L37.9354342,6.93129008 L44.8506519,3.97781261 Z M63.9,3.14999356 L63.9,14.0565624 L56.1600377,17.2065559 L56.1600377,6.1034244 L63.9,3.14999356 Z M28.5056125,3.34786986 L36.0494171,6.49781678 L35.8130755,16.8147052 L28.5056125,14.6878576 L28.5056125,3.34786986 Z M36.678074,0 L42.5320347,2.52006636 L36.2455127,4.84348449 L30.783813,2.52006636 L36.678074,0 Z M55.0988739,0 L60.9528889,2.52000418 L54.6664367,4.84343009 L49.2449287,2.52000418 L55.0988739,0 Z" id="path-1"></path>
    </defs>
    <g id="Page-1" stroke="none" stroke-width="1" fill="none" fill-rule="evenodd">
        <g id="Artboard" transform="translate(-748.000000, -358.000000)">
            <g id="aws" transform="translate(748.800000, 358.200000)">
                <mask id="mask-2" fill="white">
                    <use xlink:href="#path-1"></use>
                </mask>
                <g id="Clip-2"></g>
                <polygon id="Fill-1" fill="#F7A80D" mask="url(#mask-2)" points="-0.638999954 51.0403703 64.5389968 51.0403703 64.5389968 -0.640367281 -0.638999954 -0.640367281"></polygon>
            </g>
        </g>
    </g>
</svg>