<?xml version="1.0" encoding="UTF-8"?>
<svg width="31px" height="44px" viewBox="0 0 31 44" version="1.1" xmlns="http://www.w3.org/2000/svg" xmlns:xlink="http://www.w3.org/1999/xlink">
    <title>CSS3_logo_and_wordmark</title>
    <g id="Page-1" stroke="none" stroke-width="1" fill="none" fill-rule="evenodd">
        <g id="CSS3_logo_and_wordmark" fill-rule="nonzero">
            <polygon id="polygon2989" fill="#1572B6" points="31 8.64703125 28.1758203 40.4610078 15.4810274 44 2.82118853 40.4659922 0 8.64703125"></polygon>
            <polygon id="polygon2991" fill="#33A9DC" points="25.7580128 38.4352031 28.1714617 11.2487031 15.5 11.2487031 15.5 41.2949453"></polygon>
            <polygon id="polygon2993" fill="#EBEBEB" points="6.46751338 23.0498984 6.81534403 26.9523203 15.5 26.9523203 15.5 23.0498984"></polygon>
            <polygon id="polygon2995" fill="#EBEBEB" points="15.5 15.1512109 15.4865825 15.1512109 5.76860454 15.1512109 6.12139198 19.0537187 15.5 19.0537187"></polygon>
            <polygon id="polygon2997" fill="#EBEBEB" points="15.5 37.2452266 15.5 33.1850234 15.482993 33.1895781 11.1608341 32.0160156 10.8845352 28.9036172 8.78430475 28.9036172 6.98874657 28.9036172 7.53245629 35.0310469 15.4821384 37.2502109"></polygon>
            <polygon id="path2999" fill="#FFFFFF" points="7.29564088 0 11.996055 0 11.996055 1.9765625 9.26126859 1.9765625 9.26126859 3.953125 11.996055 3.953125 11.996055 5.9296875 7.29564088 5.9296875"></polygon>
            <polygon id="path3001" fill="#FFFFFF" points="12.9361378 0 17.6365519 0 17.6365519 1.71875 14.9017655 1.71875 14.9017655 2.0625 17.6365519 2.0625 17.6365519 6.015625 12.9361378 6.015625 12.9361378 4.2109375 15.6709241 4.2109375 15.6709241 3.8671875 12.9361378 3.8671875"></polygon>
            <polygon id="path3003" fill="#FFFFFF" points="18.5766347 0 23.2770487 0 23.2770487 1.71875 20.5422624 1.71875 20.5422624 2.0625 23.2770487 2.0625 23.2770487 6.015625 18.5766347 6.015625 18.5766347 4.2109375 21.311421 4.2109375 21.311421 3.8671875 18.5766347 3.8671875"></polygon>
            <polygon id="polygon3005" fill="#FFFFFF" points="20.2654507 26.9523203 19.8149801 32.0135234 15.4865825 33.1882891 15.4865825 37.2483203 23.4425888 35.0310469 23.5009594 34.3717344 24.4129252 24.0978203 24.5076172 23.0498984 25.2082352 15.1512109 15.4865825 15.1512109 15.4865825 19.0537187 20.9551297 19.0537187 20.6020004 23.0498984 15.4865825 23.0498984 15.4865825 26.9523203"></polygon>
        </g>
    </g>
</svg>