<?xml version="1.0" encoding="UTF-8"?>
<svg width="63px" height="46px" viewBox="0 0 63 46" version="1.1" xmlns="http://www.w3.org/2000/svg" xmlns:xlink="http://www.w3.org/1999/xlink">
    <title>docker</title>
    <g id="Page-1" stroke="none" stroke-width="1" fill="none" fill-rule="evenodd">
        <g id="Artboard" transform="translate(-755.000000, -508.000000)" fill="#0091E2" fill-rule="nonzero">
            <g id="docker" transform="translate(755.100000, 508.500000)">
                <path d="M61.4893157,17.0168067 C61.3165226,16.8713639 59.7613844,15.678733 56.4207171,15.678733 C55.5567514,15.678733 54.6639869,15.7659987 53.8000212,15.9114415 C53.1664464,11.460892 49.5089917,9.30833872 49.3649975,9.19198449 L48.4722329,8.66839043 L47.8962558,9.51195863 C47.1762844,10.6464124 46.6291062,11.926309 46.3123187,13.2352941 C45.7075428,15.7659987 46.0819279,18.1512605 47.3490776,20.1874596 C45.8227382,21.0601164 43.3460366,21.2637363 42.8276572,21.2928248 L1.93328208,21.2928248 C0.867724415,21.2928248 0.00375874281,22.1654816 0.00375874281,23.2417582 C-0.0538389686,26.8487395 0.550937002,30.4557207 1.7892878,33.8590821 C3.20043173,37.5824176 5.3027482,40.3458306 8.00984063,42.032967 C11.0625193,43.9237233 16.0447214,45 21.6604982,45 C24.1947976,45 26.7290969,44.7672915 29.2345973,44.3018746 C32.7192588,43.6619263 36.0599261,42.4402069 39.1414037,40.6658048 C41.675703,39.1822883 43.9508126,37.291532 45.8803359,35.0808016 C49.1346066,31.3865546 51.0641299,27.2559793 52.4752739,23.5908209 L53.051251,23.5908209 C56.5935102,23.5908209 58.7822233,22.1654816 59.9917752,20.9437621 C60.7981432,20.1874596 61.4029191,19.2566257 61.834902,18.2094376 L62.0940917,17.4531351 L61.4893157,17.0168067 Z" id="Shape"></path>
                <path d="M5.73473103,20.1001939 L11.2065136,20.1001939 C11.4657033,20.1001939 11.6960942,19.896574 11.6960942,19.6056884 L11.6960942,14.6606335 C11.6960942,14.3988365 11.4945022,14.166128 11.2065136,14.166128 L5.73473103,14.166128 C5.47554133,14.166128 5.24515048,14.3697479 5.24515048,14.6606335 L5.24515048,19.6056884 C5.27394934,19.896574 5.47554133,20.1001939 5.73473103,20.1001939 Z M13.2800312,20.1001939 L18.7518138,20.1001939 C19.0110035,20.1001939 19.2413944,19.896574 19.2413944,19.6056884 L19.2413944,14.6606335 C19.2413944,14.3988365 19.0398024,14.166128 18.7518138,14.166128 L13.2800312,14.166128 C13.0208415,14.166128 12.7904507,14.3697479 12.7904507,14.6606335 L12.7904507,19.6056884 C12.8192495,19.896574 13.0208415,20.1001939 13.2800312,20.1001939 M20.9693257,20.1001939 L26.4411083,20.1001939 C26.700298,20.1001939 26.9306888,19.896574 26.9306888,19.6056884 L26.9306888,14.6606335 C26.9306888,14.3988365 26.7290969,14.166128 26.4411083,14.166128 L20.9693257,14.166128 C20.710136,14.166128 20.4797452,14.3697479 20.4797452,14.6606335 L20.4797452,19.6056884 C20.4797452,19.896574 20.6813372,20.1001939 20.9693257,20.1001939 Z M28.5434248,20.1001939 L34.0152074,20.1001939 C34.2743971,20.1001939 34.5047879,19.896574 34.5047879,19.6056884 L34.5047879,14.6606335 C34.5047879,14.3988365 34.3031959,14.166128 34.0152074,14.166128 L28.5434248,14.166128 C28.2842351,14.166128 28.0538442,14.3697479 28.0538442,14.6606335 L28.0538442,19.6056884 C28.0538442,19.896574 28.2842351,20.1001939 28.5434248,20.1001939 Z M13.2800312,13.0316742 L18.7518138,13.0316742 C19.0110035,13.0316742 19.2413944,12.7989657 19.2413944,12.5371687 L19.2413944,7.59211377 C19.2413944,7.33031674 19.0398024,7.09760827 18.7518138,7.09760827 L13.2800312,7.09760827 C13.0208415,7.09760827 12.7904507,7.30122818 12.7904507,7.59211377 L12.7904507,12.5371687 C12.8192495,12.7989657 13.0208415,13.0316742 13.2800312,13.0316742 M20.9693257,13.0316742 L26.4411083,13.0316742 C26.700298,13.0316742 26.9306888,12.7989657 26.9306888,12.5371687 L26.9306888,7.59211377 C26.9306888,7.33031674 26.7290969,7.09760827 26.4411083,7.09760827 L20.9693257,7.09760827 C20.710136,7.09760827 20.4797452,7.30122818 20.4797452,7.59211377 L20.4797452,12.5371687 C20.4797452,12.7989657 20.6813372,13.0316742 20.9693257,13.0316742 M28.5434248,13.0316742 L34.0152074,13.0316742 C34.2743971,13.0316742 34.5047879,12.7989657 34.5047879,12.5371687 L34.5047879,7.59211377 C34.5047879,7.33031674 34.2743971,7.09760827 34.0152074,7.09760827 L28.5434248,7.09760827 C28.2842351,7.09760827 28.0538442,7.30122818 28.0538442,7.59211377 L28.0538442,12.5371687 C28.0538442,12.7989657 28.2842351,13.0316742 28.5434248,13.0316742 M28.5434248,5.93406593 L34.0152074,5.93406593 C34.2743971,5.93406593 34.5047879,5.73044602 34.5047879,5.43956044 L34.5047879,0.494505495 C34.5047879,0.232708468 34.2743971,0 34.0152074,0 L28.5434248,0 C28.2842351,0 28.0538442,0.20361991 28.0538442,0.494505495 L28.0538442,5.43956044 C28.0538442,5.70135747 28.2842351,5.93406593 28.5434248,5.93406593 M36.1751215,20.1001939 L41.6469041,20.1001939 C41.9060938,20.1001939 42.1364847,19.896574 42.1364847,19.6056884 L42.1364847,14.6606335 C42.1364847,14.3988365 41.9348927,14.166128 41.6469041,14.166128 L36.1751215,14.166128 C35.9159318,14.166128 35.685541,14.3697479 35.685541,14.6606335 L35.685541,19.6056884 C35.7143398,19.896574 35.9159318,20.1001939 36.1751215,20.1001939" id="Shape"></path>
            </g>
        </g>
    </g>
</svg>