<?xml version="1.0" encoding="UTF-8"?>
<svg width="29px" height="44px" viewBox="0 0 29 44" version="1.1" xmlns="http://www.w3.org/2000/svg" xmlns:xlink="http://www.w3.org/1999/xlink">
    <title>figma-1 (1)</title>
    <g id="Page-1" stroke="none" stroke-width="1" fill="none" fill-rule="evenodd">
        <g id="figma-1-(1)" fill-rule="nonzero">
            <path d="M7.25,44 C11.252,44 14.5,40.7146667 14.5,36.6666667 L14.5,29.3333333 L7.25,29.3333333 C3.248,29.3333333 0,32.6186667 0,36.6666667 C0,40.7146667 3.248,44 7.25,44 Z" id="Path" fill="#0ACF83"></path>
            <path d="M0,22 C0,17.952 3.248,14.6666667 7.25,14.6666667 L14.5,14.6666667 L14.5,29.3333333 L7.25,29.3333333 C3.248,29.3333333 0,26.048 0,22 Z" id="Path" fill="#A259FF"></path>
            <path d="M0,7.33333333 C0,3.28533333 3.248,0 7.25,0 L14.5,0 L14.5,14.6666667 L7.25,14.6666667 C3.248,14.6666667 0,11.3813333 0,7.33333333 Z" id="Path" fill="#F24E1E"></path>
            <path d="M14.5,0 L21.75,0 C25.752,0 29,3.28533333 29,7.33333333 C29,11.3813333 25.752,14.6666667 21.75,14.6666667 L14.5,14.6666667 L14.5,0 Z" id="Path" fill="#FF7262"></path>
            <path d="M29,22 C29,26.048 25.752,29.3333333 21.75,29.3333333 C17.748,29.3333333 14.5,26.048 14.5,22 C14.5,17.952 17.748,14.6666667 21.75,14.6666667 C25.752,14.6666667 29,17.952 29,22 Z" id="Path" fill="#1ABCFE"></path>
        </g>
    </g>
</svg>