<?xml version="1.0" encoding="UTF-8"?>
<svg width="53px" height="51px" viewBox="0 0 53 51" version="1.1" xmlns="http://www.w3.org/2000/svg" xmlns:xlink="http://www.w3.org/1999/xlink">
    <title>github</title>
    <g id="Page-1" stroke="none" stroke-width="1" fill="none" fill-rule="evenodd">
        <g id="Artboard" transform="translate(-411.000000, -358.000000)" fill="#FFFFFF" fill-rule="nonzero">
            <g id="github" transform="translate(411.300000, 358.200000)">
                <path d="M26.1001023,0 C11.6872699,0 0,11.5678409 0,25.8379182 C0,37.2539799 7.47846076,46.9390704 17.8489042,50.3556211 C19.153244,50.5947391 19.6322389,49.7951123 19.6322389,49.1126127 C19.6322389,48.4965798 19.6078797,46.461037 19.596826,44.302085 C12.3355505,45.8650657 10.8033811,41.2535328 10.8033811,41.2535328 C9.61612884,38.2669892 7.90546216,37.4730364 7.90546216,37.4730364 C5.53750809,35.8693245 8.08395939,35.9021525 8.08395939,35.9021525 C10.704921,36.0845307 12.0849994,38.5648736 12.0849994,38.5648736 C14.4128325,42.5149817 18.1907509,41.3728892 19.6801383,40.7128829 C19.9143136,39.0427043 20.5908427,37.9030435 21.337174,37.2578301 C15.540108,36.6043084 9.44581956,34.3888192 9.44581956,24.4885225 C9.44581956,21.6677404 10.4654236,19.3626832 12.1351505,17.5532893 C11.8641295,16.9024019 10.9708246,14.2745354 12.3879534,10.715527 C12.3879534,10.715527 14.5796619,10.0210716 19.5673494,13.3640631 C21.6491347,12.7913957 23.8819877,12.5044541 26.1001023,12.4947272 C28.318217,12.5044541 30.5527076,12.7913957 32.6385869,13.3640631 C37.6203381,10.0210716 39.8089762,10.715527 39.8089762,10.715527 C41.2295848,14.2745354 40.3358705,16.9024019 40.0648495,17.5532893 C41.738261,19.3626832 42.7509053,21.6675377 42.7509053,24.4885225 C42.7509053,34.4123257 36.6451537,36.5976212 30.8333494,37.2371606 C31.7694364,38.0390166 32.6035834,39.6115215 32.6035834,42.0219528 C32.6035834,45.479032 32.573288,48.2615146 32.573288,49.1126127 C32.573288,49.8001783 33.0430714,50.6058845 34.3662435,50.3521762 C44.7309554,46.9317753 52.2,37.2501297 52.2,25.8379182 C52.2,11.5678409 40.5143677,0 26.1001023,0" id="Path"></path>
                <path d="M9.7753844,36.8067482 C9.71806877,36.9350208 9.51377951,36.9735229 9.32811783,36.8855761 C9.13877157,36.8012768 9.03232827,36.6261938 9.09373787,36.4973132 C9.15003,36.3651904 9.35431926,36.3283095 9.54325612,36.4170669 C9.73301178,36.5011634 9.84109267,36.6778676 9.7753844,36.8067482 M11.0592544,37.940735 C10.9347976,38.0550253 10.6914109,38.001933 10.5262191,37.8213786 C10.3555004,37.6412295 10.3235674,37.4004904 10.4498665,37.2843763 C10.5782125,37.1702886 10.8142301,37.2235836 10.9853582,37.4039353 C11.1560768,37.5861108 11.189238,37.8254315 11.0590497,37.9409376 M11.9400727,39.3916545 C11.7799984,39.5016893 11.5183935,39.3985444 11.3568862,39.1687479 C11.1970166,38.9391541 11.1970166,38.6635604 11.3603661,38.5531203 C11.5224874,38.4426802 11.7799984,38.541975 11.9437573,38.7699477 C12.1034222,39.0035943 12.1034222,39.279188 11.939868,39.3918572 M13.4294601,41.0721679 C13.2863758,41.2282025 12.9817842,41.1864582 12.7586626,40.9732784 C12.5306283,40.764962 12.466967,40.4693068 12.6104608,40.3130695 C12.7551828,40.1566295 13.0616166,40.2006029 13.2863758,40.411959 C13.5129772,40.6198701 13.5821653,40.9177544 13.4296648,41.0721679 M15.3544463,41.6395666 C15.2916038,41.8418037 14.998066,41.9338033 14.7024811,41.8478829 C14.4073056,41.7593282 14.2140701,41.5222366 14.2736374,41.3177705 C14.335047,41.1141148 14.6298131,41.018265 14.9276496,41.1102646 C15.2224157,41.1984141 15.4160606,41.4336819 15.354651,41.6395666 M17.5455407,41.8801031 C17.5529099,42.0932829 17.302154,42.269987 16.9918309,42.2738373 C16.6796654,42.2805245 16.427272,42.1080758 16.4239968,41.8985435 C16.4239968,41.6833373 16.6690211,41.5082543 16.9809818,41.5031882 C17.291305,41.497109 17.5455407,41.6683418 17.5455407,41.8801031 M19.6977424,41.7984382 C19.7349976,42.0063493 19.5192452,42.2199344 19.2111737,42.2766742 C18.9082197,42.3313877 18.6277825,42.2031151 18.5890945,41.9970277 C18.5514299,41.783848 18.7712763,41.5704655 19.0736162,41.5151441 C19.3823018,41.4620518 19.6584403,41.5870822 19.6977424,41.7984382" id="Shape"></path>
            </g>
        </g>
    </g>
</svg>