<?xml version="1.0" encoding="UTF-8"?>
<svg width="39px" height="55px" viewBox="0 0 39 55" version="1.1" xmlns="http://www.w3.org/2000/svg" xmlns:xlink="http://www.w3.org/1999/xlink">
    <title>html</title>
    <defs>
        <polygon id="path-1" points="38.7 0 35.174356 39.044456 19.3263317 43.3876943 3.52200186 39.0504541 0 0"></polygon>
        <polygon id="path-3" points="15.8187413 0 12.8059969 33.365349 0 36.8749407 0 0"></polygon>
        <path d="M6.38669471,16.877929 L6.73165374,20.6976372 L12.1273009,22.137895 L12.1485307,22.1323426 L12.1485307,27.1153305 L12.1262383,27.1213257 L2.20191841,24.3979974 L1.52321106,16.877929 L6.38669471,16.877929 Z M12.1485307,0 L12.1485307,4.78938687 L5.29475455,4.78938687 L5.73756633,9.69378487 L12.1485307,9.69378487 L12.1485307,14.4831642 L1.30673879,14.4831642 L0.115898432,1.28489377 L0,0 L12.1485307,0 Z" id="path-5"></path>
        <path d="M2.46192726,0 L2.46192726,2.40466162 L4.71420355,2.40466162 L4.71420355,0 L7.17643897,0 L7.17643897,7.28192005 L4.71435536,7.28192005 L4.71435536,4.84351594 L2.46207982,4.84351594 L2.46207982,7.28192005 L0,7.28192005 L0,0 L2.46192726,0 Z M15.0450769,0 L15.0450769,2.41486615 L12.8765363,2.41486615 L12.8765363,7.28192005 L10.4144603,7.28192005 L10.4143009,2.41486615 L8.24682299,2.41486615 L8.24682299,0 L15.0450769,0 Z M18.6911697,0 L20.2703622,2.55866759 L21.8480291,0 L24.4162995,0 L24.4162995,7.28192005 L21.9642349,7.28192005 L21.9642349,3.67260535 L20.2703622,6.26172147 L20.2278875,6.26172147 L18.5329445,3.67260535 L18.5329445,7.28192005 L16.1239619,7.28192005 L16.1239619,0 L18.6911697,0 Z M28.1044192,0 L28.1044192,4.87501494 L31.566799,4.87501494 L31.566799,7.28192005 L25.6414323,7.28192005 L25.6414323,0 L28.1044192,0 Z" id="path-7"></path>
        <path d="M11.2618559,9.69378487 L11.1436766,10.9798642 L10.005034,23.5887926 L9.93221367,24.3979974 L0,27.1190747 L0,22.1363869 L5.40353338,20.6946434 L5.9660349,14.4831642 L0.000151803834,14.4831642 L0.000151803834,9.69378487 L11.2618559,9.69378487 Z M12.1364053,0 L12.0206549,1.28489377 L11.7997803,3.71294328 L11.7026866,4.78938687 L0.000151803833,4.78938687 L0.000151803833,0 L12.1364053,0 Z" id="path-9"></path>
    </defs>
    <g id="Page-1" stroke="none" stroke-width="1" fill="none" fill-rule="evenodd">
        <g id="Artboard" transform="translate(-933.000000, -208.000000)">
            <g id="html" transform="translate(933.300000, 208.800000)">
                <g id="Group-3" transform="translate(0.000000, 10.612306)">
                    <mask id="mask-2" fill="white">
                        <use xlink:href="#path-1"></use>
                    </mask>
                    <g id="Clip-2"></g>
                    <polygon id="Fill-1" fill="#E44D26" mask="url(#mask-2)" points="-0.547588949 43.9290171 39.2475888 43.9290171 39.2475888 -0.541319472 -0.547588949 -0.541319472"></polygon>
                </g>
                <g id="Group-6" transform="translate(19.349998, 13.805170)">
                    <mask id="mask-4" fill="white">
                        <use xlink:href="#path-3"></use>
                    </mask>
                    <g id="Clip-5"></g>
                    <polygon id="Fill-4" fill="#F16529" mask="url(#mask-4)" points="-0.547586791 37.4162636 16.3663281 37.4162636 16.3663281 -0.541319922 -0.547586791 -0.541319922"></polygon>
                </g>
                <g id="Group-9" transform="translate(7.201467, 18.594700)">
                    <mask id="mask-6" fill="white">
                        <use xlink:href="#path-5"></use>
                    </mask>
                    <g id="Clip-8"></g>
                    <polygon id="Fill-7" fill="#EBEBEB" mask="url(#mask-6)" points="-0.547589068 27.6626464 12.696119 27.6626464 12.696119 -0.541328175 -0.547589068 -0.541328175"></polygon>
                </g>
                <g id="Group-12" transform="translate(3.600733, 0.000000)">
                    <mask id="mask-8" fill="white">
                        <use xlink:href="#path-7"></use>
                    </mask>
                    <g id="Clip-11"></g>
                    <polygon id="Fill-10" fill="#FFFFFF" mask="url(#mask-8)" points="-0.547740113 7.82324073 32.114388 7.82324073 32.114388 -0.541320672 -0.547740113 -0.541320672"></polygon>
                </g>
                <g id="Group-15" transform="translate(19.333155, 18.594700)">
                    <mask id="mask-10" fill="white">
                        <use xlink:href="#path-9"></use>
                    </mask>
                    <g id="Clip-14"></g>
                    <polygon id="Fill-13" fill="#FFFFFF" mask="url(#mask-10)" points="-0.547586791 27.6604029 12.6839921 27.6604029 12.6839921 -0.541320672 -0.547586791 -0.541320672"></polygon>
                </g>
            </g>
        </g>
    </g>
</svg>