<?xml version="1.0" encoding="UTF-8"?>
<svg width="31px" height="44px" viewBox="0 0 31 44" version="1.1" xmlns="http://www.w3.org/2000/svg" xmlns:xlink="http://www.w3.org/1999/xlink">
    <title>HTML5_logo_and_wordmark</title>
    <g id="Page-1" stroke="none" stroke-width="1" fill="none" fill-rule="evenodd">
        <g id="HTML5_logo_and_wordmark" fill-rule="nonzero">
            <path d="M2.88809261,0 L4.85336273,0 L4.85336273,1.959375 L6.66482911,1.959375 L6.66482911,0 L8.63009923,0 L8.63009923,5.9296875 L6.66482911,5.9296875 L6.66482911,3.953125 L4.87045204,3.953125 L4.87045204,5.9296875 L2.88809261,5.9296875 M11.2276736,1.9765625 L9.49310915,1.9765625 L9.49310915,0 L14.9360529,0 L14.9360529,1.9765625 L13.1929438,1.9765625 L13.1929438,5.9296875 L11.2276736,5.9296875 M15.7990628,0 L17.8583241,0 L19.1229327,2.08828125 L20.3875413,0 L22.4468026,0 L22.4468026,5.9296875 L20.4815325,5.9296875 L20.4815325,2.990625 L19.1058434,5.121875 L17.7301544,2.990625 L17.7301544,5.9296875 L15.7990628,5.9296875 M23.4208931,0 L25.3861632,0 L25.3861632,3.9703125 L28.17172,3.9703125 L28.17172,5.9296875 L23.4208931,5.9296875" id="Shape" fill="#FFFFFF"></path>
            <polyline id="Path" fill="#E44D26" points="2.81973539 40.4765625 0 8.6453125 31 8.6453125 28.1802646 40.459375 15.474366 44"></polyline>
            <polyline id="Path" fill="#F16529" points="15.5 41.2929688 15.5 11.2578125 28.17172 11.2578125 25.7535832 38.4140625"></polyline>
            <path d="M5.75909592,15.1507813 L15.5,15.1507813 L15.5,19.0523438 L10.014333,19.0523438 L10.3732084,23.0484375 L15.5,23.0484375 L15.5,26.9414063 L6.81863286,26.9414063 M6.98952591,28.9007812 L10.8858875,28.9007812 L11.1593164,32.0203125 L15.5,33.1890625 L15.5,37.2625 L7.53638368,35.028125" id="Shape" fill="#EBEBEB"></path>
            <path d="M25.2067255,15.1507813 L15.4829107,15.1507813 L15.4829107,19.0523438 L24.8478501,19.0523438 M24.4975193,23.0484375 L15.4829107,23.0484375 L15.4829107,26.95 L20.2679162,26.95 L19.8150496,32.0203125 L15.4829107,33.1890625 L15.4829107,37.2453125 L23.4294377,35.028125" id="Shape" fill="#FFFFFF"></path>
        </g>
    </g>
</svg>