<?xml version="1.0" encoding="UTF-8"?>
<svg width="34px" height="34px" viewBox="0 0 34 34" version="1.1" xmlns="http://www.w3.org/2000/svg" xmlns:xlink="http://www.w3.org/1999/xlink">
    <title>invision (1)</title>
    <g id="Page-1" stroke="none" stroke-width="1" fill="none" fill-rule="evenodd">
        <g id="invision-(1)" fill-rule="nonzero">
            <path d="M30.9178203,0 L3.08217969,0 C1.37992187,0 0,1.37992187 0,3.08217969 L0,30.9178203 C0,32.6200781 1.37992187,34 3.08217969,34 L30.9178203,34 C32.6200781,34 34,32.6200781 34,30.9178203 L34,3.08217969 C34,1.37992187 32.6200781,0 30.9178203,0" id="Path" fill="#DC395F"></path>
            <path d="M11.3627734,10.6973828 C12.4930078,10.6973828 13.4398281,9.81152344 13.4398281,8.65047656 C13.4398281,7.49022656 12.4930078,6.6045 11.3627734,6.6045 C10.2325391,6.6045 9.28598438,7.49022656 9.28598438,8.65047656 C9.28598438,9.81139062 10.2325391,10.6973828 11.3627734,10.6973828 M7.05619531,21.6570703 C6.93414062,22.1763672 6.87291406,22.7371016 6.87291406,23.1945078 C6.87291406,24.9969062 7.85028125,26.1934141 9.92733594,26.1934141 C11.6499141,26.1934141 13.0464375,25.1704922 14.0519609,23.5187031 L13.4379687,25.9827734 L16.8585547,25.9827734 L18.8135547,18.1416562 C19.3023047,16.156375 20.249125,15.1258828 21.6848281,15.1258828 C22.8149297,15.1258828 23.517375,15.8287266 23.517375,16.9889766 C23.517375,17.325125 23.4868281,17.6912891 23.3646406,18.0885312 L22.3565937,21.6926641 C22.2038594,22.2119609 22.1430312,22.7315234 22.1430312,23.219875 C22.1430312,24.9308984 23.1506797,26.1823906 25.2582812,26.1823906 C27.0604141,26.1823906 28.4958516,25.0222734 29.2900703,22.2426406 L27.9462734,21.723875 C27.2742422,23.5860391 26.6938516,23.9227187 26.2356484,23.9227187 C25.7774453,23.9227187 25.5330703,23.6175156 25.5330703,23.0069766 C25.5330703,22.7320547 25.5944297,22.4269844 25.6858047,22.059625 L26.6634375,18.5483281 C26.9076797,17.7238281 26.9994531,16.9926953 26.9994531,16.3209297 C26.9994531,13.6941641 25.4110156,12.3232734 23.4868281,12.3232734 C21.6848281,12.3232734 19.8520156,13.9487656 18.935875,15.6595234 L19.6076406,12.5888984 L14.3849219,12.5888984 L13.6517969,15.2934922 L16.0954141,15.2934922 L14.5906484,21.3178672 C13.4090156,23.9446328 11.2384609,23.9872656 10.9660625,23.9263047 C10.51875,23.8253672 10.2326719,23.6555 10.2326719,23.0743125 C10.2326719,22.7389609 10.2937656,22.25725 10.4465,21.6764609 L12.7375156,12.5888984 L6.93414062,12.5888984 L6.20101562,15.2934922 L8.61382031,15.2934922 L7.05632812,21.6570703" id="Shape" fill="#FFFFFF"></path>
        </g>
    </g>
</svg>