<?xml version="1.0" encoding="UTF-8"?>
<svg width="44px" height="43px" viewBox="0 0 44 43" version="1.1" xmlns="http://www.w3.org/2000/svg" xmlns:xlink="http://www.w3.org/1999/xlink">
    <title>invision</title>
    <defs>
        <path d="M38.4654033,0 C40.5832094,0 42.3,1.71679064 42.3,3.83459673 L42.3,3.83459673 L42.3,38.4654055 C42.3,40.5832153 40.5832094,42.3 38.4654033,42.3 L38.4654033,42.3 L3.83459449,42.3 C1.71678467,42.3 0,40.5832153 0,38.4654055 L0,38.4654055 L0,3.83459673 C0,1.71679064 1.71678467,0 3.83459449,0 L3.83459449,0 L38.4654033,0 Z" id="path-1"></path>
        <path d="M21.5055893,7.11482551 C23.8995001,7.11482551 25.8757098,8.82038286 25.8757098,12.0883775 C25.8757098,12.9241382 25.7615319,13.8337593 25.4576651,14.8595375 L25.4576651,14.8595375 L24.2413689,19.2279999 C24.127684,19.6850325 24.0513588,20.0645747 24.0513588,20.4066153 C24.0513588,21.1661927 24.355375,21.5459067 24.9254426,21.5459067 C25.4954954,21.5459067 26.2175786,21.127033 27.0536604,18.8102839 L27.0536604,18.8102839 L28.7255104,19.4556909 C27.7373981,22.9138824 25.951542,24.3572049 23.70949,24.3572049 C21.0873803,24.3572049 19.8337468,22.8001975 19.8337468,20.6714867 C19.8337468,20.0639174 19.9094297,19.4175171 20.0994398,18.7714528 L20.0994398,18.7714528 L21.3535663,14.2874906 C21.5055893,13.7932701 21.5435913,13.3377164 21.5435913,12.9195074 C21.5435913,11.4760281 20.6696568,10.6016007 19.263694,10.6016007 C17.4775019,10.6016007 16.2995438,11.883661 15.691489,14.3535759 L15.691489,14.3535759 L13.2592401,24.1088548 L9.00361863,24.1088548 L9.76749064,21.0432612 C8.51650859,23.0982833 6.77907377,24.3709178 4.63598528,24.3709178 C2.05188512,24.3709178 0.835924983,22.8823186 0.835924983,20.6399229 C0.835924983,20.0708561 0.912093344,19.3732337 1.06394458,18.7271694 L1.0641089,18.7271694 L3.00181617,10.8101263 L0,10.8101263 L0.912093344,7.44529672 L8.13217878,7.44529672 L5.28188522,18.7512941 C5.09186017,19.4738629 5.01585612,20.0731715 5.01585612,20.4903871 C5.01585612,21.2134562 5.37177404,21.4247902 5.9282781,21.5503656 C6.26717428,21.6262054 8.96760335,21.5731684 10.4376945,18.3051588 L10.4376945,18.3051588 L12.3097945,10.8101263 L9.26965519,10.8101263 L10.1817485,7.44529672 L16.6794146,7.44529672 L15.8436689,11.2655232 C16.9834532,9.13714106 19.263694,7.11482551 21.5055893,7.11482551 Z M6.42183384,0 C7.82798335,0 9.005934,1.10195408 9.005934,2.5454334 C9.005934,3.98992103 7.82798335,5.09202448 6.42183384,5.09202448 C5.01569181,5.09202448 3.83806979,3.98975671 3.83806979,2.5454334 C3.83806979,1.10195408 5.01569181,0 6.42183384,0 Z" id="path-3"></path>
    </defs>
    <g id="Page-1" stroke="none" stroke-width="1" fill="none" fill-rule="evenodd">
        <g id="Artboard" transform="translate(-415.000000, -72.000000)">
            <g id="invision" transform="translate(415.800000, 72.000000)">
                <g id="Group-3">
                    <mask id="mask-2" fill="white">
                        <use xlink:href="#path-1"></use>
                    </mask>
                    <g id="Clip-2"></g>
                    <polygon id="Fill-1" fill="#DC395F" mask="url(#mask-2)" points="-0.845999851 43.1459999 43.1460013 43.1459999 43.1460013 -0.846001344 -0.845999851 -0.846001344"></polygon>
                </g>
                <g id="Group-6" transform="translate(7.714791, 8.216772)">
                    <mask id="mask-4" fill="white">
                        <use xlink:href="#path-3"></use>
                    </mask>
                    <g id="Clip-5"></g>
                    <polygon id="Fill-4" fill="#FFFFFF" mask="url(#mask-4)" points="-0.845999104 25.2169184 29.571505 25.2169184 29.571505 -0.845993129 -0.845999104 -0.845993129"></polygon>
                </g>
            </g>
        </g>
    </g>
</svg>