<?xml version="1.0" encoding="UTF-8"?>
<svg width="45px" height="29px" viewBox="0 0 45 29" version="1.1" xmlns="http://www.w3.org/2000/svg" xmlns:xlink="http://www.w3.org/1999/xlink">
    <title>apple-ios (1)</title>
    <g id="Page-1" stroke="none" stroke-width="1" fill="none" fill-rule="evenodd">
        <g id="apple-ios-(1)" fill="#FFFFFF" fill-rule="nonzero">
            <path d="M1.57267989,2.36024774 C1.57267989,2.861695 1.27117417,3.23264868 0.753945273,3.23264868 C0.323222817,3.23264868 0,2.861695 0,2.36024774 C0,1.88006067 0.344577964,1.48748025 0.797017518,1.48748025 C1.27117417,1.48748025 1.57267989,1.88006067 1.57267989,2.36024774 Z M0.380411177,28.5817607 L0.380411177,8.52387032 L1.19226871,8.52387032 L1.19226871,28.5817607 L0.380411177,28.5817607 Z M28.1953091,14.2905138 C28.1953091,24.4030336 22.6520197,29 16.5842623,29 C10.3858405,29 5.36629506,24.0276812 5.36629506,14.7087531 C5.36629506,5.14020097 10.5606631,0 17.020776,0 C23.3498625,-0.00073311003 28.1953091,5.05552676 28.1953091,14.2905138 Z M6.18901115,14.4994502 C6.18901115,22.167048 9.85847691,28.123567 16.6226292,28.123567 C23.4338352,28.123567 27.3403793,21.9837705 27.3403793,14.4122101 C27.3403793,7.39084876 24.2102215,0.98310055 17.0674678,0.98310055 C9.92471406,0.98310055 6.18901115,7.01622954 6.18901115,14.4994502 Z M31.174895,26.408456 C32.5369191,27.327776 34.887795,28.2155723 36.9096569,28.2155723 C40.7470682,28.2155723 44.1599102,25.4968337 44.1599102,21.4951526 C44.1599102,17.7815838 41.886492,15.843974 38.0266396,14.1794476 C34.5721732,12.6897681 31.4662661,11.0728939 31.4662661,7.10310308 C31.4662661,2.96652974 34.6843782,0.0406876066 39.0582018,0.0406876066 C41.4101636,0.0406876066 43.1844506,0.709283954 44.0097003,1.29430576 L43.6817721,2.01568603 C42.9803098,1.51460532 41.0844071,0.876066485 39.0220067,0.876066485 C34.3995222,0.876066485 32.3859852,4.41332238 32.3859852,7.0173292 C32.3859852,10.613967 35.1389894,11.816634 38.6875633,13.5299122 C42.8134501,15.5771219 45,17.3824054 45,21.3107755 C45,25.5312899 42.0294629,28.9571131 36.7478645,28.9571131 C34.5605907,28.9571131 32.0439409,28.2053087 30.8060663,27.2438349 L31.174895,26.408456 Z" id="Shape"></path>
        </g>
    </g>
</svg>