<?xml version="1.0" encoding="UTF-8"?>
<svg width="57px" height="36px" viewBox="0 0 57 36" version="1.1" xmlns="http://www.w3.org/2000/svg" xmlns:xlink="http://www.w3.org/1999/xlink">
    <title>ios</title>
    <defs>
        <path d="M21.1057606,0 C28.9538285,-0.000888694502 34.9621771,6.11892978 34.9621771,17.2964466 C34.9621771,29.5360851 28.0884999,35.1 20.5644875,35.1 C12.8784396,35.1 6.65420562,29.0817791 6.65420562,17.8026653 C6.65420562,6.22141311 13.0952232,0 21.1057606,0 Z M48.4321638,0.0492459332 C51.3485932,0.0492459332 53.548709,0.858478889 54.5720273,1.56655389 L54.1653924,2.43968092 C53.2955842,1.83319289 50.9446631,1.06033512 48.3872819,1.06033512 C42.6554018,1.06033512 40.1586201,5.34164386 40.1586201,8.49338359 C40.1586201,12.846554 43.5723395,14.302205 47.9725712,16.3758587 C53.0886745,18.8536845 55.8,21.0387008 55.8,25.7933849 C55.8,30.9016638 52.1165237,35.048092 45.5673515,35.048092 C42.8551192,35.048092 39.734485,34.1381497 38.1995153,32.9744349 L38.6568681,31.963338 C40.3457743,33.0760318 43.2608706,34.1505715 45.7679757,34.1505715 C50.5263641,34.1505715 54.7582902,30.859961 54.7582902,26.0165469 C54.7582902,21.5218442 51.9392511,19.1766713 47.1530314,17.1620162 C42.8694883,15.358993 39.0181715,13.4020187 39.0181715,8.59719996 C39.0181715,3.59052498 43.0086294,0.0492459332 48.4321638,0.0492459332 Z M1.47841332,10.3168238 L1.47841332,34.5937863 L0.471709844,34.5937863 L0.471709844,10.3168238 L1.47841332,10.3168238 Z M21.1636553,1.18989299 C12.3066459,1.18989299 7.67437345,8.49205821 7.67437345,17.5493338 C7.67437345,26.8297713 12.2245082,34.0392135 20.6120588,34.0392135 C29.057946,34.0392135 33.9020681,26.6079424 33.9020681,17.44374 C33.9020681,8.94546861 30.0206647,1.18989299 21.1636553,1.18989299 Z M0.988301531,1.80036482 C1.5762554,1.80036482 1.95012357,2.27551759 1.95012357,2.85670848 C1.95012357,3.46363319 1.5762554,3.91261544 0.934891903,3.91261544 C0.400796323,3.91261544 0,3.46363319 0,2.85670848 C0,2.27551759 0.427276611,1.80036482 0.988301531,1.80036482 Z" id="path-1"></path>
    </defs>
    <g id="Page-1" stroke="none" stroke-width="1" fill="none" fill-rule="evenodd">
        <g id="Artboard" transform="translate(-236.000000, -217.000000)">
            <g id="ios" transform="translate(236.700000, 217.800000)">
                <mask id="mask-2" fill="white">
                    <use xlink:href="#path-1"></use>
                </mask>
                <g id="Clip-2"></g>
                <polygon id="Fill-1" fill="#FFFFFF" mask="url(#mask-2)" points="-0.557999924 35.6515823 56.3579943 35.6515823 56.3579943 -0.551587012 -0.557999924 -0.551587012"></polygon>
            </g>
        </g>
    </g>
</svg>