<?xml version="1.0" encoding="UTF-8"?>
<svg width="35px" height="35px" viewBox="0 0 35 35" version="1.1" xmlns="http://www.w3.org/2000/svg" xmlns:xlink="http://www.w3.org/1999/xlink">
    <title>logo-javascript</title>
    <g id="Page-1" stroke="none" stroke-width="1" fill="none" fill-rule="evenodd">
        <g id="logo-javascript" fill-rule="nonzero">
            <polygon id="Path" fill="#F0DB4F" points="0 0 35 0 35 35 0 35"></polygon>
            <path d="M32.1354563,26.6525665 C31.8792776,25.0556084 30.8379278,23.7148289 27.7538023,22.4638783 C26.6825095,21.9714829 25.4881179,21.6188546 25.1321293,20.8070342 C25.0057034,20.3346008 24.9890684,20.0684411 25.0689163,19.7823194 C25.2984791,18.8540875 26.4063688,18.5646388 27.2846958,18.8307985 C27.8502852,19.0204373 28.3859316,19.456307 28.7086502,20.151616 C30.2191065,19.1735124 30.2157795,19.1801331 31.2704373,18.5081131 C30.8845057,17.9092538 30.6782319,17.6330798 30.4253802,17.3769344 C29.5171103,16.3622006 28.2794677,15.8398622 26.2999049,15.8797861 C25.9572243,15.9230371 25.61125,15.9695817 25.2685361,16.012866 C24.2804515,16.2623907 23.3388783,16.7814021 22.786597,17.4767443 C21.1297529,19.3564971 21.6021863,22.6468631 23.618346,24.0009838 C25.6045627,25.4914781 28.5223384,25.8308317 28.894962,27.2248432 C29.2576046,28.9315922 27.6407177,29.4838403 26.0337452,29.2875808 C24.8493346,29.0413831 24.1906226,28.4391968 23.4786122,27.344615 C22.1678089,28.1031702 22.1678089,28.1031702 20.8203755,28.8783603 C21.1397671,29.5770295 21.4757605,29.8930941 22.0114401,30.4986074 C24.5466112,33.0703755 30.8911597,32.9439496 32.0290257,29.0513641 C32.0755703,28.918251 32.3816873,28.026616 32.1354563,26.6525665 L32.1354563,26.6525665 Z M19.0270913,16.0860266 L15.753327,16.0860266 C15.753327,18.9139734 15.7400523,21.7219582 15.7400523,24.5499049 C15.7400523,26.3498099 15.8332082,28 15.5404325,28.5057034 C15.0613451,29.500442 13.8203755,29.3773764 13.2547861,29.1843774 C12.6792158,28.9015827 12.3864401,28.4990162 12.0470865,27.9301331 C11.9539306,27.7671103 11.8840637,27.6406844 11.8607414,27.6307034 C10.9724667,28.1730038 10.0874525,28.7185979 9.19914449,29.2609316 C9.64166825,30.1692015 10.2937262,30.9576996 11.1288023,31.4700238 C12.3764259,32.2185979 14.0532319,32.4481606 15.8065922,32.0455941 C16.9477519,31.7128945 17.9325095,31.0242395 18.4481939,29.9762357 C19.1934411,28.6021863 19.0337452,26.9386882 19.0270913,25.0988593 C19.0437262,22.0979087 19.0270913,19.0969582 19.0270913,16.0860266 Z" id="Shape" fill="#323330"></path>
        </g>
    </g>
</svg>