<?xml version="1.0" encoding="UTF-8"?>
<svg width="45px" height="45px" viewBox="0 0 45 45" version="1.1" xmlns="http://www.w3.org/2000/svg" xmlns:xlink="http://www.w3.org/1999/xlink">
    <title>javascript</title>
    <defs>
        <polygon id="path-1" points="0 0 44.1 0 44.1 44.1 0 44.1"></polygon>
        <path d="M12.4036453,0.237037327 L12.4036453,14.3865951 C12.4036453,18.67894 9.88753464,20.6327767 6.21655132,20.6327767 C2.90129919,20.6327767 0.976921454,18.9158053 0,16.843622 L3.37485992,14.8015837 C4.02602149,15.9559347 4.61826829,16.9326833 6.03894269,16.9326833 C7.40070231,16.9326833 8.25944383,16.4000373 8.25944383,14.328023 L8.25944383,0.237037327 L12.4036453,0.237037327 Z M21.9664479,0 C24.601081,0 26.4956588,0.917835378 27.8572471,3.31560253 L24.6303749,5.38795242 C23.9197691,4.11508666 23.1504353,3.61189724 21.9662843,3.61189724 C20.7525047,3.61189724 19.9828127,4.38158137 19.9828127,5.38795242 C19.9828127,6.63119728 20.7525047,7.13472931 22.5285598,7.90441344 L23.5645674,8.34834548 C27.0873917,9.85824856 29.0706842,11.3974455 29.0706842,14.8606698 C29.0706842,18.5909121 26.1400989,20.6332938 22.2029791,20.6332938 C18.3547297,20.6332938 15.8680843,18.797975 14.6544681,16.4000373 L18.0289854,14.4462029 C18.9173478,15.8968486 20.0718779,16.9624856 22.1142565,16.9624856 C23.8315682,16.9624856 24.9264983,16.1039146 24.9264983,14.9197559 C24.9264983,13.498918 23.8016047,12.9955494 21.9070192,12.1669583 L20.8711907,11.7225046 C17.8811768,10.4499814 15.8978765,8.8513558 15.8978765,5.47667498 C15.8978765,2.36831756 18.2660227,0 21.9664479,0 Z" id="path-3"></path>
    </defs>
    <g id="Page-1" stroke="none" stroke-width="1" fill="none" fill-rule="evenodd">
        <g id="Artboard" transform="translate(-1101.000000, -360.000000)">
            <g id="javascript" transform="translate(1101.600000, 360.000000)">
                <g id="Group-3">
                    <mask id="mask-2" fill="white">
                        <use xlink:href="#path-1"></use>
                    </mask>
                    <g id="Clip-2"></g>
                    <polygon id="Fill-1" fill="#F7DF1E" mask="url(#mask-2)" points="-0.441 44.541 44.5410006 44.541 44.5410006 -0.441000623 -0.441 -0.441000623"></polygon>
                </g>
                <g id="Group-6" transform="translate(11.595370, 20.009163)">
                    <mask id="mask-4" fill="white">
                        <use xlink:href="#path-3"></use>
                    </mask>
                    <g id="Clip-5"></g>
                    <polygon id="Fill-4" fill="#000000" mask="url(#mask-4)" points="-0.440996418 21.0742933 29.5116884 21.0742933 29.5116884 -0.440996418 -0.440996418 -0.440996418"></polygon>
                </g>
            </g>
        </g>
    </g>
</svg>