<?xml version="1.0" encoding="UTF-8"?>
<svg width="37px" height="37px" viewBox="0 0 37 37" version="1.1" xmlns="http://www.w3.org/2000/svg" xmlns:xlink="http://www.w3.org/1999/xlink">
    <title>jira-1 (2)</title>
    <defs>
        <linearGradient x1="98.031%" y1="0.161%" x2="58.888%" y2="40.766%" id="linearGradient-1">
            <stop stop-color="#0052CC" offset="18%"></stop>
            <stop stop-color="#2684FF" offset="100%"></stop>
        </linearGradient>
        <linearGradient x1="100.665%" y1="0.455%" x2="55.402%" y2="44.727%" id="linearGradient-2">
            <stop stop-color="#0052CC" offset="18%"></stop>
            <stop stop-color="#2684FF" offset="100%"></stop>
        </linearGradient>
    </defs>
    <g id="Page-1" stroke="none" stroke-width="1" fill="none" fill-rule="evenodd">
        <g id="jira-1-(2)" fill-rule="nonzero">
            <path d="M35.4543482,0 L17.6370376,0 C17.6370376,4.44203288 21.2380168,8.04301202 25.6800497,8.04301202 L28.9622049,8.04301202 L28.9622049,11.2119895 C28.9651032,15.6499781 32.5620114,19.2470312 37,19.2499295 L37,1.5456518 C37,0.692253764 36.308181,0 35.4543482,0 Z" id="Path" fill="#2684FF"></path>
            <path d="M26.6383654,8.87771616 L8.82119973,8.87771616 C8.82395309,13.3157048 12.4208613,16.9127579 16.8589948,16.9156562 L20.1411501,16.9156562 L20.1411501,20.0947776 C20.1468017,24.5327662 23.7461735,28.1273558 28.1841621,28.1273558 L28.1841621,10.4236578 C28.1841621,9.56996992 27.4920532,8.87771616 26.6383654,8.87771616 L26.6383654,8.87771616 Z" id="Path" fill="url(#linearGradient-1)"></path>
            <path d="M17.8173106,17.7503603 L0,17.7503603 C0,22.1924065 3.60111075,25.7933723 8.04301202,25.7933723 L11.3354561,25.7933723 L11.3354561,28.9622049 C11.3383544,33.3961359 14.9290313,36.991595 19.3631073,37 L19.3631073,19.296157 C19.3631073,18.4424692 18.6709984,17.7503603 17.8173106,17.7503603 Z" id="Path" fill="url(#linearGradient-2)"></path>
        </g>
    </g>
</svg>