<?xml version="1.0" encoding="UTF-8"?>
<svg width="27px" height="59px" viewBox="0 0 27 59" version="1.1" xmlns="http://www.w3.org/2000/svg" xmlns:xlink="http://www.w3.org/1999/xlink">
    <title>mongodb</title>
    <g id="Page-1" stroke="none" stroke-width="1" fill="none" fill-rule="evenodd">
        <g id="Artboard" transform="translate(-939.000000, -354.000000)" fill-rule="nonzero">
            <g id="mongodb" transform="translate(939.600000, 354.600000)">
                <path d="M12.8681629,0.157313602 L14.4187897,3.04429681 C14.7674084,3.5770568 15.1450786,4.04862139 15.5899306,4.48778841 C16.894135,5.76447968 18.1098073,7.12708221 19.228638,8.56628214 C21.8559881,11.9860253 23.628133,15.7837402 24.8936914,19.8910317 C25.6526633,22.4000433 26.0648323,24.97385 26.0956996,27.5764546 C26.2228001,35.3572703 23.5318997,42.0383686 18.1065216,47.5909516 C17.2240258,48.4714757 16.2706459,49.2792859 15.2558377,50.0063702 C14.7183839,50.0063702 14.4641828,49.5978009 14.2426647,49.2216292 C13.8392638,48.5240852 13.5707795,47.7580186 13.4510098,46.9627988 C13.2603589,46.0214695 13.1350741,45.0801402 13.1968087,44.1082132 L13.1968087,43.6690461 C13.1532313,43.5754532 12.6793278,0.378696977 12.8681629,0.157313602 Z" id="Path" fill="#599636"></path>
                <path d="M12.8681629,0.0619207652 C12.8046127,-0.0640697737 12.7410624,0.0313230629 12.6775121,0.0925184674 C12.7083794,0.722471162 12.4868613,1.28402899 12.1400583,1.82038871 C11.7587566,2.35314871 11.2539858,2.76171803 10.7473993,3.20088505 C7.93302984,5.61630366 5.71784869,8.53388457 3.94388804,11.7970395 C1.58344911,16.1887097 0.366915196,20.8953563 0.0219279671,25.8503842 C-0.136039869,27.63765 0.592064756,33.9443764 1.16038582,35.7640397 C2.71101263,40.594877 5.49633057,44.642773 9.10417069,48.1561092 C9.99024316,49.0020457 10.9380502,49.7867867 11.9185402,50.5409301 C12.2036086,50.5409301 12.2344759,50.288949 12.2998419,50.1017631 C12.4248224,49.7012241 12.5200991,49.2921647 12.5849103,48.877855 L13.220413,44.1730083 L12.8681629,0.0619207652 Z" id="Path" fill="#6CAC48"></path>
                <path d="M14.4187897,51.9178267 C14.48234,51.1978808 14.8309587,50.6003256 15.2104446,50.0045704 C14.829143,49.8479821 14.5458903,49.5366055 14.3243722,49.1892316 C14.1333611,48.8603325 13.9752464,48.5137097 13.8522844,48.1543093 C13.4092482,46.8368083 13.3148306,45.4545121 13.18773,44.1082132 L13.18773,43.2928744 C13.0297622,43.4188649 12.9970792,44.4843849 12.9970792,44.642773 C12.9046838,46.0657031 12.7141935,47.4807006 12.4269424,48.877855 C12.3325249,49.4430125 12.2689746,50.0063702 11.9185402,50.5085325 C11.9185402,50.5715278 11.9185402,50.6345231 11.9494075,50.728116 C12.5195443,52.3911912 12.6756964,54.084864 12.7719297,55.8109343 L12.7719297,56.440887 C12.7719297,57.1932305 12.7410624,57.0348424 13.371118,57.2868235 C13.6253191,57.3804165 13.9085718,57.4128141 14.1627729,57.6 C14.3534237,57.6 14.384291,57.4434118 14.384291,57.3174212 L14.2898735,56.2824989 L14.2898735,53.3955157 C14.2590062,52.8915536 14.3534237,52.3911912 14.416974,51.9196266 L14.4187897,51.9178267 Z" id="Path" fill="#C2BFBF"></path>
            </g>
        </g>
    </g>
</svg>