<?xml version="1.0" encoding="UTF-8"?>
<svg width="40px" height="44px" viewBox="0 0 40 44" version="1.1" xmlns="http://www.w3.org/2000/svg" xmlns:xlink="http://www.w3.org/1999/xlink">
    <title>nodejs-icon</title>
    <g id="Page-1" stroke="none" stroke-width="1" fill="none" fill-rule="evenodd">
        <g id="nodejs-icon" fill="#8CC84B" fill-rule="nonzero">
            <path d="M18.1952535,0.469418025 C19.2882166,-0.155061513 20.7118001,-0.157882248 21.8038212,0.469418025 C27.2976794,3.56815288 32.7932646,6.66202979 38.2861809,9.76264513 C39.3193308,10.34356 40.0103999,11.491286 40,12.6795992 L40,31.3227816 C40.0075741,32.560301 39.2482144,33.7354508 38.1582342,34.3032022 C32.6824298,37.384856 27.2094512,40.4702707 21.7345887,43.5519244 C20.6190192,44.1886271 19.1668635,44.1395777 18.0861456,43.4506913 C16.4445032,42.5007302 14.800035,41.5554704 13.1582356,40.6064495 C12.8227484,40.4068041 12.44456,40.2479027 12.2076624,39.9232047 C12.4170868,39.6414445 12.7915075,39.606342 13.0957537,39.4833266 C13.7810142,39.2658165 14.4103863,38.9166721 15.0399155,38.5778705 C15.1991031,38.4691154 15.3934565,38.5107996 15.5460506,38.608115 C16.9498534,39.4115546 18.3412541,40.2383435 19.7497666,41.0341044 C20.0502451,41.2072662 20.3544913,40.9773763 20.6113267,40.834459 C25.9847737,37.8029517 31.3648143,34.782884 36.7373194,31.7504365 C36.9363825,31.6548449 37.0464324,31.4439165 37.0302624,31.2262497 C37.0340302,25.0762624 37.0312044,18.9251782 37.0321463,12.7751908 C37.0549098,12.5282198 36.9117351,12.3011505 36.6880246,12.2000742 C31.231216,9.13252412 25.7772332,6.06027285 20.3213665,2.99193926 C20.1278817,2.85915987 19.8725241,2.8587863 19.6786502,2.99099901 C14.2227835,6.06027285 8.76974263,9.13534486 3.31387593,12.2027382 C3.09095041,12.3039713 2.94133912,12.5272795 2.9678704,12.7751908 C2.96881234,18.9251782 2.9678704,25.0762624 2.9678704,31.22719 C2.9484942,31.4447094 3.06689503,31.6512569 3.26458113,31.744795 C4.72050459,32.5689199 6.17831192,33.3872467 7.63517731,34.2085509 C8.45592001,34.6495259 9.46363757,34.9115409 10.3678988,34.5736795 C11.165878,34.2880016 11.7252327,33.4751596 11.7100047,32.629409 C11.7175402,26.5153077 11.7062369,20.4002662 11.7156563,14.2871052 C11.6957186,14.0156877 11.9536529,13.7914392 12.2180237,13.8169825 C12.9175703,13.8122813 13.6180588,13.8075801 14.3176054,13.818863 C14.6096064,13.8122813 14.8105533,14.1045409 14.7744457,14.3779955 C14.7716199,20.5308036 14.7819812,26.6837683 14.769736,32.8365764 C14.7716199,34.4763641 14.0967207,36.2606361 12.5772164,37.0629787 C10.7052699,38.0309611 8.39155419,37.8256743 6.54221429,36.8974955 C4.94123225,36.0998542 3.41340747,35.158512 1.84084059,34.3039858 C0.748034553,33.7393685 -0.00755737928,32.5595175 0,31.3229383 L0,12.6795992 C-0.0113251346,11.4666829 0.707217204,10.2981148 1.77255002,9.72566215 C7.24741249,6.6415011 12.721333,3.55498944 18.1952535,0.469418025 Z" id="Path"></path>
            <path d="M22.9715114,13.3836862 C25.3593263,13.2302695 27.9155913,13.2927958 30.0643108,14.4670054 C31.7279318,15.3668201 32.6502469,17.2553026 32.679604,19.1002205 C32.633135,19.349072 32.3725319,19.4863478 32.1345353,19.4692667 C31.4417393,19.4683265 30.7487863,19.4786692 30.0559903,19.4645655 C29.7621054,19.4758484 29.5913005,19.2053712 29.5544079,18.9460203 C29.3553448,18.0632867 28.8730721,17.1890153 28.0407122,16.763241 C26.7629722,16.1246577 25.2814594,16.1567828 23.8881749,16.1701029 C22.8710379,16.2240103 21.7772899,16.3119233 20.9155729,16.908979 C20.2540179,17.3612369 20.0530709,18.274215 20.2891836,19.0094868 C20.5117951,19.5374345 21.1223285,19.7077756 21.62187,19.8647965 C24.4994932,20.6160525 27.5488631,20.541303 30.3715398,21.5299708 C31.5401719,21.9330226 32.6833717,22.7165603 33.0833817,23.9379389 C33.6066288,25.5749058 33.3772666,27.5315561 32.2105184,28.8457055 C31.2643409,29.9271443 29.8862843,30.5157378 28.5118386,30.8354211 C26.6833783,31.2423906 24.7858426,31.2527333 22.9289671,31.0720495 C21.1829265,30.8733444 19.3659265,30.4154449 18.0180121,29.2279152 C16.8653929,28.2289047 16.3024275,26.6723287 16.3583158,25.1699735 C16.37166,24.916264 16.6247275,24.7393412 16.8682187,24.7601833 C17.5658814,24.7545418 18.2635441,24.7526614 18.9612068,24.7611236 C19.2398637,24.7412217 19.4464623,24.9816111 19.4607484,25.2437828 C19.58948,26.0848321 19.9061284,26.9675657 20.6408407,27.4662091 C22.0587727,28.3793439 23.8379381,28.3168176 25.4615267,28.3423609 C26.8066153,28.2828121 28.3165433,28.2647907 29.414216,27.3773559 C29.9933514,26.8711906 30.1649412,26.024343 30.0084224,25.2958097 C29.8388734,24.6807326 29.1942733,24.3941145 28.6407272,24.2066923 C25.7999967,23.3096983 22.7165599,23.6351799 19.9033026,22.620812 C18.7612018,22.2179169 17.6567785,21.4561616 17.217992,20.2849295 C16.6057318,18.6272771 16.8862726,16.5769157 18.1753158,15.3071145 C19.4321762,14.0440518 21.2465074,13.5576316 22.9715114,13.3835295 L22.9715114,13.3836862 Z" id="Path"></path>
        </g>
    </g>
</svg>