<?xml version="1.0" encoding="UTF-8"?>
<svg width="73px" height="45px" viewBox="0 0 73 45" version="1.1" xmlns="http://www.w3.org/2000/svg" xmlns:xlink="http://www.w3.org/1999/xlink">
    <title>node</title>
    <defs>
        <path d="M8.54425645,0.170918917 L15.0378253,3.93139368 C15.4609785,4.17548802 15.721501,4.63142618 15.721501,5.11976153 L15.721501,12.6243658 C15.721501,13.1126996 15.4609785,13.5686393 15.0378253,13.8127352 L8.54425645,17.5732059 C8.33262196,17.6709573 8.08858325,17.7196921 7.86074279,17.7196921 L7.86059617,17.7196921 C7.61657289,17.7196921 7.38873243,17.6546185 7.17708251,17.540669 L5.01261358,16.2546883 C4.6870357,16.0755257 4.8498285,16.0104511 4.94755048,15.977915 C5.38690196,15.8314275 5.46828678,15.7987501 5.9239677,15.5384557 C5.97282483,15.5057783 6.03802684,15.5221166 6.08675278,15.5546542 L7.74683028,16.5476617 C7.81187794,16.5801986 7.89327048,16.5801986 7.94199642,16.5476617 L14.4357119,12.7871908 C14.5007596,12.7546539 14.5334339,12.6894388 14.5334339,12.608168 L14.5334339,5.1035668 C14.5334339,5.02201418 14.5007596,4.95708086 14.4357119,4.92439806 L7.94199642,1.18027242 C7.87693332,1.14758962 7.7955485,1.14758962 7.74683028,1.18027242 L1.25311481,4.92439806 C1.18805171,4.95693419 1.15539283,5.03834786 1.15539283,5.10342785 L1.15539283,12.6080267 C1.15539283,12.6732418 1.18805171,12.7545127 1.25311481,12.7871908 L3.02710483,13.8127352 C3.98733151,14.3010698 4.58946035,13.7313231 4.58946035,13.1615756 L4.58946035,5.75458282 C4.58946035,5.65697442 4.67084517,5.55921935 4.78477312,5.55921935 L5.61472698,5.55921935 C5.7124644,5.55921935 5.81003975,5.64063302 5.81003975,5.75458282 L5.81003975,13.1615756 C5.81003975,14.4475565 5.11018893,15.1964665 3.88960953,15.1964665 C3.51532115,15.1964665 3.22241759,15.1964665 2.39230939,14.7894036 L0.683513661,13.8127352 C0.260360433,13.5686393 0,13.1126996 0,12.6243658 L0,5.11976153 C0,4.63142618 0.260360433,4.17548802 0.683513661,3.93139368 L7.17708251,0.170918917 C7.5840452,-0.0569729723 8.13745582,-0.0569729723 8.54425645,0.170918917 Z M9.61841108,5.33131974 C11.7014952,5.33131974 12.7269084,6.04769365 12.8571658,7.6103081 C12.8571658,7.65932458 12.8408287,7.70806317 12.8082933,7.75694071 C12.7756344,7.78947684 12.7269084,7.82201298 12.6780436,7.82201298 L11.8317449,7.82201298 C11.7503523,7.82201298 11.6689675,7.75694071 11.6527693,7.67552704 C11.4574565,6.78027 10.952903,6.48715918 9.61841108,6.48715918 C8.12111866,6.48715918 7.94199642,7.00816961 7.94199642,7.3987499 C7.94199642,7.87089051 8.15364635,8.01737645 10.1716751,8.27781219 C12.1735056,8.53838688 13.117534,8.91277243 13.117534,10.3127008 C13.1011968,11.7453066 11.9294668,12.559292 9.86242664,12.559292 C7.01444405,12.559292 6.42850575,11.2569728 6.42850575,10.1500163 C6.42850575,10.0522643 6.50989057,9.95465435 6.62381852,9.95465435 L7.47011725,9.95465435 C7.56770804,9.95465435 7.64909287,10.0197266 7.64909287,10.1174786 C7.77935797,10.9801987 8.15364635,11.4034595 9.87877152,11.4034595 C11.2458066,11.4034595 11.8318915,11.0941485 11.8318915,10.3615753 C11.8318915,9.93831295 11.6689675,9.62914633 9.53701083,9.41744146 C7.76302081,9.23828044 6.65635392,8.84770016 6.65635392,7.43142498 C6.65635392,6.11277363 7.76316744,5.33131974 9.61841108,5.33131974 Z" id="path-1"></path>
        <path d="M48.2222968,0.0489199894 C48.3363559,-0.0163066631 48.499141,-0.0163066631 48.6292595,0.0489199894 L48.6294061,0.0489199894 L52.7468407,2.34423431 C53.0072165,2.4908592 53.1699939,2.76749739 53.1699939,3.07680295 L53.1699939,3.07680295 L53.1699939,22.9209043 C53.1699939,23.2140151 53.0072165,23.4908 52.7468407,23.6372782 L52.7468407,23.6372782 L45.8463246,27.6256603 C45.5890047,27.7722003 45.2735208,27.7722003 45.0162086,27.6256603 L45.0162086,27.6256603 L38.1156848,23.6372782 C37.8553167,23.4908 37.6925316,23.2138839 37.6925316,22.9209043 L37.6925316,22.9209043 L37.6925316,14.9605047 C37.6925316,14.6675405 37.8553167,14.3907556 38.1156848,14.2442774 L38.1156848,14.2442774 L45.0162086,10.2558953 C45.2735208,10.1093554 45.5890047,10.1093554 45.8463246,10.2558953 L45.8463246,10.2558953 L47.571442,11.2489074 C47.6690405,11.297646 47.7667548,11.297646 47.8643456,11.2489074 C47.9620676,11.1837039 48.0107935,11.0860878 48.0107935,10.9884717 L48.0107935,10.9884717 L48.0107935,0.406964137 C48.0107935,0.260478198 48.0921938,0.130325939 48.2222968,0.0489199894 Z M63.911409,10.1582947 C64.1686826,10.011801 64.4841125,10.011801 64.741386,10.1582947 L64.741386,10.1582947 L71.593045,14.1303353 C71.8372149,14.2768136 72,14.553583 72,14.8465626 L72,14.8465626 L72,16.7836938 C72,17.0768201 71.8535521,17.3535818 71.593045,17.5000677 L71.593045,17.5000677 L67.4917933,19.8931448 C67.3615436,19.9745662 67.1988897,19.9745662 67.0686401,19.8931448 C66.9385293,19.8280803 66.857129,19.6815866 66.857129,19.5351007 L66.857129,19.5351007 L66.857129,17.5816281 C66.857129,17.4350032 66.7757442,17.3048509 66.6454791,17.223445 L66.6454791,17.223445 L64.4810102,15.9861841 C64.3516943,15.9047936 64.1871728,15.9047936 64.057857,15.9861841 L64.057857,15.9861841 L61.8932414,17.223445 C61.7631306,17.2886485 61.6817381,17.4351344 61.6817381,17.5816281 L61.6817381,17.5816281 L61.6817381,20.0723136 C61.6817381,20.2187918 61.7631306,20.3490907 61.8932414,20.4303577 L61.8932414,20.4303577 L68.8263006,24.4187321 C68.956558,24.4839356 69.0379428,24.630437 69.0379428,24.7769152 C69.0379428,24.9234011 68.956558,25.0698871 68.8263006,25.135106 L68.8263006,25.135106 L64.6763229,27.4464915 C64.4321453,27.5929775 64.123059,27.5929775 63.8625442,27.4464915 L63.8625442,27.4464915 L57.0108775,23.5395308 C56.7503781,23.3930526 56.5877397,23.1162678 56.5877397,22.8233036 L56.5877397,22.8233036 L56.5877397,14.862904 C56.5877397,14.5697777 56.7503781,14.2930083 57.0108775,14.1465301 L57.0108775,14.1465301 L63.911409,10.1582947 Z M7.76316685,9.94644312 C7.89327762,9.96279224 8.02338838,9.99532837 8.13745523,10.0605473 L8.13745523,10.0605473 L15.0379713,14.0325726 C15.2983472,14.1790508 15.4611246,14.4559823 15.4611246,14.7489465 L15.4611246,14.7489465 L15.4774617,25.4279389 C15.4774617,25.5744249 15.3960692,25.7209031 15.2658118,25.7861143 C15.1355621,25.8675357 14.9729237,25.8675357 14.842674,25.7861143 L14.842674,25.7861143 L10.7414145,23.4419147 C10.4810464,23.2954365 10.3182613,23.0186671 10.3182613,22.7256875 L10.3182613,22.7256875 L10.3182613,17.7279673 C10.3182613,17.4348565 10.1556229,17.1582183 9.89510809,17.0117401 L9.89510809,17.0117401 L8.15378468,16.0023866 C8.03972554,15.9209806 7.89327762,15.8882978 7.7468297,15.8882978 C7.60038101,15.8882978 7.45393386,15.9209806 7.32367878,16.0023866 L7.32367878,16.0023866 L5.58235228,17.0117401 C5.32184368,17.1582183 5.15920137,17.4350032 5.15920137,17.7279673 L5.15920137,17.7279673 L5.15920137,22.7256875 C5.15920137,23.0186671 4.99641938,23.2954365 4.73605045,23.4419147 L4.73605045,23.4419147 L0.634796784,25.7861143 C0.520736103,25.8675357 0.358094023,25.8675357 0.227839645,25.7861143 C0.0977260276,25.7209031 0.0163346075,25.5744249 0.0163346075,25.4279389 L0.0163346075,25.4279389 L0,14.7489465 C0,14.4558356 0.162642037,14.1790508 0.42315087,14.0325726 L0.42315087,14.0325726 L7.32367878,10.0605473 C7.43759747,9.99532837 7.56785177,9.94644312 7.69796639,9.94644312 L7.69796639,9.94644312 L7.76316685,9.94644312 Z M45.5370839,16.0185813 C45.4703075,15.9859989 45.3922257,15.9859989 45.3254494,16.0185813 L45.3254494,16.0185813 L42.9656522,17.3861256 C42.9004579,17.4186618 42.8679302,17.4837418 42.8679302,17.5651477 L42.8679302,17.5651477 L42.8679302,20.3000665 C42.8679302,20.3651465 42.9004579,20.4465525 42.9656522,20.4790886 L42.9656522,20.4790886 L45.3254494,21.8464862 C45.3922257,21.8790687 45.4703075,21.8790687 45.5370839,21.8464862 L45.5370839,21.8464862 L47.896881,20.4790886 C47.9620676,20.4465525 47.994603,20.3814879 47.994603,20.3000665 L47.994603,20.3000665 L47.994603,17.5651477 C47.994603,17.5000677 47.9620676,17.4185151 47.896881,17.3861256 L47.896881,17.3861256 L45.5370839,16.0185813 Z" id="path-3"></path>
        <path d="M1.56235552,0.0243731545 L2.88066462,0.789485648 C2.92952947,0.82187512 2.96205716,0.870760373 2.96205716,0.935963868 L2.96205716,2.46618886 C2.96205716,2.53126884 2.92952947,2.58014638 2.88066462,2.61266708 L1.56235552,3.37777957 C1.51301221,3.41029255 1.44905266,3.41029255 1.39970164,3.37777957 L0.0814002562,2.61266708 C0.0325354077,2.58014638 0,2.53126884 0,2.46618886 L0,0.935963868 C0,0.870760373 0.0325354077,0.82187512 0.0814002562,0.789485648 L1.39970164,0.0243731545 C1.44905266,-0.00812438483 1.51301221,-0.00812438483 1.56235552,0.0243731545 Z" id="path-5"></path>
        <path d="M7.25861395,0.109870244 C7.51588754,-0.0366234145 7.83131739,-0.0366234145 8.08859097,0.109870244 L8.08859097,0.109870244 L14.9403966,4.06556953 C15.1844198,4.21204775 15.3473438,4.48881718 15.3473438,4.78179677 L15.3473438,4.78179677 L15.3473438,12.7096603 C15.3473438,13.0026244 15.200757,13.2794093 14.9403966,13.4258875 L14.9403966,13.4258875 L8.08859097,17.3817257 C7.83131739,17.5282117 7.51588754,17.5282117 7.25861395,17.3817257 L7.25861395,17.3817257 L0.406947261,13.4258875 C0.162785078,13.2794093 0,13.0026244 0,12.7096603 L0,12.7096603 L0,4.78165783 C0,4.48867823 0.14644792,4.21190881 0.406947261,4.06542287 L0.406947261,4.06542287 L7.25861395,0.109870244 Z" id="path-7"></path>
        <linearGradient x1="41.9053318%" y1="42.4195777%" x2="30.7499622%" y2="53.1525151%" id="linearGradient-9">
            <stop stop-color="#41873F" offset="0%"></stop>
            <stop stop-color="#3FAD2A" offset="100%"></stop>
        </linearGradient>
        <path d="M7.69208762,0 L7.79995858,0.0353864239 L7.79995858,0.0353864239 L7.90373754,0.0814136691 L11.3456611,2.0601047 L14.7717414,4.03711296 C14.8449484,4.08105642 14.9108564,4.1367261 14.9672563,4.20104179 L7.73595013,17.4307124 C7.556339,17.4821675 7.36351868,17.472375 7.18893527,17.4013349 L7.08995878,17.3532692 L0.238292085,13.3974309 C0.145669394,13.3418645 0.0647573318,13.2675463 0,13.1807065 L7.69208762,0 Z" id="path-10"></path>
        <linearGradient x1="58.9703155%" y1="44.8465946%" x2="148.034155%" y2="-11.4056946%" id="linearGradient-12">
            <stop stop-color="#41873F" offset="0%"></stop>
            <stop stop-color="#6CC04A" offset="100%"></stop>
        </linearGradient>
    </defs>
    <g id="Page-1" stroke="none" stroke-width="1" fill="none" fill-rule="evenodd">
        <g id="Artboard" transform="translate(-401.000000, -213.000000)">
            <g id="node" transform="translate(401.400000, 213.300000)">
                <g id="Group-3" transform="translate(27.748705, 26.380308)">
                    <mask id="mask-2" fill="white">
                        <use xlink:href="#path-1"></use>
                    </mask>
                    <g id="Clip-2"></g>
                    <polygon id="Fill-1" fill="#539E43" mask="url(#mask-2)" points="-0.720972595 18.4408551 16.4424813 18.4408551 16.4424813 -0.721160691 -0.720972595 -0.721160691"></polygon>
                </g>
                <g id="Group-6">
                    <mask id="mask-4" fill="white">
                        <use xlink:href="#path-3"></use>
                    </mask>
                    <g id="Clip-5"></g>
                    <polygon id="Fill-4" fill="#333333" mask="url(#mask-4)" points="-0.720975879 28.456725 72.7209699 28.456725 72.7209699 -0.721155905 -0.720975879 -0.721155905"></polygon>
                </g>
                <g id="Group-9" transform="translate(62.820933, 17.101309)">
                    <mask id="mask-6" fill="white">
                        <use xlink:href="#path-5"></use>
                    </mask>
                    <g id="Clip-8"></g>
                    <polygon id="Fill-7" fill="#539E43" mask="url(#mask-6)" points="-0.720972595 4.12331635 3.6830367 4.12331635 3.6830367 -0.721168256 -0.720972595 -0.721168256"></polygon>
                </g>
                <g id="Group-12" transform="translate(18.911398, 10.080961)">
                    <mask id="mask-8" fill="white">
                        <use xlink:href="#path-7"></use>
                    </mask>
                    <g id="Clip-11"></g>
                    <polygon id="Fill-10" fill="url(#linearGradient-9)" mask="url(#mask-8)" points="-18.9150874 34.0542525 53.1824962 34.0542525 53.1824962 -10.0809258 -18.9150874 -10.0809258"></polygon>
                </g>
                <g id="Group-15" transform="translate(19.080053, 10.109417)">
                    <mask id="mask-11" fill="white">
                        <use xlink:href="#path-10"></use>
                    </mask>
                    <g id="Clip-14"></g>
                    <polygon id="Fill-13" fill="url(#linearGradient-12)" mask="url(#mask-11)" points="-0.0499811962 17.5832761 15.0905128 17.5832761 15.0905128 -0.0130993644 -0.0499811962 -0.0130993644"></polygon>
                </g>
            </g>
        </g>
    </g>
</svg>