<?xml version="1.0" encoding="UTF-8"?>
<svg width="43px" height="42px" viewBox="0 0 43 42" version="1.1" xmlns="http://www.w3.org/2000/svg" xmlns:xlink="http://www.w3.org/1999/xlink">
    <title>photoshop</title>
    <defs>
        <polygon id="path-1" points="0 0 38.7750566 0 38.7750566 37.0384383 0 37.0384383"></polygon>
        <radialGradient cx="32.9351156%" cy="22.4100734%" fx="32.9351156%" fy="22.4100734%" r="79.5633244%" gradientTransform="translate(0.329351,0.224101),scale(0.955213,1.000000),translate(-0.329351,-0.224101)" id="radialGradient-3">
            <stop stop-color="#34364E" offset="0%"></stop>
            <stop stop-color="#0C0824" offset="100%"></stop>
        </radialGradient>
        <path d="M42.3,0 L42.3,40.5 L0,40.5 L0,0 L42.3,0 Z M40.5375321,1.73074196 L1.76247691,1.73074196 L1.76247691,38.7691876 L40.5375321,38.7691876 L40.5375321,1.73074196 Z M28.5172606,14.019205 C30.033022,14.019205 31.0905192,14.2442482 31.672133,14.5038294 C31.8131167,14.5903541 31.8483626,14.7287994 31.8483626,14.8499353 L31.8483626,17.2210417 C31.8483626,17.3594869 31.7602441,17.4460776 31.5839472,17.3940983 C30.8084846,16.9096205 29.6628689,16.6153546 28.5172606,16.6153546 C27.1248562,16.6153546 26.64904,17.3076396 26.64904,17.8787814 C26.64904,18.5018512 26.9662533,18.934555 28.8345337,19.8864799 C31.6016486,21.2019007 32.4652895,22.4653275 32.4652895,24.3172788 C32.4652895,27.086485 30.3150492,28.5749477 27.4068908,28.5749477 C25.8735101,28.5749477 24.5515976,28.2633799 23.7937542,27.8307494 C23.6703897,27.7788361 23.6527705,27.6923114 23.6527705,27.5538001 L23.6527705,25.0095565 C23.6527705,24.8365073 23.7408891,24.7845206 23.8643133,24.8711186 C24.9746831,25.580779 26.2436558,25.8922735 27.4068908,25.8922735 C28.7992952,25.8922735 29.380909,25.3211317 29.380909,24.5422414 C29.380909,23.9191863 28.9755099,23.3653465 27.195348,22.4653275 C24.6925738,21.2884254 23.6527705,20.0942212 23.6527705,18.1038173 C23.6527705,15.8710829 25.4329473,14.019205 28.5172606,14.019205 Z M15.1575246,9.19032093 C20.0396339,9.19032093 21.943093,11.8210819 21.943093,15.1787978 C21.943093,19.5749194 18.7000946,21.461482 14.7168945,21.461482 C14.0471548,21.461482 13.81806,21.4268706 13.3421093,21.4268706 L13.3421093,28.0730286 C13.3421093,28.2114665 13.2892442,28.2806818 13.1306338,28.2806818 L10.4340256,28.2806818 C10.2930345,28.2806818 10.2224829,28.2287685 10.2224829,28.0730286 L10.2224829,9.48457948 C10.2224829,9.36344353 10.4693313,9.27684556 10.6102478,9.27684556 C11.7383041,9.22493225 13.4126759,9.19032093 15.1575246,9.19032093 Z M15.0517868,11.9422838 C14.3468086,11.9422838 13.6770166,11.9768951 13.3597286,11.9942045 L13.3597286,18.6749738 C13.6914187,18.7032921 13.9641154,18.7084409 14.4384354,18.709377 L14.7873789,18.7095851 L14.7873789,18.7095851 C16.8495828,18.7095851 18.7882879,17.9999907 18.7882879,15.2480938 C18.7882879,13.0500367 17.3958834,11.9422838 15.0517868,11.9422838 Z" id="path-4"></path>
    </defs>
    <g id="Page-1" stroke="none" stroke-width="1" fill="none" fill-rule="evenodd">
        <g id="Artboard" transform="translate(-931.000000, -72.000000)">
            <g id="photoshop" transform="translate(931.500000, 72.900000)">
                <g id="Group-3" transform="translate(1.762477, 1.730749)">
                    <mask id="mask-2" fill="white">
                        <use xlink:href="#path-1"></use>
                    </mask>
                    <g id="Clip-2"></g>
                    <polygon id="Fill-1" fill="url(#radialGradient-3)" mask="url(#mask-2)" points="0 37.0384383 38.7750566 37.0384383 38.7750566 0 0 0"></polygon>
                </g>
                <g id="Group-6">
                    <mask id="mask-5" fill="white">
                        <use xlink:href="#path-4"></use>
                    </mask>
                    <g id="Clip-5"></g>
                    <polygon id="Fill-4" fill="#31C5F0" mask="url(#mask-5)" points="-0.422999328 40.9153832 42.7229999 40.9153832 42.7229999 -0.415386652 -0.422999328 -0.415386652"></polygon>
                </g>
            </g>
        </g>
    </g>
</svg>