<?xml version="1.0" encoding="UTF-8"?>
<svg width="34px" height="33px" viewBox="0 0 34 33" version="1.1" xmlns="http://www.w3.org/2000/svg" xmlns:xlink="http://www.w3.org/1999/xlink">
    <title>photoshop-cc-6</title>
    <defs>
        <radialGradient cx="32.9351254%" cy="22.4100935%" fx="32.9351254%" fy="22.4100935%" r="78.4860563%" gradientTransform="translate(0.329351,0.224101),scale(0.968324,1.000000),translate(-0.329351,-0.224101)" id="radialGradient-1">
            <stop stop-color="#34364E" stop-opacity="0.98" offset="0%"></stop>
            <stop stop-color="#0C0824" offset="100%"></stop>
        </radialGradient>
    </defs>
    <g id="Page-1" stroke="none" stroke-width="1" fill="none" fill-rule="evenodd">
        <g id="photoshop-cc-6" fill-rule="nonzero">
            <polygon id="Path" fill="url(#radialGradient-1)" points="1.41664763 1.41023503 32.5833524 1.41023503 32.5833524 31.5897081 1.41664763 31.5897081"></polygon>
            <path d="M1.41664763,1.41023503 L32.5833524,1.41023503 L32.5833524,31.5897081 L1.41664763,31.5897081 L1.41664763,1.41023503 Z M0,33 L34,33 L34,0 L0,0 L0,33 Z M22.9216705,13.5384382 C21.8024829,13.5384382 21.4200343,14.1025209 21.4200343,14.567899 C21.4200343,15.075579 21.675,15.428152 23.1766933,16.2038012 C25.4008467,17.2756207 26.0950343,18.3050815 26.0950343,19.8140779 C26.0950343,22.0704653 24.3667047,23.2832913 22.0291762,23.2832913 C20.7966705,23.2832913 19.7341419,23.0294229 19.125,22.6769067 C19.0258467,22.6346048 19.0116819,22.5641016 19.0116819,22.4512396 L19.0116819,20.3781605 C19.0116819,20.2371541 19.0825057,20.1947953 19.1817162,20.2653554 C20.0742105,20.8435955 21.0941876,21.0974071 22.0291762,21.0974071 C23.1483638,21.0974071 23.6158581,20.632029 23.6158581,19.9973863 C23.6158581,19.4897062 23.2900114,19.0384287 21.8591419,18.3050815 C19.84746,17.346124 19.0116819,16.3730658 19.0116819,14.7512642 C19.0116819,12.9319968 20.4425514,11.4230572 22.9216705,11.4230572 C24.1400114,11.4230572 24.9900114,11.6064225 25.4575057,11.8179321 C25.5708238,11.8884354 25.5991533,12.0012405 25.5991533,12.099945 L25.5991533,14.0319608 C25.5991533,14.1447659 25.5283295,14.215326 25.3866248,14.1729672 C24.7633181,13.778206 23.8424943,13.5384382 22.9216705,13.5384382 L22.9216705,13.5384382 Z M10.7383181,15.2166423 C11.0641648,15.2448436 11.3191876,15.2448436 11.8858352,15.2448436 C13.5433981,15.2448436 15.1016933,14.6666603 15.1016933,12.4243736 C15.1016933,10.6333643 13.9825057,9.73075247 12.0983638,9.73075247 C11.5317162,9.73075247 10.9933409,9.75895375 10.7383181,9.7730544 L10.7383181,15.2166423 Z M8.21664763,7.72817665 C8.21664763,7.62947214 8.41506854,7.55891206 8.52832953,7.55891206 C9.43504569,7.51661013 10.7808695,7.48840884 12.1833524,7.48840884 C16.1075057,7.48840884 17.6374714,9.6319911 17.6374714,12.3679141 C17.6374714,15.9499327 15.0308124,17.4871304 11.8291762,17.4871304 C11.2908581,17.4871304 11.1067162,17.4589291 10.7241533,17.4589291 L10.7241533,22.8743158 C10.7241533,22.9871209 10.6816591,23.0435235 10.5541762,23.0435235 L8.3866819,23.0435235 C8.2733638,23.0435235 8.21664763,23.0012216 8.21664763,22.8743158 L8.21664763,7.72817665 L8.21664763,7.72817665 Z" id="Shape" fill="#31C5F0"></path>
        </g>
    </g>
</svg>