<?xml version="1.0" encoding="UTF-8"?>
<svg width="55px" height="55px" viewBox="0 0 55 55" version="1.1" xmlns="http://www.w3.org/2000/svg" xmlns:xlink="http://www.w3.org/1999/xlink">
    <title>postman</title>
    <g id="Page-1" stroke="none" stroke-width="1" fill="none" fill-rule="evenodd">
        <g id="Artboard" transform="translate(-65.000000, -358.000000)" fill-rule="nonzero">
            <g id="postman" transform="translate(65.700000, 358.200000)">
                <path d="M48.369378,10.4984051 C41.6944055,1.85483472 30.4696718,-1.91636868 19.9298321,0.943495777 C9.38999235,3.80336024 1.61097257,12.7310139 0.220518997,23.563045 C-1.16993457,34.3950761 4.1020417,44.9980086 13.5778614,50.4271645 C23.0536811,55.8563204 34.8669876,55.0423734 43.5086447,48.3649079 C55.3040016,39.2492729 57.4808271,22.2979381 48.3685342,10.4984051 L48.369378,10.4984051 Z" id="Path" fill="#FF6C37"></path>
                <path d="M36.1065942,17.2043535 L24.7221342,28.6790513 L21.5049885,25.3716384 C32.7097339,14.1669335 33.8344271,15.1794068 36.1074379,17.2043535 L36.1065942,17.2043535 Z" id="Path" fill="#FFFFFF"></path>
                <path d="M24.7221342,28.992918 C24.6213026,28.9904384 24.5250247,28.9504231 24.4521403,28.8807022 L21.212214,25.6407876 C21.0605914,25.4838366 21.0605914,25.2349721 21.212214,25.0780211 C32.2591816,14.0310933 33.7669286,14.5482984 36.376588,16.9107362 C36.4651798,16.9816094 36.5149599,17.0896065 36.511585,17.2035098 C36.5284596,17.3131944 36.486273,17.4254102 36.3993688,17.4962833 L25.0149088,28.881546 C24.9347543,28.9549503 24.8309755,28.9946055 24.7221342,28.993775 L24.7221342,28.992918 Z M22.0669133,25.3707947 L24.7221342,28.026006 L35.5218887,17.2262904 C34.7498249,16.2587324 33.3738204,16.0261896 32.3266801,16.6863046 C30.3692246,17.5637815 27.2195774,20.2409298 22.0669133,25.3707947 L22.0669133,25.3707947 Z" id="Shape" fill="#FF6C37"></path>
                <path d="M27.9848413,31.8514678 L24.8799118,28.6790513 L36.2643718,17.4287851 C39.3245835,20.4214875 34.7794056,25.416356 27.9848413,31.850624 L27.9848413,31.8514678 Z" id="Path" fill="#FFFFFF"></path>
                <path d="M27.9848413,32.2564571 C27.8852423,32.2485392 27.790717,32.2092522 27.7148474,32.1442413 L24.5424195,29.0393231 C24.4948379,28.9239456 24.4948379,28.7944288 24.5424195,28.6790513 C24.5086703,28.5845538 24.5086703,28.4807753 24.5424195,28.3862778 L35.9268795,17.0018588 C36.091407,16.8474566 36.3470575,16.8474566 36.511585,17.0018588 C37.2582867,17.6886532 37.6674962,18.66569 37.6362782,19.6790071 C37.6362782,22.7164271 34.1710757,26.5410451 28.2767721,32.1214607 C28.198026,32.1993928 28.094398,32.2471749 27.9839975,32.2564571 L27.9848413,32.2564571 Z M25.4646173,28.6790513 L28.0067783,31.2203594 C32.5063948,26.9679714 36.8043596,22.5805869 36.8262966,19.6106651 C36.8507685,18.9810561 36.642635,18.3644667 36.2415911,17.878492 L25.4646173,28.6790513 Z" id="Shape" fill="#FF6C37"></path>
                <path d="M21.594424,25.4391366 L23.8446541,27.6893586 C23.8737123,27.7149854 23.890359,27.7518619 23.890359,27.790606 C23.890359,27.82935 23.8737123,27.8662265 23.8446541,27.8918533 L19.0969808,28.9043266 C18.9003915,28.946513 18.7004273,28.8520155 18.6059294,28.6748327 C18.5114316,28.4976498 18.5468683,28.2782806 18.69199,28.1390655 L21.4594271,25.3944191 C21.4594271,25.3944191 21.5497063,25.3944191 21.594424,25.4391366 L21.594424,25.4391366 Z" id="Path" fill="#FFFFFF"></path>
                <path d="M18.9847646,29.3540335 C18.6797394,29.3501958 18.3985951,29.188219 18.2422815,28.9262635 C18.065098,28.5913036 18.1283778,28.1787207 18.4000591,27.9137902 L21.1447155,25.1463631 C21.3496519,24.9631919 21.6594815,24.9631919 21.8644179,25.1463631 L24.114648,27.3965851 C24.2479575,27.5231442 24.3002688,27.7146705 24.2496449,27.8918533 C24.1990211,28.0690361 24.0505244,28.2099387 23.8674349,28.2521251 L19.1197615,29.2645984 L18.9847646,29.3540335 Z M21.5049885,25.9344048 L18.9628276,28.4765566 L23.1705132,27.5762991 L21.5049885,25.9344048 Z" id="Shape" fill="#FF6C37"></path>
                <path d="M42.1595191,10.8814575 C40.5311186,9.31043639 37.9729268,9.24462562 36.2652156,10.7270553 C34.5575044,12.209485 34.2655735,14.754168 35.5952933,16.5850573 C36.9250131,18.4159466 39.4317373,18.9289331 41.3723182,17.7662762 L38.3121065,14.7060755 L42.1595191,10.8814575 Z" id="Path" fill="#FFFFFF"></path>
                <path d="M39.1220881,18.8006865 C37.2095215,18.7761715 35.4967973,17.6108855 34.771812,15.8408894 C34.0462035,14.0707485 34.4478194,12.039052 35.784289,10.6789629 C37.6582381,8.83942578 40.6601865,8.83942578 42.5341356,10.6789629 C42.6201961,10.7515234 42.6691325,10.8586769 42.6691325,10.9717364 C42.668713,11.084285 42.6194568,11.1911089 42.5341356,11.2645099 L38.8892184,14.7069193 L41.6566555,17.4296288 C41.7476963,17.5165669 41.7897276,17.6429763 41.7688717,17.7671199 C41.7553755,17.8865424 41.6895357,17.9938021 41.5891571,18.0598935 C40.8456772,18.5246032 39.991001,18.7810342 39.1144946,18.8023739 L39.1220881,18.8006865 Z M39.1220881,10.0706351 C37.5189996,10.0790724 36.0846572,11.0434533 35.4830771,12.5174457 C34.881497,13.9914381 35.2088646,15.6881747 36.332714,16.8204574 C37.476813,17.9704583 39.2013988,18.3011996 40.6973336,17.6532167 L38.0421127,14.9980054 C37.9535209,14.9271322 37.9037408,14.8191351 37.9071158,14.7052318 C37.9104907,14.5997658 37.9594271,14.5010497 38.0421127,14.4352389 L41.5520329,10.9025507 C40.8542675,10.3676273 40.0012557,10.0756975 39.1220881,10.0697914 L39.1220881,10.0706351 Z" id="Shape" fill="#FF6C37"></path>
                <path d="M42.2270176,10.9489557 L38.379605,14.7735738 L41.4398167,17.8337744 C41.7478147,17.6569601 42.0345781,17.4454976 42.294516,17.2035098 C43.9617281,15.4316814 43.9313538,12.674379 42.2270176,10.9489557 L42.2270176,10.9489557 Z" id="Path" fill="#FFFFFF"></path>
                <path d="M41.3714745,18.1712655 C41.2691039,18.1768099 41.1697631,18.1355215 41.1014806,18.0590497 L38.041269,14.9988491 C37.9526772,14.927976 37.9028971,14.8199788 37.906272,14.7060755 C37.9096469,14.6006096 37.9585833,14.5018934 38.041269,14.4360827 L41.8659008,10.6789629 C41.9409353,10.5658445 42.0676506,10.4978398 42.2033931,10.4978398 C42.3391356,10.4978398 42.465851,10.5658445 42.5408854,10.6789629 C43.4479112,11.5676597 43.959042,12.7840425 43.959042,14.053874 C43.959042,15.3237054 43.4479112,16.5400882 42.5408854,17.4287851 C42.2760264,17.7097075 41.972971,17.9519806 41.6406246,18.1484849 C41.5569458,18.1906611 41.4601935,18.1988245 41.3706308,18.1712655 L41.3714745,18.1712655 Z M38.896812,14.7069193 L41.438973,17.2490711 C41.6138462,17.1265018 41.7793901,16.9911342 41.934243,16.8440817 C42.6815571,16.098805 43.1024649,15.0873553 43.104504,14.031937 C43.1062175,13.0874203 42.7619499,12.1749793 42.1367384,11.4670046 L38.896812,14.7069193 Z" id="Shape" fill="#FF6C37"></path>
                <path d="M36.5790834,17.6768411 C35.9462853,17.0828567 34.9616514,17.0828567 34.3288533,17.6768411 L24.1374287,27.8454483 L25.8248904,29.5556845 L36.6018642,20.1059333 C36.9351378,19.787848 37.1216024,19.3465783 37.1166404,18.885903 C37.1114776,18.4252276 36.9174195,17.9873329 36.5790834,17.6759973 L36.5790834,17.6768411 Z" id="Path" fill="#FFFFFF"></path>
                <path d="M25.7346112,29.9615175 C25.6337795,29.9590379 25.5375017,29.9190226 25.4646173,29.8493017 L23.7543749,28.1390655 C23.6027523,27.9821145 23.6027523,27.7332501 23.7543749,27.5762991 L33.9466433,17.4287851 C34.7549374,16.6221813 36.0644076,16.6221813 36.871858,17.4287851 C37.2768488,17.8337744 37.4962188,18.3864161 37.4793442,18.9584636 C37.4557198,19.5271361 37.204288,20.0620595 36.7815788,20.4434244 L26.004605,29.8931756 C25.9261381,29.9488616 25.8299527,29.972486 25.7346112,29.9606738 L25.7346112,29.9615175 Z M24.5424195,27.8454483 L25.6671127,28.992918 L36.2415911,19.7903791 C36.5031477,19.5625726 36.6592379,19.2368937 36.6693626,18.8901216 C36.6794874,18.5433495 36.542803,18.2041709 36.2871526,17.9679271 C35.7952575,17.478565 35.0013068,17.478565 34.5094117,17.9679271 L24.5424195,27.8454483 Z" id="Shape" fill="#FF6C37"></path>
                <path d="M16.2401082,39.4332056 C16.1810309,39.5135082 16.1810309,39.6228958 16.2401082,39.7031985 L16.6898167,41.6606469 C16.7286284,41.8943595 16.6164122,42.1272284 16.4096981,42.2512564 C16.2040318,42.3715618 15.9442158,42.3453075 15.7667752,42.1862893 L12.6846265,39.2163676 L22.2921894,29.5329038 L25.622395,29.5329038 L27.8726251,31.7831258 C24.3624511,34.8521174 20.4485981,37.4260478 16.2401082,39.4332056 L16.2401082,39.4332056 Z" id="Path" fill="#FFFFFF"></path>
                <path d="M16.0376128,42.7406185 C15.7828061,42.7355561 15.5313743,42.6309339 15.3626282,42.4478449 L12.4154764,39.5007038 C12.3268847,39.4298307 12.2771045,39.3218335 12.2804795,39.2079303 C12.2838544,39.1024643 12.3327908,39.0037482 12.4154764,38.9379374 L22.089694,29.240974 C22.1438645,29.1834005 22.2146548,29.144171 22.2921894,29.1287582 L25.644332,29.1287582 C25.7316806,29.0978759 25.8269772,29.0978759 25.9143258,29.1287582 L28.1645559,31.3789802 C28.2514602,31.4591343 28.2936468,31.5772562 28.2767721,31.6936907 C28.2799877,31.8070135 28.2300457,31.915325 28.1417752,31.9864642 L27.9620605,32.1442413 C24.4377277,35.0823674 20.5603226,37.5689429 16.4198229,39.5462651 L16.8475944,41.3687171 C16.9145642,41.6534416 16.8495186,41.9531837 16.6705565,42.1845401 C16.4915944,42.4158965 16.2178147,42.5541768 15.9253966,42.5609045 L16.0376128,42.7406185 Z M13.2929564,39.2079303 L15.9473336,41.8850785 C15.9985351,41.9307458 16.0758468,41.9307458 16.1270483,41.8850785 C16.1609804,41.8379593 16.1609804,41.7744206 16.1270483,41.7273014 L15.6773398,39.769853 C15.6047789,39.4804543 15.7448382,39.1792435 16.0148321,39.0501532 C20.0440124,37.0992295 23.8214636,34.6664044 27.2642951,31.8050627 L25.4190558,29.9598301 L22.4044056,29.9598301 L13.2929564,39.2079303 Z" id="Shape" fill="#FF6C37"></path>
                <path d="M10.3677417,41.5256505 L12.6179718,39.2754285 L16.0831743,42.7406185 L10.5710808,42.3584098 C10.3770227,42.3440664 10.2124952,42.2065388 10.16609,42.0158563 C10.1196848,41.8251738 10.2015267,41.6277415 10.3685854,41.5264942 L10.3677417,41.5256505 Z" id="Path" fill="#FFFFFF"></path>
                <path d="M16.149829,43.0781096 L10.6596725,42.6959009 C10.3339924,42.6655267 10.0538738,42.4427826 9.93912642,42.1449467 C9.82437903,41.8471108 9.89440869,41.4935888 10.1196848,41.2556576 L12.3699149,39.0054356 C12.5268665,38.8538136 12.7757318,38.8538136 12.9326834,39.0054356 L16.3751051,42.4478449 C16.4729779,42.5828414 16.4729779,42.7633991 16.3751051,42.8975519 C16.3227938,42.9819246 16.2434831,43.0452042 16.149829,43.0772659 L16.149829,43.0781096 Z M10.6596725,41.818424 L15.159289,42.1111976 L12.6846265,39.7934774 L10.6596725,41.818424 Z" id="Shape" fill="#FF6C37"></path>
                <polygon id="Path" fill="#FFFFFF" points="25.9371066 29.8045842 21.3919286 30.502347 24.0243688 27.892697"></polygon>
                <path d="M21.3919286,30.9284296 C21.2375259,30.9326482 21.0966228,30.8440568 21.0316556,30.7031543 C20.9333312,30.5693751 20.9333312,30.3872265 21.0316556,30.2534473 L23.641315,27.6210167 C23.8058425,27.4666145 24.0614929,27.4666145 24.2260205,27.6210167 L26.139602,29.5329038 C26.2176107,29.6566309 26.2176107,29.8141661 26.139602,29.9378932 C26.1012735,30.0888058 25.9781751,30.2033233 25.8248904,30.2306667 L21.3252739,30.9284296 L21.3919286,30.9284296 Z M24.0243688,28.4757129 L22.5621833,29.9378932 L25.0824072,29.5556845 L24.0243688,28.4757129 Z" id="Shape" fill="#FF6C37"></path>
                <path d="M25.9371066,29.8028967 L22.7646787,30.207886 C22.5903527,30.2474537 22.4107035,30.1680485 22.3226216,30.012496 C22.2345397,29.8569436 22.2588611,29.6620403 22.3824686,29.5329038 L24.0252125,27.8901658 L25.9371066,29.8028967 Z" id="Path" fill="#FFFFFF"></path>
                <path d="M22.6743995,30.6364998 C22.374875,30.6339686 22.1006625,30.4702854 21.9546971,30.2087298 C21.7781441,29.8922665 21.833276,29.4970405 22.089694,29.240974 L23.7324379,27.598236 C23.8969654,27.4438338 24.1526159,27.4438338 24.3171434,27.598236 L26.2298812,29.5109669 C26.3460924,29.6210738 26.386537,29.7893034 26.3330746,29.9402016 C26.2796123,30.0910999 26.1422777,30.1963439 25.982668,30.2087298 L22.8330209,30.6137191 L22.6743995,30.6364998 Z M22.6743995,29.8037404 L25.0596265,29.5109669 L24.0024318,28.453776 L22.6524625,29.8037404 L22.6743995,29.8037404 Z M42.2489546,13.5366688 C42.1612226,13.3897119 41.9773763,13.3316935 41.821183,13.4016724 C41.7459427,13.4398032 41.6893349,13.5067584 41.6642491,13.5872925 C41.6389372,13.6674466 41.6473745,13.7543506 41.6861861,13.8294424 C41.8439638,14.1610274 41.8000898,14.5533608 41.5739699,14.8419157 C41.5149088,14.8976018 41.4895968,14.974381 41.4895968,15.0553788 C41.4904146,15.1345072 41.5204663,15.210538 41.5739699,15.268842 C41.6317061,15.2916379 41.6959484,15.2916379 41.7536846,15.268842 C41.8604751,15.295687 41.9733317,15.2608869 42.0464592,15.1785631 C42.4245748,14.7156265 42.5033301,14.0767265 42.2489546,13.5358251 L42.2489546,13.5366688 Z" id="Shape" fill="#FF6C37"></path>
            </g>
        </g>
    </g>
</svg>