<?xml version="1.0" encoding="UTF-8"?>
<svg width="45px" height="41px" viewBox="0 0 45 41" version="1.1" xmlns="http://www.w3.org/2000/svg" xmlns:xlink="http://www.w3.org/1999/xlink">
    <title>react-2 (1)</title>
    <g id="Page-1" stroke="none" stroke-width="1" fill="none" fill-rule="evenodd">
        <g id="react-2-(1)" fill="#61DAFB" fill-rule="nonzero">
            <path d="M45,20.5046921 C45,17.4547951 41.2668161,14.5644312 35.5432124,12.7720302 C36.864044,6.80361639 36.2770077,2.05516136 33.6903791,0.534905013 C33.0941704,0.178301671 32.3970648,0.00938429847 31.6357521,0.00938429847 L31.6357521,2.10208286 C32.0576845,2.10208286 32.3970648,2.18654154 32.6814105,2.34607462 C33.9288626,3.0780499 34.4700367,5.86518654 34.0481044,9.44998856 C33.9472075,10.3321126 33.7821035,11.2611582 33.5803098,12.2089723 C31.7825112,11.758526 29.8196086,11.4113069 27.7558092,11.1860838 C26.5175296,9.44998856 25.2333877,7.87342641 23.9400734,6.49393454 C26.9302894,3.6504921 29.7370567,2.09269856 31.6449246,2.09269856 L31.6449246,0 C29.1225031,0 25.820424,1.8393225 22.4816551,5.02998398 C19.1428863,1.8580911 15.8408072,0.0375371939 13.3183857,0.0375371939 L13.3183857,2.13023575 C15.2170811,2.13023575 18.0330208,3.678645 21.0232369,6.50331884 C19.739095,7.88281071 18.4549531,9.44998856 17.2350183,11.1860838 C15.1620465,11.4113069 13.1991439,11.758526 11.4013453,12.2183566 C11.1903791,11.2799268 11.0344476,10.3696498 10.9243783,9.49691005 C10.4932735,5.91210803 11.0252752,3.12497139 12.2635548,2.38361181 C12.5387281,2.21469444 12.8964533,2.13962005 13.3183857,2.13962005 L13.3183857,0.0469214923 C12.5479005,0.0469214923 11.8507949,0.215838865 11.2454138,0.572442206 C8.6679576,2.09269856 8.09009376,6.83176928 9.42009784,12.7814145 C3.71483897,14.5831998 0,17.4641794 0,20.5046921 C0,23.5545892 3.73318386,26.4449531 9.45678761,28.2373541 C8.13595597,34.2057679 8.72299225,38.9542229 11.3096209,40.4744793 C11.9058296,40.8310826 12.6029352,41 13.3734203,41 C15.8958418,41 19.1979209,39.1606775 22.5366898,35.970016 C25.8754586,39.1419089 29.1775377,40.9624628 31.6999592,40.9624628 C32.4704444,40.9624628 33.1675499,40.7935454 33.7729311,40.4369421 C36.3503873,38.9166857 36.9282511,34.177615 35.598247,28.2279698 C41.285161,26.4355688 45,23.5452049 45,20.5046921 L45,20.5046921 Z M33.0574806,14.2453651 C32.7181003,15.4559396 32.296168,16.7040513 31.819201,17.952163 C31.4431309,17.2014191 31.0487159,16.4506752 30.6176111,15.6999313 C30.1956788,14.9491875 29.7462291,14.2172122 29.2967795,13.5040055 C30.5992662,13.7010758 31.8558907,13.9450675 33.0574806,14.2453651 Z M28.8565022,24.2396429 C28.1410518,25.5065232 27.4072564,26.7077134 26.6459437,27.824445 C25.2792499,27.9464408 23.8942112,28.0121309 22.5,28.0121309 C21.1149613,28.0121309 19.7299225,27.9464408 18.3724011,27.8338293 C17.6110885,26.7170977 16.8681207,25.5252918 16.1526702,24.2677958 C15.4555646,23.0384527 14.8226661,21.790341 14.2448023,20.532845 C14.8134937,19.2753491 15.4555646,18.0178531 16.1434978,16.78851 C16.8589482,15.5216297 17.5927436,14.3204395 18.3540563,13.2037079 C19.7207501,13.0817121 21.1057888,13.016022 22.5,13.016022 C23.8850387,13.016022 25.2700775,13.0817121 26.6275989,13.1943236 C27.3889115,14.3110552 28.1318793,15.5028611 28.8473298,16.7603571 C29.5444354,17.9897002 30.1773339,19.2378119 30.7551977,20.4953079 C30.1773339,21.7528038 29.5444354,23.0102998 28.8565022,24.2396429 Z M31.819201,23.0196841 C32.3145128,24.2771801 32.7364452,25.5346761 33.084998,26.7546349 C31.8834081,27.0549325 30.6176111,27.3083085 29.3059519,27.5053788 C29.7554015,26.7827878 30.2048512,26.0414282 30.6267835,25.2813001 C31.0487159,24.5305562 31.4431309,23.770428 31.819201,23.0196841 Z M22.5183449,33.0327306 C21.6653078,32.1318379 20.8122707,31.127718 19.968406,30.0297551 C20.7939258,30.0672923 21.6377905,30.0954452 22.4908276,30.0954452 C23.3530371,30.0954452 24.2060742,30.0766766 25.0407664,30.0297551 C24.2152466,31.127718 23.3622095,32.1318379 22.5183449,33.0327306 Z M15.6940481,27.5053788 C14.3915614,27.3083085 13.1349368,27.0643168 11.9333469,26.7640192 C12.2727273,25.5534447 12.6946596,24.305333 13.1716266,23.0572213 C13.5476967,23.8079652 13.9421117,24.5587091 14.3732165,25.309453 C14.8043212,26.0601968 15.2445985,26.7921721 15.6940481,27.5053788 Z M22.4724827,7.9766537 C23.3255198,8.87754635 24.1785569,9.88166629 25.0224215,10.9796292 C24.1969018,10.942092 23.3530371,10.9139391 22.5,10.9139391 C21.6377905,10.9139391 20.7847534,10.9327077 19.9500611,10.9796292 C20.7755809,9.88166629 21.628618,8.87754635 22.4724827,7.9766537 Z M15.6848757,13.5040055 C15.235426,14.2265965 14.7859764,14.9679561 14.364044,15.7280842 C13.9421117,16.4788281 13.5476967,17.229572 13.1716266,17.9803159 C12.6763147,16.7228199 12.2543824,15.4653239 11.9058296,14.2453651 C13.1074195,13.9544518 14.3732165,13.7010758 15.6848757,13.5040055 Z M7.38381574,25.2531472 C4.1367713,23.8361181 2.0362821,21.978027 2.0362821,20.5046921 C2.0362821,19.0313573 4.1367713,17.1638819 7.38381574,15.7562371 C8.17264574,15.4090181 9.03485528,15.0993362 9.92458214,14.808423 C10.4474113,16.6477455 11.1353445,18.5621424 11.9883816,20.5234607 C11.1445169,22.4753948 10.4657562,24.3804074 9.95209947,26.2103456 C9.04402772,25.9194324 8.18181818,25.6003662 7.38381574,25.2531472 Z M12.3185895,38.6633097 C11.0711374,37.9313344 10.5299633,35.1441978 10.9518956,31.5593957 C11.0527925,30.6772717 11.2178965,29.7482261 11.4196902,28.800412 C13.2174888,29.2508583 15.1803914,29.5980774 17.2441908,29.8233005 C18.4824704,31.5593957 19.7666123,33.1359579 21.0599266,34.5154498 C18.0697106,37.3588922 15.2629433,38.9166857 13.3550754,38.9166857 C12.9423155,38.9073014 12.5937627,38.8228428 12.3185895,38.6633097 L12.3185895,38.6633097 Z M34.0756217,31.5124743 C34.5067265,35.0972763 33.9747248,37.8844129 32.7364452,38.6257725 C32.4612719,38.7946899 32.1035467,38.8697642 31.6816143,38.8697642 C29.7829189,38.8697642 26.9669792,37.321355 23.9767631,34.4966812 C25.260905,33.1171893 26.5450469,31.5500114 27.7649817,29.8139162 C29.8379535,29.5886931 31.8008561,29.241474 33.5986547,28.7816434 C33.8096209,29.7294575 33.9747248,30.6397345 34.0756217,31.5124743 L34.0756217,31.5124743 Z M37.6070118,25.2531472 C36.8181818,25.6003662 35.9559723,25.9100481 35.0662454,26.2009613 C34.5434162,24.3616388 33.8554831,22.4472419 33.002446,20.4859236 C33.8463106,18.5339895 34.5250713,16.6289769 35.0387281,14.7990387 C35.9467998,15.0899519 36.8090094,15.4090181 37.6161843,15.7562371 C40.8632287,17.1732662 42.9637179,19.0313573 42.9637179,20.5046921 C42.9545455,21.978027 40.8540563,23.8455024 37.6070118,25.2531472 L37.6070118,25.2531472 Z" id="Shape"></path>
            <ellipse id="Oval" cx="22.4908276" cy="20.5046921" rx="4.19180595" ry="4.2886244"></ellipse>
        </g>
    </g>
</svg>