<?xml version="1.0" encoding="UTF-8"?>
<svg width="58px" height="51px" viewBox="0 0 58 51" version="1.1" xmlns="http://www.w3.org/2000/svg" xmlns:xlink="http://www.w3.org/1999/xlink">
    <title>react</title>
    <defs>
        <path d="M39.8726054,0 L39.8721151,0.0119546533 L40.1206174,0.0166930791 C40.8931196,0.0477390091 41.6086405,0.219193616 42.2418742,0.543692744 L42.4498697,0.657544769 C45.7090228,2.52634681 46.4486949,8.36347232 44.7844445,15.7002504 C51.9961883,17.9035886 56.7,21.4566218 56.7,25.2057689 C56.7,28.943373 52.0193016,32.4964062 44.8537921,34.6997443 C46.5295992,42.0134598 45.8014916,47.8390478 42.5538873,49.7078506 C41.7911176,50.1462119 40.912758,50.3538567 39.9419453,50.3538567 C36.7636965,50.3538567 32.6030783,48.115908 28.3962336,44.2167995 C24.1893888,48.1389791 20.0287551,50.4 16.8505063,50.4 C15.8796936,50.4 15.0013496,50.1923552 14.2501287,49.753994 C10.9909678,47.8851909 10.2513035,42.0480654 11.9155539,34.7112873 C4.70381083,32.5079336 0,28.9549159 0,25.2057689 C0,21.468157 4.68069677,17.9266667 11.8693196,15.7117856 C10.1935203,8.39807012 10.9216279,2.57248758 14.1692244,0.703677768 C14.9320019,0.265324946 15.8103615,0.0576759587 16.7811586,0.0576759587 L16.7811586,0.0576759587 L16.7811586,0.046140767 C19.959423,0.046140767 24.1200334,2.28408448 28.3268859,6.18318902 C32.5337307,2.2610141 36.6943566,0 39.8726054,0 L39.8726054,0 Z M14.3888162,35.4034377 C14.1345467,36.5685542 13.9265192,37.7105925 13.7993806,38.7949627 C13.2677515,43.2016475 13.9496325,46.6277859 15.521422,47.5275806 C15.8681447,47.7236897 16.3073128,47.8275119 16.827393,47.8390478 C19.2312998,47.8390478 22.767828,45.9241011 26.5355124,42.42875 C24.9059242,40.7329836 23.2879082,38.7949627 21.7276754,36.6608357 C19.1272978,36.3839756 16.6540355,35.9571579 14.3888162,35.4034377 Z M42.3343033,35.3803595 C40.0690762,35.945615 37.5958217,36.3724481 34.9838719,36.6492927 C33.4467602,38.7834275 31.8287441,40.7099133 30.2107203,42.4056719 C33.9783892,45.8779588 37.5264662,47.781368 39.9188242,47.781368 C40.4504611,47.781368 40.9012014,47.6890818 41.2479163,47.4814367 C42.8081491,46.5701076 43.4784735,43.1439684 42.9352878,38.7372867 C42.8081491,37.6644518 42.6001217,36.5454838 42.3343033,35.3803595 Z M31.5513691,36.9146254 C30.4996521,36.9723014 29.4248295,36.9953796 28.3384348,36.9953796 C27.2636122,36.9953796 26.2003464,36.960774 25.160186,36.9146254 C26.2234674,38.2643128 27.2982822,39.4986482 28.3731125,40.6060888 C29.4363862,39.4986482 30.5112165,38.2643128 31.5513691,36.9146254 Z M28.3499992,16.0001887 C26.5932957,16.0001887 24.848141,16.0809351 23.1261074,16.2309003 C22.1668591,17.603658 21.2422807,19.0802403 20.3408001,20.6375766 C19.474005,22.1487799 18.6650008,23.6945655 17.9484421,25.2403744 C18.6765653,26.7861756 19.474005,28.3204415 20.3523645,29.8316293 C21.2538296,31.3774305 22.1899724,32.8424853 23.1492207,34.215243 C24.8597054,34.3536731 26.6048445,34.4344272 28.3499992,34.4344272 C30.1067027,34.4344272 31.8518574,34.3536731 33.5738833,34.2037 C34.5331393,32.8309423 35.4577177,31.3543601 36.3591983,29.7970238 C37.2259935,28.285836 38.0234331,26.740027 38.7515407,25.1942259 C38.0234331,23.6484325 37.2259935,22.1141744 36.3476339,20.602971 C35.4461688,19.0571776 34.510026,17.5921229 33.5507778,16.2193574 C31.840293,16.0809351 30.0951539,16.0001887 28.3499992,16.0001887 Z M40.0921973,28.2973634 C39.6183514,29.2202331 39.1213845,30.154638 38.5897477,31.0774999 C38.0581186,32.0119049 37.4918041,32.9232238 36.9254973,33.811488 C38.5781833,33.5692412 40.173086,33.2577599 41.6871,32.8886183 C41.2479163,31.3889657 40.7162873,29.8431723 40.0921973,28.2973634 Z M16.5962523,28.3435119 C15.9952678,29.8777779 15.463631,31.412036 15.0360195,32.9001612 C16.5500179,33.2693107 18.133364,33.5692412 19.7745011,33.811488 C19.2081943,32.9347668 18.6534442,32.0349675 18.1102507,31.1121055 C17.567065,30.1892436 17.0700981,29.2663739 16.5962523,28.3435119 Z M12.504974,18.2035269 C11.3839171,18.5611333 10.2975301,18.9418102 9.30360411,19.3686434 C5.21233204,21.0990153 2.56571463,23.3946505 2.56571463,25.2057689 C2.56571463,27.0168872 5.21233204,29.3009794 9.30360411,31.0428944 C10.3090868,31.469712 11.3954737,31.8619318 12.5396439,32.2195461 C13.1868472,29.9700594 14.0420857,27.6282912 15.1053594,25.2288392 C14.0305368,22.8178521 13.1637417,20.464541 12.504974,18.2035269 Z M44.14879,18.1919839 C43.5015868,20.4414706 42.6463483,22.7832465 41.5830746,25.1826985 C42.6579127,27.5936856 43.5247078,29.9469812 44.18346,32.2080109 C45.3045247,31.8504044 46.3909116,31.469712 47.3848299,31.0428944 C51.4761004,29.3125224 54.1227201,27.0168872 54.1342846,25.2057689 C54.1342846,23.3946505 51.4876648,21.1105428 47.3963943,19.3686434 C46.3793472,18.9418102 45.2929602,18.5495904 44.14879,18.1919839 Z M19.7629444,16.600042 C18.1102507,16.8422965 16.515348,17.1537623 15.0013496,17.5113765 C15.4405177,19.0110291 15.9721467,20.556838 16.5962523,22.1026314 C17.0700981,21.1797617 17.567065,20.2568997 18.0986941,19.3340378 C18.6303309,18.3996329 19.1966299,17.4882984 19.7629444,16.600042 Z M36.9139329,16.600042 C37.4802474,17.4767709 38.0465542,18.3765625 38.5781833,19.2994244 C39.1213845,20.2222864 39.6183514,21.1451639 40.0921973,22.0680258 C40.6931662,20.5337599 41.224803,18.9995017 41.65243,17.5113765 C40.1384161,17.1422348 38.55507,16.8422965 36.9139329,16.600042 Z M16.7811586,2.61862835 L16.7811586,2.63017131 C16.2495218,2.63017131 15.798797,2.72245284 15.4520821,2.93008629 C13.8918493,3.84142081 13.2215249,7.26755919 13.7647106,11.674251 C13.9033982,12.747086 14.0998767,13.866054 14.3656951,15.0196353 C16.6309222,14.4543798 19.1041767,14.0275622 21.7161265,13.750702 C23.2532382,11.6165673 24.871262,9.69008928 26.4892781,7.99432288 C22.7216092,4.52204373 19.1735166,2.61862835 16.7811586,2.61862835 L16.7811586,2.61862835 Z M39.8604418,2.57300025 L39.6947004,2.57590022 C37.2960319,2.66683921 33.8402605,4.57267524 30.164486,7.98277992 C31.7940742,9.67854632 33.4120902,11.6165673 34.972323,13.750702 C37.5727006,14.0275622 40.0459629,14.4543798 42.3111822,15.0081001 C42.565444,13.8429836 42.7734792,12.7009374 42.9006023,11.6165673 C43.4322391,7.20988323 42.7503659,3.78374486 41.1785764,2.88395329 C40.8203049,2.68784727 40.3926778,2.58402277 39.861041,2.58402277 L39.861041,2.58402277 L39.8604418,2.57300025 Z M28.3153293,9.80544896 C27.2520478,10.9128895 26.1772331,12.1472172 25.1370805,13.4969123 C26.1887819,13.4392208 27.2636122,13.4161582 28.3499992,13.4161582 C29.4248295,13.4161582 30.4880954,13.4507637 31.528248,13.4969123 C30.4649821,12.1472172 29.3901518,10.9128895 28.3153293,9.80544896 Z" id="path-1"></path>
        <path d="M5.28166729,0 C8.19866586,0 10.5633501,2.36030219 10.5633501,5.2718778 C10.5633501,8.18345341 8.19866586,10.5437401 5.28166729,10.5437401 C2.3646765,10.5437401 0,8.18345341 0,5.2718778 C0,2.36030219 2.3646765,0 5.28166729,0 Z" id="path-3"></path>
    </defs>
    <g id="Page-1" stroke="none" stroke-width="1" fill="none" fill-rule="evenodd">
        <g id="Artboard" transform="translate(-236.000000, -358.000000)">
            <g id="react" transform="translate(236.700000, 358.200000)">
                <g id="Group-3">
                    <mask id="mask-2" fill="white">
                        <use xlink:href="#path-1"></use>
                    </mask>
                    <g id="Clip-2"></g>
                    <polygon id="Fill-1" fill="#61DAFB" mask="url(#mask-2)" points="-0.64608012 51.0448807 57.346079 51.0448807 57.346079 -0.644880526 -0.64608012 -0.644880526"></polygon>
                </g>
                <g id="Group-6" transform="translate(23.056767, 19.933891)">
                    <mask id="mask-4" fill="white">
                        <use xlink:href="#path-3"></use>
                    </mask>
                    <g id="Clip-5"></g>
                    <polygon id="Fill-4" fill="#61DAFB" mask="url(#mask-4)" points="-0.646082649 11.1886233 11.209425 11.1886233 11.209425 -0.644875477 -0.646082649 -0.644875477"></polygon>
                </g>
            </g>
        </g>
    </g>
</svg>