<?xml version="1.0" encoding="UTF-8"?>
<svg width="39px" height="39px" viewBox="0 0 39 39" version="1.1" xmlns="http://www.w3.org/2000/svg" xmlns:xlink="http://www.w3.org/1999/xlink">
    <title>slack-new-logo (1)</title>
    <g id="Page-1" stroke="none" stroke-width="1" fill="none" fill-rule="evenodd">
        <g id="slack-new-logo-(1)" fill-rule="nonzero">
            <path d="M14.2991525,0 C12.1432865,0.00159021407 10.3985169,1.74764526 10.4001092,3.89920489 C10.3985169,6.05076453 12.1448799,7.79681957 14.3007459,7.79840979 L18.2013826,7.79840979 L18.2013826,3.90079511 C18.2029749,1.74923547 16.4566119,0.00318042813 14.2991525,0 C14.3007459,0 14.3007459,0 14.2991525,0 M14.2991525,10.4 L3.90064432,10.4 C1.74477831,10.4015902 -0.00158469967,12.1476453 4.34267349e-06,14.2992049 C-0.00317809658,16.4507645 1.74318491,18.1968196 3.89905092,18.2 L14.2991525,18.2 C16.4550185,18.1984098 18.2013815,16.4523547 18.1997892,14.3007951 C18.2013815,12.1476453 16.4550185,10.4015902 14.2991525,10.4 Z" id="Shape" fill="#36C5F0"></path>
            <path d="M38.9999924,14.2992049 C39.0015847,12.1476453 37.2552217,10.4015902 35.0993557,10.4 C32.9434897,10.4015902 31.1971267,12.1476453 31.198719,14.2992049 L31.198719,18.2 L35.0993557,18.2 C37.2552217,18.1984098 39.0015847,16.4523547 38.9999924,14.2992049 Z M28.5998908,14.2992049 L28.5998908,3.89920489 C28.6014831,1.74923547 26.8567135,0.00318042813 24.7008475,0 C22.5449815,0.00159021407 20.7986185,1.74764526 20.8002075,3.89920489 L20.8002075,14.2992049 C20.7970251,16.4507645 22.5433881,18.1968196 24.6992541,18.2 C26.8551201,18.1984098 28.6014831,16.4523547 28.5998908,14.2992049 Z" id="Shape" fill="#2EB67D"></path>
            <path d="M24.6992541,39 C26.8551201,38.9984098 28.6014831,37.2523547 28.5998908,35.1007951 C28.6014831,32.9492355 26.8551201,31.2031804 24.6992541,31.2015902 L20.7986174,31.2015902 L20.7986174,35.1007951 C20.7970251,37.2507645 22.5433881,38.9968196 24.6992541,39 Z M24.6992541,28.5984098 L35.0993557,28.5984098 C37.2552217,28.5968196 39.0015847,26.8507645 38.9999957,24.6992049 C39.0031781,22.5476453 37.2568151,20.8015902 35.1009491,20.7984098 L24.7008475,20.7984098 C22.5449815,20.8 20.7986185,22.546055 20.8002108,24.6976147 C20.7986185,26.8507645 22.5433881,28.5968196 24.6992541,28.5984098 L24.6992541,28.5984098 Z" id="Shape" fill="#ECB22E"></path>
            <path d="M7.60772491e-06,24.6992049 C-0.00158469967,26.8507645 1.74477831,28.5968196 3.90064432,28.5984098 C6.05651033,28.5968196 7.80287333,26.8507645 7.80128103,24.6992049 L7.80128103,20.8 L3.90064432,20.8 C1.74477831,20.8015902 -0.00158469967,22.5476453 7.60772491e-06,24.6992049 Z M10.4001059,24.6992049 L10.4001059,35.0992049 C10.3969235,37.2507645 12.1432865,38.9968196 14.2991525,39 C16.4550185,38.9984098 18.2013815,37.2523547 18.1997925,35.1007951 L18.1997925,24.7023853 C18.2029749,22.5508257 16.4566119,20.8047706 14.3007459,20.8015902 C12.1432865,20.8015902 10.3985169,22.5476453 10.4001059,24.6992049 C10.4001059,24.6992049 10.4001059,24.7007951 10.4001059,24.6992049" id="Shape" fill="#E01E5A"></path>
        </g>
    </g>
</svg>