<?xml version="1.0" encoding="UTF-8"?>
<svg width="49px" height="50px" viewBox="0 0 49 50" version="1.1" xmlns="http://www.w3.org/2000/svg" xmlns:xlink="http://www.w3.org/1999/xlink">
    <title>slack</title>
    <defs>
        <path d="M17.8189458,12.9599991 C20.5054849,12.9619803 22.6817246,15.1378358 22.6797408,17.8209904 C22.6817246,20.5021637 20.5054849,22.6780193 17.8189458,22.6800004 L17.8189458,22.6800004 L4.85882169,22.6800004 C2.17228184,22.6760381 -0.00395499948,20.5001826 5.39689063e-06,17.8190092 C-0.00196938225,15.1378358 2.17426696,12.9619803 4.86080758,12.9599991 L4.86080758,12.9599991 L17.8189458,12.9599991 Z M17.8189458,0 L17.9974035,0.00346348492 C20.6031161,0.100916543 22.6836656,2.23939946 22.6817259,4.86099122 L22.6817259,4.86099122 L22.6817259,9.71802012 L17.8209309,9.71802012 C15.1343918,9.71603896 12.9581521,7.54018345 12.9601359,4.85901006 C12.9581521,2.17783667 15.1324067,0.00198115693 17.8189458,0 L17.8189458,0 Z" id="path-1"></path>
        <path d="M17.8189404,12.9599991 C20.5054795,12.9619803 22.6817192,15.1378358 22.6797354,17.8190092 C22.6817192,20.5021637 20.5054795,22.6780193 17.8189404,22.6800004 L17.8189404,22.6800004 L12.9581454,22.6800004 L12.9581454,17.8190092 C12.9561616,15.1378358 15.1324013,12.9619803 17.8189404,12.9599991 Z M4.86079679,0 C7.54734356,0.00396231386 9.72159044,2.17981783 9.71960668,4.85901006 L9.71960668,4.85901006 L9.71960668,17.8190092 C9.72159044,20.5021637 7.54535844,22.6780193 4.85881167,22.6800004 C2.17227259,22.6760381 -0.00395941072,20.5001826 5.40895417e-06,17.8190092 L5.40895417e-06,17.8190092 L5.40895417e-06,4.85901006 C-0.00197428901,2.17783667 2.17425771,0.00198115693 4.86079679,0 Z" id="path-3"></path>
        <path d="M4.86078867,12.9639615 C7.54733544,12.9659503 9.72356744,15.1417981 9.72158368,17.8229738 C9.72356744,20.504148 7.54733544,22.6800013 4.86078867,22.6819829 C2.17424959,22.6780196 -0.00198240954,20.5021668 1.35516166e-06,17.8229738 L1.35516166e-06,17.8229738 L1.35516166e-06,12.9639615 L4.86078867,12.9639615 Z M17.8229025,0 C20.5094416,0.00396231386 22.6856813,2.17981783 22.6817165,4.86099122 C22.6836962,7.54216461 20.5074565,9.71802012 17.8209174,9.72000127 L17.8209174,9.72000127 L4.86078867,9.72000127 C2.17424959,9.71802012 2.71217925e-06,7.54216461 0.00198647564,4.85901006 C2.71217925e-06,2.17783667 2.17623471,0.00198115693 4.86277379,0 L4.86277379,0 L17.8229025,0 Z" id="path-5"></path>
        <path d="M17.8209187,0.00198115693 C20.5074578,0.00595114969 22.6836975,2.18179898 22.6797327,4.86297237 L22.6797327,4.86297237 L22.6797327,17.8209927 C22.6817124,20.5021668 20.5054727,22.6780201 17.8189336,22.6800017 C15.1323945,22.6760384 12.9561548,20.5001857 12.9601197,17.8190115 L12.9601197,17.8190115 L12.9601197,4.85901006 L12.9601197,4.85901006 L12.9631986,4.68103212 C13.0550275,2.08220648 15.1921395,0.00198115693 17.8209187,0.00198115693 Z M9.72159271,0 L9.72159271,4.85901006 C9.7235688,7.54018345 7.54733526,9.71603896 4.86079541,9.71802012 C2.17425479,9.71603896 -0.00198154972,7.54018345 1.35398295e-06,4.85901006 C-0.00198154972,2.17783667 2.17425479,0.00198115693 4.86079541,0 L4.86079541,0 L9.72159271,0 Z" id="path-7"></path>
    </defs>
    <g id="Page-1" stroke="none" stroke-width="1" fill="none" fill-rule="evenodd">
        <g id="Artboard" transform="translate(-583.000000, -508.000000)">
            <g id="slack" transform="translate(583.200000, 508.500000)">
                <g id="Group-3">
                    <mask id="mask-2" fill="white">
                        <use xlink:href="#path-1"></use>
                    </mask>
                    <g id="Clip-2"></g>
                    <polygon id="Fill-1" fill="#36C5F0" mask="url(#mask-2)" points="-0.992803149 23.6708246 23.6745347 23.6708246 23.6745347 -0.99082419 -0.992803149 -0.99082419"></polygon>
                </g>
                <g id="Group-6" transform="translate(25.920255, 0.000000)">
                    <mask id="mask-4" fill="white">
                        <use xlink:href="#path-3"></use>
                    </mask>
                    <g id="Clip-5"></g>
                    <polygon id="Fill-4" fill="#2EB67D" mask="url(#mask-4)" points="-0.992819324 23.6708246 23.6725411 23.6708246 23.6725411 -0.99082419 -0.992819324 -0.99082419"></polygon>
                </g>
                <g id="Group-9" transform="translate(25.918278, 25.918017)">
                    <mask id="mask-6" fill="white">
                        <use xlink:href="#path-5"></use>
                    </mask>
                    <g id="Clip-8"></g>
                    <polygon id="Fill-7" fill="#ECB22E" mask="url(#mask-6)" points="-0.992804361 23.6728088 23.6745412 23.6728088 23.6745412 -0.990821118 -0.992804361 -0.990821118"></polygon>
                </g>
                <g id="Group-12" transform="translate(0.000012, 25.919998)">
                    <mask id="mask-8" fill="white">
                        <use xlink:href="#path-7"></use>
                    </mask>
                    <g id="Clip-11"></g>
                    <polygon id="Fill-10" fill="#E01E5A" mask="url(#mask-8)" points="-0.992807623 23.6708277 23.6725528 23.6708277 23.6725528 -0.990821118 -0.992807623 -0.990821118"></polygon>
                </g>
            </g>
        </g>
    </g>
</svg>