<?xml version="1.0" encoding="UTF-8"?>
<svg width="55px" height="55px" viewBox="0 0 55 55" version="1.1" xmlns="http://www.w3.org/2000/svg" xmlns:xlink="http://www.w3.org/1999/xlink">
    <title>swagger</title>
    <g id="Page-1" stroke="none" stroke-width="1" fill="none" fill-rule="evenodd">
        <g id="Artboard" transform="translate(-580.000000, -356.000000)" fill-rule="nonzero">
            <g id="swagger" transform="translate(580.500000, 356.400000)">
                <path d="M26.8017188,53.9993513 C12.4136719,53.9002107 -0.0963984375,41.9592532 0.000632812501,26.7886327 C0.0938671875,12.1913402 12.22425,-0.0989296583 27.2341406,0.000632812314 C41.8219453,0.0976640337 54.1293047,12.2063167 53.9989453,27.0409139 C54.1198125,41.7411439 41.7519141,54.1031325 26.8017188,53.9993513 Z M26.8017188,53.9993513 C12.4136719,53.9002107 -0.0963984375,41.9592532 0.000632812501,26.7886327 C0.0938671875,12.1913402 12.22425,-0.0989296583 27.2341406,0.000632812314 C41.8219453,0.0976640337 54.1293047,12.2063167 53.9989453,27.0409139 C54.1198125,41.7411439 41.7519141,54.1031325 26.8017188,53.9993513 Z" id="Shape" fill="#FFFFFF"></path>
                <path d="M26.8280859,50.4134148 C14.3505,50.3275633 3.50240625,39.9726445 3.58635937,26.8166874 C3.66735937,14.1579099 14.1866016,3.49966303 27.2031328,3.58635832 C39.8534766,3.67052235 50.5262812,14.1711989 50.4132187,27.0356405 C50.5178437,39.7832226 39.7927266,50.5034851 26.8280859,50.4134148 Z M26.8280859,50.4134148 C14.3505,50.3275633 3.50240625,39.9726445 3.58635937,26.8166874 C3.66735937,14.1579099 14.1866016,3.49966303 27.2031328,3.58635832 C39.8534766,3.67052235 50.5262812,14.1711989 50.4132187,27.0356405 C50.5178437,39.7832226 39.7927266,50.5034851 26.8280859,50.4134148 Z" id="Shape" fill="#49A32B"></path>
                <path d="M35.7174141,26.9907108 C35.6575078,28.1065698 34.6825547,29.033218 33.7219453,28.8716399 L33.7073906,28.8716399 C33.1963435,28.8723116 32.7059699,28.6698997 32.3441895,28.3089502 C31.9824092,27.9480007 31.7788704,27.4580939 31.7783672,26.9470467 C31.8145851,25.8800553 32.6994204,25.0390537 33.766875,25.0570473 C34.8310547,25.0623207 35.775,25.961547 35.7174141,26.9907108 L35.7174141,26.9907108 Z M18.6048984,37.8042076 C19.0061016,37.8160201 19.4077266,37.8073717 19.8705234,37.8073717 L19.8705234,40.7153552 C16.9943906,41.201566 14.6253516,40.3850272 14.0440078,37.9539732 C13.8450293,37.0599603 13.7225245,36.1506301 13.6778203,35.2358334 C13.6160156,34.2672086 13.72275,33.2878261 13.6489219,32.3208889 C13.4443125,29.6605459 13.0998516,28.7522493 10.546875,28.6265306 L10.546875,25.3156566 C10.7299027,25.2729909 10.9152869,25.2411544 11.1020625,25.2203129 C12.5018437,25.1513363 13.0918359,24.7220786 13.4048672,23.3433916 C13.5474379,22.5687846 13.6316279,21.7845635 13.6567266,20.9973454 C13.7676797,19.4750099 13.7284453,17.9279947 13.9819922,16.4303389 C14.3483906,14.2646442 15.6929063,13.2124883 17.9138672,13.0945743 C18.5458359,13.0608243 19.1797031,13.0895118 19.8958359,13.0895118 L19.8958359,16.0616203 C19.6011563,16.082714 19.3311562,16.1255343 19.0626328,16.1175187 C17.2527891,16.0620421 17.1593438,16.6786123 17.0270859,18.17669 C16.9448203,19.1162053 17.0585156,20.0717519 16.9943906,21.0146422 C16.92744,21.9528429 16.8019693,22.8859474 16.6187109,23.8085086 C16.3575703,25.145641 15.5355469,26.1400001 14.3964844,26.9837499 C16.6077422,28.422976 16.8593906,30.6589128 17.0030391,32.9296544 C17.0802422,34.1497165 17.0450156,35.378638 17.1688359,36.5927939 C17.2652344,37.5350514 17.6318438,37.7755201 18.6048984,37.8042076 L18.6048984,37.8042076 Z M20.4687422,25.0572582 L20.5029141,25.0572582 C21.0107227,25.0655815 21.494425,25.2752964 21.8476055,25.6402654 C22.200786,26.0052343 22.3945123,26.4955589 22.3861641,27.003367 C22.3851069,27.5184554 22.1720791,28.0103991 21.7971444,28.3635862 C21.4222096,28.7167733 20.9184287,28.9000609 20.4041953,28.8703743 C19.7064352,28.883349 19.0572529,28.5143666 18.7113908,27.9082175 C18.3655287,27.3020684 18.3781663,26.555459 18.7443446,25.9613623 C19.1105228,25.3672657 19.7718209,25.0204653 20.4687422,25.0570473 L20.4687422,25.0572582 Z M27.0575859,25.0572582 C28.2141562,25.0481879 28.9821797,25.7976486 28.9880859,26.9409296 C28.9944141,28.1147964 28.2662578,28.8657337 27.1174922,28.870822 C25.9488984,28.8758587 25.1798203,28.1367339 25.1734922,27.0004139 C25.1410113,26.4860808 25.3270215,25.9819116 25.6857688,25.6119197 C26.0445161,25.2419278 26.5427063,25.0404508 27.0577969,25.0570473 L27.0575859,25.0572582 Z M40.8528984,23.6087508 C41.1606562,24.7577271 41.7595078,25.1616723 42.9690234,25.2167269 C43.1673047,25.2260082 43.3645312,25.2595472 43.6362187,25.2897113 L43.6362187,28.5997416 C43.4891953,28.6482572 43.338375,28.6841165 43.1852344,28.7077415 C41.5643906,28.8085696 40.8256875,29.4734444 40.662,31.0987174 C40.557375,32.1363186 40.5660234,33.1853105 40.4940937,34.2264977 C40.4639588,35.3696737 40.3599607,36.5097063 40.18275,37.6394655 C39.7693125,39.6861914 38.4912422,40.7073396 36.3797578,40.8320036 C35.7003281,40.8720817 35.0158359,40.8383317 34.2830391,40.8383317 L34.2830391,37.8797232 C34.6774922,37.8554654 35.0255391,37.8217154 35.3744297,37.8134888 C36.6360469,37.7833248 37.0821797,37.3766374 37.1439844,36.123669 C37.2123281,34.7473023 37.2420703,33.369037 37.3036641,31.9922484 C37.3928906,30.0024755 37.9377422,28.2246948 39.7916719,26.9835389 C38.7306562,26.2273282 37.8791016,25.3112269 37.6586719,24.0761882 C37.3918359,22.5791652 37.3055625,21.049025 37.1619141,19.5309083 C37.0910391,18.7721663 37.0944141,18.0066744 37.020375,17.2483543 C36.9404297,16.429917 36.3780703,16.1464171 35.6330391,16.1282765 C35.2061016,16.1177296 34.7776875,16.1261671 34.2319922,16.1261671 L34.2319922,13.237168 C37.7143594,12.6589885 40.1198906,13.8176678 40.3434844,17.1496356 C40.4369297,18.5485727 40.4232187,19.9544707 40.5128672,21.3536187 C40.5521016,22.114681 40.6660078,22.8702589 40.8528984,23.6087508 L40.8528984,23.6087508 Z" id="Shape" fill="#FFFFFF"></path>
                <rect id="Rectangle" fill-opacity="0" fill="#000000" x="0" y="0" width="54" height="53.9999841"></rect>
            </g>
        </g>
    </g>
</svg>