<?xml version="1.0" encoding="UTF-8"?>
<svg width="45px" height="45px" viewBox="0 0 45 45" version="1.1" xmlns="http://www.w3.org/2000/svg" xmlns:xlink="http://www.w3.org/1999/xlink">
    <title>swift</title>
    <defs>
        <path d="M34.1495201,0 C35.3376898,0 36.4914178,0.189495717 37.6107118,0.585706941 C39.2293721,1.17140608 40.6930601,2.20500702 41.7951333,3.54867342 C42.9144195,4.89234763 43.6548701,6.54610289 43.9131675,8.26875293 C44.0164927,8.90614264 44.0337058,9.54351676 44.0337058,10.1808987 L44.0337058,34.0052393 C44.0337058,34.7631987 43.9992718,35.5384014 43.8442918,36.2791411 C43.4998901,37.9845705 42.6905638,39.5866407 41.519615,40.8786329 C40.365887,42.1706251 38.8505364,43.1353125 37.2146553,43.6521094 C36.2158995,43.9621875 35.1827176,44.1 34.1322992,44.1 L27.0162913,44.0992614 C26.9046637,44.0992403 26.7923336,44.0992186 26.679348,44.0991963 L23.8660186,44.0985326 C23.7455665,44.0984992 23.6248365,44.0984651 23.5038758,44.0984302 L21.3118536,44.0977149 C21.1898225,44.0976701 21.0678437,44.0976244 20.9459645,44.0975778 L19.4912108,44.0969747 C19.3708827,44.0969207 19.2508429,44.0968657 19.1311385,44.0968098 L18.06413,44.0962791 C17.9468629,44.096217 17.8300729,44.096154 17.7138069,44.0960899 L16.6828402,44.0954842 C16.5701439,44.0954136 16.4581134,44.0953419 16.3467958,44.0952692 L15.3654593,44.0945834 C15.2588437,44.0945038 15.1530826,44.0944229 15.048223,44.0943409 L14.430263,44.0938344 C14.3291987,44.0937476 14.2291305,44.0936595 14.1301054,44.0935702 L13.5488504,44.0930194 C13.2648594,44.0927364 12.9911063,44.0924419 12.7288651,44.0921355 L12.220109,44.0915066 C10.4958267,44.0892489 9.37723739,44.086391 9.30129663,44.0827734 C7.54487491,43.9966406 5.80567015,43.4281641 4.34198447,42.4462502 C2.91273741,41.4815627 1.74178855,40.1378901 0.984115575,38.5875004 C0.329762118,37.2610553 0.00258513243,35.7795721 0.00258513243,34.298085 L0.00258513243,9.80191504 C-0.0318545453,8.33765549 0.278102555,6.89063134 0.915236001,5.58140452 C1.65568967,4.03101481 2.80941921,2.67012081 4.23866472,1.70543024 C5.70235196,0.706292287 7.42433585,0.120593149 9.18075836,0.0344551853 C9.35295144,0 9.54238099,0 9.73179495,0 L34.1495201,0 Z" id="path-1"></path>
        <linearGradient x1="59.3699079%" y1="-3.3964069%" x2="40.5142649%" y2="103.408433%" id="linearGradient-3">
            <stop stop-color="#FAAE42" offset="0%"></stop>
            <stop stop-color="#EF3F31" offset="100%"></stop>
        </linearGradient>
        <path d="M18.4424504,0 L24.882673,6.54610289 C39.4162046,16.4341403 34.7151961,27.338551 34.7151961,27.338551 C34.7151961,27.338551 38.8479549,31.989728 37.1948529,36.0724256 C37.0398729,35.8312471 36.8676798,35.5900764 36.6782503,35.3661333 C36.2477598,34.8493367 35.7483858,34.4014505 35.197357,34.0224591 C34.5085613,33.5573453 33.6992272,33.2644918 32.8726723,33.2300366 C32.287194,33.1955892 31.7017235,33.298947 31.1506869,33.5056625 C30.5996503,33.6951582 30.0658346,33.9707841 29.5492397,34.24641 C28.9465483,34.556491 28.3438569,34.8665643 27.706716,35.1249626 C26.9490524,35.4350359 26.1569314,35.6762143 25.3476052,35.8484747 C24.3316364,36.0379704 23.2984389,36.106873 22.28247,36.0896532 C20.4399463,36.055198 18.5974226,35.7795721 16.8409954,35.2627755 C15.2912186,34.7976617 13.8103097,34.160272 12.4155052,33.350622 C11.1928937,32.6443375 10.0563866,31.8346875 8.98875515,30.9216797 C8.11054546,30.1637124 7.30121144,29.3540624 6.54353847,28.4927373 C6.02694361,27.8898028 5.52756806,27.2524287 5.0626327,26.5978114 C4.87321406,26.3394131 4.70101552,26.0637872 4.54603706,25.7881613 L0,20.8786017 L0,9.76746766 C0,4.37555106 4.35661843,0 9.74643436,0 L18.4424504,0 Z" id="path-4"></path>
        <linearGradient x1="50.9184676%" y1="1.77093593%" x2="37.118332%" y2="79.9398766%" id="linearGradient-6">
            <stop stop-color="#E39F3A" offset="0%"></stop>
            <stop stop-color="#D33A29" offset="100%"></stop>
        </linearGradient>
        <path d="M20.3710698,0 C34.9046092,9.8880374 30.2035929,20.7924482 30.2035929,20.7924482 C30.2035929,20.7924482 34.3363518,25.4608527 32.6660289,29.5435503 C32.6660289,29.5435503 30.9612722,26.6839337 28.1027718,26.6839337 C25.3476044,26.6839337 23.7289364,29.5435503 18.1841521,29.5435503 C5.83752264,29.5435503 0,19.2248387 0,19.2248387 C11.1240173,26.5461208 18.7179679,21.3609275 18.7179679,21.3609275 C13.7069837,18.449636 3.0479112,4.53057598 3.0479112,4.53057598 C12.1231448,12.2618618 16.1607051,14.4264708 16.3356706,14.5188577 L16.3416284,14.5219867 C14.6897347,13.1547736 10.9792143,8.11997084 8.83833965,5.1310812 L8.46360161,4.60641963 C7.71326727,3.55290726 7.23233498,2.85960093 7.23233498,2.85960093 C8.9258667,4.57551812 11.1463862,6.50539238 13.3933894,8.34384076 L13.8585003,8.72280468 C18.5876317,12.5603051 23.2812172,15.9001083 23.2812172,15.9001083 C25.7394464,9.08145568 22.295292,2.86347198 20.9064598,0.757738714 L20.7971011,0.593997048 C20.5360932,0.208154174 20.3710698,0 20.3710698,0 Z" id="path-7"></path>
    </defs>
    <g id="Page-1" stroke="none" stroke-width="1" fill="none" fill-rule="evenodd">
        <g id="Artboard" transform="translate(-585.000000, -213.000000)">
            <g id="swift" transform="translate(585.900000, 213.300000)">
                <g id="Group-3" transform="translate(0.066294, 0.000000)">
                    <mask id="mask-2" fill="white">
                        <use xlink:href="#path-1"></use>
                    </mask>
                    <g id="Clip-2"></g>
                    <polygon id="Fill-1" fill="url(#linearGradient-3)" mask="url(#mask-2)" points="-0.0662942231 44.1 44.1046561 44.1 44.1046561 0 -0.0662942231 0"></polygon>
                </g>
                <g id="Group-6">
                    <mask id="mask-5" fill="white">
                        <use xlink:href="#path-4"></use>
                    </mask>
                    <g id="Clip-5"></g>
                    <polygon id="Fill-4" fill="url(#linearGradient-6)" mask="url(#mask-5)" points="0 44.1 44.1709503 44.1 44.1709503 0 0 0"></polygon>
                </g>
                <g id="Group-9" transform="translate(4.546037, 6.546103)">
                    <mask id="mask-8" fill="white">
                        <use xlink:href="#path-7"></use>
                    </mask>
                    <g id="Clip-8"></g>
                    <polygon id="Fill-7" fill="#FFFFFF" mask="url(#mask-8)" points="-0.440827713 29.9845462 33.5044598 29.9845462 33.5044598 -0.441005306 -0.440827713 -0.441005306"></polygon>
                </g>
            </g>
        </g>
    </g>
</svg>