<?xml version="1.0" encoding="UTF-8"?>
<svg width="35px" height="35px" viewBox="0 0 35 35" version="1.1" xmlns="http://www.w3.org/2000/svg" xmlns:xlink="http://www.w3.org/1999/xlink">
    <title>swift-15 (1)</title>
    <defs>
        <linearGradient x1="59.3761636%" y1="-3.56835938%" x2="40.5185722%" y2="103.580469%" id="linearGradient-1">
            <stop stop-color="#FAAE42" offset="0%"></stop>
            <stop stop-color="#EF3E31" offset="100%"></stop>
        </linearGradient>
        <linearGradient x1="59.840562%" y1="5.71369151%" x2="43.6223274%" y2="94.0724917%" id="linearGradient-2">
            <stop stop-color="#E39F3A" offset="0%"></stop>
            <stop stop-color="#D33929" offset="100%"></stop>
        </linearGradient>
    </defs>
    <g id="Page-1" stroke="none" stroke-width="1" fill="none" fill-rule="evenodd">
        <g id="swift-15-(1)" fill-rule="nonzero">
            <path d="M7.77625927,0 L27.155408,0 C28.0983991,0 29.014057,0.150390625 29.9023819,0.46484375 C31.1870363,0.9296875 32.3486919,1.75 33.2233503,2.81640625 C34.1116751,3.8828125 34.6993362,5.1953125 34.9043342,6.5625 C34.9863335,7.06835938 35,7.57421875 35,8.08007813 L35,26.9882813 C35,27.5898438 34.9726669,28.2050781 34.8496681,28.7929688 C34.5763374,30.1464844 33.9340102,31.4179688 33.0046857,32.4433594 C32.0890277,33.46875 30.8863725,34.234375 29.5880515,34.6445312 C28.7953924,34.890625 27.9754002,35 27.1417415,35 C26.772745,35 7.72159313,35 7.43459586,34.9863281 C6.04060914,34.9179688 4.66028895,34.4667969 3.49863335,33.6875 C2.36431082,32.921875 1.43498633,31.8554688 0.833658727,30.625 C0.31433034,29.5722656 0.054666146,28.3964844 0.054666146,27.2207031 L0.054666146,7.77929688 C0.027333073,6.6171875 0.27333073,5.46875 0.778992581,4.4296875 C1.36665365,3.19921875 2.2823116,2.11914063 3.41663413,1.35351562 C4.57828973,0.560546875 5.94494338,0.095703125 7.33893011,0.02734375 C7.47559547,0 7.62592737,0 7.77625927,0 Z" id="Path" fill="url(#linearGradient-1)"></path>
            <path d="M29.5197189,28.6289063 C29.39672,28.4375 29.2600547,28.2460938 29.1097228,28.0683594 C28.7680594,27.6582031 28.3717298,27.3027344 27.9344006,27.0019531 C27.3877392,26.6328125 26.7454119,26.4003906 26.0894182,26.3730469 C25.624756,26.3457031 25.1600937,26.4277344 24.7227645,26.5917969 C24.2854354,26.7421875 23.8617727,26.9609375 23.4517766,27.1796875 C22.9734479,27.4257813 22.4951191,27.671875 21.9894572,27.8769531 C21.3881296,28.1230469 20.759469,28.3144531 20.1171417,28.4511719 C19.3108161,28.6015625 18.4908239,28.65625 17.6844982,28.6425781 C16.2221788,28.6152344 14.7598594,28.3964844 13.3658727,27.9863281 C12.1358844,27.6171875 10.9605623,27.1113281 9.85357282,26.46875 C8.88324873,25.9082031 7.98125732,25.265625 7.13393206,24.5410156 C6.4369387,23.9394531 5.79461148,23.296875 5.19328387,22.6132813 C4.78328778,22.1347656 4.38695822,21.6289063 4.01796173,21.109375 C3.86762983,20.9042969 3.73096447,20.6855469 3.60796564,20.4667969 L0,16.5703125 L0,7.75195313 C0,3.47265625 3.45763374,0 7.73525966,0 L14.6368606,0 L19.7481453,5.1953125 C31.2827021,13.0429688 27.5517376,21.6972656 27.5517376,21.6972656 C27.5517376,21.6972656 30.8317064,25.3886719 29.5197189,28.6289063 Z" id="Path" fill="url(#linearGradient-2)"></path>
            <path d="M19.7754783,5.1953125 C31.3100351,13.0429688 27.5790707,21.6972656 27.5790707,21.6972656 C27.5790707,21.6972656 30.8590394,25.4023437 29.5333854,28.6425781 C29.5333854,28.6425781 28.1803983,26.3730469 25.9117532,26.3730469 C23.7251074,26.3730469 22.4404529,28.6425781 18.0398282,28.6425781 C8.24092152,28.6425781 3.60796564,20.453125 3.60796564,20.453125 C12.4365482,26.2636719 18.4634908,22.1484375 18.4634908,22.1484375 C14.4865287,19.8378906 6.0269426,8.79101562 6.0269426,8.79101562 C13.3932058,15.0664062 16.5775088,16.7207031 16.5775088,16.7207031 C14.6778602,15.1484375 9.34791097,7.46484375 9.34791097,7.46484375 C13.6118704,11.7851562 22.085123,17.8144531 22.085123,17.8144531 C24.4904334,11.1425781 19.7754783,5.1953125 19.7754783,5.1953125 Z" id="Path" fill="#FFFFFF"></path>
        </g>
    </g>
</svg>