<?xml version="1.0" encoding="UTF-8"?>
<svg width="56px" height="55px" viewBox="0 0 56 55" version="1.1" xmlns="http://www.w3.org/2000/svg" xmlns:xlink="http://www.w3.org/1999/xlink">
    <title>wordpress</title>
    <defs>
        <path d="M2.03876388,13.963878 L13.2715564,44.7409729 C5.41680237,40.9233541 6.90627348e-06,32.8687157 6.90627348e-06,23.5473587 C-0.00252695039,20.2449783 0.692205456,16.9792546 2.03876388,13.963878 Z M23.5481756,0 C29.6787483,0 35.2604133,2.34344699 39.4503669,6.18168023 C39.348207,6.17585026 39.2491833,6.16286285 39.1447721,6.16286285 C36.832263,6.16286285 35.1909663,8.17785961 35.1909663,10.3425182 C35.1909663,12.2822454 36.3093611,13.9249003 37.5030329,15.8646275 C38.3996336,17.4333403 39.4449872,19.4487951 39.4449872,22.3590613 C39.4449872,24.2943227 38.7310096,26.5277336 37.7728069,29.5849692 L37.6517935,29.9714524 L35.3034353,37.8204193 L26.793577,12.5067265 C28.2103937,12.4323498 29.488751,12.2822454 29.488751,12.2822454 C30.7572573,12.1321411 30.6080464,10.2676912 29.3377547,10.3425182 C29.3377547,10.3425182 29.3295056,10.3431648 29.3135271,10.3443977 L29.2429225,10.3497958 C28.82553,10.3814623 27.0941283,10.5090418 25.3270425,10.5845543 L24.9342889,10.6004176 C24.2804525,10.6252276 23.6347102,10.6413916 23.0620078,10.6413916 C22.3624688,10.6413916 21.5189748,10.6140744 20.6825069,10.5759573 L20.2974934,10.557658 C18.5082233,10.4692444 16.8593022,10.3425182 16.8593022,10.3425182 C15.5903534,10.2676912 15.4415928,12.2078687 16.7105493,12.2822454 C16.7105493,12.2822454 17.8138076,12.4201017 19.0218075,12.4970514 L19.1798847,12.5067265 L22.8491798,22.5584603 L17.6954143,38.0139806 L9.12014565,12.5071768 C10.5396483,12.4328 11.8157699,12.2826957 11.8157699,12.2826957 C13.0833757,12.1325914 12.9337145,10.2681414 11.6643233,10.3429685 C11.6643233,10.3429685 9.80850474,10.4884412 7.84994095,10.5764014 L7.45737769,10.5931665 C6.73707139,10.6222761 6.0186643,10.6418341 5.38857643,10.6418341 C4.94677364,10.6418341 4.42565718,10.6306322 3.87318633,10.6140505 C8.08375045,4.22089212 15.3215161,0 23.5481756,0 Z" id="path-1"></path>
        <path d="M7.0652582,13.3576308 L14.304359,33.1881928 C14.3501835,33.3012252 14.4062783,33.4098156 14.471937,33.5126008 C12.0241048,34.3729083 9.39434887,34.8474231 6.65213161,34.8474231 C4.57347245,34.8474231 2.50475496,34.5720296 0.499862299,34.0289763 L0,33.8876412 L7.0652582,13.3576308 Z M27.3146796,0 C29.2133402,3.46250667 30.2056653,7.34890898 30.1994455,11.2978185 C30.1994455,19.8596852 25.6260581,27.3501271 18.7927613,31.4729345 L18.4898334,31.6526309 L25.6827915,10.8560215 C27.0270172,7.49722782 27.4732914,4.8110002 27.4732914,2.42141026 C27.4732914,1.55572537 27.4159468,0.750079102 27.3146796,0 Z" id="path-3"></path>
        <path d="M27.4499949,0 C42.4943718,0 54.7535976,12.1664631 54.9,27.1773933 L54.8985304,27.7655105 L54.8921001,28.1660975 C54.5144831,42.8234293 42.5914425,54.657569 27.9031923,54.8965463 L27.5629919,54.8993346 L27.3365281,54.9 C12.4037358,54.8392601 0.245949085,42.7939605 0.00368471119,27.9024825 L0,27.449217 C0,12.3136155 12.314461,0 27.4499949,0 Z M27.4499949,1.25909545 C13.0080771,1.25909545 1.25864424,13.0081352 1.25864424,27.449217 C1.25864424,41.8916496 13.0085274,53.6415813 27.4499949,53.6415813 C41.890562,53.6415813 53.6399995,41.8916496 53.6399995,27.449217 C53.6399995,13.0081352 41.8910123,1.25909545 27.4499949,1.25909545 Z" id="path-5"></path>
    </defs>
    <g id="Page-1" stroke="none" stroke-width="1" fill="none" fill-rule="evenodd">
        <g id="Artboard" transform="translate(-1096.000000, -504.000000)">
            <g id="wordpress" transform="translate(1096.200000, 504.000000)">
                <g id="Group-3" transform="translate(3.901819, 3.901858)">
                    <mask id="mask-2" fill="white">
                        <use xlink:href="#path-1"></use>
                    </mask>
                    <g id="Clip-2"></g>
                    <polygon id="Fill-1" fill="#00749A" mask="url(#mask-2)" points="-0.548983875 45.289966 39.9993553 45.289966 39.9993553 -0.548993967 -0.548983875 -0.548993967"></polygon>
                </g>
                <g id="Group-6" transform="translate(20.797863, 16.151398)">
                    <mask id="mask-4" fill="white">
                        <use xlink:href="#path-3"></use>
                    </mask>
                    <g id="Clip-5"></g>
                    <polygon id="Fill-4" fill="#00749A" mask="url(#mask-4)" points="-0.548993067 35.3964162 30.7484403 35.3964162 30.7484403 -0.548995519 -0.548993067 -0.548995519"></polygon>
                </g>
                <g id="Group-9">
                    <mask id="mask-6" fill="white">
                        <use xlink:href="#path-5"></use>
                    </mask>
                    <g id="Clip-8"></g>
                    <polygon id="Fill-7" fill="#00749A" mask="url(#mask-6)" points="-0.548990894 55.4492241 55.4503203 55.4492241 55.4503203 -0.548994277 -0.548990894 -0.548994277"></polygon>
                </g>
            </g>
        </g>
    </g>
</svg>