<?xml version="1.0" encoding="UTF-8"?>
<svg width="40px" height="40px" viewBox="0 0 40 40" version="1.1" xmlns="http://www.w3.org/2000/svg" xmlns:xlink="http://www.w3.org/1999/xlink">
    <title>wordpress-blue (1)</title>
    <defs>
        <polygon id="path-1" points="0 0 40 0 40 40 0 40"></polygon>
    </defs>
    <g id="Page-1" stroke="none" stroke-width="1" fill="none" fill-rule="evenodd">
        <g id="wordpress-blue-(1)">
            <mask id="mask-2" fill="white">
                <use xlink:href="#path-1"></use>
            </mask>
            <g id="a"></g>
            <g id="Group" mask="url(#mask-2)" fill="#00749A" fill-rule="nonzero">
                <g id="Shape">
                    <path d="M2.84291292,19.9995103 C2.84291292,26.7910515 6.78963778,32.6596639 12.5126916,35.4411825 L4.32836552,13.0169846 C3.34725005,15.2139916 2.84106165,17.5933914 2.84291292,19.9995103 Z M31.5828994,19.1337137 C31.5828994,17.0132955 30.8212403,15.5448365 30.1679698,14.4018674 C29.2982485,12.9885817 28.4833744,11.7917452 28.4833744,10.3784596 C28.4833744,8.80128629 29.6792413,7.33315378 31.3641632,7.33315378 C31.4402311,7.33315378 31.5123814,7.34262139 31.5868171,7.34686549 C28.5339776,4.55032933 24.4671161,2.8428948 20.0003265,2.8428948 C14.0063009,2.8428948 8.73279901,5.91823576 5.66494181,10.5763 C6.06748176,10.5883793 6.44716867,10.5965411 6.76907004,10.5965411 C8.56368652,10.5965411 11.3416366,10.378786 11.3416366,10.378786 C12.2665317,10.3242656 12.3755734,11.6827045 11.4519841,11.7920717 C11.4519841,11.7920717 10.5221919,11.9014389 9.4879287,11.9556328 L15.7359495,30.5398986 L19.4910302,19.2789925 L16.8175511,11.9553064 C15.8936354,11.9011124 15.018364,11.7917452 15.018364,11.7917452 C14.0937954,11.7375513 14.2021841,10.3239392 15.1267527,10.3784596 C15.1267527,10.3784596 17.9602031,10.5962146 19.6461044,10.5962146 C21.4403944,10.5962146 24.2186709,10.3784596 24.2186709,10.3784596 C25.144219,10.3239392 25.2529342,11.682378 24.328692,11.7917452 C24.328692,11.7917452 23.3972674,11.9011124 22.364963,11.9553064 L28.5653189,30.3988639 L30.2763585,24.6801009 C31.0184293,22.3069954 31.5828994,20.6024991 31.5828994,19.1337137 L31.5828994,19.1337137 Z"></path>
                    <path d="M20.3013336,21.5002897 L15.1535234,36.4584609 C16.7273409,36.9222715 18.3595872,37.1577581 20.0003265,37.1577581 C21.998335,37.1577581 23.914399,36.8120271 25.6979155,36.185206 C25.6500734,36.1103174 25.609202,36.031198 25.575815,35.9488423 L20.3013336,21.5002897 Z M35.0552554,11.767913 C35.1290381,12.3144226 35.1708265,12.9014144 35.1708265,13.5321531 C35.1708265,15.273214 34.8456604,17.2303976 33.8662444,19.6776116 L28.6253897,34.8300319 C33.7261879,31.85557 37.1571036,26.3294239 37.1571036,19.9995103 C37.1616577,17.1223287 36.4386406,14.2907034 35.0552554,11.767913 L35.0552554,11.767913 Z"></path>
                    <path d="M20.0003265,0 C8.97242944,0 0,8.97170327 0,19.9995103 C0,31.0286232 8.97210297,40.0003265 20.0003265,40.0003265 C31.027897,40.0003265 40.0016324,31.0289497 40.0016324,19.9995103 C40.0016324,8.97170327 31.027897,0 20.0003265,0 Z M20.0003265,39.0832742 C9.47813454,39.0832742 0.917059793,30.5222693 0.917059793,19.9995103 C0.917059793,9.47773071 9.47780807,0.917378778 20.0003265,0.917378778 C30.5221919,0.917378778 39.0826137,9.47773071 39.0826137,19.9995103 C39.0826137,30.5222693 30.5218655,39.0832742 20.0003265,39.0832742 Z"></path>
                </g>
            </g>
        </g>
    </g>
</svg>