<?xml version="1.0" encoding="UTF-8"?>
<svg width="45px" height="43px" viewBox="0 0 45 43" version="1.1" xmlns="http://www.w3.org/2000/svg" xmlns:xlink="http://www.w3.org/1999/xlink">
    <title>xd</title>
    <defs>
        <path d="M36.2907721,0 C40.609047,0 44.1,3.43432339 44.1,7.68254797 L44.1,34.6174554 C44.1,38.8656739 40.609047,42.3 36.2907721,42.3 L7.80922786,42.3 C3.49095611,42.3 0,38.8656739 0,34.6174554 L0,7.68254797 C0,3.43432339 3.49095611,0 7.80922786,0 L36.2907721,0 Z" id="path-1"></path>
        <path d="M33.7365032,0 C37.4303173,0 40.4063375,2.9466813 40.4063375,6.56149285 L40.4063375,32.1046168 C40.4238276,35.7367785 37.4285497,38.6834614 33.7541402,38.6834614 L6.66968421,38.6834614 C2.99527237,38.6834614 1.38320974e-15,35.7367785 1.38320974e-15,32.1219754 L1.38320974e-15,6.56149285 C1.38320974e-15,2.9466813 2.99527237,0 6.66968421,0 L33.7365032,0 Z" id="path-3"></path>
        <path d="M26.6630482,0.0173509484 C26.8094553,0.0173509484 26.8465048,0.071150379 26.8465048,0.161390631 L26.8465048,16.7568718 C26.8465048,17.2445139 26.8465048,17.8588447 26.9382252,18.5286986 C26.9382252,18.6380287 26.9011835,18.6727382 26.7918182,18.7282689 C25.2483152,19.4519299 23.6307287,19.7765934 22.0872257,19.7765934 C18.0988221,19.7920621 15.2499669,17.3712026 15.2517259,12.4531242 C15.2517259,8.24134043 18.1005897,4.95104907 22.6199581,4.95104907 C23.0062758,4.95104907 23.2073694,4.95104907 23.5760422,4.98749755 L23.5760422,0.197831453 C23.5760422,0.0885013274 23.6677704,0.0173509484 23.7594987,0.0173509484 L26.6630482,0.0173509484 Z M13.9657714,0 C14.1121862,0 14.1686325,0.109330126 14.0769043,0.253362148 L9.20474027,9.50643523 L14.3503214,19.2315307 C14.4420497,19.3755704 14.3873709,19.5213413 14.2391963,19.5213413 L11.0410573,19.5213413 C10.838204,19.5213413 10.7464757,19.4675419 10.6547475,19.2870691 C9.47815742,16.9009115 8.28393034,14.5147539 7.05265376,11.9481235 L7.01561206,11.9481235 C5.91311323,14.3707219 4.69948149,16.9200014 3.52465906,19.3061513 C3.43293081,19.450191 3.34120255,19.5057217 3.19302794,19.5057217 L0.164235828,19.5057217 C-0.0192206754,19.5057217 -0.0386253276,19.3616896 0.0548705228,19.2523595 L5.08932656,9.81533573 L0.220682186,0.270720757 C0.109549282,0.126681074 0.220682186,0.0173509484 0.330055278,0.0173509484 L3.49113698,0.0173509484 C3.67459348,0.0173509484 3.74868468,0.0537994306 3.82100828,0.216921327 C4.97819366,2.6030789 6.15478369,5.06211812 7.25728252,7.46562664 L7.29432422,7.46562664 C8.35978135,5.07946907 9.53637138,2.6030789 10.6759119,0.234279935 C10.7676402,0.0902402524 10.8223267,0 11.007543,0 L13.9657714,0 Z M22.5088252,7.64610715 C20.1926947,7.64610715 18.576868,9.39884403 18.576868,12.3108158 C18.576868,15.637548 20.231504,16.9755321 22.3077317,16.9755321 C22.7487281,16.9755321 23.226774,16.9217326 23.5760422,16.7759617 L23.5760422,7.82658765 L23.5742824,7.82658765 C23.3167347,7.71725753 22.9498217,7.64610715 22.5088252,7.64610715 Z" id="path-5"></path>
    </defs>
    <g id="Page-1" stroke="none" stroke-width="1" fill="none" fill-rule="evenodd">
        <g id="Artboard" transform="translate(-930.000000, -511.000000)">
            <g id="xd" transform="translate(930.600000, 511.200000)">
                <g id="Group-3">
                    <mask id="mask-2" fill="white">
                        <use xlink:href="#path-1"></use>
                    </mask>
                    <g id="Clip-2"></g>
                    <polygon id="Fill-1" fill="#FF26BE" mask="url(#mask-2)" points="-0.441 42.7338462 44.5410006 42.7338462 44.5410006 -0.433850161 -0.441 -0.433850161"></polygon>
                </g>
                <g id="Group-6" transform="translate(1.838088, 1.808268)">
                    <mask id="mask-4" fill="white">
                        <use xlink:href="#path-3"></use>
                    </mask>
                    <g id="Clip-5"></g>
                    <polygon id="Fill-4" fill="#2E001F" mask="url(#mask-4)" points="-0.440999533 39.1173079 40.8473427 39.1173079 40.8473427 -0.433845717 -0.440999533 -0.433845717"></polygon>
                </g>
                <g id="Group-9" transform="translate(8.232403, 10.287358)">
                    <mask id="mask-6" fill="white">
                        <use xlink:href="#path-5"></use>
                    </mask>
                    <g id="Clip-8"></g>
                    <polygon id="Fill-7" fill="#FFD9F2" mask="url(#mask-6)" points="-0.440999324 20.2104383 27.3792294 20.2104383 27.3792294 -0.433842653 -0.440999324 -0.433842653"></polygon>
                </g>
            </g>
        </g>
    </g>
</svg>