<?xml version="1.0" encoding="UTF-8"?>
<svg width="34px" height="33px" viewBox="0 0 34 33" version="1.1" xmlns="http://www.w3.org/2000/svg" xmlns:xlink="http://www.w3.org/1999/xlink">
    <title>adobe-xd</title>
    <g id="Page-1" stroke="none" stroke-width="1" fill="none" fill-rule="evenodd">
        <g id="adobe-xd" fill-rule="nonzero">
            <polygon id="Path" fill="#2E001E" points="1.41666667 1.41025641 32.5833333 1.41025641 32.5833333 31.5897436 1.41666667 31.5897436"></polygon>
            <path d="M0,0 L0,33 L34,33 L34,0 L0,0 Z M1.41666667,1.41025641 L32.5833333,1.41025641 L32.5833333,31.5897436 L1.41666667,31.5897436 L1.41666667,1.41025641 Z" id="Shape" fill="#FF2BC2"></path>
            <path d="M24.6925,13.8628205 C24.48,13.7641026 24.2108333,13.7217949 23.8708333,13.7217949 C22.0858333,13.7217949 20.8958333,15.0897436 20.8958333,17.3602564 C20.8958333,19.9551282 22.1141667,20.9987179 23.7008333,20.9987179 C24.0408333,20.9987179 24.4091667,20.9564103 24.6783333,20.8435897 L24.6783333,13.8628205 L24.6925,13.8628205 Z M18.3458333,17.4730769 C18.3458333,14.1871795 20.4708333,11.6205128 23.9558333,11.6205128 C24.2533333,11.6205128 24.4091667,11.6205128 24.6925,11.6487179 L24.6925,7.98205128 C24.6925,7.8974359 24.7633333,7.84102564 24.8341667,7.84102564 L27.115,7.84102564 C27.2283333,7.84102564 27.2566667,7.88333333 27.2566667,7.95384615 L27.2566667,20.8435897 C27.2566667,21.224359 27.2566667,21.7038462 27.3275,22.225641 C27.3275,22.324359 27.3275,22.3384615 27.2425,22.3807692 C26.0525,22.9448718 24.8058333,23.1987179 23.6158333,23.1987179 C20.5416667,23.1987179 18.3458333,21.3089744 18.3458333,17.4730769 L18.3458333,17.4730769 Z M13.515,15.1884615 L17.4816667,22.8461538 C17.5525,22.9589744 17.51,23.0717949 17.3966667,23.0717949 L14.9316667,23.0717949 C14.7758333,23.0717949 14.705,23.0294872 14.6341667,22.8884615 C13.7275,21.0269231 12.8066667,19.0948718 11.8575,17.0923077 L11.8291667,17.0923077 C10.9791667,18.9820513 10.0441667,21.0410256 9.1375,22.9025641 C9.06666667,23.0153846 8.99583333,23.0576923 8.8825,23.0576923 L6.53083333,23.0576923 C6.38916667,23.0576923 6.375,22.9448718 6.44583333,22.8602564 L10.3275,15.4282051 L6.57333333,8.03846154 C6.48833333,7.92564103 6.57333333,7.82692308 6.6725,7.82692308 L9.10916667,7.82692308 C9.25083333,7.82692308 9.32166667,7.85512821 9.36416667,7.98205128 C10.2566667,9.85769231 11.1633333,11.7051282 12.0133333,13.5948718 L12.0416667,13.5948718 C12.8633333,11.7333333 13.77,9.85769231 14.6341667,8.01025641 C14.705,7.8974359 14.7475,7.82692308 14.8891667,7.82692308 L17.17,7.82692308 C17.2833333,7.82692308 17.3258333,7.91153846 17.255,8.03846154 L13.515,15.1884615 L13.515,15.1884615 Z" id="Shape" fill="#FF2BC2"></path>
        </g>
    </g>
</svg>