<?xml version="1.0" encoding="UTF-8"?>
<svg width="56px" height="45px" viewBox="0 0 56 45" version="1.1" xmlns="http://www.w3.org/2000/svg" xmlns:xlink="http://www.w3.org/1999/xlink">
    <title>zeplin</title>
    <defs>
        <path d="M3.02477919,0 C4.03988157,2.81728196 6.52859339,4.84141656 9.94116016,5.98987918 L9.94116016,5.98987918 L0,9.63927959 L0.152835168,1.05447015 L3.02477919,0 Z" id="path-1"></path>
        <path d="M9.96625903,0 C8.0752031,3.10382149 7.45016987,6.27412983 8.46299301,9.08224065 L8.46299301,9.08224065 L5.59104899,10.1367186 L0,3.65856608 L9.96625903,0 Z" id="path-3"></path>
        <path d="M18.753843,2.49225868 C31.4437655,-2.16576633 43.8348678,-0.104954981 46.4353495,7.0929836 L46.4353495,7.0929836 L0.481992358,23.9623031 C-2.11849717,16.7643567 6.06391272,7.15029151 18.753843,2.49225868 Z" id="path-5"></path>
        <path d="M45.9533649,0 C48.5675361,7.24148978 40.3714368,16.8120038 27.6815143,21.4700366 C14.9915918,26.1280663 2.61417898,24.1108085 0,16.8670228 L0,16.8670228 L45.9533649,0 Z" id="path-7"></path>
        <path d="M45.9510795,0 C47.72808,4.9239412 38.8020168,12.4680317 26.1120943,17.1260567 C19.8481115,19.4252708 13.8396105,20.5920757 9.14504772,20.5920757 C4.33186634,20.5920757 0.89876152,19.3633774 0,16.8693195 L0,16.8693195 L45.9510795,0 Z" id="path-9"></path>
        <path d="M37.031444,0 C41.846903,0 45.2777224,1.22640168 46.1787694,3.72046736 L46.1787694,3.72046736 L0.225412235,20.5897869 C-1.55158907,15.6658457 7.37447492,8.12405184 20.0643974,3.46601901 C26.3283802,1.1668049 32.3391589,0 37.031444,0 Z" id="path-11"></path>
        <path d="M1.79439139,0.000562535434 C2.82774636,0.000562535434 4.84426168,0.77307873 8.56934584,4.45915823 L8.65146697,4.53939398 L8.64006298,4.65400979 C8.61496955,4.91991816 8.59216158,5.18583434 8.5716313,5.44945384 L8.53057073,5.96981056 L8.16558879,5.60074639 C4.15079521,1.5364316 2.38520644,1.0985917 1.81035852,1.0985917 C1.64611626,1.0985917 1.51609373,1.13069069 1.42256861,1.19716192 C0.870536438,1.58686505 0.834039021,3.49408716 2.5494487,7.58590756 C4.14395438,11.3911884 6.81516105,16.0698524 10.0703342,20.7599764 C13.327785,25.4523971 16.7722938,29.583191 19.7742549,32.3958874 C23.0088977,35.4286497 24.46654,35.7564539 24.9432997,35.7564539 C25.1075419,35.7564539 25.2398422,35.7220691 25.3402159,35.6510061 C25.9219046,35.240678 25.9219046,33.1982043 24.0103184,28.7923325 L23.9213487,28.5906065 L24.1129698,28.485154 C24.3045832,28.3797093 24.4916335,28.2765535 24.665002,28.1756944 L24.8953905,28.0450252 L25.0026051,28.2880135 C26.357596,31.4101773 27.6259103,35.3782178 25.9629652,36.5518956 C25.6687004,36.7536208 25.3174001,36.8567758 24.9592668,36.847607 C23.6065536,36.847607 21.6128463,35.6212061 19.0306093,33.2004971 C15.9761759,30.3373649 12.4792025,26.1423887 9.17840571,21.3903712 C5.87989434,16.6383537 3.16991256,11.8886329 1.54575031,8.01228744 C-0.222123924,3.78979782 -0.475335928,1.19487304 0.795256143,0.296273204 C1.08952094,0.0945471884 1.43853575,-0.00860860434 1.79439139,0.000562535434 Z" id="path-13"></path>
        <path d="M3.70633316,0 C4.79215269,0 6.42771892,1.23557282 8.10206804,6.98933812 L7.00940768,7.20023527 C6.45053467,5.27925646 5.84147479,3.71588179 5.2369703,2.63848379 C4.67809729,1.6458993 4.13290595,1.09802916 3.70633316,1.09802916 C3.69264371,1.09802916 3.67896204,1.09802916 3.66299491,1.10031804 C2.99233641,1.15992264 2.01601691,2.79206523 1.47311103,7.20252415 C0.9666948,11.3012268 0.959853964,16.7019735 1.45485844,22.4053132 C1.94986291,28.1109417 2.88512962,33.4268749 4.08955992,37.3742804 C4.62791042,39.141673 5.21872548,40.5995999 5.80041423,41.5875973 C6.33419381,42.4999484 6.85201403,43.0019698 7.25577107,43.0019698 C7.26946052,43.0019698 7.28314219,43.0019698 7.29683164,42.9996778 C7.93782578,42.9446619 9.146827,41.2437467 9.65552092,35.2630402 L10.7778379,34.8779227 L10.7595853,35.1163254 C10.4379494,39.1049955 9.59393007,43.9005666 7.39035675,44.0954154 C7.34473304,44.1 7.29910932,44.1 7.25577107,44.1 C5.75935366,44.1 4.34277193,41.9452022 3.04937188,37.6974998 C1.82211807,33.6767377 0.870891996,28.2805766 0.371324373,22.5015867 C-0.130528711,16.7226047 -0.123680101,11.2416222 0.391854656,7.06727718 C0.953013127,2.51928241 2.02058006,0.14441811 3.56718433,0.00687444889 C3.61280804,0.00228887901 3.66070945,0 3.70633316,0 Z" id="path-15"></path>
    </defs>
    <g id="Page-1" stroke="none" stroke-width="1" fill="none" fill-rule="evenodd">
        <g id="Artboard" transform="translate(-580.000000, -71.000000)">
            <g id="zeplin" transform="translate(580.500000, 71.100000)">
                <g id="Group-3" transform="translate(5.438214, 30.407867)">
                    <mask id="mask-2" fill="white">
                        <use xlink:href="#path-1"></use>
                    </mask>
                    <g id="Clip-2"></g>
                    <polygon id="Fill-1" fill="#FDBD39" mask="url(#mask-2)" points="-1.14056487 10.7854486 11.081732 10.7854486 11.081732 -1.14617296 -1.14056487 -1.14617296"></polygon>
                </g>
                <g id="Group-6" transform="translate(0.000000, 21.327915)">
                    <mask id="mask-4" fill="white">
                        <use xlink:href="#path-3"></use>
                    </mask>
                    <g id="Clip-5"></g>
                    <polygon id="Fill-4" fill="#F69833" mask="url(#mask-4)" points="-1.14056487 11.2828845 11.1068177 11.2828845 11.1068177 -1.14617374 -1.14056487 -1.14617374"></polygon>
                </g>
                <g id="Group-9" transform="translate(7.981001, 6.445564)">
                    <mask id="mask-6" fill="white">
                        <use xlink:href="#path-5"></use>
                    </mask>
                    <g id="Clip-8"></g>
                    <polygon id="Fill-7" fill="#FECF33" mask="url(#mask-6)" points="-1.14056541 25.108469 47.5759144 25.108469 47.5759144 -1.14616057 -1.14056541 -1.14616057"></polygon>
                </g>
                <g id="Group-12" transform="translate(8.460708, 13.540844)">
                    <mask id="mask-8" fill="white">
                        <use xlink:href="#path-7"></use>
                    </mask>
                    <g id="Clip-11"></g>
                    <polygon id="Fill-10" fill="#EE6723" mask="url(#mask-8)" points="-1.14056176 25.1193089 47.5798593 25.1193089 47.5798593 -1.1461714 -1.14056176 -1.1461714"></polygon>
                </g>
                <g id="Group-15" transform="translate(8.462993, 13.538547)">
                    <mask id="mask-10" fill="white">
                        <use xlink:href="#path-9"></use>
                    </mask>
                    <g id="Clip-14"></g>
                    <polygon id="Fill-13" fill="#F69833" mask="url(#mask-10)" points="-1.14056643 21.7382417 47.3170655 21.7382417 47.3170655 -1.14616593 -1.14056643 -1.14616593"></polygon>
                </g>
                <g id="Group-18" transform="translate(8.237581, 9.818080)">
                    <mask id="mask-12" fill="white">
                        <use xlink:href="#path-11"></use>
                    </mask>
                    <g id="Clip-17"></g>
                    <polygon id="Fill-16" fill="#FDBD39" mask="url(#mask-12)" points="-1.14056597 21.7359528 47.3193358 21.7359528 47.3193358 -1.14616593 -1.14056597 -1.14616593"></polygon>
                </g>
                <g id="Group-21" transform="translate(17.770859, 3.655715)">
                    <mask id="mask-14" fill="white">
                        <use xlink:href="#path-13"></use>
                    </mask>
                    <g id="Clip-20"></g>
                    <polygon id="Fill-19" fill="#EE6723" mask="url(#mask-14)" points="-1.1405684 37.9943378 27.8949651 37.9943378 27.8949651 -1.14618069 -1.1405684 -1.14618069"></polygon>
                </g>
                <g id="Group-24" transform="translate(25.672338, 0.000000)">
                    <mask id="mask-16" fill="white">
                        <use xlink:href="#path-15"></use>
                    </mask>
                    <g id="Clip-23"></g>
                    <polygon id="Fill-22" fill="#EE6723" mask="url(#mask-16)" points="-1.14056265 45.2461688 11.9184074 45.2461688 11.9184074 -1.14616671 -1.14056265 -1.14616671"></polygon>
                </g>
            </g>
        </g>
    </g>
</svg>