<?xml version="1.0" encoding="UTF-8"?>
<svg width="44px" height="35px" viewBox="0 0 44 35" version="1.1" xmlns="http://www.w3.org/2000/svg" xmlns:xlink="http://www.w3.org/1999/xlink">
    <title>zeplin (1)</title>
    <g id="Page-1" stroke="none" stroke-width="1" fill="none" fill-rule="evenodd">
        <g id="zeplin-(1)" fill-rule="nonzero">
            <path d="M6.78272561,24.1332259 L4.48098665,24.9701112 L4.35849538,31.7834494 L12.3259127,28.8870985 C9.5908837,27.9756212 7.59628703,26.3691652 6.78272561,24.1332259" id="Path" fill="#FDBD39"></path>
            <path d="M7.98752781,16.9269155 L0,19.8305437 L4.48098665,24.9719306 L6.78272561,24.1350452 C5.97099241,21.9063832 6.47192686,19.3902693 7.98752781,16.9269155" id="Path" fill="#F69833"></path>
            <path d="M21.4268313,7.09351284 C11.2563993,10.7903628 4.69854577,18.4205739 6.78272561,24.1332259 L43.6123772,10.7448799 C41.5281973,5.03222788 31.5972632,3.39666285 21.4268313,7.09351284" id="Path" fill="#FECF33"></path>
            <path d="M28.9664433,27.7864123 C39.1368752,24.0895623 45.7056982,16.4939183 43.6105489,10.7466992 L6.78089738,24.1332259 C8.87604658,29.8822643 18.7960113,31.4832623 28.9664433,27.7864123" id="Path" fill="#EE6723"></path>
            <path d="M43.6105489,10.7448799 L6.78272561,24.1332259 C7.50304741,26.1126416 10.2545304,27.087795 14.1120914,27.087795 C17.8745844,27.087795 22.6901368,26.1617632 27.7104507,24.3369893 C37.8808826,20.6401393 45.0347385,14.6527706 43.6105489,10.7448799" id="Path" fill="#F69833"></path>
            <path d="M36.2811832,7.79213016 C32.5205183,7.79213016 27.7031378,8.71816197 22.6828239,10.5429359 C12.5123919,14.2397858 5.35853605,20.2253353 6.78272561,24.1332259 L43.6123772,10.7448799 C42.8902271,8.76546419 40.1405723,7.79213016 36.2811832,7.79213016" id="Path" fill="#FDBD39"></path>
            <g id="Group" transform="translate(14.242583, 0.000000)" fill="#EE6723">
                <path d="M20.0037823,32.1454933 C18.9196432,32.1454933 17.321772,31.1721593 15.2522179,29.2509616 C12.8042208,26.978636 10.0015473,23.6492879 7.35610153,19.8778459 C4.71248395,16.106404 2.54054917,12.3367814 1.23885089,9.26031812 C-0.178025753,5.90913816 -0.380959052,3.84967252 0.637363902,3.13650068 C0.873205305,2.97640087 1.15292418,2.89453166 1.43812773,2.90180892 C2.26631498,2.90180892 3.88246847,3.51491839 6.86796467,6.44037842 L6.93378088,6.50405448 L6.92463974,6.59502027 C6.90452923,6.80606092 6.88624695,7.01710157 6.8697929,7.2263229 L6.8368848,7.63930762 L6.54436833,7.34639775 C3.32668718,4.1207506 1.91163877,3.77326125 1.45092533,3.77326125 C1.31929292,3.77326125 1.21508393,3.79873168 1.14012658,3.85149184 C0.697695424,4.16077555 0.668443777,5.67444641 2.04327118,8.92192536 C3.3212025,11.9419898 5.4620574,15.6552136 8.07093865,19.377534 C10.6816481,23.1016738 13.4422723,26.3800811 15.8482202,28.6123817 C18.4406474,31.0193367 19.6088851,31.2794989 19.9909847,31.2794989 C20.1226171,31.2794989 20.2286544,31.2522092 20.3090964,31.1958104 C20.7752945,30.8701528 20.7752945,29.2491423 19.2432395,25.7524171 L19.1719386,25.5923173 L19.3255098,25.5086288 C19.4790809,25.4249402 19.6289956,25.343071 19.7679409,25.2630211 L19.9525919,25.1593201 L20.0385187,25.3521676 C21.124486,27.8300759 22.1409808,30.9793118 20.8082026,31.9108015 C20.5723612,32.0709013 20.2908141,32.1527706 20.0037823,32.1454933 Z M20.0446412,31.7634369 L20.0446412,31.9544651 L20.0446412,31.7634369 Z" id="Shape"></path>
                <path d="M14.9706708,27.680892 L14.956045,27.8701008 C14.6982649,31.0357106 14.0218205,34.8417195 12.2557524,34.9963614 C12.2191878,35 12.1826233,35 12.1478869,35 C10.9485694,35 9.81323986,33.289843 8.77663463,29.9186506 C7.79304801,26.7275704 7.03067696,22.4449007 6.63029504,17.8584052 C6.2280849,13.2719098 6.23356958,8.92192536 6.6467491,5.60895103 C7.09649317,1.99942821 7.95210383,0.114616904 9.19164237,0.00545794781 C9.22820693,0.00181931594 9.26659971,-8.27127118e-16 9.30316427,-8.27127118e-16 C10.1734008,-8.27127118e-16 11.4842402,0.98061129 12.8261595,5.54709429 L11.9504383,5.71447136 C11.5025225,4.1898846 11.0143856,2.94911113 10.5299052,2.09403264 C10.0819894,1.30626884 9.64504289,0.871452334 9.30316427,0.871452334 C9.2921949,0.871452334 9.28122554,0.871452334 9.26842794,0.87327165 C8.73092893,0.920573864 7.94844738,2.21592681 7.51332913,5.71629067 C7.10746253,8.96922757 7.10197785,13.2555359 7.49870331,17.781994 C7.89542877,22.3102713 8.64500222,26.529265 9.61030656,29.662127 C10.0417684,31.0648196 10.5152794,32.2219046 10.9814775,33.0060297 C11.4092828,33.7301175 11.8242906,34.1285477 12.1478869,34.1285477 C12.1588563,34.1285477 12.1698257,34.1285477 12.180795,34.1267284 C12.6945271,34.0830648 13.6634879,32.7331323 14.0711827,27.9865371 L14.9706708,27.680892 Z" id="Path"></path>
            </g>
        </g>
    </g>
</svg>