<?xml version="1.0" encoding="UTF-8"?>
<svg width="47px" height="45px" viewBox="0 0 47 45" version="1.1" xmlns="http://www.w3.org/2000/svg" xmlns:xlink="http://www.w3.org/1999/xlink">
    <title>after_effects</title>
    <defs>
        <polygon id="path-1" points="0 0 43.0833963 0 43.0833963 41.1538203 0 41.1538203"></polygon>
        <radialGradient cx="32.9351156%" cy="22.4100734%" fx="32.9351156%" fy="22.4100734%" r="79.5633244%" gradientTransform="translate(0.329351,0.224101),scale(0.955213,1.000000),translate(-0.329351,-0.224101)" id="radialGradient-3">
            <stop stop-color="#442F55" offset="0%"></stop>
            <stop stop-color="#13002C" offset="100%"></stop>
        </radialGradient>
        <path d="M47,0 L47,45 L0,45 L0,0 L47,0 Z M45.0417023,1.92304662 L1.95830768,1.92304662 L1.95830768,43.0768751 L45.0417023,43.0768751 L45.0417023,1.92304662 Z M32.3322486,15.5578248 C36.6013863,15.5578248 38.0897549,19.0770375 38.0897549,21.9424237 C38.0897549,22.8655226 38.0310159,23.6155038 37.9331147,23.9809147 C37.8939525,24.1347428 37.8352135,24.1924976 37.6784903,24.2309628 C37.2867859,24.2886442 36.1313742,24.3654849 34.4080327,24.3654849 L29.2774111,24.3660717 L29.2821355,24.5153142 C29.378421,27.007377 30.6421886,28.6730543 33.5462416,28.6730543 C34.7016616,28.6730543 35.7003666,28.5193077 36.7383749,28.0769745 C36.8754382,28.0192931 36.9734224,28.0385257 36.9734224,28.21157 L36.9734224,30.6154068 C36.9734224,30.8076919 36.9146834,30.9039038 36.7776117,31.0000504 C35.7396865,31.4999754 34.4471202,31.7307908 32.8413398,31.7307908 C27.6714066,31.7307908 25.7326028,27.9808361 25.7326028,23.8077889 C25.7326028,19.2693226 28.1218417,15.5578248 32.3322486,15.5578248 Z M18.388644,10.2885366 C18.5257157,10.2885366 18.5844547,10.3269854 18.6236915,10.4808217 L24.8511518,31.1923273 C24.890314,31.3460739 24.8511518,31.4422939 24.6945033,31.4422939 L21.4632992,31.4422939 C21.3066423,31.4422939 21.2086664,31.3846125 21.169496,31.2500903 L19.5636492,25.4808689 L13.2774499,25.4808689 L11.7304169,31.2307762 C11.691263,31.384531 11.6325157,31.4422939 11.4366303,31.4422939 L8.55786883,31.4422939 C8.36206644,31.4422939 8.32282962,31.3846125 8.36206644,31.1538703 L13.9236957,12.0576818 C14.0215969,11.7115686 14.0803442,11.4423042 14.1194981,10.4808217 C14.1194981,10.346218 14.1782454,10.2885366 14.2761549,10.2885366 L18.388644,10.2885366 Z M16.4108441,13.3268938 L16.371682,13.3268938 C15.960492,15.5768944 14.883305,19.3845306 14.0804189,22.3653694 L18.7805061,22.3653694 C18.2321615,20.2307318 16.9004413,15.5768944 16.4108441,13.3268938 Z M32.1949363,18.3653666 C30.3148799,18.3653666 29.5120685,19.9806919 29.3161831,21.6922942 L33.2524551,21.6922942 C33.3772922,21.6922942 33.492033,21.6922942 33.5974422,21.6922191 L33.8864398,21.6916934 C34.4115042,21.6898911 34.628161,21.6826819 34.7015869,21.6538453 C34.7015869,21.5192498 34.7407491,21.4230298 34.7407491,21.3268913 C34.7407491,20.2884132 34.2315666,18.3653666 32.1949363,18.3653666 Z" id="path-4"></path>
    </defs>
    <g id="Page-1" stroke="none" stroke-width="1" fill="none" fill-rule="evenodd">
        <g id="after_effects">
            <g id="Group-3" transform="translate(1.958308, 1.923055)">
                <mask id="mask-2" fill="white">
                    <use xlink:href="#path-1"></use>
                </mask>
                <g id="Clip-2"></g>
                <polygon id="Fill-1" fill="url(#radialGradient-3)" mask="url(#mask-2)" points="-7.37083383e-16 41.1538203 43.0833963 41.1538203 43.0833963 0 -7.37083383e-16 0"></polygon>
            </g>
            <g id="Group-6">
                <mask id="mask-5" fill="white">
                    <use xlink:href="#path-4"></use>
                </mask>
                <g id="Clip-5"></g>
                <polygon id="Fill-4" fill="#D8A1FF" mask="url(#mask-5)" points="-0.469999253 45.4615369 47.4699999 45.4615369 47.4699999 -0.461540724 -0.469999253 -0.461540724"></polygon>
            </g>
        </g>
    </g>
</svg>