<?xml version="1.0" encoding="UTF-8"?>
<svg width="47px" height="46px" viewBox="0 0 47 46" version="1.1" xmlns="http://www.w3.org/2000/svg" xmlns:xlink="http://www.w3.org/1999/xlink">
    <title>after-effects-2019</title>
    <g id="Page-1" stroke="none" stroke-width="1" fill="none" fill-rule="evenodd">
        <g id="after-effects-2019" fill-rule="nonzero">
            <polygon id="Path" fill="#1F0040" points="1.95832517 1.96581197 45.041479 1.96581197 45.041479 44.034188 1.95832517 44.034188"></polygon>
            <g id="Group" fill="#D291FF">
                <path d="M0,0 L0,46 L47,46 L47,0 L0,0 Z M1.95832517,1.96581197 L45.0416748,1.96581197 L45.0416748,44.034188 L1.95832517,44.034188 L1.95832517,1.96581197 Z" id="Shape"></path>
                <path d="M13.2844946,26.0470085 L11.7335011,31.917906 C11.7009929,32.0798889 11.6363682,32.1410256 11.442494,32.1410256 L8.5668893,32.1410256 C8.37301511,32.1410256 8.34050691,32.0761538 8.37301511,31.8492991 L13.9305461,12.3228889 C14.0276791,11.9662906 14.0923038,11.6847863 14.1244203,10.711906 C14.1244203,10.5821624 14.189045,10.5172906 14.286178,10.5172906 L18.3898484,10.5172906 C18.5187062,10.5172906 18.5833309,10.5499231 18.6158391,10.711906 L24.8523214,31.8815385 C24.884438,32.0439145 24.8523214,32.1410256 24.6905638,32.1410256 L21.4593273,32.1410256 C21.2979613,32.1410256 21.2008283,32.0798889 21.1687118,31.9505385 L19.5530935,26.0470085 L13.2844946,26.0470085 Z M18.7803384,22.8557094 C18.2310282,20.6825043 16.9030879,15.9161966 16.4184024,13.6132479 L16.3862859,13.6132479 C15.9662251,15.9161966 14.9055962,19.8047692 14.0977871,22.8537436 L18.7803384,22.8557094 Z M29.2779405,24.8675214 C29.3104487,27.5274615 30.5708268,29.3112393 33.5433686,29.3112393 C34.7064179,29.3112393 35.7032054,29.1569231 36.7372011,28.7026239 C36.8664506,28.6377521 36.9635835,28.6703846 36.9635835,28.8323675 L36.9635835,31.2976923 C36.9635835,31.4923077 36.8989588,31.5894188 36.7697093,31.6867265 C35.7359094,32.2058974 34.4481148,32.4327521 32.8324965,32.4327521 C27.6627139,32.4327521 25.7237762,28.6055128 25.7237762,24.3237778 C25.7237762,19.685641 28.1146954,15.8908376 32.3156945,15.8908376 C36.5807309,15.8908376 38.0670997,19.4910256 38.0670997,22.4102564 C38.0670997,23.3508974 38.002475,24.1295556 37.9057337,24.4861538 C37.8732255,24.6481368 37.8086008,24.7053419 37.6472348,24.7375812 C37.2594864,24.802453 36.0962413,24.8673248 34.3834901,24.8673248 L29.2779405,24.8673248 L29.2779405,24.8675214 Z M33.2523614,22.1645299 C34.2540448,22.1645299 34.6098725,22.1645299 34.7066137,22.1322906 C34.7066137,22.002547 34.7391219,21.8910855 34.7391219,21.7939744 C34.7391219,20.7235897 34.2219282,18.7589573 32.1864451,18.7589573 C30.3123279,18.7589573 29.5045187,20.4129915 29.3104487,22.1645299 L33.2523614,22.1645299 Z" id="Shape"></path>
            </g>
        </g>
    </g>
</svg>