<?xml version="1.0" encoding="UTF-8"?>
<svg width="54px" height="48px" viewBox="0 0 54 48" version="1.1" xmlns="http://www.w3.org/2000/svg" xmlns:xlink="http://www.w3.org/1999/xlink">
    <title>android-logomark (1)</title>
    <g id="Page-1" stroke="none" stroke-width="1" fill="none" fill-rule="evenodd">
        <g id="android-logomark-(1)" fill-rule="nonzero">
            <path d="M4.08063737,41.3257742 C2.6856591,41.3257742 1.74698213,42.4380721 1.74698213,43.8681694 C1.74698213,45.2982667 2.6856591,46.4105646 4.08063737,46.4105646 C5.47561564,46.4105646 6.41429261,45.2982667 6.41429261,43.8681694 C6.40125543,42.4380721 5.46257846,41.3257742 4.08063737,41.3257742 M3.76774505,39.7500189 C4.88894254,39.7500189 5.82761951,40.3326511 6.27088363,40.9682499 L6.27088363,39.9089186 L7.99179141,39.9089186 L7.99179141,47.8406619 L6.66199903,47.8406619 C6.44625941,47.8400074 6.27152795,47.6625357 6.27088363,47.4434126 L6.27088363,46.7813305 C5.82761951,47.4169293 4.90197972,47.9995615 3.76774505,47.9995615 C1.62964751,47.9995615 0,46.1457317 0,43.881411 C0,41.6170903 1.61661033,39.7500189 3.76774505,39.7500189 M9.94736842,39.9089186 L11.6682762,39.9089186 L11.6682762,40.9814915 C12.1376147,40.186993 13.0241429,39.7500189 14.041043,39.7500189 C15.853211,39.7500189 17.0265572,41.0476997 17.0265572,43.0604292 L17.0265572,47.8406619 L15.709802,47.8406619 C15.4940624,47.8400074 15.3193309,47.6625357 15.3186866,47.4434126 L15.3186866,43.3517454 C15.3186866,42.0937894 14.692902,41.3390158 13.6890391,41.3390158 C12.5548044,41.3390158 11.6682762,42.2394475 11.6682762,43.9343776 L11.6682762,47.8406619 L10.351521,47.8406619 C10.1357814,47.8400074 9.96104992,47.6625357 9.9604056,47.4434126 L9.94736842,39.9089186 Z M22.4500241,41.3257742 C21.0550459,41.3257742 20.1163689,42.4380721 20.1163689,43.8681694 C20.1163689,45.2982667 21.0550459,46.4105646 22.4500241,46.4105646 C23.8450024,46.4105646 24.7836794,45.2982667 24.7836794,43.8681694 C24.7836794,42.4380721 23.8450024,41.3257742 22.4500241,41.3257742 M22.1371318,39.7500189 C23.2583293,39.7500189 24.1970063,40.3326511 24.6402704,40.9682499 L24.6402704,35.9364261 L26.3611782,35.9364261 L26.3611782,47.8406619 L25.044423,47.8406619 C24.8286834,47.8400074 24.6539519,47.6625357 24.6533076,47.4434126 L24.6533076,46.7813305 C24.2100435,47.4169293 23.2844037,47.9995615 22.150169,47.9995615 C20.0120715,47.9995615 18.3824239,46.1457317 18.3824239,43.881411 C18.3824239,41.6170903 19.9990343,39.7500189 22.1371318,39.7500189 M28.3167552,39.9089186 L30.037663,39.9089186 L30.037663,41.3257742 C30.347254,40.4374965 31.1698529,39.8399556 32.0975374,39.8294687 C32.3209491,39.8252322 32.5440859,39.8474514 32.7624336,39.8956769 L32.7624336,41.6832985 C32.4849922,41.5888838 32.1945725,41.5397214 31.9019797,41.5376405 C30.9241912,41.5376405 30.0246258,42.3851055 30.0246258,43.9608609 L30.0246258,47.8274202 L28.7078706,47.8274202 C28.492131,47.8267658 28.3173995,47.649294 28.3167552,47.430171 L28.3167552,39.9089186 Z M37.3906325,46.3708396 C38.7595365,46.3708396 39.737325,45.2717834 39.737325,43.8681694 C39.737325,42.4513137 38.7725736,41.3654991 37.3906325,41.3654991 C35.9956543,41.3654991 35.0309029,42.4645554 35.0309029,43.8681694 C35.0439401,45.285025 35.9956543,46.3708396 37.3906325,46.3708396 M37.3906325,47.9995615 C35.1511358,47.9813763 33.3488235,46.1252499 33.3618869,43.8505977 C33.3750929,41.5759455 35.1987165,39.7414185 37.4382692,39.7498852 C39.6778218,39.7584107 41.4879021,41.6067226 41.484358,43.881411 C41.489746,44.9822099 41.0589238,46.0389449 40.2888809,46.8135918 C39.5188381,47.5882387 38.474332,48.0156529 37.3906325,47.9995615 M42.8792854,39.9089186 L44.6001931,39.9089186 L44.6001931,47.8406619 L43.283438,47.8406619 C43.0676983,47.8400074 42.8929669,47.6625357 42.8923225,47.4434126 L42.8792854,39.9089186 Z M43.7397393,38.1742635 C43.1014245,38.1681587 42.5854408,37.6440828 42.5794302,36.9957574 C42.5922258,36.3546446 43.108398,35.8421586 43.7397393,35.843731 C44.37336,35.843731 44.8870111,36.3654413 44.8870111,37.008999 C44.8870111,37.6525568 44.37336,38.1742635 43.7397393,38.1742635 M50.088846,41.3257742 C48.6938677,41.3257742 47.7551907,42.4380721 47.7551907,43.8681694 C47.7551907,45.2982667 48.6938677,46.4105646 50.088846,46.4105646 C51.4838242,46.4105646 52.4225012,45.2982667 52.4225012,43.8681694 C52.3964268,42.4380721 51.4838242,41.3257742 50.088846,41.3257742 M49.7759536,39.7500189 C50.8971511,39.7500189 51.8358281,40.3326511 52.2790922,40.9682499 L52.2790922,35.9364261 L54,35.9364261 L54,47.8406619 L52.6832448,47.8406619 C52.4675052,47.8400074 52.2927737,47.6625357 52.2921294,47.4434126 L52.2921294,46.7813305 C51.8488653,47.4169293 50.9232255,47.9995615 49.7889908,47.9995615 C47.6508933,47.9995615 46.0212458,46.1457317 46.0212458,43.881411 C46.0212458,41.6170903 47.6378561,39.7500189 49.7759536,39.7500189" id="Shape" fill="#FFFFFF"></path>
            <path d="M40.2327378,9.32072653 L44.7305649,1.41546651 C44.9815453,0.962831535 44.8277681,0.389367657 44.385463,0.12851763 C43.9431579,-0.132332397 43.3765743,0.0162976496 43.1139546,0.462068321 L38.5639788,8.46001983 C31.2174832,5.10547242 22.8085911,5.10547242 15.4620956,8.46001983 L10.9121197,0.462068321 C10.6495,0.0162976496 10.0829164,-0.132332397 9.64061136,0.12851763 C9.19830629,0.389367657 9.04452901,0.962831535 9.29550942,1.41546651 L13.7933366,9.32072653 C6.03621439,13.5845351 0.769193626,21.5162784 0,30.878119 L53.9739256,30.878119 C53.204732,21.5162784 47.9246741,13.5845351 40.2327378,9.32072653 L40.2327378,9.32072653 Z M14.5755674,23.0655505 C13.3371268,23.0655505 12.3331724,22.0458511 12.3331724,20.7879881 C12.3331724,19.5301252 13.3371268,18.5104258 14.5755674,18.5104258 C15.8140079,18.5104258 16.8179623,19.5301252 16.8179623,20.7879881 C16.8179623,22.0458511 15.8140079,23.0655505 14.5755674,23.0655505 L14.5755674,23.0655505 Z M39.4244326,23.0655505 C38.1859921,23.0655505 37.1820377,22.0458511 37.1820377,20.7879881 C37.1820377,19.5301252 38.1859921,18.5104258 39.4244326,18.5104258 C40.6628732,18.5104258 41.6668276,19.5301252 41.6668276,20.7879881 C41.6668276,22.0458511 40.6628732,23.0655505 39.4244326,23.0655505 Z" id="Shape" fill="#3DDC84"></path>
        </g>
    </g>
</svg>