<?xml version="1.0" encoding="UTF-8"?>
<svg width="54px" height="47px" viewBox="0 0 54 47" version="1.1" xmlns="http://www.w3.org/2000/svg" xmlns:xlink="http://www.w3.org/1999/xlink">
    <title>android</title>
    <defs>
        <path d="M3.76774536,3.82491373 C4.88894358,3.82491373 5.82762055,4.39540715 6.27088483,5.01776507 L6.27088483,3.980503 L7.99179262,3.980503 L7.99179262,11.7470017 L6.66199981,11.7470017 C6.44626021,11.7463609 6.27152838,11.5725864 6.27088483,11.3580285 L6.27088483,10.7097395 C5.82762055,11.3320969 4.90197983,11.902591 3.76774536,11.902591 C1.62964751,11.902591 0,10.0873833 0,7.87023555 C0,5.653087 1.61661126,3.82491373 3.76774536,3.82491373 Z M26.3611835,0.0907687485 L26.3611835,11.7470017 L25.0444218,11.7470017 C24.8286857,11.7463609 24.653959,11.5725864 24.6533086,11.3580285 L24.6533086,10.7097395 C24.2100434,11.3320969 23.2844121,11.902591 22.1501734,11.902591 C20.0120755,11.902591 18.3824284,10.0873833 18.3824284,7.87023555 C18.3824284,5.653087 19.9990419,3.82491373 22.1371397,3.82491373 C23.2583276,3.82491373 24.1970098,4.39540715 24.6402749,5.01776507 L24.6402749,0.0907687485 L26.3611835,0.0907687485 Z M37.438276,3.82475409 C39.6778278,3.83313028 41.4879098,5.64293589 41.4844167,7.87023555 C41.4897498,8.94810119 41.0589364,9.98282102 40.2888877,10.741329 C39.5188477,11.4998374 38.47433,11.9183472 37.3906428,11.902591 C35.1511423,11.8847846 33.3488223,10.0673279 33.3618196,7.84006396 C33.3751037,5.61280089 35.1987243,3.81649292 37.438276,3.82475409 Z M54,0.0907687485 L54,11.7470017 L52.6832554,11.7470017 C52.4675193,11.7463609 52.292784,11.5725864 52.2921336,11.3580285 L52.2921336,10.7097395 C51.8488685,11.3320969 50.9232372,11.902591 49.7889984,11.902591 C47.6509006,11.902591 46.0212534,10.0873833 46.0212534,7.87023555 C46.0212534,5.653087 47.6378669,3.82491373 49.7759647,3.82491373 C50.8971527,3.82491373 51.8358348,4.39540715 52.2790999,5.01776507 L52.2790999,0.0907687485 L54,0.0907687485 Z M14.0410471,3.82491373 C15.8532087,3.82491373 17.026557,5.09555928 17.026557,7.06635696 L17.026557,11.7470017 L15.7098125,11.7470017 C15.4940677,11.7463609 15.3193325,11.5725864 15.3186821,11.3580285 L15.3186821,7.35160409 C15.3186821,6.11985565 14.6929026,5.38080727 13.6890435,5.38080727 C12.5548047,5.38080727 11.6682745,6.26247922 11.6682745,7.92209751 L11.6682745,11.7470017 L10.3515213,11.7470017 C10.1357852,11.7463609 9.9610499,11.5725864 9.96040805,11.3580285 L9.94736581,3.980503 L11.6682745,3.980503 L11.6682745,5.03073077 C12.1376241,4.25278358 13.0241372,3.82491373 14.0410471,3.82491373 Z M44.6002051,3.980503 L44.6002051,11.7470017 L43.2834434,11.7470017 C43.0676987,11.7463609 42.892972,11.5725864 42.8923301,11.3580285 L42.8792964,3.980503 L44.6002051,3.980503 Z M32.0975457,3.90270879 C32.3209583,3.89856052 32.5440971,3.92031556 32.7624348,3.9675373 L32.7624348,5.7179172 C32.4849962,5.62546956 32.1945752,5.57733118 31.9019805,5.57529364 C30.9241888,5.57529364 30.0246248,6.40510278 30.0246248,7.94802976 L30.0246248,11.734036 L28.7078717,11.734036 C28.4921355,11.7333952 28.3174088,11.5596207 28.3167584,11.3450628 L28.3167584,3.980503 L30.0376671,3.980503 L30.0376671,5.36784071 C30.3472578,4.49806973 31.1698605,3.9129765 32.0975457,3.90270879 Z M4.08063769,5.36784071 C2.68566018,5.36784071 1.74698235,6.45696559 1.74698235,7.857269 C1.74698235,9.25757327 2.68566018,10.3466981 4.08063769,10.3466981 C5.4756169,10.3466981 6.41429388,9.25757327 6.41429388,7.857269 C6.40125677,6.45696559 5.46257894,5.36784071 4.08063769,5.36784071 Z M22.4500252,5.36784071 C21.0550528,5.36784071 20.1163707,6.45696559 20.1163707,7.857269 C20.1163707,9.25757327 21.0550528,10.3466981 22.4500252,10.3466981 C23.8450061,10.3466981 24.7836797,9.25757327 24.7836797,7.857269 C24.7836797,6.45696559 23.8450061,5.36784071 22.4500252,5.36784071 Z M50.0888502,5.36784071 C48.6938778,5.36784071 47.7551957,6.45696559 47.7551957,7.857269 C47.7551957,9.25757327 48.6938778,10.3466981 50.0888502,10.3466981 C51.4838311,10.3466981 52.4225132,9.25757327 52.4225132,7.857269 C52.3964288,6.45696559 51.4838311,5.36784071 50.0888502,5.36784071 Z M37.3906428,5.40673867 C35.9956533,5.40673867 35.0309038,6.48289699 35.0309038,7.857269 C35.043946,9.24460756 35.9956533,10.307801 37.3906428,10.307801 C38.7595392,10.307801 39.7373309,9.23164101 39.7373309,7.857269 C39.7373309,6.46993214 38.7725729,5.40673867 37.3906428,5.40673867 Z M43.7397422,3.55995714e-06 C44.3733693,3.55995714e-06 44.8870146,0.510847601 44.8870146,1.14099567 C44.8870146,1.77115225 44.3733693,2.2819842 43.7397422,2.2819842 C43.1014339,2.27600946 42.5854523,1.762854 42.5794361,1.12803337 C42.5922301,0.500276903 43.1084086,-0.00154187087 43.7397422,3.55995714e-06 Z" id="path-1"></path>
        <path d="M43.1139627,0.452435186 C43.376579,0.0159555808 43.9431635,-0.129574502 44.3854616,0.125841475 C44.8277768,0.381257452 44.9815452,0.942772583 44.7305676,1.3859759 L44.7305676,1.3859759 L40.2327479,9.1265439 C47.9246764,13.3015185 53.2047312,21.0680281 53.9739326,30.2348232 L53.9739326,30.2348232 L0,30.2348232 C0.769193784,21.0680281 6.03621601,13.3015185 13.7933386,9.1265439 L13.7933386,9.1265439 L9.29551036,1.3859759 C9.04453275,0.942772583 9.1983097,0.381257452 9.64061635,0.125841475 C10.0829144,-0.129574502 10.6494989,0.0159555808 10.9121239,0.452435186 L10.9121239,0.452435186 L15.4620954,8.28377331 C22.8085927,4.99910342 31.2174852,4.99910342 38.5639826,8.28377331 L38.5639826,8.28377331 L43.1139627,0.452435186 Z M14.5755737,18.1247952 C13.3371254,18.1247952 12.3331807,19.123241 12.3331807,20.354906 C12.3331807,21.5865625 13.3371254,22.5850169 14.5755737,22.5850169 C15.8140049,22.5850169 16.8179667,21.5865625 16.8179667,20.354906 C16.8179667,19.123241 15.8140049,18.1247952 14.5755737,18.1247952 Z M39.4244369,18.1247952 C38.1859971,18.1247952 37.1820439,19.123241 37.1820439,20.354906 C37.1820439,21.5865625 38.1859971,22.5850169 39.4244369,22.5850169 C40.6628767,22.5850169 41.6668385,21.5865625 41.6668385,20.354906 C41.6668385,19.123241 40.6628767,18.1247952 39.4244369,18.1247952 Z" id="path-3"></path>
    </defs>
    <g id="Page-1" stroke="none" stroke-width="1" fill="none" fill-rule="evenodd">
        <g id="android">
            <g id="Group-3" transform="translate(-0.000000, 35.096980)">
                <mask id="mask-2" fill="white">
                    <use xlink:href="#path-1"></use>
                </mask>
                <g id="Clip-2"></g>
                <polygon id="Fill-1" fill="#FFFFFF" mask="url(#mask-2)" points="-0.540000074 12.4400627 54.5400052 12.4400627 54.5400052 -0.537043468 -0.540000074 -0.537043468"></polygon>
            </g>
            <g id="Group-6" transform="translate(-0.000000, 0.000000)">
                <mask id="mask-4" fill="white">
                    <use xlink:href="#path-3"></use>
                </mask>
                <g id="Clip-5"></g>
                <polygon id="Fill-4" fill="#3DDC84" mask="url(#mask-4)" points="-0.540000074 30.7718607 54.5139293 30.7718607 54.5139293 -0.53704001 -0.540000074 -0.53704001"></polygon>
            </g>
        </g>
    </g>
</svg>