<?xml version="1.0" encoding="UTF-8"?>
<svg width="62px" height="57px" viewBox="0 0 62 57" version="1.1" xmlns="http://www.w3.org/2000/svg" xmlns:xlink="http://www.w3.org/1999/xlink">
    <title>asana</title>
    <defs>
        <path d="M48.5167213,30.176134 C55.9634023,30.176134 62,36.1804182 62,43.5870926 C62,50.9944807 55.9634023,57 48.5167213,57 C41.0687952,57 35.0321283,50.9944807 35.0321283,43.5870926 C35.0321283,36.1804182 41.0687952,30.176134 48.5167213,30.176134 Z M13.4834565,30.1767876 L13.7551226,30.1794578 C21.0775634,30.3234249 26.9685251,36.270692 26.9685251,43.5877462 C26.9685251,50.9944807 20.9312097,56.9993473 13.4839321,56.9993473 C6.03725285,56.9993473 3.57204112e-15,50.9944807 3.57204112e-15,43.5877462 C3.57204112e-15,36.1804182 6.03725285,30.1774412 13.4839321,30.1767876 L13.4834565,30.1767876 Z M31.000625,0 C38.4472973,0 44.4833071,6.00486909 44.4833071,13.4116036 L44.4839642,13.4116036 C44.4839642,20.8183382 38.4473751,26.8245145 31.0006942,26.8245145 C23.5527508,26.8245145 17.5161012,20.8183382 17.5161012,13.4116036 C17.5161012,6.00486909 23.5527508,0 31.000625,0 Z" id="path-1"></path>
        <radialGradient cx="49.9518458%" cy="54.6148394%" fx="49.9518458%" fy="54.6148394%" r="71.9124592%" gradientTransform="translate(0.499518,0.546148),scale(0.919194,1.000000),translate(-0.499518,-0.546148)" id="radialGradient-3">
            <stop stop-color="#FFB900" offset="0%"></stop>
            <stop stop-color="#F95354" offset="100%"></stop>
        </radialGradient>
    </defs>
    <g id="Page-1" stroke="none" stroke-width="1" fill="none" fill-rule="evenodd">
        <g id="asana">
            <mask id="mask-2" fill="white">
                <use xlink:href="#path-1"></use>
            </mask>
            <g id="Clip-2"></g>
            <polygon id="Fill-1" fill="url(#radialGradient-3)" mask="url(#mask-2)" points="-0.0236873331 57.1040253 62.1003114 57.1040253 62.1003114 0 -0.0236873331 0"></polygon>
        </g>
    </g>
</svg>