<?xml version="1.0" encoding="UTF-8"?>
<svg width="62px" height="57px" viewBox="0 0 62 57" version="1.1" xmlns="http://www.w3.org/2000/svg" xmlns:xlink="http://www.w3.org/1999/xlink">
    <title>asana-logo (1)</title>
    <defs>
        <radialGradient cx="50.0135415%" cy="54.714503%" fx="50.0135415%" fy="54.714503%" r="72.11582%" gradientTransform="translate(0.500135,0.547145),scale(0.919355,1.000000),translate(-0.500135,-0.547145)" id="radialGradient-1">
            <stop stop-color="#FFB900" offset="0%"></stop>
            <stop stop-color="#F95D8F" offset="60%"></stop>
            <stop stop-color="#F95353" offset="99.9%"></stop>
        </radialGradient>
    </defs>
    <g id="Page-1" stroke="none" stroke-width="1" fill="none" fill-rule="evenodd">
        <g id="asana-logo-(1)" fill="url(#radialGradient-1)" fill-rule="nonzero">
            <path d="M48.5167209,30.1761404 C41.0687919,30.1761404 35.0321296,36.1804204 35.0321296,43.5870913 C35.0321296,50.99448 41.0687919,57 48.5167209,57 C55.9634033,57 62,50.99448 62,43.5870913 C62,36.1804204 55.9634033,30.1761404 48.5167209,30.1761404 Z M13.4839352,30.1767931 C6.0372529,30.1774457 0,36.1804204 0,43.5877439 C0,50.99448 6.0372529,56.9993474 13.4839352,56.9993474 C20.9312081,56.9993474 26.9685266,50.99448 26.9685266,43.5877439 C26.9685266,36.1803551 20.9312081,30.1767931 13.4832791,30.1767931 L13.4839352,30.1767931 L13.4839352,30.1767931 Z M44.483968,13.4116035 C44.483968,20.8183396 38.4473713,26.8245122 31.000689,26.8245122 C23.5527599,26.8245122 17.5160976,20.8183396 17.5160976,13.4116035 C17.5160976,6.00486731 23.5527599,0 31.0006234,0 C38.4473057,0 44.4833119,6.00486731 44.4833119,13.4116035 L44.483968,13.4116035 Z" id="Shape"></path>
        </g>
    </g>
</svg>