<?xml version="1.0" encoding="UTF-8"?>
<svg width="71px" height="56px" viewBox="0 0 71 56" version="1.1" xmlns="http://www.w3.org/2000/svg" xmlns:xlink="http://www.w3.org/1999/xlink">
    <title>aws</title>
    <defs>
        <path d="M10.9357393,39.2000218 L20.234205,42.9184954 L20.234205,56 L10.717795,51.8000064 L10.9357393,39.2000218 Z M30.4938491,39.2000218 L30.4938491,51.318486 L21.893822,54.8184814 L21.893822,42.481603 L30.4938491,39.2000218 Z M20.71482,35.7000289 L27.2192898,38.5000249 L20.2342653,41.0816697 L14.2103675,38.5000249 L20.71482,35.7000289 Z M0.217947001,21.2338363 L9.51641255,24.9522408 L9.51641255,38.0338814 L0,33.8338917 L0.217947001,21.2338363 Z M21.1729857,20.7690746 L30.4714428,24.4888523 L30.4714428,37.569042 L20.9550414,33.3690523 L21.1729857,20.7690746 Z M19.776048,21.2338363 L19.776048,33.3522375 L11.1760813,36.8522303 L11.1760813,24.5154261 L19.776048,21.2338363 Z M40.7310782,20.7690746 L40.7310782,32.8874671 L32.1311201,36.38746 L32.1311201,24.0506472 L40.7310782,20.7690746 Z M9.99696725,17.7338435 L16.5014284,20.5338481 L9.51641255,23.1154929 L3.49250699,20.5338481 L9.99696725,17.7338435 Z M30.9520664,17.2690127 L37.4565189,20.0690087 L30.4715117,22.6506535 L24.4476053,20.0690087 L30.9520664,17.2690127 Z M51.4418988,3.49999284 L60.7404249,7.21979642 L60.7404249,20.2999775 L51.2240149,16.0999878 L51.4418988,3.49999284 Z M49.8340576,4.41979179 L49.8340576,16.5830757 L42.1504825,20.0830686 L42.1504825,7.70143343 L49.8340576,4.41979179 Z M71,3.49999284 L71,15.6184026 L62.4000419,19.1183955 L62.4000419,6.78158267 L71,3.49999284 Z M31.6729027,3.7198554 L40.0549079,7.21979642 L39.7923062,18.6830058 L31.6729027,16.3198417 L31.6729027,3.7198554 Z M40.7534155,0 L47.2578163,2.80007373 L40.2727919,5.38164944 L34.2042366,2.80007373 L40.7534155,0 Z M61.220971,0 L67.7254321,2.80000464 L60.7404852,5.38158898 L54.7165874,2.80000464 L61.220971,0 Z" id="path-1"></path>
    </defs>
    <g id="Page-1" stroke="none" stroke-width="1" fill="none" fill-rule="evenodd">
        <g id="aws">
            <mask id="mask-2" fill="white">
                <use xlink:href="#path-1"></use>
            </mask>
            <g id="Clip-2"></g>
            <polygon id="Fill-1" fill="#F7A80D" mask="url(#mask-2)" points="-0.709999949 56.7115225 71.7099964 56.7115225 71.7099964 -0.711519201 -0.709999949 -0.711519201"></polygon>
        </g>
    </g>
</svg>