<?xml version="1.0" encoding="UTF-8"?>
<svg width="58px" height="35px" viewBox="0 0 58 35" version="1.1" xmlns="http://www.w3.org/2000/svg" xmlns:xlink="http://www.w3.org/1999/xlink">
    <title>aws-2</title>
    <g id="Page-1" stroke="none" stroke-width="1" fill="none" fill-rule="evenodd">
        <g id="aws-2">
            <path d="M16.3449674,12.7113459 C16.3449674,13.4315907 16.4221282,14.0155729 16.5571595,14.4438265 C16.711481,14.8720801 16.9043829,15.3392659 17.1744456,15.8453838 C17.2708965,16.0011123 17.3094769,16.1568409 17.3094769,16.2931034 C17.3094769,16.4877642 17.1937358,16.6824249 16.9429633,16.8770857 L15.7276813,17.6946607 C15.5540696,17.8114572 15.3804579,17.8698554 15.2261364,17.8698554 C15.0332345,17.8698554 14.8403326,17.772525 14.6474306,17.5973304 C14.377368,17.3053393 14.1458857,16.9938821 13.9529838,16.6824249 C13.7600819,16.3515017 13.56718,15.9816463 13.3549879,15.5339266 C11.850353,17.3248053 9.95991439,18.2202447 7.68367192,18.2202447 C6.06329593,18.2202447 4.77085317,17.753059 3.82563385,16.8186874 C2.88041452,15.8843159 2.39815976,14.6384872 2.39815976,13.0812013 C2.39815976,11.4265851 2.97686547,10.083426 4.15356708,9.07119021 C5.33026869,8.05895439 6.89277412,7.55283648 8.87966372,7.55283648 C9.5355302,7.55283648 10.2106869,7.61123471 10.9244239,7.70856507 C11.6381609,7.80589544 12.3711882,7.96162403 13.1427958,8.13681869 L13.1427958,6.71579533 C13.1427958,5.23637375 12.8341528,4.20467186 12.2361569,3.60122358 C11.6188708,2.99777531 10.5772005,2.7057842 9.09185582,2.7057842 C8.41669916,2.7057842 7.7222523,2.7836485 7.00851526,2.95884316 C6.29477821,3.13403782 5.60033136,3.34816463 4.9251747,3.62068966 C4.61653165,3.75695217 4.38504937,3.83481646 4.25001803,3.87374861 C4.1149867,3.91268076 4.01853575,3.93214683 3.94137499,3.93214683 C3.67131232,3.93214683 3.53628099,3.7374861 3.53628099,3.32869855 L3.53628099,2.37486096 C3.53628099,2.06340378 3.57486137,1.8298109 3.67131232,1.69354839 C3.76776327,1.55728587 3.94137499,1.42102336 4.21143765,1.28476085 C4.88659432,0.934371524 5.69678231,0.642380423 6.64200164,0.408787542 C7.58722097,0.155728587 8.59031087,0.0389321468 9.65127134,0.0389321468 C11.946804,0.0389321468 13.6250506,0.564516129 14.7053012,1.61568409 C15.7662617,2.66685206 16.306387,4.26307008 16.306387,6.40433815 L16.306387,12.7113459 L16.3449674,12.7113459 Z M8.51315011,15.6701891 C9.14972639,15.6701891 9.80559286,15.5533927 10.5000397,15.3197998 C11.1944866,15.0862069 11.8117727,14.6579533 12.3326078,14.0739711 C12.6412508,13.7041157 12.8727331,13.2953281 12.9884743,12.8281424 C13.1042154,12.3609566 13.1813762,11.7964405 13.1813762,11.134594 L13.1813762,10.3170189 C12.6219607,10.1807564 12.0239648,10.06396 11.4066787,9.98609566 C10.7893926,9.90823137 10.1913967,9.86929922 9.59340077,9.86929922 C8.30095801,9.86929922 7.35573868,10.1223582 6.7191624,10.6479422 C6.08258612,11.1735261 5.77394307,11.9132369 5.77394307,12.8865406 C5.77394307,13.8014461 6.00542536,14.4827586 6.48768012,14.9499444 C6.95064469,15.4365962 7.62580135,15.6701891 8.51315011,15.6701891 L8.51315011,15.6701891 Z M24.003173,17.772525 C23.6559496,17.772525 23.4244673,17.7141268 23.2701457,17.5778643 C23.1158242,17.4610679 22.9807929,17.1885428 22.8650517,16.8186874 L18.331857,1.77141268 C18.2161159,1.38209121 18.1582453,1.12903226 18.1582453,0.992769744 C18.1582453,0.68131257 18.3125668,0.506117909 18.6212099,0.506117909 L20.5116485,0.506117909 C20.8781621,0.506117909 21.1289346,0.564516129 21.2639659,0.700778643 C21.4182875,0.817575083 21.5340286,1.09010011 21.6497698,1.45995551 L24.8905217,14.3464961 L27.8997914,1.45995551 C27.9962424,1.07063404 28.1119835,0.817575083 28.2663051,0.700778643 C28.4206266,0.583982202 28.6906892,0.506117909 29.0379127,0.506117909 L30.5811279,0.506117909 C30.9476415,0.506117909 31.198414,0.564516129 31.3527355,0.700778643 C31.507057,0.817575083 31.6420884,1.09010011 31.7192491,1.45995551 L34.7670992,14.5022247 L38.1043021,1.45995551 C38.2200433,1.07063404 38.3550746,0.817575083 38.490106,0.700778643 C38.6444275,0.583982202 38.8952,0.506117909 39.2424234,0.506117909 L41.0364111,0.506117909 C41.3450541,0.506117909 41.5186658,0.661846496 41.5186658,0.992769744 C41.5186658,1.09010011 41.4993757,1.18743048 41.4800855,1.30422692 C41.4607953,1.42102336 41.4222149,1.57675195 41.3450541,1.79087875 L36.6961183,16.8381535 C36.5803771,17.227475 36.4453458,17.4805339 36.2910243,17.5973304 C36.1367027,17.7141268 35.8859303,17.7919911 35.557997,17.7919911 L33.8990406,17.7919911 C33.532527,17.7919911 33.2817546,17.7335929 33.127433,17.5973304 C32.9731115,17.4610679 32.8380802,17.2080089 32.7609194,16.8186874 L29.7709399,4.26307008 L26.8002506,16.7992214 C26.7037996,17.1885428 26.5880585,17.4416018 26.433737,17.5778643 C26.2794154,17.7141268 26.0093528,17.772525 25.6621294,17.772525 L24.003173,17.772525 Z M48.7910676,18.298109 C47.7879777,18.298109 46.7848878,18.1813126 45.8203783,17.9477197 C44.8558688,17.7141268 44.1035514,17.4610679 43.6020064,17.1690768 C43.2933634,16.9938821 43.0811713,16.7992214 43.0040105,16.6240267 C42.9268497,16.448832 42.8882694,16.2541713 42.8882694,16.0789766 L42.8882694,15.0862069 C42.8882694,14.6774194 43.0425909,14.4827586 43.3319437,14.4827586 C43.4476849,14.4827586 43.563426,14.5022247 43.6791672,14.5411568 C43.7949083,14.580089 43.96852,14.6579533 44.1614219,14.7358176 C44.8172884,15.0278087 45.5310254,15.2614016 46.2833429,15.4171301 C47.0549505,15.5728587 47.8072679,15.650723 48.5788755,15.650723 C49.7941575,15.650723 50.7393768,15.4365962 51.3952433,15.0083426 C52.0511098,14.580089 52.3983332,13.9571746 52.3983332,13.1590656 C52.3983332,12.6140156 52.2247215,12.1662959 51.8774981,11.7964405 C51.5302747,11.4265851 50.8744082,11.0956618 49.9291889,10.7842047 L47.1321112,9.90823137 C45.7239273,9.46051168 44.6822571,8.79866518 44.0456808,7.92269188 C43.4091045,7.06618465 43.0811713,6.11234705 43.0811713,5.10011123 C43.0811713,4.28253615 43.254783,3.56229143 43.6020064,2.93937709 C43.9492298,2.31646274 44.4121944,1.77141268 44.9909001,1.34315907 C45.5696058,0.895439377 46.2254723,0.564516129 46.9970799,0.330923248 C47.7686875,0.0973303671 48.5788755,0 49.4276439,0 C49.8520281,0 50.2957025,0.0194660734 50.7200867,0.0778642937 C51.163761,0.136262514 51.568855,0.214126808 51.973949,0.291991101 C52.3597528,0.389321468 52.7262665,0.486651835 53.0734899,0.603448276 C53.4207133,0.720244716 53.690776,0.837041157 53.8836779,0.953837597 C54.1537405,1.10956618 54.3466424,1.26529477 54.4623836,1.44048943 C54.5781247,1.59621802 54.6359953,1.81034483 54.6359953,2.08286986 L54.6359953,2.99777531 C54.6359953,3.40656285 54.4816738,3.62068966 54.1923209,3.62068966 C54.0379994,3.62068966 53.7872269,3.54282536 53.4592937,3.38709677 C52.3597528,2.88097887 51.1251807,2.62791991 49.7555771,2.62791991 C48.6560363,2.62791991 47.7879777,2.80311457 47.1899818,3.17296997 C46.5919859,3.54282536 46.2833429,4.10734149 46.2833429,4.9054505 C46.2833429,5.45050056 46.4762448,5.91768632 46.8620486,6.28754171 C47.2478524,6.65739711 47.9615894,7.0272525 48.9839695,7.35817575 L51.7231766,8.23414905 C53.1120703,8.68186874 54.1151602,9.30478309 54.7131561,10.1028921 C55.311152,10.9010011 55.6005048,11.8159066 55.6005048,12.8281424 C55.6005048,13.6651835 55.4268931,14.4243604 55.0989599,15.0862069 C54.7517364,15.7480534 54.2887719,16.3320356 53.690776,16.7992214 C53.0927801,17.2858732 52.379043,17.6362625 51.5495648,17.8893215 C50.6815063,18.1618465 49.7748673,18.298109 48.7910676,18.298109 L48.7910676,18.298109 Z" id="Shape" fill="#252F3E" fill-rule="nonzero"></path>
            <g id="Group" transform="translate(0.000000, 21.819959)" fill="#FF9900">
                <path d="M52.4369136,5.93866173 C46.090441,10.6689176 36.86973,13.180041 28.9414617,13.180041 C17.8303121,13.180041 7.81870325,9.0337674 0.256948625,2.14277741 C-0.341047276,1.59772736 0.199078054,0.858016566 0.912815098,1.28627018 C9.09185582,6.07492424 19.1806254,8.97536918 29.6166184,8.97536918 C36.6575379,8.97536918 44.3929042,7.4959476 51.5109845,4.45924015 C52.5719449,3.97258831 53.4785839,5.16001879 52.4369136,5.93866173 L52.4369136,5.93866173 Z" id="Path"></path>
                <path d="M55.0796697,2.90195427 C54.2694817,1.85078631 49.7169968,2.39583637 47.6529464,2.64889532 C47.0356603,2.72675961 46.9392093,2.18170956 47.4986249,1.77292202 C51.1251807,-0.796599674 57.0858495,-0.0568888842 57.7802963,0.799618346 C58.4747432,1.67559165 57.5873944,7.69060833 54.1923209,10.5715872 C53.6714858,11.0193069 53.1699408,10.785714 53.4014231,10.2017318 C54.1730307,8.27459054 55.8898577,3.93365617 55.0796697,2.90195427 L55.0796697,2.90195427 Z" id="Path"></path>
            </g>
        </g>
    </g>
</svg>