<?xml version="1.0" encoding="UTF-8"?>
<svg width="42px" height="60px" viewBox="0 0 42 60" version="1.1" xmlns="http://www.w3.org/2000/svg" xmlns:xlink="http://www.w3.org/1999/xlink">
    <title>css</title>
    <defs>
        <path d="M6.43399209,0 L6.43399209,2.31138491 L2.67509881,2.31138491 L2.67509881,5.78686295 L6.43399209,5.78686295 L6.43399209,8.09824786 L0,8.09824786 L0,0 L6.43399209,0 Z M23.9667984,0 L23.9644269,2.22017761 L20.4806324,2.22017761 L24.1043478,6.20209617 L24.1043478,8.09584767 L16.6387352,8.09584767 L16.6387352,5.87807025 L20.2624506,5.87807025 L16.6387352,1.89615169 L16.6387352,0 L23.9667984,0 Z M15.1565217,0 L15.1565217,2.22017761 L11.6679842,2.22017761 L15.2964427,6.20209617 L15.2964427,8.09584767 L7.8284585,8.09584767 L7.8284585,5.87807025 L11.4521739,5.87807025 L7.8284585,1.89615169 L7.8284585,0 L15.1565217,0 Z" id="path-1"></path>
        <polygon id="path-3" points="42 0 38.172332 43.3810705 20.973913 48.2054564 3.8229249 43.3882711 0 0"></polygon>
        <polygon id="path-5" points="17.1652174 0 13.8972332 37.0709657 0 40.9712777 0 0"></polygon>
        <polygon id="path-7" points="13.1857708 0 13.0600791 1.42811425 11.7675889 16.0932875 0 16.0932875 0 10.7672614 6.95810277 10.7672614 7.43715415 5.31882551 0 5.31882551 0 0"></polygon>
        <polygon id="path-9" points="5.2743083 0 5.64901186 4.24353948 11.5043478 5.84446756 11.5399209 5.84446756 11.5399209 11.3889111 11.5090909 11.3889111 0.737549407 8.35506841 0 0"></polygon>
        <polygon id="path-11" points="11.772332 0 10.856917 10.3448276 10.7786561 11.2448996 0 14.2691415 0 8.72469798 5.86482213 7.1237699 6.49802372 0.00240019202 6.49802372 0"></polygon>
        <path d="M13.1525683,10.7672614 L13.1525683,16.0884871 L7.36363554,16.0884871 L7.26165926,14.8931915 L7.02213356,12.1953756 L6.89644186,10.7672614 L13.1525683,10.7672614 Z M13.1715407,0 L13.1715407,5.3212257 L0.474307477,5.3212257 L0.365217391,4.12593007 L0.1256917,1.42811425 L0,0 L13.1715407,0 Z" id="path-13"></path>
    </defs>
    <g id="Page-1" stroke="none" stroke-width="1" fill="none" fill-rule="evenodd">
        <g id="css">
            <g id="Group-3" transform="translate(8.947826, 0.000000)">
                <mask id="mask-2" fill="white">
                    <use xlink:href="#path-1"></use>
                </mask>
                <g id="Clip-2"></g>
                <polygon id="Fill-1" fill="#FFFFFF" mask="url(#mask-2)" points="-0.592885375 8.69829586 24.6972332 8.69829586 24.6972332 -0.600048004 -0.592885375 -0.600048004"></polygon>
            </g>
            <g id="Group-6" transform="translate(0.000000, 11.794544)">
                <mask id="mask-4" fill="white">
                    <use xlink:href="#path-3"></use>
                </mask>
                <g id="Clip-5"></g>
                <polygon id="Fill-4" fill="#1572B6" mask="url(#mask-4)" points="-0.592885375 48.8055044 42.5928854 48.8055044 42.5928854 -0.600048004 -0.592885375 -0.600048004"></polygon>
            </g>
            <g id="Group-9" transform="translate(21.000000, 15.342027)">
                <mask id="mask-6" fill="white">
                    <use xlink:href="#path-5"></use>
                </mask>
                <g id="Clip-8"></g>
                <polygon id="Fill-7" fill="#33A9DC" mask="url(#mask-6)" points="-0.592885375 41.5713257 17.7581028 41.5713257 17.7581028 -0.600048004 -0.592885375 -0.600048004"></polygon>
            </g>
            <g id="Group-12" transform="translate(21.000000, 20.293623)">
                <mask id="mask-8" fill="white">
                    <use xlink:href="#path-7"></use>
                </mask>
                <g id="Clip-11"></g>
                <polygon id="Fill-10" fill="#FFFFFF" mask="url(#mask-8)" points="-0.592885375 16.6933355 13.7786561 16.6933355 13.7786561 -0.600048004 -0.592885375 -0.600048004"></polygon>
            </g>
            <g id="Group-15" transform="translate(9.500395, 39.036723)">
                <mask id="mask-10" fill="white">
                    <use xlink:href="#path-9"></use>
                </mask>
                <g id="Clip-14"></g>
                <polygon id="Fill-13" fill="#EBEBEB" mask="url(#mask-10)" points="-0.592885375 11.9889591 12.1328063 11.9889591 12.1328063 -0.600048004 -0.592885375 -0.600048004"></polygon>
            </g>
            <g id="Group-18" transform="translate(21.014229, 36.151692)">
                <mask id="mask-12" fill="white">
                    <use xlink:href="#path-11"></use>
                </mask>
                <g id="Clip-17"></g>
                <polygon id="Fill-16" fill="#FFFFFF" mask="url(#mask-12)" points="-0.592885375 14.8691895 12.3652174 14.8691895 12.3652174 -0.600048004 -0.592885375 -0.600048004"></polygon>
            </g>
            <g id="Group-21" transform="translate(7.847432, 20.293623)">
                <mask id="mask-14" fill="white">
                    <use xlink:href="#path-13"></use>
                </mask>
                <g id="Clip-20"></g>
                <polygon id="Fill-19" fill="#EBEBEB" mask="url(#mask-14)" points="-0.592886199 16.6885351 13.7644261 16.6885351 13.7644261 -0.600048004 -0.592886199 -0.600048004"></polygon>
            </g>
        </g>
    </g>
</svg>