<?xml version="1.0" encoding="UTF-8"?>
<svg width="43px" height="61px" viewBox="0 0 43 61" version="1.1" xmlns="http://www.w3.org/2000/svg" xmlns:xlink="http://www.w3.org/1999/xlink">
    <title>CSS3_logo_and_wordmark</title>
    <g id="Page-1" stroke="none" stroke-width="1" fill="none" fill-rule="evenodd">
        <g id="CSS3_logo_and_wordmark" fill-rule="nonzero">
            <polygon id="polygon2989" fill="#1572B6" points="43 11.9879297 39.0825894 56.0936699 21.4736832 61 3.91326151 56.1005801 0 11.9879297"></polygon>
            <polygon id="polygon2991" fill="#33A9DC" points="35.7288564 53.285168 39.0765437 15.594793 21.5 15.594793 21.5 57.2498105"></polygon>
            <polygon id="polygon2993" fill="#EBEBEB" points="8.97106695 31.955541 9.45354171 37.3657168 21.5 37.3657168 21.5 31.955541"></polygon>
            <polygon id="polygon2995" fill="#EBEBEB" points="21.5 21.0050879 21.4813886 21.0050879 8.00161275 21.0050879 8.49096307 26.4153828 21.5 26.4153828"></polygon>
            <polygon id="polygon2997" fill="#EBEBEB" points="21.5 51.6354277 21.5 46.0065098 21.4764097 46.0128242 15.481157 44.3858398 15.0979037 40.0709238 12.1846808 40.0709238 9.69406783 40.0709238 10.4482458 48.5657695 21.4752243 51.6423379"></polygon>
            <polygon id="path2999" fill="#FFFFFF" points="10.1197599 0 16.6396891 0 16.6396891 2.74023437 12.8462758 2.74023437 12.8462758 5.48046875 16.6396891 5.48046875 16.6396891 8.22070312 10.1197599 8.22070312"></polygon>
            <polygon id="path3001" fill="#FFFFFF" points="17.943675 0 24.4636042 0 24.4636042 2.3828125 20.6701908 2.3828125 20.6701908 2.859375 24.4636042 2.859375 24.4636042 8.33984375 17.943675 8.33984375 17.943675 5.83789062 21.7370883 5.83789062 21.7370883 5.36132812 17.943675 5.36132812"></polygon>
            <polygon id="path3003" fill="#FFFFFF" points="25.76759 0 32.2875192 0 32.2875192 2.3828125 28.4941059 2.3828125 28.4941059 2.859375 32.2875192 2.859375 32.2875192 8.33984375 25.76759 8.33984375 25.76759 5.83789062 29.5610034 5.83789062 29.5610034 5.36132812 25.76759 5.36132812"></polygon>
            <polygon id="polygon3005" fill="#FFFFFF" points="28.1101413 37.3657168 27.485295 44.3823848 21.4813886 46.0110371 21.4813886 51.6397168 32.5171393 48.5657695 32.5981049 47.6517227 33.8630898 33.4083418 33.9944367 31.955541 34.9662618 21.0050879 21.4813886 21.0050879 21.4813886 26.4153828 29.0667927 26.4153828 28.5769682 31.955541 21.4813886 31.955541 21.4813886 37.3657168"></polygon>
        </g>
    </g>
</svg>