<?xml version="1.0" encoding="UTF-8"?>
<svg width="69px" height="50px" viewBox="0 0 69 50" version="1.1" xmlns="http://www.w3.org/2000/svg" xmlns:xlink="http://www.w3.org/1999/xlink">
    <title>docker</title>
    <g id="Page-1" stroke="none" stroke-width="1" fill="none" fill-rule="evenodd">
        <g id="docker" fill="#0091E2" fill-rule="nonzero">
            <path d="M68.3214619,18.907563 C68.1294695,18.7459599 66.4015382,17.4208145 62.6896857,17.4208145 C61.7297238,17.4208145 60.7377632,17.5177763 59.7778014,17.6793794 C59.0738293,12.7343245 55.0099908,10.3425986 54.8499972,10.2133161 L53.8580366,9.63154493 L53.218062,10.5688429 C52.4180938,11.8293471 51.810118,13.2514544 51.4581319,14.7058824 C50.7861586,17.5177763 51.2021421,20.1680672 52.6100862,22.4305107 C50.9141536,23.4001293 48.1622629,23.6263736 47.5862858,23.6586942 L2.1480912,23.6586942 C0.964138238,23.6586942 0.0041763809,24.6283129 0.0041763809,25.8241758 C-0.0598210763,29.8319328 0.612152224,33.8396897 1.98809755,37.6212023 C3.55603525,41.7582418 5.89194244,44.8287007 8.89982293,46.7032967 C12.2916882,48.804137 17.8274682,50 24.0672203,50 C26.8831084,50 29.6989965,49.741435 32.4828859,49.2243051 C36.3547321,48.5132515 40.0665846,47.1557854 43.4904485,45.1842275 C46.3063366,43.5358759 48.8342362,41.4350356 50.978151,38.9786684 C54.5940073,34.8739496 56.7379222,30.2844215 58.3058599,26.2120233 L58.9458344,26.2120233 C62.881678,26.2120233 65.3135814,24.6283129 66.657528,23.2708468 C67.5534924,22.4305107 68.2254657,21.3962508 68.7054466,20.2327085 L68.9934352,19.3923723 L68.3214619,18.907563 Z" id="Shape"></path>
            <path d="M6.37192337,22.3335488 L12.4516818,22.3335488 C12.7396704,22.3335488 12.9956602,22.1073045 12.9956602,21.7840983 L12.9956602,16.2895928 C12.9956602,15.9987072 12.7716691,15.7401422 12.4516818,15.7401422 L6.37192337,15.7401422 C6.08393481,15.7401422 5.82794498,15.9663866 5.82794498,16.2895928 L5.82794498,21.7840983 C5.85994371,22.1073045 6.08393481,22.3335488 6.37192337,22.3335488 Z M14.7555903,22.3335488 L20.8353487,22.3335488 C21.1233372,22.3335488 21.3793271,22.1073045 21.3793271,21.7840983 L21.3793271,16.2895928 C21.3793271,15.9987072 21.155336,15.7401422 20.8353487,15.7401422 L14.7555903,15.7401422 C14.4676017,15.7401422 14.2116119,15.9663866 14.2116119,16.2895928 L14.2116119,21.7840983 C14.2436106,22.1073045 14.4676017,22.3335488 14.7555903,22.3335488 M23.2992508,22.3335488 L29.3790092,22.3335488 C29.6669978,22.3335488 29.9229876,22.1073045 29.9229876,21.7840983 L29.9229876,16.2895928 C29.9229876,15.9987072 29.6989965,15.7401422 29.3790092,15.7401422 L23.2992508,15.7401422 C23.0112622,15.7401422 22.7552724,15.9663866 22.7552724,16.2895928 L22.7552724,21.7840983 C22.7552724,22.1073045 22.9792635,22.3335488 23.2992508,22.3335488 Z M31.7149164,22.3335488 L37.7946748,22.3335488 C38.0826634,22.3335488 38.3386532,22.1073045 38.3386532,21.7840983 L38.3386532,16.2895928 C38.3386532,15.9987072 38.1146621,15.7401422 37.7946748,15.7401422 L31.7149164,15.7401422 C31.4269278,15.7401422 31.170938,15.9663866 31.170938,16.2895928 L31.170938,21.7840983 C31.170938,22.1073045 31.4269278,22.3335488 31.7149164,22.3335488 Z M14.7555903,14.479638 L20.8353487,14.479638 C21.1233372,14.479638 21.3793271,14.221073 21.3793271,13.9301875 L21.3793271,8.43568197 C21.3793271,8.14479638 21.155336,7.88623142 20.8353487,7.88623142 L14.7555903,7.88623142 C14.4676017,7.88623142 14.2116119,8.11247576 14.2116119,8.43568197 L14.2116119,13.9301875 C14.2436106,14.221073 14.4676017,14.479638 14.7555903,14.479638 M23.2992508,14.479638 L29.3790092,14.479638 C29.6669978,14.479638 29.9229876,14.221073 29.9229876,13.9301875 L29.9229876,8.43568197 C29.9229876,8.14479638 29.6989965,7.88623142 29.3790092,7.88623142 L23.2992508,7.88623142 C23.0112622,7.88623142 22.7552724,8.11247576 22.7552724,8.43568197 L22.7552724,13.9301875 C22.7552724,14.221073 22.9792635,14.479638 23.2992508,14.479638 M31.7149164,14.479638 L37.7946748,14.479638 C38.0826634,14.479638 38.3386532,14.221073 38.3386532,13.9301875 L38.3386532,8.43568197 C38.3386532,8.14479638 38.0826634,7.88623142 37.7946748,7.88623142 L31.7149164,7.88623142 C31.4269278,7.88623142 31.170938,8.11247576 31.170938,8.43568197 L31.170938,13.9301875 C31.170938,14.221073 31.4269278,14.479638 31.7149164,14.479638 M31.7149164,6.59340659 L37.7946748,6.59340659 C38.0826634,6.59340659 38.3386532,6.36716225 38.3386532,6.04395604 L38.3386532,0.549450549 C38.3386532,0.258564964 38.0826634,0 37.7946748,0 L31.7149164,0 C31.4269278,0 31.170938,0.226244344 31.170938,0.549450549 L31.170938,6.04395604 C31.170938,6.33484163 31.4269278,6.59340659 31.7149164,6.59340659 M40.1945795,22.3335488 L46.2743379,22.3335488 C46.5623265,22.3335488 46.8183163,22.1073045 46.8183163,21.7840983 L46.8183163,16.2895928 C46.8183163,15.9987072 46.5943252,15.7401422 46.2743379,15.7401422 L40.1945795,15.7401422 C39.9065909,15.7401422 39.6506011,15.9663866 39.6506011,16.2895928 L39.6506011,21.7840983 C39.6825998,22.1073045 39.9065909,22.3335488 40.1945795,22.3335488" id="Shape"></path>
        </g>
    </g>
</svg>