<?xml version="1.0" encoding="UTF-8"?>
<svg width="40px" height="60px" viewBox="0 0 40 60" version="1.1" xmlns="http://www.w3.org/2000/svg" xmlns:xlink="http://www.w3.org/1999/xlink">
    <title>figma</title>
    <defs>
        <path d="M20,0 L20,10 C20,15.5199987 15.5199981,20 10,20 C4.48000014,20 0,15.5199987 0,10 C0,4.48000202 4.48000014,0 10,0 L10,0 L20,0 Z" id="path-1"></path>
        <path d="M20,0 L20,20 L10,20 C4.48000014,20 0,15.5199987 0,10 C0,4.48000202 4.48000014,0 10,0 L20,0 Z" id="path-3"></path>
        <path d="M20,0 L20,20 L10,20 C4.48000014,20 0,15.5199987 0,10 C0,4.48000202 4.48000014,0 10,0 L20,0 Z" id="path-5"></path>
        <path d="M10,0 C15.5199981,0 20,4.48000202 20,10 C20,15.5199987 15.5199981,20 10,20 L0,20 L0,0 L10,0 Z" id="path-7"></path>
        <path d="M10,0 C15.5199981,0 20,4.48000202 20,10 C20,15.5199987 15.5199981,20 10,20 C4.48000185,20 0,15.5199987 0,10 C0,4.48000202 4.48000185,0 10,0 Z" id="path-9"></path>
    </defs>
    <g id="Page-1" stroke="none" stroke-width="1" fill="none" fill-rule="evenodd">
        <g id="figma">
            <g id="Group-3" transform="translate(0.000000, 40.000001)">
                <mask id="mask-2" fill="white">
                    <use xlink:href="#path-1"></use>
                </mask>
                <g id="Clip-2"></g>
                <polygon id="Fill-1" fill="#0ACF83" mask="url(#mask-2)" points="-0.599879988 20.5998785 20.5998759 20.5998785 20.5998759 -0.599878123 -0.599879988 -0.599878123"></polygon>
            </g>
            <g id="Group-6" transform="translate(0.000000, 20.000001)">
                <mask id="mask-4" fill="white">
                    <use xlink:href="#path-3"></use>
                </mask>
                <g id="Clip-5"></g>
                <polygon id="Fill-4" fill="#A259FF" mask="url(#mask-4)" points="-0.599879988 20.5998787 20.5998759 20.5998787 20.5998759 -0.599877952 -0.599879988 -0.599877952"></polygon>
            </g>
            <g id="Group-9">
                <mask id="mask-6" fill="white">
                    <use xlink:href="#path-5"></use>
                </mask>
                <g id="Clip-8"></g>
                <polygon id="Fill-7" fill="#F24E1E" mask="url(#mask-6)" points="-0.599879988 20.5998787 20.5998759 20.5998787 20.5998759 -0.599877952 -0.599879988 -0.599877952"></polygon>
            </g>
            <g id="Group-12" transform="translate(20.000000, 0.000000)">
                <mask id="mask-8" fill="white">
                    <use xlink:href="#path-7"></use>
                </mask>
                <g id="Clip-11"></g>
                <polygon id="Fill-10" fill="#FF7262" mask="url(#mask-8)" points="-0.59987793 20.5998787 20.5998779 20.5998787 20.5998779 -0.599877952 -0.59987793 -0.599877952"></polygon>
            </g>
            <g id="Group-15" transform="translate(20.000000, 20.000001)">
                <mask id="mask-10" fill="white">
                    <use xlink:href="#path-9"></use>
                </mask>
                <g id="Clip-14"></g>
                <polygon id="Fill-13" fill="#1ABCFE" mask="url(#mask-10)" points="-0.59987793 20.5998787 20.5998779 20.5998787 20.5998779 -0.599877952 -0.59987793 -0.599877952"></polygon>
            </g>
        </g>
    </g>
</svg>