<?xml version="1.0" encoding="UTF-8"?>
<svg width="58px" height="56px" viewBox="0 0 58 56" version="1.1" xmlns="http://www.w3.org/2000/svg" xmlns:xlink="http://www.w3.org/1999/xlink">
    <title>github</title>
    <g id="Page-1" stroke="none" stroke-width="1" fill="none" fill-rule="evenodd">
        <g id="github" fill="#FFFFFF" fill-rule="nonzero">
            <path d="M29.0001137,0 C12.9858554,0 0,12.8531566 0,28.7087979 C0,41.393311 8.30940084,52.1545227 19.8321157,55.9506901 C21.2813822,56.2163768 21.8135987,55.3279025 21.8135987,54.5695697 C21.8135987,53.8850887 21.786533,51.6233744 21.7742511,49.2245388 C13.7061672,50.9611841 12.0037567,45.8372587 12.0037567,45.8372587 C10.6845876,42.5188769 8.78384684,41.6367071 8.78384684,41.6367071 C6.15278676,39.854805 8.9821771,39.8912806 8.9821771,39.8912806 C11.8943567,40.093923 13.4277771,42.8498595 13.4277771,42.8498595 C16.0142583,47.2388686 20.2119455,45.9698769 21.8668204,45.2365366 C22.1270151,43.3807826 22.8787141,42.1144928 23.7079711,41.397589 C17.2667867,40.6714538 10.4953551,38.2097991 10.4953551,27.2094694 C10.4953551,24.0752671 11.6282484,21.5140924 13.4835006,19.5036547 C13.1823661,18.7804465 12.1898051,15.8605948 13.7643926,11.9061411 C13.7643926,11.9061411 16.1996243,11.1345239 21.7414993,14.848959 C24.0545942,14.2126619 26.5355419,13.8938378 29.0001137,13.8830303 C31.4646856,13.8938378 33.9474528,14.2126619 36.2650965,14.848959 C41.8003757,11.1345239 44.2321957,11.9061411 44.2321957,11.9061411 C45.8106498,15.8605948 44.8176339,18.7804465 44.5164994,19.5036547 C46.3758456,21.5140924 47.5010058,24.0750419 47.5010058,27.2094694 C47.5010058,38.2359174 40.7168374,40.6640236 34.2592771,41.3746229 C35.2993737,42.2655739 36.2262038,44.0128017 36.2262038,46.6910586 C36.2262038,50.5322577 36.1925422,53.6239052 36.1925422,54.5695697 C36.1925422,55.3335315 36.7145238,56.2287605 38.184715,55.9468624 C49.7010615,52.146417 58,41.389033 58,28.7087979 C58,12.8531566 45.0159641,0 29.0001137,0" id="Path"></path>
            <path d="M10.8615382,40.8963869 C10.7978542,41.038912 10.5708661,41.0816921 10.3645754,40.9839734 C10.1541906,40.8903076 10.0359203,40.6957709 10.1041532,40.5525703 C10.1667,40.4057671 10.3936881,40.3647883 10.6036179,40.4634076 C10.8144575,40.5568483 10.9345474,40.7531862 10.8615382,40.8963869 M12.2880604,42.1563722 C12.1497751,42.2833614 11.8793454,42.22437 11.695799,42.023754 C11.5061115,41.8235884 11.4706304,41.5561004 11.6109628,41.4270848 C11.7535695,41.3003207 12.0158112,41.3595373 12.2059535,41.5599281 C12.3956409,41.7623453 12.4324867,42.0282572 12.287833,42.1565974 M13.2667474,43.768505 C13.0888871,43.8907659 12.798215,43.7761604 12.6187625,43.520831 C12.4411295,43.2657267 12.4411295,42.9595116 12.622629,42.8368003 C12.8027638,42.7140891 13.0888871,42.8244166 13.2708414,43.0777196 C13.4482469,43.337327 13.4482469,43.6435422 13.26652,43.7687302 M14.9216224,45.6357421 C14.7626397,45.8091139 14.4242046,45.7627313 14.1762918,45.5258649 C13.9229204,45.2944022 13.8521856,44.9658964 14.0116231,44.7922994 C14.1724253,44.6184773 14.5129074,44.6673366 14.7626397,44.9021766 C15.0144191,45.1331889 15.0912948,45.4641715 14.9218498,45.6357421 M17.0604959,46.2661851 C16.9906709,46.490893 16.6645177,46.5931148 16.3360901,46.4976477 C16.0081174,46.3992536 15.7934112,46.1358185 15.8595971,45.9086338 C15.92783,45.6823498 16.2553479,45.57585 16.5862773,45.6780718 C16.9137952,45.7760156 17.1289562,46.0374243 17.0607233,46.2661851 M19.4950453,46.5334479 C19.5032332,46.7703143 19.2246156,46.9666523 18.8798121,46.9709303 C18.5329616,46.9783605 18.2525244,46.7867509 18.2488853,46.5539373 C18.2488853,46.3148193 18.5211345,46.1202826 18.8677576,46.1146536 C19.2125611,46.1078989 19.4950453,46.2981575 19.4950453,46.5334479 M21.8863805,46.4427091 C21.9277751,46.6737214 21.6880502,46.9110382 21.3457486,46.9740825 C21.009133,47.0348752 20.6975362,46.8923501 20.6545494,46.6633642 C20.6126999,46.4264977 20.8569737,46.1894061 21.1929069,46.1279379 C21.5358909,46.0689465 21.8427114,46.2078691 21.8863805,46.4427091" id="Shape"></path>
        </g>
    </g>
</svg>