<?xml version="1.0" encoding="UTF-8"?>
<svg width="43px" height="61px" viewBox="0 0 43 61" version="1.1" xmlns="http://www.w3.org/2000/svg" xmlns:xlink="http://www.w3.org/1999/xlink">
    <title>HTML5_logo_and_wordmark</title>
    <g id="Page-1" stroke="none" stroke-width="1" fill="none" fill-rule="evenodd">
        <g id="HTML5_logo_and_wordmark" fill-rule="nonzero">
            <path d="M4.00606395,0 L6.73208379,0 L6.73208379,2.71640625 L9.24476295,2.71640625 L9.24476295,0 L11.9707828,0 L11.9707828,8.22070312 L9.24476295,8.22070312 L9.24476295,5.48046875 L6.75578831,5.48046875 L6.75578831,8.22070312 L4.00606395,8.22070312 M15.5738699,2.74023438 L13.1678611,2.74023438 L13.1678611,0 L20.7177508,0 L20.7177508,2.74023438 L18.2998897,2.74023438 L18.2998897,8.22070312 L15.5738699,8.22070312 M21.9148291,0 L24.7712238,0 L26.5253583,2.89511719 L28.2794928,0 L31.1358875,0 L31.1358875,8.22070312 L28.4098677,8.22070312 L28.4098677,4.14609375 L26.5016538,7.10078125 L24.5934399,4.14609375 L24.5934399,8.22070312 L21.9148291,8.22070312 M32.4870452,0 L35.213065,0 L35.213065,5.50429688 L39.0769019,5.50429688 L39.0769019,8.22070312 L32.4870452,8.22070312" id="Shape" fill="#FFFFFF"></path>
            <polyline id="Path" fill="#E44D26" points="3.91124587 56.1152344 0 11.9855469 43 11.9855469 39.0887541 56.0914062 21.4644432 61"></polyline>
            <polyline id="Path" fill="#F16529" points="21.5 57.2470703 21.5 15.6074219 39.0769019 15.6074219 35.7227122 53.2558594"></polyline>
            <path d="M7.98842337,21.0044922 L21.5,21.0044922 L21.5,26.4134766 L13.890849,26.4134766 L14.3886439,31.9535156 L21.5,31.9535156 L21.5,37.3505859 L9.45810364,37.3505859 M9.69514884,40.0669922 L15.0997795,40.0669922 L15.4790518,44.3917969 L21.5,46.0121094 L21.5,51.659375 L10.4536935,48.5617187" id="Shape" fill="#EBEBEB"></path>
            <path d="M34.9641676,21.0044922 L21.4762955,21.0044922 L21.4762955,26.4134766 L34.4663727,26.4134766 M33.98043,31.9535156 L21.4762955,31.9535156 L21.4762955,37.3625 L28.1135612,37.3625 L27.4853914,44.3917969 L21.4762955,46.0121094 L21.4762955,51.6355469 L32.4988975,48.5617187" id="Shape" fill="#FFFFFF"></path>
        </g>
    </g>
</svg>