<?xml version="1.0" encoding="UTF-8"?>
<svg width="43px" height="60px" viewBox="0 0 43 60" version="1.1" xmlns="http://www.w3.org/2000/svg" xmlns:xlink="http://www.w3.org/1999/xlink">
    <title>html</title>
    <defs>
        <polygon id="path-1" points="43 0 39.0826177 43.3827289 21.4737019 48.2085492 3.9133354 43.3893935 9.58256539e-17 0"></polygon>
        <polygon id="path-3" points="17.5763792 0 14.2288854 37.07261 0 40.9721563 0 0"></polygon>
        <path d="M7.09632745,18.7532544 L7.47961527,22.9973747 L13.4747788,24.5976612 L13.4983674,24.5914918 L13.4983674,30.128145 L13.4735981,30.1348063 L2.44657601,27.108886 L1.69245673,18.7532544 L7.09632745,18.7532544 Z M13.4983674,0 L13.4983674,5.32154097 L5.88306061,5.32154097 L6.3750737,10.7708721 L13.4983674,10.7708721 L13.4983674,16.0924047 L1.45193199,16.0924047 L0.128776036,1.42765974 L0,0 L13.4983674,0 Z" id="path-5"></path>
        <path d="M2.73547473,0 L2.73547473,2.67184624 L5.23800395,2.67184624 L5.23800395,0 L7.97382108,0 L7.97382108,8.09102228 L5.23817262,8.09102228 L5.23817262,5.38168437 L2.73564425,5.38168437 L2.73564425,8.09102228 L0,8.09102228 L0,0 L2.73547473,0 Z M16.7167521,0 L16.7167521,2.68318462 L14.3072626,2.68318462 L14.3072626,8.09102228 L11.5716226,8.09102228 L11.5714454,2.68318462 L9.16313666,2.68318462 L9.16313666,0 L16.7167521,0 Z M20.7679663,0 L22.5226247,2.84296399 L24.2755879,0 L27.1292216,0 L27.1292216,8.09102228 L24.4047055,8.09102228 L24.4047055,4.08067261 L22.5226247,6.9574683 L22.4754305,6.9574683 L20.5921606,4.08067261 L20.5921606,8.09102228 L17.9155132,8.09102228 L17.9155132,0 L20.7679663,0 Z M31.2271324,0 L31.2271324,5.41668327 L35.0742211,5.41668327 L35.0742211,8.09102228 L28.4904804,8.09102228 L28.4904804,0 L31.2271324,0 Z" id="path-7"></path>
        <path d="M12.5131732,10.7708721 L12.3818629,12.1998491 L11.1167044,26.2097696 L11.035793,27.108886 L0,30.1323052 L0,24.5959854 L6.00392598,22.9940482 L6.62892766,16.0924047 L0.000168670927,16.0924047 L0.000168670927,10.7708721 L12.5131732,10.7708721 Z M13.4848948,0 L13.3562832,1.42765974 L13.110867,4.12549253 L13.0029851,5.32154097 L0.000168670927,5.32154097 L0.000168670927,0 L13.4848948,0 Z" id="path-9"></path>
    </defs>
    <g id="Page-1" stroke="none" stroke-width="1" fill="none" fill-rule="evenodd">
        <g id="html">
            <g id="Group-3" transform="translate(0.000000, 11.791451)">
                <mask id="mask-2" fill="white">
                    <use xlink:href="#path-1"></use>
                </mask>
                <g id="Clip-2"></g>
                <polygon id="Fill-1" fill="#E44D26" mask="url(#mask-2)" points="-0.608432166 48.810019 43.608432 48.810019 43.608432 -0.601466079 -0.608432166 -0.601466079"></polygon>
            </g>
            <g id="Group-6" transform="translate(21.499998, 15.339078)">
                <mask id="mask-4" fill="white">
                    <use xlink:href="#path-3"></use>
                </mask>
                <g id="Clip-5"></g>
                <polygon id="Fill-4" fill="#F16529" mask="url(#mask-4)" points="-0.608429767 41.5736262 18.184809 41.5736262 18.184809 -0.60146658 -0.608429767 -0.60146658"></polygon>
            </g>
            <g id="Group-9" transform="translate(8.001630, 20.660777)">
                <mask id="mask-6" fill="white">
                    <use xlink:href="#path-5"></use>
                </mask>
                <g id="Clip-8"></g>
                <polygon id="Fill-7" fill="#EBEBEB" mask="url(#mask-6)" points="-0.608432298 30.7362737 14.1067989 30.7362737 14.1067989 -0.60147575 -0.608432298 -0.60147575"></polygon>
            </g>
            <g id="Group-12" transform="translate(4.000815, 0.000000)">
                <mask id="mask-8" fill="white">
                    <use xlink:href="#path-7"></use>
                </mask>
                <g id="Clip-11"></g>
                <polygon id="Fill-10" fill="#FFFFFF" mask="url(#mask-8)" points="-0.608600125 8.6924897 35.6826534 8.6924897 35.6826534 -0.601467413 -0.608600125 -0.601467413"></polygon>
            </g>
            <g id="Group-15" transform="translate(21.481284, 20.660777)">
                <mask id="mask-10" fill="white">
                    <use xlink:href="#path-9"></use>
                </mask>
                <g id="Clip-14"></g>
                <polygon id="Fill-13" fill="#FFFFFF" mask="url(#mask-10)" points="-0.608429767 30.733781 14.0933246 30.733781 14.0933246 -0.601467413 -0.608429767 -0.601467413"></polygon>
            </g>
        </g>
    </g>
</svg>