<?xml version="1.0" encoding="UTF-8"?>
<svg width="47px" height="47px" viewBox="0 0 47 47" version="1.1" xmlns="http://www.w3.org/2000/svg" xmlns:xlink="http://www.w3.org/1999/xlink">
    <title>invision</title>
    <defs>
        <path d="M42.739337,0 C45.0924548,0 47,1.90754516 47,4.26066303 L47,4.26066303 L47,42.7393395 C47,45.0924615 45.0924548,47 42.739337,47 L42.739337,47 L4.26066054,47 C1.90753852,47 0,45.0924615 0,42.7393395 L0,42.7393395 L0,4.26066303 C0,1.90754516 1.90753852,0 4.26066054,0 L4.26066054,0 L42.739337,0 Z" id="path-1"></path>
        <path d="M23.8950992,7.90536168 C26.5550001,7.90536168 28.7507887,9.80042539 28.7507887,13.4315306 C28.7507887,14.3601535 28.6239244,15.3708437 28.2862946,16.5105973 L28.2862946,16.5105973 L26.9348543,21.3644444 C26.8085378,21.8722583 26.723732,22.2939719 26.723732,22.674017 C26.723732,23.5179919 27.0615277,23.9398963 27.6949363,23.9398963 C28.3283282,23.9398963 29.1306429,23.4744811 30.0596227,20.9003155 L30.0596227,20.9003155 L31.9172338,21.6174343 C30.8193312,25.4598693 28.8350467,27.0635609 26.3438777,27.0635609 C23.4304226,27.0635609 22.0374964,25.3335528 22.0374964,22.9683186 C22.0374964,22.2932416 22.1215885,21.575019 22.3327109,20.8571698 L22.3327109,20.8571698 L23.7261847,15.8749895 C23.8950992,15.3258557 23.9373237,14.8196849 23.9373237,14.3550082 C23.9373237,12.7511423 22.9662854,11.7795563 21.4041045,11.7795563 C19.4194466,11.7795563 18.1106042,13.2040678 17.4349878,15.9484176 L17.4349878,15.9484176 L14.732489,26.7876164 L10.0040207,26.7876164 L10.8527674,23.3814014 C9.46278732,25.6647592 7.53230418,27.0787976 5.15109476,27.0787976 C2.27987236,27.0787976 0.928805536,25.4247984 0.928805536,22.9332477 C0.928805536,22.3009512 1.01343705,21.5258152 1.18216065,20.807966 L1.18234322,20.807966 L3.3353513,12.0112515 L0,12.0112515 L1.01343705,8.27255191 L9.0357542,8.27255191 L5.86876135,20.8347713 C5.65762241,21.6376254 5.57317347,22.3035239 5.57317347,22.7670967 C5.57317347,23.5705069 5.96863782,23.8053224 6.58697567,23.9448507 C6.96352698,24.0291171 9.96400372,23.9701871 11.5974384,20.3390653 L11.5974384,20.3390653 L13.6775495,12.0112515 L10.2996169,12.0112515 L11.3130539,8.27255191 L18.5326829,8.27255191 L17.6040766,12.517248 C18.8705036,10.152379 21.4041045,7.90536168 23.8950992,7.90536168 Z M7.13537094,0 C8.69775928,0 10.0065933,1.22439342 10.0065933,2.82825933 C10.0065933,4.43324559 8.69775928,5.65780498 7.13537094,5.65780498 C5.5729909,5.65780498 4.26452199,4.43306301 4.26452199,2.82825933 C4.26452199,1.22439342 5.5729909,0 7.13537094,0 Z" id="path-3"></path>
    </defs>
    <g id="Page-1" stroke="none" stroke-width="1" fill="none" fill-rule="evenodd">
        <g id="invision">
            <g id="Group-3">
                <mask id="mask-2" fill="white">
                    <use xlink:href="#path-1"></use>
                </mask>
                <g id="Clip-2"></g>
                <polygon id="Fill-1" fill="#DC395F" mask="url(#mask-2)" points="-0.939999834 47.9399998 47.9400015 47.9399998 47.9400015 -0.940001494 -0.939999834 -0.940001494"></polygon>
            </g>
            <g id="Group-6" transform="translate(8.571990, 9.129747)">
                <mask id="mask-4" fill="white">
                    <use xlink:href="#path-3"></use>
                </mask>
                <g id="Clip-5"></g>
                <polygon id="Fill-4" fill="#FFFFFF" mask="url(#mask-4)" points="-0.939999004 28.0187983 32.8572278 28.0187983 32.8572278 -0.939992365 -0.939999004 -0.939992365"></polygon>
            </g>
        </g>
    </g>
</svg>