<?xml version="1.0" encoding="UTF-8"?>
<svg width="47px" height="47px" viewBox="0 0 47 47" version="1.1" xmlns="http://www.w3.org/2000/svg" xmlns:xlink="http://www.w3.org/1999/xlink">
    <title>invision (1)</title>
    <g id="Page-1" stroke="none" stroke-width="1" fill="none" fill-rule="evenodd">
        <g id="invision-(1)" fill-rule="nonzero">
            <path d="M42.7393398,0 L4.26066016,0 C1.90753906,0 0,1.90753906 0,4.26066016 L0,42.7393398 C0,45.0924609 1.90753906,47 4.26066016,47 L42.7393398,47 C45.0924609,47 47,45.0924609 47,42.7393398 L47,4.26066016 C47,1.90753906 45.0924609,0 42.7393398,0" id="Path" fill="#DC395F"></path>
            <path d="M15.7073633,14.7875586 C17.2697461,14.7875586 18.5785859,13.5629883 18.5785859,11.9580117 C18.5785859,10.3541367 17.2697461,9.12975 15.7073633,9.12975 C14.1449805,9.12975 12.8365078,10.3541367 12.8365078,11.9580117 C12.8365078,13.5628047 14.1449805,14.7875586 15.7073633,14.7875586 M9.75415234,29.9377148 C9.58542969,30.6555664 9.50079297,31.4306992 9.50079297,32.0629961 C9.50079297,34.5545469 10.8518594,36.208543 13.723082,36.208543 C16.104293,36.208543 18.0347813,34.7945039 19.4247695,32.5111484 L18.5760156,35.9173633 L23.3044727,35.9173633 L26.0069727,25.0781719 C26.6825977,22.3338125 27.9914375,20.9093086 29.9760859,20.9093086 C31.5382852,20.9093086 32.5093125,21.8808867 32.5093125,23.4847617 C32.5093125,23.9494375 32.4670859,24.4556055 32.2981797,25.0047344 L30.9047031,29.986918 C30.6935703,30.7047695 30.6094844,31.4229883 30.6094844,32.0980625 C30.6094844,34.4633008 32.0024102,36.1933047 34.9158594,36.1933047 C37.407043,36.1933047 39.3913242,34.5896133 40.4892148,30.7471797 L38.6316133,30.0300625 C37.7026289,32.6042305 36.9003242,33.0696406 36.2669258,33.0696406 C35.6335273,33.0696406 35.2957148,32.6477422 35.2957148,31.8037617 C35.2957148,31.4237227 35.3805352,31.0020078 35.5068477,30.4941875 L36.8582812,25.6403359 C37.1959102,24.5005859 37.3227734,23.4899023 37.3227734,22.5612852 C37.3227734,18.930168 35.1269922,17.0351133 32.4670859,17.0351133 C29.9760859,17.0351133 27.4424922,19.2821172 26.1760625,21.6469883 L27.1046797,17.4023008 L19.8850391,17.4023008 L18.8716016,21.1410039 L22.249543,21.1410039 L20.1694258,29.4688164 C18.5359922,33.0999336 15.5355195,33.1588672 15.1589688,33.0745977 C14.540625,32.9350664 14.1451641,32.70025 14.1451641,31.8968437 C14.1451641,31.4332695 14.2296172,30.767375 14.44075,29.9645195 L17.6077422,17.4023008 L9.58542969,17.4023008 L8.57199219,21.1410039 L11.9073398,21.1410039 L9.75433594,29.9377148" id="Shape" fill="#FFFFFF"></path>
        </g>
    </g>
</svg>