<?xml version="1.0" encoding="UTF-8"?>
<svg width="62px" height="39px" viewBox="0 0 62 39" version="1.1" xmlns="http://www.w3.org/2000/svg" xmlns:xlink="http://www.w3.org/1999/xlink">
    <title>ios</title>
    <defs>
        <path d="M23.4508451,0 C32.1709205,-0.000987438335 38.8468635,6.79881087 38.8468635,19.218274 C38.8468635,32.8178723 31.2094444,39 22.8494306,39 C14.3093773,39 7.3935618,32.3130879 7.3935618,19.7807393 C7.3935618,6.91268124 14.550248,0 23.4508451,0 Z M53.8135154,0.0547177036 C57.0539924,0.0547177036 59.4985655,0.953865432 60.6355859,1.74061544 L60.1837694,2.71075658 C59.2173158,2.03688099 56.6051813,1.17815013 53.7636465,1.17815013 C47.3948909,1.17815013 44.620689,5.93515985 44.620689,9.43709288 C44.620689,14.2739489 48.4137106,15.8913388 53.3028568,18.1953985 C58.9874162,20.9485383 62,23.3763342 62,28.6593166 C62,34.335182 57.9072485,38.9423245 50.6303905,38.9423245 C47.6167991,38.9423245 44.1494278,37.9312774 42.4439059,36.638261 L42.9520757,35.5148201 C44.8286381,36.7511465 48.067634,37.9450794 50.8533063,37.9450794 C56.1404045,37.9450794 60.8425447,34.2888456 60.8425447,28.9072743 C60.8425447,23.9131602 57.710279,21.3074126 52.3922571,19.0689069 C47.6327648,17.0655477 43.3535239,14.8911319 43.3535239,9.5524444 C43.3535239,3.9894722 47.787366,0.0547177036 53.8135154,0.0547177036 Z M1.64268146,11.4631376 L1.64268146,38.4375403 L0.524122049,38.4375403 L0.524122049,11.4631376 L1.64268146,11.4631376 Z M23.5151726,1.32210332 C13.674051,1.32210332 8.52708161,9.43562023 8.52708161,19.4992598 C8.52708161,29.810857 13.5827869,37.8213483 22.9022876,37.8213483 C32.2866066,37.8213483 37.6689646,29.5643804 37.6689646,19.3819334 C37.6689646,9.93940957 33.3562941,1.32210332 23.5151726,1.32210332 Z M1.09811281,2.00040536 C1.75139489,2.00040536 2.16680397,2.52835288 2.16680397,3.17412053 C2.16680397,3.84848132 1.75139489,4.34735049 1.03876878,4.34735049 C0.445329248,4.34735049 0,3.84848132 0,3.17412053 C0,2.52835288 0.47475179,2.00040536 1.09811281,2.00040536 Z" id="path-1"></path>
    </defs>
    <g id="Page-1" stroke="none" stroke-width="1" fill="none" fill-rule="evenodd">
        <g id="ios">
            <mask id="mask-2" fill="white">
                <use xlink:href="#path-1"></use>
            </mask>
            <g id="Clip-2"></g>
            <polygon id="Fill-1" fill="#FFFFFF" mask="url(#mask-2)" points="-0.619999916 39.6128692 62.6199937 39.6128692 62.6199937 -0.612874458 -0.619999916 -0.612874458"></polygon>
        </g>
    </g>
</svg>