<?xml version="1.0" encoding="UTF-8"?>
<svg width="60px" height="38px" viewBox="0 0 60 38" version="1.1" xmlns="http://www.w3.org/2000/svg" xmlns:xlink="http://www.w3.org/1999/xlink">
    <title>apple-ios (1)</title>
    <g id="Page-1" stroke="none" stroke-width="1" fill="none" fill-rule="evenodd">
        <g id="apple-ios-(1)" fill="#FFFFFF" fill-rule="nonzero">
            <path d="M2.09690652,3.09273842 C2.09690652,3.74980724 1.69489889,4.23588447 1.00526036,4.23588447 C0.430963757,4.23588447 0,3.74980724 0,3.09273842 C0,2.46352778 0.459437286,1.94911205 1.06269002,1.94911205 C1.69489889,1.94911205 2.09690652,2.46352778 2.09690652,3.09273842 Z M0.507214903,37.4519623 L0.507214903,11.1692094 L1.58969162,11.1692094 L1.58969162,37.4519623 L0.507214903,37.4519623 Z M37.5937455,18.7255009 C37.5937455,31.9763888 30.2026929,38 22.1123498,38 C13.8477873,38 7.15506008,31.4845478 7.15506008,19.2735385 C7.15506008,6.73543576 14.0808841,0 22.694368,0 C31.1331499,-0.000960626935 37.5937455,6.62448335 37.5937455,18.7255009 Z M8.25201486,18.9992795 C8.25201486,29.0464766 13.1446359,36.8515705 22.1635056,36.8515705 C31.2451137,36.8515705 36.4538391,28.8063199 36.4538391,18.8849649 C36.4538391,9.68456045 32.2802954,1.28820072 22.7566237,1.28820072 C13.2329521,1.28820072 8.25201486,9.19368009 8.25201486,18.9992795 Z M41.5665267,34.6041838 C43.3825588,35.80881 46.51706,36.9721292 49.2128758,36.9721292 C54.3294243,36.9721292 58.8798803,33.4096442 58.8798803,28.1660621 C58.8798803,23.3000063 55.848656,20.7610693 50.7021862,18.5799659 C46.0962309,16.6279719 41.9550215,14.5093092 41.9550215,9.30751438 C41.9550215,3.88717689 46.2458376,0.0533147949 52.0776024,0.0533147949 C55.2135515,0.0533147949 57.5792674,0.92940656 58.6796004,1.69598685 L58.2423628,2.64124376 C57.3070798,1.98465525 54.7792095,1.14794919 52.0293422,1.14794919 C45.8660296,1.14794919 43.1813136,5.78297415 43.1813136,9.19512103 C43.1813136,13.9079568 46.8519859,15.4838653 51.5834178,17.7288504 C57.0846002,20.4114011 60,22.776945 60,27.9244644 C60,33.4547937 56.0392838,37.9438033 48.9971526,37.9438033 C46.0807876,37.9438033 42.7252546,36.9586804 41.0747551,35.6988182 L41.5665267,34.6041838 Z" id="Shape"></path>
        </g>
    </g>
</svg>