<?xml version="1.0" encoding="UTF-8"?>
<svg width="50px" height="50px" viewBox="0 0 50 50" version="1.1" xmlns="http://www.w3.org/2000/svg" xmlns:xlink="http://www.w3.org/1999/xlink">
    <title>logo-javascript</title>
    <g id="Page-1" stroke="none" stroke-width="1" fill="none" fill-rule="evenodd">
        <g id="logo-javascript" fill-rule="nonzero">
            <polygon id="Path" fill="#F0DB4F" points="0 0 50 0 50 50 0 50"></polygon>
            <path d="M45.9077947,38.0750951 C45.5418251,35.7937262 44.0541825,33.878327 39.648289,32.0912548 C38.1178707,31.3878327 36.411597,30.8840779 35.9030418,29.7243346 C35.7224335,29.0494297 35.6986692,28.6692015 35.8127376,28.2604563 C36.1406844,26.9344106 37.723384,26.5209125 38.9781369,26.9011407 C39.7861217,27.1720532 40.5513308,27.7947243 41.0123574,28.7880228 C43.1701521,27.3907319 43.1653992,27.4001901 44.6720532,26.4401616 C44.1207224,25.5846483 43.8260456,25.1901141 43.4648289,24.824192 C42.1673004,23.3745722 40.3992395,22.6283745 37.5712928,22.6854087 C37.081749,22.7471958 36.5875,22.8136882 36.0979087,22.8755228 C34.6863593,23.2319867 33.3412548,23.9734316 32.5522814,24.9667776 C30.1853612,27.6521388 30.8602662,32.3526616 33.7404943,34.2871198 C36.5779468,36.4163973 40.7461977,36.9011882 41.2785171,38.8926331 C41.7965779,41.330846 39.4867395,42.1197719 37.1910646,41.8394011 C35.4990494,41.4876901 34.5580323,40.627424 33.5408745,39.0637357 C31.6682985,40.1473859 31.6682985,40.1473859 29.7433935,41.2548004 C30.1996673,42.2528992 30.6796578,42.7044202 31.4449144,43.5694392 C35.0665875,47.2433935 44.1302281,47.0627852 45.755751,41.5019487 C45.8222433,41.3117871 46.2595532,40.0380228 45.9077947,38.0750951 L45.9077947,38.0750951 Z M27.1815589,22.980038 L22.5047529,22.980038 C22.5047529,27.019962 22.485789,31.0313688 22.485789,35.0712928 C22.485789,37.6425856 22.6188688,40 22.2006179,40.7224335 C21.5162072,42.1434886 19.7433935,41.9676806 18.9354087,41.6919677 C18.1131654,41.2879753 17.6949144,40.7128802 17.2101236,39.9001901 C17.0770437,39.6673004 16.9772338,39.486692 16.9439163,39.4724335 C15.6749525,40.2471483 14.4106464,41.0265684 13.141635,41.8013308 C13.7738118,43.0988593 14.7053232,44.2252852 15.898289,44.9571768 C17.6806084,46.0265684 20.0760456,46.3545152 22.580846,45.7794202 C24.2110741,45.304135 25.6178707,44.3203422 26.3545627,42.8231939 C27.4192015,40.8602662 27.1910646,38.4838403 27.1815589,35.8555133 C27.2053232,31.5684411 27.1815589,27.2813688 27.1815589,22.980038 Z" id="Shape" fill="#323330"></path>
        </g>
    </g>
</svg>