<?xml version="1.0" encoding="UTF-8"?>
<svg width="49px" height="49px" viewBox="0 0 49 49" version="1.1" xmlns="http://www.w3.org/2000/svg" xmlns:xlink="http://www.w3.org/1999/xlink">
    <title>javascript</title>
    <defs>
        <polygon id="path-1" points="0 0 49 0 49 49 0 49"></polygon>
        <path d="M13.7818281,0.263374807 L13.7818281,15.9851057 C13.7818281,20.7543778 10.9861496,22.9253075 6.90727924,22.9253075 C3.22366577,22.9253075 1.08546828,21.0175614 0,18.7151356 L3.74984435,16.4462041 C4.47335721,17.7288163 5.13140922,18.8140926 6.70993632,18.8140926 C8.22300257,18.8140926 9.17715981,18.2222636 9.17715981,15.9200255 L9.17715981,0.263374807 L13.7818281,0.263374807 Z M24.4071643,0 C27.3345345,0 29.4396209,1.01981709 30.9524968,3.68400281 L27.3670832,5.9866138 C26.5775212,4.57231851 25.7227059,4.01321916 24.4069826,4.01321916 C23.0583385,4.01321916 22.2031253,4.86842375 22.2031253,5.9866138 C22.2031253,7.36799698 23.0583385,7.92747702 25.0317332,8.7826816 L26.1828526,9.27593942 C30.0971018,10.9536095 32.3007602,12.6638283 32.3007602,16.5118553 C32.3007602,20.656569 29.0445543,22.9258819 24.6699767,22.9258819 C20.3941441,22.9258819 17.6312047,20.8866388 16.2827423,18.2222636 L20.032206,16.0513366 C21.0192754,17.6631651 22.3020866,18.8472063 24.5713961,18.8472063 C26.4795202,18.8472063 27.6961092,17.8932385 27.6961092,16.5775065 C27.6961092,14.9987977 26.4462274,14.4394994 24.3411324,13.5188426 L23.1902119,13.0250051 C19.8679742,11.6110905 17.6643072,9.83483978 17.6643072,6.08519442 C17.6643072,2.63146395 20.2955808,0 24.4071643,0 Z" id="path-3"></path>
    </defs>
    <g id="Page-1" stroke="none" stroke-width="1" fill="none" fill-rule="evenodd">
        <g id="javascript">
            <g id="Group-3">
                <mask id="mask-2" fill="white">
                    <use xlink:href="#path-1"></use>
                </mask>
                <g id="Clip-2"></g>
                <polygon id="Fill-1" fill="#F7DF1E" mask="url(#mask-2)" points="-0.49 49.49 49.4900007 49.49 49.4900007 -0.490000692 -0.49 -0.490000692"></polygon>
            </g>
            <g id="Group-6" transform="translate(12.883744, 22.232404)">
                <mask id="mask-4" fill="white">
                    <use xlink:href="#path-3"></use>
                </mask>
                <g id="Clip-5"></g>
                <polygon id="Fill-4" fill="#000000" mask="url(#mask-4)" points="-0.48999602 23.4158814 32.7907648 23.4158814 32.7907648 -0.48999602 -0.48999602 -0.48999602"></polygon>
            </g>
        </g>
    </g>
</svg>