<?xml version="1.0" encoding="UTF-8"?>
<svg width="52px" height="52px" viewBox="0 0 52 52" version="1.1" xmlns="http://www.w3.org/2000/svg" xmlns:xlink="http://www.w3.org/1999/xlink">
    <title>jira-1 (2)</title>
    <defs>
        <linearGradient x1="98.031%" y1="0.161%" x2="58.888%" y2="40.766%" id="linearGradient-1">
            <stop stop-color="#0052CC" offset="18%"></stop>
            <stop stop-color="#2684FF" offset="100%"></stop>
        </linearGradient>
        <linearGradient x1="100.665%" y1="0.455%" x2="55.402%" y2="44.727%" id="linearGradient-2">
            <stop stop-color="#0052CC" offset="18%"></stop>
            <stop stop-color="#2684FF" offset="100%"></stop>
        </linearGradient>
    </defs>
    <g id="Page-1" stroke="none" stroke-width="1" fill="none" fill-rule="evenodd">
        <g id="jira-1-(2)" fill-rule="nonzero">
            <path d="M49.8277326,0 L24.787188,0 C24.787188,6.24285702 29.8480236,11.3036926 36.0908806,11.3036926 L40.7036393,11.3036926 L40.7036393,15.7573906 C40.7077126,21.9945638 45.7628268,27.0498817 52,27.053955 L52,2.17226739 C52,0.972897182 51.0277138,0 49.8277326,0 Z" id="Path" fill="#2684FF"></path>
            <path d="M37.4377027,12.4767903 L12.3973618,12.4767903 C12.4012314,18.7139634 17.4563457,23.7692814 23.6937225,23.7733546 L28.3064812,23.7733546 L28.3064812,28.2413091 C28.314424,34.4784822 33.3730006,39.5303379 39.6101737,39.5303379 L39.6101737,14.649465 C39.6101737,13.4496875 38.6374802,12.4767903 37.4377027,12.4767903 L37.4377027,12.4767903 Z" id="Path" fill="url(#linearGradient-1)"></path>
            <path d="M25.0405446,24.9464524 L0,24.9464524 C0,31.1893281 5.06102051,36.2501449 11.3036926,36.2501449 L15.9309113,36.2501449 L15.9309113,40.7036393 C15.9349846,46.9351099 20.9813414,51.9881876 27.2130156,52 L27.2130156,27.1189234 C27.2130156,25.9191459 26.2403221,24.9464524 25.0405446,24.9464524 Z" id="Path" fill="url(#linearGradient-2)"></path>
        </g>
    </g>
</svg>