<?xml version="1.0" encoding="UTF-8"?>
<svg width="52px" height="52px" viewBox="0 0 52 52" version="1.1" xmlns="http://www.w3.org/2000/svg" xmlns:xlink="http://www.w3.org/1999/xlink">
    <title>jira</title>
    <defs>
        <path d="M25.0405417,0 C26.2405126,0 27.2128104,0.972899604 27.2128104,2.17226865 L27.2128104,2.17226865 L27.2128104,27.0539559 C20.9756374,27.049881 15.9205278,21.9945651 15.9164529,15.7573921 L15.9164529,15.7573921 L15.9164529,11.3036993 L11.3036821,11.3036993 C5.06082656,11.3036993 0,6.24284697 0,0 L0,0 L25.0405417,0 Z" id="path-1"></path>
        <path d="M25.0403526,0 C26.2401171,0 27.2128104,0.972899604 27.2128104,2.17266411 L27.2128104,2.17266411 L27.2128104,27.0535433 C20.9756374,27.0535433 15.9170546,22.0016833 15.9091283,15.7645104 L15.9091283,15.7645104 L15.9091283,11.2965638 L11.2963575,11.2965638 C5.05898681,11.2924889 0.00386862737,6.23717298 0,0 L0,0 L25.0403526,0 Z" id="path-3"></path>
        <linearGradient x1="71.4558014%" y1="27.6188461%" x2="54.658544%" y2="45.1460524%" id="linearGradient-5">
            <stop stop-color="#0052CC" offset="0%"></stop>
            <stop stop-color="#2683FE" offset="100%"></stop>
        </linearGradient>
        <path d="M25.0405331,0 C26.2403234,0 27.2130167,0.972693277 27.2130167,2.17245779 L27.2130167,2.17245779 L27.2130167,27.0535433 C20.9813372,27.0417308 15.9349879,21.9886538 15.9309129,15.7571858 L15.9309129,15.7571858 L15.9309129,11.3036907 L11.3036907,11.3036907 C5.06102085,11.3036907 0,6.24287276 0,0 L0,0 L25.0405331,0 Z" id="path-6"></path>
        <linearGradient x1="48.417004%" y1="52.1008556%" x2="28.9933784%" y2="71.2112131%" id="linearGradient-8">
            <stop stop-color="#0052CC" offset="0%"></stop>
            <stop stop-color="#2683FE" offset="100%"></stop>
        </linearGradient>
    </defs>
    <g id="Page-1" stroke="none" stroke-width="1" fill="none" fill-rule="evenodd">
        <g id="jira">
            <g id="Group-3" transform="translate(24.787190, 0.000000)">
                <mask id="mask-2" fill="white">
                    <use xlink:href="#path-1"></use>
                </mask>
                <g id="Clip-2"></g>
                <polygon id="Fill-1" fill="#2684FF" mask="url(#mask-2)" points="-1.0399988 28.0939547 28.2528092 28.0939547 28.2528092 -1.0399988 -1.0399988 -1.0399988"></polygon>
            </g>
            <g id="Group-6" transform="translate(12.397360, 12.476796)">
                <mask id="mask-4" fill="white">
                    <use xlink:href="#path-3"></use>
                </mask>
                <g id="Clip-5"></g>
                <polygon id="Fill-4" fill="url(#linearGradient-5)" mask="url(#mask-4)" points="-12.3973603 39.5232039 39.6026397 39.5232039 39.6026397 -12.4767961 -12.3973603 -12.4767961"></polygon>
            </g>
            <g id="Group-9" transform="translate(0.000000, 24.946457)">
                <mask id="mask-7" fill="white">
                    <use xlink:href="#path-6"></use>
                </mask>
                <g id="Clip-8"></g>
                <polygon id="Fill-7" fill="url(#linearGradient-8)" mask="url(#mask-7)" points="0 27.0535433 52 27.0535433 52 -24.9464567 0 -24.9464567"></polygon>
            </g>
        </g>
    </g>
</svg>