<?xml version="1.0" encoding="UTF-8"?>
<svg width="29px" height="64px" viewBox="0 0 29 64" version="1.1" xmlns="http://www.w3.org/2000/svg" xmlns:xlink="http://www.w3.org/1999/xlink">
    <title>mongodb</title>
    <g id="Page-1" stroke="none" stroke-width="1" fill="none" fill-rule="evenodd">
        <g id="mongodb" fill-rule="nonzero">
            <path d="M14.2979588,0.174792891 L16.0208775,3.38255201 C16.4082316,3.97450755 16.8278652,4.49846821 17.3221451,4.98643157 C18.7712611,6.40497742 20.1220081,7.91898024 21.3651533,9.51809127 C24.2844312,13.3178059 26.2534811,17.5374891 27.6596572,22.1011464 C28.5029593,24.888937 28.9609248,27.7487223 28.9952217,30.6405051 C29.1364446,39.2858559 26.1465553,46.7092984 20.1183574,52.8788351 C19.1378064,53.8571952 18.0784954,54.7547621 16.9509308,55.5626336 C16.3537599,55.5626336 16.0713142,55.1086677 15.825183,54.6906991 C15.3769597,53.9156502 15.0786439,53.0644651 14.9455664,52.1808875 C14.7337322,51.1349661 14.5945268,50.0890446 14.6631207,49.0091257 L14.6631207,48.5211624 C14.6147015,48.4171702 14.088142,0.420774419 14.2979588,0.174792891 Z" id="Path" fill="#599636"></path>
            <path d="M14.2979588,0.0688008502 C14.2273474,-0.0711886375 14.156736,0.0348034032 14.0861245,0.102798297 C14.1204215,0.802745735 13.8742903,1.42669888 13.4889537,2.02265413 C13.0652851,2.61460968 12.5044287,3.06857559 11.9415548,3.55653894 C8.8144776,6.2403374 6.35316521,9.48209397 4.38209782,13.1078217 C1.7593879,17.9874553 0.407683551,23.2170626 0.0243644079,28.7226491 C-0.15115541,30.7085 0.657849729,37.7159738 1.28931758,39.7378219 C3.01223625,45.1054189 6.10703397,49.6030811 10.1157452,53.506788 C11.1002702,54.4467174 12.1533891,55.3186519 13.2428224,56.156589 C13.5595651,56.156589 13.5938621,55.87661 13.666491,55.6686256 C13.8053582,55.2235823 13.9112212,54.7690719 13.9832336,54.3087278 L14.6893478,49.0811203 L14.2979588,0.0688008502 Z" id="Path" fill="#6CAC48"></path>
            <path d="M16.0208775,57.6864741 C16.0914889,56.8865342 16.478843,56.222584 16.900494,55.5606337 C16.4768255,55.3866468 16.1621003,55.0406728 15.9159691,54.6547018 C15.7037345,54.2892584 15.5280515,53.9041219 15.3914271,53.5047881 C14.8991646,52.0408981 14.7942562,50.5050134 14.6530334,49.0091257 L14.6530334,48.1031938 C14.4775136,48.2431832 14.4411991,49.4270943 14.4411991,49.6030811 C14.3385376,51.1841146 14.1268816,52.756334 13.8077138,54.3087278 C13.7028054,54.9366806 13.632194,55.5626336 13.2428224,56.1205917 C13.2428224,56.1905864 13.2428224,56.2605812 13.2771194,56.3645734 C13.9106047,58.2124346 14.0841071,60.0942933 14.1910329,62.0121493 L14.1910329,62.7120967 C14.1910329,63.5480339 14.156736,63.3720472 14.8567978,63.6520261 C15.1392435,63.7560183 15.4539686,63.7920156 15.7364143,64 C15.9482486,64 15.9825456,63.8260131 15.9825456,63.6860236 L15.8776372,62.5361099 L15.8776372,59.3283508 C15.8433402,58.7683929 15.9482486,58.2124346 16.01886,57.688474 L16.0208775,57.6864741 Z" id="Path" fill="#C2BFBF"></path>
        </g>
    </g>
</svg>