<?xml version="1.0" encoding="UTF-8"?>
<svg width="50px" height="55px" viewBox="0 0 50 55" version="1.1" xmlns="http://www.w3.org/2000/svg" xmlns:xlink="http://www.w3.org/1999/xlink">
    <title>nodejs-icon</title>
    <g id="Page-1" stroke="none" stroke-width="1" fill="none" fill-rule="evenodd">
        <g id="nodejs-icon" fill="#8CC84B" fill-rule="nonzero">
            <path d="M22.7440669,0.586772531 C24.1102707,-0.193826891 25.8897502,-0.19735281 27.2547765,0.586772531 C34.1220993,4.46019109 40.9915807,8.32753724 47.8577261,12.2033064 C49.1491635,12.92945 50.0129999,14.3641075 50,15.849499 L50,39.153477 C50.0094676,40.7003763 49.060268,42.1693135 47.6977927,42.8790028 C40.8530372,46.73107 34.011814,50.5878383 27.1682359,54.4399055 C25.7737739,55.2357839 23.9585793,55.1744721 22.607682,54.3133642 C20.5556291,53.1259128 18.5000438,51.944338 16.4477946,50.7580619 C16.0284355,50.5085052 15.5557,50.3098784 15.259578,49.9040058 C15.5213585,49.5518056 15.9893843,49.5079275 16.3696921,49.3541583 C17.2262678,49.0822707 18.0129829,48.6458402 18.7998943,48.2223381 C18.9988789,48.0863943 19.2418206,48.1384995 19.4325632,48.2601438 C21.1873168,49.2644432 22.9265676,50.2979294 24.6872083,51.2926305 C25.0628064,51.5090828 25.4431142,51.2217203 25.7641583,51.0430737 C32.4809671,47.2536896 39.2060179,43.478605 45.9216493,39.6880456 C46.1704781,39.5685561 46.3080405,39.3048956 46.287828,39.0328122 C46.2925377,31.345328 46.2890055,23.6564727 46.2901829,15.9689885 C46.3186373,15.6602747 46.1396689,15.3764382 45.8600308,15.2500927 C39.03902,11.4156552 32.2215415,7.57534106 25.4017081,3.73992407 C25.1598521,3.57394983 24.8406551,3.57348287 24.5983128,3.73874877 C17.7784794,7.57534106 10.9621783,11.4191811 4.14234491,15.2534228 C3.86368801,15.3799641 3.6766739,15.6590994 3.709838,15.9689885 C3.71101542,23.6564727 3.709838,31.345328 3.709838,39.0339875 C3.68561775,39.3058867 3.83361878,39.5640711 4.08072641,39.6809937 C5.90063073,40.7111499 7.7228899,41.7340584 9.54397164,42.7606886 C10.5699,43.3119074 11.829547,43.6394261 12.9598736,43.2170993 C13.9573475,42.860002 14.6565409,41.8439495 14.6375059,40.7867613 C14.6469253,33.1441347 14.6327962,25.5003328 14.6445704,17.8588815 C14.6196483,17.5196096 14.9420661,17.239299 15.2725296,17.2712282 C16.1469628,17.2653517 17.0225735,17.2594751 17.8970067,17.2735788 C18.262008,17.2653517 18.5131917,17.6306761 18.4680571,17.9724944 C18.4645248,25.6635045 18.4774765,33.3547104 18.46217,41.0457205 C18.4645248,43.0954551 17.6209009,45.3257951 15.7215205,46.3287234 C13.3815874,47.5387014 10.4894427,47.2820928 8.17776786,46.1218694 C6.17654031,45.1248177 4.26675933,43.94814 2.30105073,42.8799822 C0.935043192,42.1742106 -0.0094467241,40.6993968 0,39.1536729 L0,15.849499 C-0.0141564183,14.3333536 0.884021505,12.8726435 2.21568753,12.1570777 C9.05926561,8.30187638 15.9016663,4.4437368 22.7440669,0.586772531 Z" id="Path"></path>
            <path d="M28.7143892,16.7296078 C31.6991579,16.5378369 34.8944892,16.6159948 37.5803885,18.0837568 C39.6599147,19.2085251 40.8128086,21.5691283 40.8495049,23.8752756 C40.7914187,24.1863401 40.4656649,24.3579348 40.1681692,24.3365834 C39.3021742,24.3354081 38.4359829,24.3483365 37.5699879,24.3307069 C37.2026318,24.3448106 36.9891256,24.006714 36.9430099,23.6825253 C36.694181,22.5791084 36.0913402,21.4862692 35.0508902,20.9540512 C33.4537152,20.1558222 31.6018242,20.1959785 29.8602186,20.2126287 C28.5887974,20.2800129 27.2216124,20.3899041 26.1444661,21.1362237 C25.3175223,21.7015462 25.0663386,22.8427688 25.3614795,23.7618585 C25.6397439,24.4217931 26.4029106,24.6347195 27.0273375,24.8309957 C30.6243664,25.7700656 34.4360789,25.6766287 37.9644248,26.9124636 C39.4252149,27.4162783 40.8542146,28.3957004 41.3542272,29.9224236 C42.0082859,31.9686323 41.7215833,34.4144452 40.263148,36.0571319 C39.0804261,37.4089303 37.3578554,38.1446722 35.6397983,38.5442764 C33.3542229,39.0529883 30.9823032,39.0659166 28.6612089,38.8400619 C26.4786582,38.5916805 24.2074082,38.0193062 22.5225151,36.534894 C21.0817411,35.2861308 20.3780343,33.3404109 20.4478948,31.4624669 C20.464575,31.14533 20.7809094,30.9241765 21.0852734,30.9502291 C21.9573518,30.9431773 22.8294301,30.9408267 23.7015085,30.9514045 C24.0498296,30.9265271 24.3080779,31.2270138 24.3259355,31.5547285 C24.48685,32.6060402 24.8826606,33.7094571 25.8010509,34.3327613 C27.5734658,35.4741799 29.7974226,35.396022 31.8269084,35.4279512 C33.5082692,35.3535151 35.3956791,35.3309884 36.76777,34.2216949 C37.4916892,33.5889882 37.7061766,32.5304288 37.510528,31.6197621 C37.2985918,30.8509157 36.4928416,30.4926431 35.800909,30.2583654 C32.2499959,29.1371229 28.3956999,29.5439749 24.8791283,28.276015 C23.4515022,27.7723962 22.0709731,26.820202 21.52249,25.3561618 C20.7571647,23.2840964 21.1078407,20.7211446 22.7191448,19.1338932 C24.2902203,17.5550647 26.5581343,16.9470395 28.7143892,16.7294119 L28.7143892,16.7296078 Z" id="Path"></path>
        </g>
    </g>
</svg>