<?xml version="1.0" encoding="UTF-8"?>
<svg width="80px" height="49px" viewBox="0 0 80 49" version="1.1" xmlns="http://www.w3.org/2000/svg" xmlns:xlink="http://www.w3.org/1999/xlink">
    <title>node</title>
    <defs>
        <path d="M9.49361828,0.189909908 L16.7086948,4.3682152 C17.178865,4.63943113 17.4683345,5.14602909 17.4683345,5.68862393 L17.4683345,14.0270731 C17.4683345,14.5696662 17.178865,15.0762659 16.7086948,15.3474835 L9.49361828,19.5257843 C9.25846884,19.634397 8.98731472,19.6885468 8.73415866,19.6885468 L8.73399574,19.6885468 C8.46285877,19.6885468 8.2097027,19.6162427 7.97453612,19.4896322 L5.56957064,18.0607648 C5.20781745,17.8616953 5.38869833,17.7893902 5.49727831,17.7532389 C5.98544662,17.590475 6.0758742,17.5541668 6.58218633,17.2649507 C6.63647203,17.2286425 6.70891871,17.2467962 6.76305864,17.2829492 L8.6075892,18.3862908 C8.67986438,18.4224429 8.77030054,18.4224429 8.82444047,18.3862908 L16.0396799,14.2079898 C16.1119551,14.1718377 16.1482599,14.0993765 16.1482599,14.0090755 L16.1482599,5.67062977 C16.1482599,5.58001576 16.1119551,5.50786762 16.0396799,5.4715534 L8.82444047,1.3114138 C8.75214814,1.27509958 8.66172056,1.27509958 8.6075892,1.3114138 L1.39234979,5.4715534 C1.32005746,5.50770466 1.28376981,5.59816429 1.28376981,5.67047539 L1.28376981,14.0089186 C1.28376981,14.0813798 1.32005746,14.1716807 1.39234979,14.2079898 L3.36344981,15.3474835 C4.43036835,15.8900775 5.09940039,15.2570256 5.09940039,14.6239729 L5.09940039,6.39398091 C5.09940039,6.28552713 5.18982797,6.17691039 5.31641458,6.17691039 L6.23858554,6.17691039 C6.34718266,6.17691039 6.45559972,6.26737002 6.45559972,6.39398091 L6.45559972,14.6239729 C6.45559972,16.0528405 5.6779877,16.8849628 4.32178837,16.8849628 C3.90591239,16.8849628 3.58046399,16.8849628 2.65812154,16.4326706 L0.759459623,15.3474835 C0.28928937,15.0762659 0,14.5696662 0,14.0270731 L0,5.68862393 C0,5.14602909 0.28928937,4.63943113 0.759459623,4.3682152 L7.97453612,0.189909908 C8.42671689,-0.0633033025 9.04161757,-0.0633033025 9.49361828,0.189909908 Z M10.6871234,5.9236886 C13.0016613,5.9236886 14.1410094,6.71965961 14.2857398,8.45589789 C14.2857398,8.51036065 14.2675874,8.56451464 14.231437,8.61882301 C14.1951493,8.65497427 14.1410094,8.69112553 14.0867151,8.69112553 L13.1463832,8.69112553 C13.055947,8.69112553 12.9655194,8.61882301 12.9475214,8.52836338 C12.7305072,7.53363334 12.1698922,7.20795465 10.6871234,7.20795465 C9.02346518,7.20795465 8.82444047,7.78685513 8.82444047,8.22083322 C8.82444047,8.7454339 9.05960706,8.90819606 11.3018612,9.1975691 C13.5261173,9.48709653 14.5750378,9.90308048 14.5750378,11.4585565 C14.5568854,13.0503406 13.2549632,13.9547689 10.9582518,13.9547689 C7.79382673,13.9547689 7.14278416,12.5077475 7.14278416,11.2777959 C7.14278416,11.1691825 7.23321174,11.0607271 7.35979835,11.0607271 L8.30013028,11.0607271 C8.40856449,11.0607271 8.49899207,11.1330296 8.49899207,11.2416429 C8.64373108,12.2002208 9.05960706,12.6705105 10.9764128,12.6705105 C12.4953406,12.6705105 13.1465461,12.3268317 13.1465461,11.5128614 C13.1465461,11.0425699 12.9655194,10.6990515 10.5966787,10.4638238 C8.62557868,10.264756 7.3959488,9.83077795 7.3959488,8.25713886 C7.3959488,6.79197071 8.6257416,5.9236886 10.6871234,5.9236886 Z" id="path-1"></path>
        <path d="M53.5803298,0.0543555438 C53.7070621,-0.0181185146 53.8879345,-0.0181185146 54.0325105,0.0543555438 L54.0326735,0.0543555438 L58.6076007,2.60470479 C58.8969073,2.76762133 59.077771,3.0749971 59.077771,3.41866995 L59.077771,3.41866995 L59.077771,25.4676714 C59.077771,25.7933501 58.8969073,26.1008889 58.6076007,26.2636424 L58.6076007,26.2636424 L50.9403606,30.6951781 C50.6544496,30.8580003 50.303912,30.8580003 50.0180096,30.6951781 L50.0180096,30.6951781 L42.3507609,26.2636424 C42.061463,26.1008889 41.8805907,25.7932043 41.8805907,25.4676714 L41.8805907,25.4676714 L41.8805907,16.622783 C41.8805907,16.2972672 42.061463,15.9897285 42.3507609,15.8269749 L42.3507609,15.8269749 L50.0180096,11.3954393 C50.303912,11.2326171 50.6544496,11.2326171 50.9403606,11.3954393 L50.9403606,11.3954393 L52.8571578,12.498786 C52.9656006,12.55294 53.074172,12.55294 53.1826062,12.498786 C53.2911862,12.4263377 53.3453261,12.3178754 53.3453261,12.209413 L53.3453261,12.209413 L53.3453261,0.452182375 C53.3453261,0.28942022 53.4357708,0.144806599 53.5803298,0.0543555438 Z M71.0126767,11.2869941 C71.2985362,11.1242233 71.6490138,11.1242233 71.9348734,11.2869941 L71.9348734,11.2869941 L79.5478278,15.7003726 C79.8191277,15.8631262 80,16.1706478 80,16.4961806 L80,16.4961806 L80,18.6485487 C80,18.9742445 79.8372801,19.2817575 79.5478278,19.4445197 L79.5478278,19.4445197 L74.9908814,22.1034943 C74.8461596,22.1939625 74.665433,22.1939625 74.5207112,22.1034943 C74.3761437,22.0312003 74.2856989,21.8684296 74.2856989,21.7056674 L74.2856989,21.7056674 L74.2856989,19.5351423 C74.2856989,19.3722257 74.1952713,19.2276121 74.0505323,19.1371611 L74.0505323,19.1371611 L71.6455669,17.7624268 C71.5018825,17.6719929 71.3190809,17.6719929 71.1753966,17.7624268 L71.1753966,17.7624268 L68.7702682,19.1371611 C68.6257007,19.2096094 68.5352646,19.3723715 68.5352646,19.5351423 L68.5352646,19.5351423 L68.5352646,22.3025706 C68.5352646,22.4653242 68.6257007,22.6101008 68.7702682,22.7003975 L68.7702682,22.7003975 L76.4736674,27.1319245 C76.6183978,27.2043729 76.7088254,27.3671522 76.7088254,27.5299058 C76.7088254,27.6926679 76.6183978,27.8554301 76.4736674,27.9278955 L76.4736674,27.9278955 L71.8625811,30.4961017 C71.5912726,30.6588639 71.2478433,30.6588639 70.9583824,30.4961017 L70.9583824,30.4961017 L63.3454194,26.1550343 C63.0559757,25.9922807 62.8752663,25.684742 62.8752663,25.3592262 L62.8752663,25.3592262 L62.8752663,16.5143378 C62.8752663,16.1886419 63.0559757,15.8811203 63.3454194,15.7183668 L63.3454194,15.7183668 L71.0126767,11.2869941 Z M8.62574095,11.0516035 C8.77030846,11.0697692 8.91487598,11.1059204 9.04161693,11.1783859 L9.04161693,11.1783859 L16.708857,15.5917473 C16.9981636,15.7545009 17.1790273,16.0622026 17.1790273,16.3877183 L17.1790273,16.3877183 L17.1971797,28.2532655 C17.1971797,28.4160276 17.1067435,28.5787812 16.9620131,28.6512381 C16.8172913,28.7417063 16.6365819,28.7417063 16.49186,28.6512381 L16.49186,28.6512381 L11.9349051,26.0465719 C11.6456071,25.8838183 11.4647348,25.5762968 11.4647348,25.2507639 L11.4647348,25.2507639 L11.4647348,19.6977415 C11.4647348,19.3720628 11.2840254,19.064687 10.9945645,18.9019334 L10.9945645,18.9019334 L9.05976075,17.7804295 C8.93302837,17.6899785 8.77030846,17.6536643 8.60758855,17.6536643 C8.44486778,17.6536643 8.28214873,17.6899785 8.13742087,17.7804295 L8.13742087,17.7804295 L6.20261364,18.9019334 C5.91315964,19.064687 5.73244596,19.3722257 5.73244596,19.6977415 L5.73244596,19.6977415 L5.73244596,25.2507639 C5.73244596,25.5762968 5.55157708,25.8838183 5.26227828,26.0465719 L5.26227828,26.0465719 L0.70532976,28.6512381 C0.57859567,28.7417063 0.397882248,28.7417063 0.253155161,28.6512381 C0.108584475,28.5787812 0.0181495639,28.4160276 0.0181495639,28.2532655 L0.0181495639,28.2532655 L0,16.3877183 C0,16.0620396 0.180713375,15.7545009 0.470167634,15.5917473 L0.470167634,15.5917473 L8.13742087,11.1783859 C8.26399719,11.1059204 8.40872419,11.0516035 8.55329599,11.0516035 L8.55329599,11.0516035 L8.62574095,11.0516035 Z M50.5967598,17.7984237 C50.5225639,17.762221 50.4358063,17.762221 50.3616104,17.7984237 L50.3616104,17.7984237 L47.7396136,19.3179174 C47.6671755,19.3540686 47.6310336,19.4263797 47.6310336,19.5168308 L47.6310336,19.5168308 L47.6310336,22.5556295 C47.6310336,22.6279406 47.6671755,22.7183916 47.7396136,22.7545429 L47.7396136,22.7545429 L50.3616104,24.2738736 C50.4358063,24.3100763 50.5225639,24.3100763 50.5967598,24.2738736 L50.5967598,24.2738736 L53.2187566,22.7545429 C53.2911862,22.7183916 53.3273366,22.6460977 53.3273366,22.5556295 L53.3273366,22.5556295 L53.3273366,19.5168308 C53.3273366,19.4445197 53.2911862,19.3539057 53.2187566,19.3179174 L53.2187566,19.3179174 L50.5967598,17.7984237 Z" id="path-3"></path>
        <path d="M1.73595058,0.0270812828 L3.20073847,0.877206276 C3.25503275,0.913194577 3.29117462,0.967511526 3.29117462,1.03995985 L3.29117462,2.74020984 C3.29117462,2.81252094 3.25503275,2.86682931 3.20073847,2.90296342 L1.73595058,3.75308841 C1.68112468,3.78921394 1.61005852,3.78921394 1.55522404,3.75308841 L0.0904447291,2.90296342 C0.036150453,2.86682931 0,2.81252094 0,2.74020984 L0,1.03995985 C0,0.967511526 0.036150453,0.913194577 0.0904447291,0.877206276 L1.55522404,0.0270812828 C1.61005852,-0.00902709425 1.68112468,-0.00902709425 1.73595058,0.0270812828 Z" id="path-5"></path>
        <path d="M8.06512661,0.122078048 C8.35098615,-0.0406926828 8.70146376,-0.0406926828 8.9873233,0.122078048 L8.9873233,0.122078048 L16.6004406,4.51729948 C16.8715776,4.68005306 17.0526043,4.98757464 17.0526043,5.31310753 L17.0526043,5.31310753 L17.0526043,14.1218447 C17.0526043,14.4473605 16.88973,14.7548992 16.6004406,14.9176528 L16.6004406,14.9176528 L8.9873233,19.3130286 C8.70146376,19.4757907 8.35098615,19.4757907 8.06512661,19.3130286 L8.06512661,19.3130286 L0.452163623,14.9176528 C0.180872309,14.7548992 0,14.4473605 0,14.1218447 L0,14.1218447 L0,5.31295314 C0,4.98742026 0.162719911,4.67989868 0.452163623,4.51713652 L0.452163623,4.51713652 L8.06512661,0.122078048 Z" id="path-7"></path>
        <linearGradient x1="41.9053318%" y1="42.4195777%" x2="30.7499622%" y2="53.1525151%" id="linearGradient-9">
            <stop stop-color="#41873F" offset="0%"></stop>
            <stop stop-color="#3FAD2A" offset="100%"></stop>
        </linearGradient>
        <path d="M8.54676402,0 L8.66662065,0.0393182488 L8.66662065,0.0393182488 L8.7819306,0.0904596324 L12.6062901,2.28900522 L16.413046,4.48568106 C16.4943871,4.53450714 16.5676182,4.59636233 16.6302847,4.66782421 L8.59550014,19.3674582 C8.39593222,19.4246306 8.18168742,19.41375 7.98770586,19.3348165 L7.87773197,19.2814102 L0.264768983,14.8860344 C0.161854882,14.8242939 0.0719525909,14.7417181 0,14.6452294 L8.54676402,0 Z" id="path-10"></path>
        <linearGradient x1="58.9703155%" y1="44.8465946%" x2="148.034155%" y2="-11.4056946%" id="linearGradient-12">
            <stop stop-color="#41873F" offset="0%"></stop>
            <stop stop-color="#6CC04A" offset="100%"></stop>
        </linearGradient>
    </defs>
    <g id="Page-1" stroke="none" stroke-width="1" fill="none" fill-rule="evenodd">
        <g id="node">
            <g id="Group-3" transform="translate(30.831894, 29.311453)">
                <mask id="mask-2" fill="white">
                    <use xlink:href="#path-1"></use>
                </mask>
                <g id="Clip-2"></g>
                <polygon id="Fill-1" fill="#539E43" mask="url(#mask-2)" points="-0.801080661 20.489839 18.2694237 20.489839 18.2694237 -0.801289657 -0.801080661 -0.801289657"></polygon>
            </g>
            <g id="Group-6">
                <mask id="mask-4" fill="white">
                    <use xlink:href="#path-3"></use>
                </mask>
                <g id="Clip-5"></g>
                <polygon id="Fill-4" fill="#333333" mask="url(#mask-4)" points="-0.80108431 31.6185834 80.8010777 31.6185834 80.8010777 -0.801284339 -0.80108431 -0.801284339"></polygon>
            </g>
            <g id="Group-9" transform="translate(69.801036, 19.001454)">
                <mask id="mask-6" fill="white">
                    <use xlink:href="#path-5"></use>
                </mask>
                <g id="Clip-8"></g>
                <polygon id="Fill-7" fill="#539E43" mask="url(#mask-6)" points="-0.801080661 4.58146261 4.092263 4.58146261 4.092263 -0.801298062 -0.801080661 -0.801298062"></polygon>
            </g>
            <g id="Group-12" transform="translate(21.012665, 11.201067)">
                <mask id="mask-8" fill="white">
                    <use xlink:href="#path-7"></use>
                </mask>
                <g id="Clip-11"></g>
                <polygon id="Fill-10" fill="url(#linearGradient-9)" mask="url(#mask-8)" points="-21.0167638 37.8380583 59.0916625 37.8380583 59.0916625 -11.2010287 -21.0167638 -11.2010287"></polygon>
            </g>
            <g id="Group-15" transform="translate(21.200059, 11.232686)">
                <mask id="mask-11" fill="white">
                    <use xlink:href="#path-10"></use>
                </mask>
                <g id="Clip-14"></g>
                <polygon id="Fill-13" fill="url(#linearGradient-12)" mask="url(#mask-11)" points="-0.0555346624 19.5369734 16.7672364 19.5369734 16.7672364 -0.0145548494 -0.0555346624 -0.0145548494"></polygon>
            </g>
        </g>
    </g>
</svg>