<?xml version="1.0" encoding="UTF-8"?>
<svg width="47px" height="46px" viewBox="0 0 47 46" version="1.1" xmlns="http://www.w3.org/2000/svg" xmlns:xlink="http://www.w3.org/1999/xlink">
    <title>photoshop-cc-6</title>
    <defs>
        <radialGradient cx="32.9351254%" cy="22.4100935%" fx="32.9351254%" fy="22.4100935%" r="77.8336786%" gradientTransform="translate(0.329351,0.224101),scale(0.976440,1.000000),translate(-0.329351,-0.224101)" id="radialGradient-1">
            <stop stop-color="#34364E" stop-opacity="0.98" offset="0%"></stop>
            <stop stop-color="#0C0824" offset="100%"></stop>
        </radialGradient>
    </defs>
    <g id="Page-1" stroke="none" stroke-width="1" fill="none" fill-rule="evenodd">
        <g id="photoshop-cc-6" fill-rule="nonzero">
            <polygon id="Path" fill="url(#radialGradient-1)" points="1.95830702 1.96578216 45.041693 1.96578216 45.041693 44.0341386 1.95830702 44.0341386"></polygon>
            <path d="M1.95830702,1.96578216 L45.041693,1.96578216 L45.041693,44.0341386 L1.95830702,44.0341386 L1.95830702,1.96578216 Z M0,46 L47,46 L47,0 L0,0 L0,46 Z M31.6858386,18.8717624 C30.1387263,18.8717624 29.6100474,19.6580594 29.6100474,20.3067683 C29.6100474,21.0144435 29.9625,21.5059089 32.0383702,22.5871168 C35.1129351,24.0811683 36.0725474,25.5161742 36.0725474,27.6196237 C36.0725474,30.764891 33.683386,32.455497 30.4520965,32.455497 C28.7483386,32.455497 27.2795491,32.1016197 26.4375,31.6102336 C26.3004351,31.5512673 26.2808544,31.4529901 26.2808544,31.2956673 L26.2808544,28.4059208 C26.2808544,28.2093663 26.3787579,28.1503207 26.5159018,28.2486772 C27.7496439,29.0547089 29.1596123,29.4085069 30.4520965,29.4085069 C31.9992088,29.4085069 32.6454509,28.759798 32.6454509,27.8751445 C32.6454509,27.1674693 32.1950158,26.5384158 30.2170491,25.5161742 C27.4361947,24.1794455 26.2808544,22.8230614 26.2808544,20.5623683 C26.2808544,18.0264198 28.2588211,15.9230495 31.6858386,15.9230495 C33.3700158,15.9230495 34.5450158,16.1786495 35.1912579,16.4734812 C35.3479035,16.5717584 35.3870649,16.7290019 35.3870649,16.8665901 L35.3870649,19.5597029 C35.3870649,19.7169464 35.2891614,19.8153029 35.0932754,19.7562573 C34.2316456,19.2059842 32.9587421,18.8717624 31.6858386,18.8717624 L31.6858386,18.8717624 Z M14.8441456,21.2110772 C15.2945807,21.2503881 15.6471123,21.2503881 16.4304193,21.2503881 C18.7217561,21.2503881 20.8758702,20.4444356 20.8758702,17.3188238 C20.8758702,14.8222654 19.3287579,13.5640792 16.7242088,13.5640792 C15.9409018,13.5640792 15.1966772,13.6033901 14.8441456,13.6230455 L14.8441456,21.2110772 Z M11.358307,10.7726099 C11.358307,10.6350218 11.6325947,10.5366653 11.7891614,10.5366653 C13.0425632,10.477699 14.9029667,10.4383881 16.841693,10.4383881 C22.2662579,10.4383881 24.3812105,13.4264118 24.3812105,17.2401227 C24.3812105,22.2332395 20.7778877,24.376 16.3520965,24.376 C15.6079509,24.376 15.3534018,24.3366891 14.8245649,24.3366891 L14.8245649,31.8854099 C14.8245649,32.0426534 14.7658228,32.1212752 14.5895965,32.1212752 L11.5933544,32.1212752 C11.4367088,32.1212752 11.358307,32.0623089 11.358307,31.8854099 L11.358307,10.7726099 L11.358307,10.7726099 Z" id="Shape" fill="#31C5F0"></path>
        </g>
    </g>
</svg>