<?xml version="1.0" encoding="UTF-8"?>
<svg width="47px" height="45px" viewBox="0 0 47 45" version="1.1" xmlns="http://www.w3.org/2000/svg" xmlns:xlink="http://www.w3.org/1999/xlink">
    <title>photoshop</title>
    <defs>
        <polygon id="path-1" points="0 0 43.0833963 0 43.0833963 41.1538203 0 41.1538203"></polygon>
        <radialGradient cx="32.9351156%" cy="22.4100734%" fx="32.9351156%" fy="22.4100734%" r="79.5633244%" gradientTransform="translate(0.329351,0.224101),scale(0.955213,1.000000),translate(-0.329351,-0.224101)" id="radialGradient-3">
            <stop stop-color="#34364E" offset="0%"></stop>
            <stop stop-color="#0C0824" offset="100%"></stop>
        </radialGradient>
        <path d="M47,0 L47,45 L0,45 L0,0 L47,0 Z M45.0417023,1.92304662 L1.95830768,1.92304662 L1.95830768,43.0768751 L45.0417023,43.0768751 L45.0417023,1.92304662 Z M31.6858451,15.5768944 C33.3700245,15.5768944 34.5450214,15.8269425 35.1912589,16.1153661 C35.3479074,16.2115045 35.3870696,16.3653326 35.3870696,16.4999281 L35.3870696,19.1344907 C35.3870696,19.2883188 35.2891601,19.3845306 35.0932747,19.3267758 C34.2316496,18.7884672 32.9587432,18.4615051 31.6858451,18.4615051 C30.1387291,18.4615051 29.6100444,19.2307107 29.6100444,19.8653127 C29.6100444,20.5576124 29.9625036,21.0383944 32.0383707,22.0960888 C35.1129429,23.5576675 36.0725439,24.961475 36.0725439,27.0191987 C36.0725439,30.0960944 33.683388,31.7499419 30.4521009,31.7499419 C28.7483446,31.7499419 27.2795529,31.4037554 26.4375047,30.9230549 C26.300433,30.8653734 26.2808561,30.7692349 26.2808561,30.6153335 L26.2808561,27.7883961 C26.2808561,27.5961192 26.3787656,27.5383562 26.5159036,27.6345762 C27.7496479,28.4230877 29.1596176,28.7691928 30.4521009,28.7691928 C31.9992169,28.7691928 32.6454544,28.1345908 32.6454544,27.2691571 C32.6454544,26.5768737 32.195011,25.9614961 30.2170534,24.961475 C27.4361931,23.653806 26.2808561,22.3269124 26.2808561,20.1153526 C26.2808561,17.6345365 28.2588303,15.5768944 31.6858451,15.5768944 Z M16.841694,10.2114677 C22.2662599,10.2114677 24.3812145,13.1345354 24.3812145,16.8653309 C24.3812145,21.7499104 20.7778829,23.8460911 16.352105,23.8460911 C15.6079497,23.8460911 15.3534,23.807634 14.8245659,23.807634 L14.8245659,31.192254 C14.8245659,31.3460739 14.7658269,31.4229798 14.5895931,31.4229798 L11.5933618,31.4229798 C11.436705,31.4229798 11.3583143,31.3652984 11.3583143,31.192254 L11.3583143,10.5384216 C11.3583143,10.4038261 11.6325904,10.3076062 11.7891642,10.3076062 C13.0425601,10.2499247 14.9029732,10.2114677 16.841694,10.2114677 Z M16.7242076,13.2692042 C15.9408984,13.2692042 15.1966851,13.3076613 14.8441428,13.3268938 L14.8441428,20.7499708 C15.2126875,20.7814357 15.5156838,20.7871566 16.042706,20.7881967 L16.430421,20.7884279 L16.430421,20.7884279 C18.7217587,20.7884279 20.8758754,19.9999897 20.8758754,16.9423265 C20.8758754,14.5000408 19.3287594,13.2692042 16.7242076,13.2692042 Z" id="path-4"></path>
    </defs>
    <g id="Page-1" stroke="none" stroke-width="1" fill="none" fill-rule="evenodd">
        <g id="photoshop">
            <g id="Group-3" transform="translate(1.958308, 1.923055)">
                <mask id="mask-2" fill="white">
                    <use xlink:href="#path-1"></use>
                </mask>
                <g id="Clip-2"></g>
                <polygon id="Fill-1" fill="url(#radialGradient-3)" mask="url(#mask-2)" points="0 41.1538203 43.0833963 41.1538203 43.0833963 0 0 0"></polygon>
            </g>
            <g id="Group-6">
                <mask id="mask-5" fill="white">
                    <use xlink:href="#path-4"></use>
                </mask>
                <g id="Clip-5"></g>
                <polygon id="Fill-4" fill="#31C5F0" mask="url(#mask-5)" points="-0.469999253 45.4615369 47.4699999 45.4615369 47.4699999 -0.461540724 -0.469999253 -0.461540724"></polygon>
            </g>
        </g>
    </g>
</svg>