<?xml version="1.0" encoding="UTF-8"?>
<svg width="60px" height="60px" viewBox="0 0 60 60" version="1.1" xmlns="http://www.w3.org/2000/svg" xmlns:xlink="http://www.w3.org/1999/xlink">
    <title>postman</title>
    <g id="Page-1" stroke="none" stroke-width="1" fill="none" fill-rule="evenodd">
        <g id="postman" fill-rule="nonzero">
            <path d="M53.7437533,11.6648946 C46.3271172,2.06092747 33.8551909,-2.12929854 22.1442579,1.04832864 C10.4333248,4.22595582 1.78996952,14.145571 0.245021108,26.1811611 C-1.2999273,38.2167512 4.55782411,49.9977874 15.0865127,56.0301828 C25.6152013,62.0625782 38.7410973,61.1581927 48.3429385,53.7387865 C61.4488907,43.6103033 63.8675857,24.7754868 53.7428158,11.6648946 L53.7437533,11.6648946 Z" id="Path" fill="#FF6C37"></path>
            <path d="M40.118438,19.1159483 L27.469038,31.8656126 L23.8944317,28.1907093 C36.3441488,15.7410372 37.5938079,16.8660076 40.1193755,19.1159483 L40.118438,19.1159483 Z" id="Path" fill="#FFFFFF"></path>
            <path d="M27.469038,32.2143534 C27.3570028,32.2115982 27.2500275,32.1671367 27.1690448,32.0896692 L23.5691266,28.489764 C23.4006571,28.315374 23.4006571,28.0388579 23.5691266,27.8644679 C35.8435351,15.5901037 37.5188096,16.1647761 40.4184312,18.7897069 C40.5168664,18.8684549 40.5721777,18.9884517 40.5684277,19.1150109 C40.5871773,19.2368826 40.5403034,19.3615669 40.4437431,19.4403148 L27.7943431,32.0906066 C27.7052826,32.172167 27.5899727,32.2162283 27.469038,32.2153055 L27.469038,32.2143534 Z M24.5187925,28.1897719 L27.469038,31.1400067 L39.4687652,19.1403227 C38.6109165,18.0652582 37.0820226,17.8068773 35.9185334,18.5403385 C33.7435829,19.5153128 30.2439749,22.489922 24.5187925,28.1897719 L24.5187925,28.1897719 Z" id="Shape" fill="#FF6C37"></path>
            <path d="M31.0942681,35.3905197 L27.6443465,31.8656126 L40.2937465,19.3653168 C43.6939817,22.6905417 38.643784,28.2403955 31.0942681,35.3895823 L31.0942681,35.3905197 Z" id="Path" fill="#FFFFFF"></path>
            <path d="M31.0942681,35.8405079 C30.9836026,35.8317102 30.8785744,35.7880581 30.7942749,35.7158237 L27.269355,32.2659145 C27.2164866,32.1377173 27.2164866,31.9938098 27.269355,31.8656126 C27.2318559,31.7606153 27.2318559,31.6453059 27.269355,31.5403086 L39.918755,18.8909543 C40.1015634,18.7193963 40.3856194,18.7193963 40.5684277,18.8909543 C41.3980964,19.6540592 41.8527736,20.7396556 41.8180868,21.8655634 C41.8180868,25.2404745 37.9678619,29.4900501 31.4186357,35.6905118 C31.33114,35.7771031 31.2159978,35.8301944 31.0933306,35.8405079 L31.0942681,35.8405079 Z M28.2940192,31.8656126 L31.1186425,34.6892882 C36.1182164,29.9644126 40.8937329,25.089541 40.9181073,21.7896279 C40.9452983,21.0900623 40.7140389,20.4049629 40.2684346,19.8649911 L28.2940192,31.8656126 Z" id="Shape" fill="#FF6C37"></path>
            <path d="M23.9938045,28.2657074 L26.4940601,30.765954 C26.526347,30.7944282 26.5448433,30.8354021 26.5448433,30.8784511 C26.5448433,30.9215 26.526347,30.9624739 26.4940601,30.9909481 L21.2188675,32.1159185 C21.000435,32.1627922 20.7782525,32.057795 20.6732549,31.8609252 C20.5682573,31.6640554 20.6076314,31.4203118 20.7688778,31.2656284 L23.8438079,28.2160212 C23.8438079,28.2160212 23.9441181,28.2160212 23.9938045,28.2657074 L23.9938045,28.2657074 Z" id="Path" fill="#FFFFFF"></path>
            <path d="M21.0941829,32.6155928 C20.755266,32.6113287 20.4428835,32.4313544 20.2692016,32.1402928 C20.0723311,31.7681151 20.142642,31.3096897 20.4445101,31.0153225 L23.4941283,27.9404034 C23.7218354,27.7368799 24.0660905,27.7368799 24.2937976,27.9404034 L26.7940533,30.4406501 C26.9421749,30.5812714 27.0002986,30.7940783 26.9440499,30.9909481 C26.8878012,31.1878179 26.7228049,31.3443763 26.5193721,31.3912501 L21.2441795,32.5162204 L21.0941829,32.6155928 Z M23.8944317,28.8160054 L21.0698084,31.6406185 L25.7450147,30.6403323 L23.8944317,28.8160054 Z" id="Shape" fill="#FF6C37"></path>
            <path d="M46.8439101,12.0905084 C45.0345762,10.3449293 42.1921408,10.2718062 40.294684,11.9189504 C38.3972271,13.5660945 38.0728595,16.39352 39.5503259,18.4278415 C41.0277923,20.4621629 43.8130415,21.0321479 45.9692425,19.7403069 L42.5690073,16.3400839 L46.8439101,12.0905084 Z" id="Path" fill="#FFFFFF"></path>
            <path d="M43.4689868,20.8896516 C41.3439127,20.8624128 39.4408859,19.5676505 38.6353467,17.6009882 C37.829115,15.634165 38.2753549,13.3767245 39.7603211,11.8655143 C41.8424868,9.82158421 45.177985,9.82158421 47.2601507,11.8655143 C47.3557735,11.9461372 47.4101472,12.0651965 47.4101472,12.1908182 C47.4096811,12.3158723 47.354952,12.4345655 47.2601507,12.5161221 L43.2102427,16.3410214 L46.2851728,19.3662542 C46.3863293,19.4628521 46.4330307,19.603307 46.4098575,19.7412444 C46.3948616,19.873936 46.3217063,19.9931134 46.2101745,20.0665483 C45.3840858,20.5828924 44.4344456,20.8678158 43.4605495,20.8915266 L43.4689868,20.8896516 Z M43.4689868,11.1895946 C41.6877773,11.1989693 40.0940635,12.2705036 39.4256412,13.908273 C38.7572189,15.5460423 39.1209606,17.4313052 40.3696823,18.6893971 C41.6409034,19.9671759 43.5571098,20.3346662 45.2192595,19.6146852 L42.2690141,16.6644504 C42.1705788,16.5857025 42.1152676,16.4657056 42.1190175,16.3391465 C42.1227674,16.221962 42.1771412,16.1122774 42.2690141,16.0391544 L46.1689255,12.1139452 C45.3936306,11.5195859 44.4458396,11.1952194 43.4689868,11.1886571 L43.4689868,11.1895946 Z" id="Shape" fill="#FF6C37"></path>
            <path d="M46.9189084,12.1655064 L42.6440056,16.415082 L46.0442408,19.8153049 C46.3864608,19.6188446 46.7050868,19.3838863 46.9939067,19.1150109 C48.8463646,17.1463127 48.8126154,14.0826434 46.9189084,12.1655064 L46.9189084,12.1655064 Z" id="Path" fill="#FFFFFF"></path>
            <path d="M45.968305,20.190295 C45.8545599,20.1964555 45.7441812,20.1505795 45.6683118,20.0656108 L42.2680766,16.6653879 C42.1696414,16.5866399 42.1143301,16.4666431 42.11808,16.3400839 C42.1218299,16.2228995 42.1762037,16.1132149 42.2680766,16.0400918 L46.5176675,11.8655143 C46.6010392,11.7398273 46.741834,11.6642664 46.892659,11.6642664 C47.043484,11.6642664 47.1842788,11.7398273 47.2676505,11.8655143 C48.2754569,12.8529553 48.8433801,14.2044917 48.8433801,15.6154155 C48.8433801,17.0263394 48.2754569,18.3778758 47.2676505,19.3653168 C46.9733627,19.6774528 46.6366344,19.9466451 46.2673607,20.1649832 C46.1743843,20.2118456 46.0668817,20.2209161 45.9673675,20.190295 L45.968305,20.190295 Z M43.21868,16.3410214 L46.0433033,19.1656345 C46.2376069,19.0294464 46.4215446,18.879038 46.5936033,18.7156464 C47.4239523,17.8875611 47.8916277,16.7637281 47.8938934,15.5910412 C47.8957973,14.5415781 47.5132777,13.5277548 46.8185982,12.7411162 L43.21868,16.3410214 Z" id="Shape" fill="#FF6C37"></path>
            <path d="M40.643426,19.6409345 C39.940317,18.9809519 38.8462794,18.9809519 38.1431704,19.6409345 L26.8193652,30.939387 L28.6943226,32.8396494 L40.668738,22.3399259 C41.039042,21.9864977 41.2462248,21.4961981 41.2407116,20.9843366 C41.2349751,20.4724751 41.019355,19.9859254 40.643426,19.639997 L40.643426,19.6409345 Z" id="Path" fill="#FFFFFF"></path>
            <path d="M28.5940124,33.290575 C28.4819773,33.2878199 28.3750019,33.2433584 28.2940192,33.1658908 L26.3937499,31.2656284 C26.2252804,31.0912384 26.2252804,30.8147223 26.3937499,30.6403323 L37.7184925,19.3653168 C38.6165971,18.4690904 40.071564,18.4690904 40.9687311,19.3653168 C41.4187209,19.8153049 41.6624654,20.4293512 41.6437158,21.0649595 C41.6174664,21.6968179 41.3380978,22.2911772 40.8684209,22.7149161 L28.8940056,33.2146395 C28.8068201,33.2765129 28.6999475,33.3027622 28.5940124,33.2896376 L28.5940124,33.290575 Z M27.269355,30.939387 L28.5190141,32.2143534 L40.2684346,21.9893102 C40.559053,21.7361918 40.7324865,21.3743264 40.7437363,20.989024 C40.754986,20.6037217 40.6031145,20.2268566 40.3190584,19.9643635 C39.7725083,19.4206278 38.8903409,19.4206278 38.3437908,19.9643635 L27.269355,30.939387 Z" id="Shape" fill="#FF6C37"></path>
            <path d="M18.0445647,43.8146729 C17.9789232,43.903898 17.9789232,44.0254398 18.0445647,44.114665 L18.5442408,46.2896077 C18.5873648,46.5492884 18.4626802,46.8080315 18.2329979,46.9458404 C18.0044798,47.0795131 17.7157954,47.0503417 17.5186391,46.8736548 L14.0940295,43.5737417 L24.7690993,32.8143376 L28.4693277,32.8143376 L30.9695834,35.3145842 C27.0693902,38.7245749 22.7206645,41.5844975 18.0445647,43.8146729 L18.0445647,43.8146729 Z" id="Path" fill="#FFFFFF"></path>
            <path d="M17.8195698,47.4895761 C17.5364512,47.4839512 17.2570826,47.3677043 17.0695868,47.1642722 L13.7949738,43.8896709 C13.6965385,43.810923 13.6412273,43.6909261 13.6449772,43.564367 C13.6487271,43.4471826 13.7031009,43.3374979 13.7949738,43.2643749 L24.5441045,32.4899711 C24.6042939,32.4260005 24.6829497,32.3824122 24.7690993,32.3652869 L28.4937022,32.3652869 C28.5907563,32.3309732 28.6966413,32.3309732 28.7936954,32.3652869 L31.293951,34.8655336 C31.3905113,34.9545937 31.4373853,35.0858403 31.4186357,35.2152119 C31.4222086,35.3411261 31.3667174,35.4614722 31.2686391,35.5405158 L31.0689562,35.7158237 C27.1530308,38.9804082 22.8448029,41.7432699 18.2442476,43.9402946 L18.7195493,45.9652412 C18.7939603,46.2816018 18.7216873,46.6146486 18.5228406,46.8717113 C18.3239938,47.1287739 18.0197941,47.2824187 17.6948851,47.2898939 L17.8195698,47.4895761 Z M14.7699516,43.564367 L17.7192596,46.5389761 C17.7761501,46.5897175 17.862052,46.5897175 17.9189425,46.5389761 C17.9566449,46.4866214 17.9566449,46.4160229 17.9189425,46.3636682 L17.4192664,44.1887255 C17.3386432,43.8671715 17.4942647,43.5324928 17.7942579,43.3890591 C22.2711248,41.2213661 26.4682929,38.5182271 30.2936613,35.3389586 L28.2433954,33.2887001 L24.893784,33.2887001 L14.7699516,43.564367 Z" id="Shape" fill="#FF6C37"></path>
            <path d="M11.519713,46.1396117 L14.0199687,43.639365 L17.8701936,47.4895761 L11.7456453,47.0648998 C11.5300252,47.0489627 11.3472169,46.8961542 11.2956556,46.6842848 C11.2440942,46.4724154 11.3350297,46.2530462 11.5206505,46.1405491 L11.519713,46.1396117 Z" id="Path" fill="#FFFFFF"></path>
            <path d="M17.9442545,47.8645662 L11.8440806,47.4398899 C11.4822138,47.4061408 11.1709709,47.1586473 11.0434738,46.8277185 C10.9159767,46.4967897 10.9937874,46.1039876 11.2440942,45.8396196 L13.7443499,43.3393729 C13.9187405,43.170904 14.1952576,43.170904 14.3696482,43.3393729 L18.1945613,47.1642722 C18.3033088,47.3142682 18.3033088,47.5148879 18.1945613,47.6639465 C18.1364376,47.757694 18.0483146,47.8280047 17.9442545,47.8636287 L17.9442545,47.8645662 Z M11.8440806,46.4649156 L16.8436545,46.7902195 L14.0940295,44.2149748 L11.8440806,46.4649156 Z" id="Shape" fill="#FF6C37"></path>
            <polygon id="Path" fill="#FFFFFF" points="28.8190073 33.1162046 23.7688096 33.8914967 26.6937431 30.9918856"></polygon>
            <path d="M23.7688096,34.3649217 C23.597251,34.3696091 23.440692,34.2711742 23.3685062,34.1146158 C23.2592569,33.9659724 23.2592569,33.763585 23.3685062,33.6149415 L26.2681278,30.6900185 C26.4509361,30.5184605 26.7349922,30.5184605 26.9178005,30.6900185 L29.0440022,32.8143376 C29.1306785,32.9518121 29.1306785,33.1268512 29.0440022,33.2643257 C29.001415,33.4320065 28.8646389,33.5592481 28.6943226,33.5896297 L23.6947488,34.3649217 L23.7688096,34.3649217 Z M26.6937431,31.639681 L25.0690925,33.2643257 L27.8693414,32.8396494 L26.6937431,31.639681 Z" id="Shape" fill="#FF6C37"></path>
            <path d="M28.8190073,33.1143297 L25.2940874,33.5643178 C25.1003919,33.6082819 24.9007816,33.5200539 24.8029129,33.3472178 C24.7050441,33.1743817 24.7320679,32.9578226 24.8694096,32.8143376 L26.6946806,30.9890731 L28.8190073,33.1143297 Z" id="Path" fill="#FFFFFF"></path>
            <path d="M25.1937772,34.0405553 C24.8609723,34.0377429 24.5562917,33.8558726 24.3941079,33.5652553 C24.1979378,33.2136294 24.2591956,32.7744895 24.5441045,32.4899711 L26.3693755,30.6647067 C26.5521838,30.4931487 26.8362399,30.4931487 27.0190482,30.6647067 L29.1443124,32.7899632 C29.273436,32.9123042 29.3183744,33.099226 29.2589718,33.2668907 C29.1995692,33.4345554 29.0469752,33.5514932 28.8696311,33.5652553 L25.3700232,34.0152435 L25.1937772,34.0405553 Z M25.1937772,33.1152672 L27.8440295,32.7899632 L26.6693686,31.6153067 L25.1694027,33.1152672 L25.1937772,33.1152672 Z M46.9432829,15.0407432 C46.8458029,14.8774576 46.6415292,14.8129928 46.4679812,14.8907471 C46.3843808,14.9331146 46.3214832,15.0075094 46.2936101,15.0969917 C46.2654858,15.1860518 46.2748605,15.2826118 46.3179846,15.3660471 C46.4932931,15.7344749 46.4445442,16.1704009 46.1932999,16.4910175 C46.1276764,16.5528908 46.099552,16.6382011 46.099552,16.7281987 C46.1004606,16.8161192 46.1338515,16.9005977 46.1932999,16.96538 C46.2574512,16.9907087 46.3288315,16.9907087 46.3929829,16.96538 C46.5116391,16.9952077 46.6370353,16.956541 46.718288,16.8650701 C47.1384165,16.3506961 47.2259224,15.6408072 46.9432829,15.0398057 L46.9432829,15.0407432 Z" id="Shape" fill="#FF6C37"></path>
        </g>
    </g>
</svg>