<?xml version="1.0" encoding="UTF-8"?>
<svg width="63px" height="57px" viewBox="0 0 63 57" version="1.1" xmlns="http://www.w3.org/2000/svg" xmlns:xlink="http://www.w3.org/1999/xlink">
    <title>react-2 (1)</title>
    <g id="Page-1" stroke="none" stroke-width="1" fill="none" fill-rule="evenodd">
        <g id="react-2-(1)" fill="#61DAFB" fill-rule="nonzero">
            <path d="M63,28.5065232 C63,24.2664225 57.7735426,20.2481117 49.7604974,17.7562371 C51.6096616,9.4586862 50.7878108,2.85717556 47.1665308,0.743648432 C46.3318386,0.247882811 45.3558907,0.0130464637 44.290053,0.0130464637 L44.290053,2.92240787 C44.8807583,2.92240787 45.3558907,3.03982605 45.7539747,3.26161593 C47.5004077,4.2792401 48.2580514,8.15403983 47.6673461,13.137789 C47.5260905,14.3641566 47.294945,15.6557565 47.0124338,16.9734493 C44.4955157,16.347219 41.7474521,15.8644999 38.8581329,15.5513848 C37.1245414,13.137789 35.3267428,10.9459831 33.5161027,9.0281529 C37.7024052,5.07507439 41.6318793,2.90936141 44.3028944,2.90936141 L44.3028944,0 C40.7715043,0 36.1485936,2.55710689 31.4743172,6.99290455 C26.8000408,2.58319982 22.17713,0.0521858549 18.6457399,0.0521858549 L18.6457399,2.96154726 C21.3039136,2.96154726 25.2462291,5.11421378 29.4325316,9.04119936 C27.634733,10.9590295 25.8369344,13.137789 24.1290257,15.5513848 C21.2268651,15.8644999 18.4788015,16.347219 15.9618834,16.9864958 C15.6665308,15.6818494 15.4482267,14.4163424 15.2941296,13.2030213 C14.690583,8.21927214 15.4353852,4.34447242 17.1689768,3.31380179 C17.5542193,3.07896544 18.0550347,2.97459373 18.6457399,2.97459373 L18.6457399,0.0652323186 C17.5670607,0.0652323186 16.5911129,0.300068666 15.7435793,0.795834287 C12.1351406,2.90936141 11.3261313,9.49782559 13.188137,17.7692836 C5.20077456,20.2742046 0,24.279469 0,28.5065232 C0,32.7466239 5.2264574,36.7649348 13.2395026,39.2568093 C11.3903384,47.5543603 12.2121892,54.1558709 15.8334692,56.269398 C16.6681614,56.7651637 17.6441093,57 18.7227884,57 C22.2541786,57 26.8770893,54.4428931 31.5513657,50.0070954 C36.2256421,54.4168002 40.8485528,56.9478141 44.3799429,56.9478141 C45.4586221,56.9478141 46.4345699,56.7129778 47.2821035,56.2172122 C50.8905422,54.1036851 51.6995516,47.5152209 49.8375459,39.2437629 C57.7992254,36.7518883 63,32.7335775 63,28.5065232 L63,28.5065232 Z M46.2804729,19.8045319 C45.8053404,21.4875257 45.2146351,23.2227054 44.5468814,24.9578851 C44.0203832,23.914168 43.4682022,22.8704509 42.8646555,21.8267338 C42.2739503,20.7830167 41.6447208,19.7653925 41.0154912,18.7738613 C42.8389727,19.047837 44.598247,19.3870451 46.2804729,19.8045319 Z M40.3991031,33.6990158 C39.3974725,35.4602884 38.370159,37.1302358 37.3043212,38.6827649 C35.3909499,38.852369 33.4518956,38.9436942 31.5,38.9436942 C29.5609458,38.9436942 27.6218916,38.852369 25.7213616,38.6958114 C24.6555238,37.1432822 23.6153689,35.4863813 22.6137383,33.7381552 C21.6377905,32.0290684 20.7517326,30.2938888 19.9427232,28.5456626 C20.7388912,26.7974365 21.6377905,25.0492103 22.6008969,23.3401236 C23.6025275,21.578851 24.629841,19.9089036 25.6956788,18.3563745 C27.6090501,18.1867704 29.5481044,18.0954452 31.5,18.0954452 C33.4390542,18.0954452 35.3781084,18.1867704 37.2786384,18.343328 C38.3444762,19.8958572 39.3846311,21.5527581 40.3862617,23.3009842 C41.3622095,25.010071 42.2482674,26.7452506 43.0572768,28.4934768 C42.2482674,30.2417029 41.3622095,31.989929 40.3991031,33.6990158 Z M44.5468814,32.0029755 C45.240318,33.7512016 45.8310232,35.4994278 46.3189971,37.1954681 C44.6367713,37.6129549 42.8646555,37.9652094 41.0283327,38.2391852 C41.6575622,37.2346075 42.2867917,36.2039368 42.8774969,35.1471733 C43.4682022,34.1034562 44.0203832,33.0466926 44.5468814,32.0029755 Z M31.5256828,45.9235523 C30.3314309,44.6710918 29.137179,43.2751202 27.9557684,41.7486839 C29.1114961,41.8008698 30.2929066,41.8400092 31.4871586,41.8400092 C32.6942519,41.8400092 33.8885039,41.8139162 35.057073,41.7486839 C33.9013453,43.2751202 32.7070934,44.6710918 31.5256828,45.9235523 Z M21.9716673,38.2391852 C20.1481859,37.9652094 18.3889115,37.6260014 16.7066857,37.2085145 C17.1818182,35.5255207 17.7725234,33.790341 18.4402772,32.0551614 C18.9667754,33.0988785 19.5189564,34.1425956 20.1225031,35.1863127 C20.7260497,36.2300298 21.3424378,37.2476539 21.9716673,38.2391852 Z M31.4614757,11.0894942 C32.6557277,12.3419547 33.8499796,13.7379263 35.0313901,15.2643626 C33.8756625,15.2121767 32.6942519,15.1730373 31.5,15.1730373 C30.2929066,15.1730373 29.0986547,15.1991302 27.9300856,15.2643626 C29.0858133,13.7379263 30.2800652,12.3419547 31.4614757,11.0894942 Z M21.9588259,18.7738613 C21.3295964,19.778439 20.7003669,20.8091096 20.1096616,21.8658732 C19.5189564,22.9095903 18.9667754,23.9533074 18.4402772,24.9970245 C17.7468406,23.2487984 17.1561353,21.5005722 16.6681614,19.8045319 C18.3503873,19.4000916 20.1225031,19.047837 21.9588259,18.7738613 Z M10.337342,35.1080339 C5.79147982,33.1380179 2.85079494,30.554818 2.85079494,28.5065232 C2.85079494,26.4582284 5.79147982,23.8619821 10.337342,21.9050126 C11.441704,21.4222934 12.6487974,20.9917601 13.894415,20.5873198 C14.6263759,23.1444266 15.5894823,25.8059052 16.7837342,28.5326162 C15.6023237,31.2462806 14.6520587,33.8947127 13.9329393,36.4387732 C12.6616388,36.0343328 11.4545455,35.590753 10.337342,35.1080339 Z M17.2460253,53.7514305 C15.4995923,52.7338064 14.7419486,48.8590066 15.3326539,43.8752575 C15.4739095,42.6488899 15.705055,41.35729 15.9875662,40.0395972 C18.5044843,40.6658274 21.2525479,41.1485466 24.1418671,41.4616617 C25.8754586,43.8752575 27.6732572,46.0670634 29.4838973,47.9848936 C25.2975948,51.9379721 21.3681207,54.1036851 18.6971056,54.1036851 C18.1192417,54.0906386 17.6312678,53.9732204 17.2460253,53.7514305 L17.2460253,53.7514305 Z M47.7058704,43.8100252 C48.309417,48.7937743 47.5646148,52.668574 45.8310232,53.6992447 C45.4457807,53.934081 44.9449653,54.0384527 44.3542601,54.0384527 C41.6960864,54.0384527 37.7537709,51.8857862 33.5674684,47.9588006 C35.365267,46.0409705 37.1630656,43.862211 38.8709743,41.4486152 C41.7731349,41.1355001 44.5211985,40.652781 47.0381166,40.0135042 C47.3334692,41.3311971 47.5646148,42.5967041 47.7058704,43.8100252 L47.7058704,43.8100252 Z M52.6498166,35.1080339 C51.5454545,35.590753 50.3383612,36.0212863 49.0927436,36.4257267 C48.3607827,33.8686198 47.3976763,31.2071412 46.2034244,28.4804303 C47.3848349,25.7667659 48.3350999,23.1183337 49.0542193,20.5742733 C50.3255198,20.9787137 51.5326131,21.4222934 52.662658,21.9050126 C57.2085202,23.8750286 60.1492051,26.4582284 60.1492051,28.5065232 C60.1363636,30.554818 57.1956788,33.1510643 52.6498166,35.1080339 L52.6498166,35.1080339 Z" id="Shape"></path>
            <ellipse id="Oval" cx="31.4871586" cy="28.5065232" rx="5.86852833" ry="5.96223392"></ellipse>
        </g>
    </g>
</svg>