<?xml version="1.0" encoding="UTF-8"?>
<svg width="63px" height="56px" viewBox="0 0 63 56" version="1.1" xmlns="http://www.w3.org/2000/svg" xmlns:xlink="http://www.w3.org/1999/xlink">
    <title>react</title>
    <defs>
        <path d="M44.3028949,0 L44.3023502,0.0132829481 L44.5784638,0.0185478656 C45.4367995,0.0530433434 46.2318228,0.243548462 46.9354158,0.604103049 L47.1665219,0.730605298 C50.7878032,2.80705201 51.609661,9.29274702 49.7604939,17.4447227 C57.7735426,19.8928762 63,23.8406909 63,28.0064099 C63,32.1593033 57.799224,36.107118 49.8375468,38.5552715 C51.6995546,46.681622 50.8905462,53.1544976 47.282097,55.2309452 C46.4345751,55.7180132 45.45862,55.9487297 44.3799392,55.9487297 C40.8485517,55.9487297 36.2256426,53.46212 31.5513706,49.1297773 C26.8770987,53.4877546 22.2541723,56 18.7227848,56 C17.6441039,56 16.6681662,55.7692835 15.8334763,55.2822155 C12.2121864,53.2057677 11.3903373,46.7200727 13.2395044,38.568097 C5.22645648,36.1199263 0,32.1721288 0,28.0064099 C0,23.8535078 5.20077418,19.9185186 13.1881328,17.4575396 C11.3261337,9.33118903 12.1351421,2.85831953 15.7435826,0.781864186 C16.5911132,0.294805495 17.5670683,0.0640843986 18.6457318,0.0640843986 L18.6457318,0.0640843986 L18.6457318,0.0512675189 C22.1771367,0.0512675189 26.8000371,2.53787165 31.4743177,6.87021003 C36.1485896,2.51223789 40.7715074,0 44.3028949,0 L44.3028949,0 Z M15.9875736,39.3371529 C15.7050518,40.6317268 15.4739103,41.9006584 15.3326451,43.1055141 C14.7419461,48.0018306 15.4995917,51.808651 17.2460244,52.8084228 C17.6312719,53.0263219 18.1192364,53.1416798 18.6971033,53.1544976 C21.3681109,53.1544976 25.2975867,51.026779 29.4839027,47.1430556 C27.6732491,45.2588707 25.8754535,43.1055141 24.1418616,40.7342619 C21.2525531,40.4266395 18.5044839,39.9523977 15.9875736,39.3371529 Z M47.0381147,39.3115106 C44.5211958,39.9395722 41.7731352,40.4138313 38.8709687,40.7214364 C37.1630668,43.0926972 35.3652713,45.233237 33.567467,47.1174132 C37.7537658,50.9755098 41.6960736,53.0904089 44.3542491,53.0904089 C44.9449567,53.0904089 45.4457793,52.9878686 45.8310181,52.7571519 C47.5646101,51.744564 48.309415,47.9377427 47.7058753,43.0414297 C47.5646101,41.8493908 47.3334685,40.6060931 47.0381147,39.3115106 Z M35.0570768,41.0162505 C33.8885023,41.0803349 32.694255,41.1059773 31.4871497,41.1059773 C30.2929025,41.1059773 29.1114959,41.0675266 27.9557622,41.0162505 C29.137186,42.5159031 30.3314246,43.8873869 31.5256805,45.1178764 C32.7070957,43.8873869 33.9013516,42.5159031 35.0570768,41.0162505 Z M31.4999991,17.7779875 C29.5481063,17.7779875 27.6090455,17.8677056 25.6956748,18.0343337 C24.6298434,19.55962 23.6025341,21.200267 22.600889,22.9306407 C21.6377833,24.6097555 20.7388898,26.327295 19.9427134,28.0448605 C20.7517392,29.7624173 21.6377833,31.4671573 22.6137383,33.1462548 C23.6153662,34.8638116 24.6555248,36.4916503 25.7213563,38.0169367 C27.6218949,38.1707478 29.5609384,38.2604746 31.4999991,38.2604746 C33.4518919,38.2604746 35.3909527,38.1707478 37.3043147,38.0041111 C38.3701548,36.4788248 39.3974641,34.8381779 40.3991093,33.1078042 C41.3622149,31.4287066 42.248259,29.7111412 43.0572675,27.9935843 C42.248259,26.2760361 41.3622149,24.5713048 40.3862599,22.89219 C39.384632,21.1746418 38.3444734,19.5468032 37.2786419,18.0215082 C35.3781033,17.8677056 33.4390599,17.7779875 31.4999991,17.7779875 Z M44.5468858,31.4415149 C44.0203905,32.4669257 43.468205,33.5051533 42.8774974,34.5305555 C42.2867985,35.5687832 41.6575601,36.5813598 41.0283304,37.56832 C42.8646481,37.2991569 44.6367622,36.9530666 46.319,36.5429092 C45.8310181,34.8766285 45.2403192,33.1590803 44.5468858,31.4415149 Z M18.4402803,31.492791 C17.7725198,33.197531 17.1818122,34.9022623 16.7066883,36.5557347 C18.3889088,36.9659007 20.1481822,37.2991569 21.9716679,37.56832 C21.3424381,36.5941853 20.7260491,35.5944083 20.1225008,34.5690061 C19.5189611,33.543604 18.9667757,32.5181932 18.4402803,31.492791 Z M13.8944155,20.2261409 C12.6487968,20.6234815 11.4417001,21.0464558 10.3373379,21.5207148 C5.79148005,23.4433504 2.85079403,25.9940562 2.85079403,28.0064099 C2.85079403,30.0187635 5.79148005,32.5566438 10.3373379,34.4921049 C11.4545409,34.9663467 12.6616375,35.4021465 13.9329377,35.7994956 C14.6520525,33.300066 15.6023174,30.6981013 16.7837326,28.0320436 C15.5894854,25.353169 14.6263797,22.7383788 13.8944155,20.2261409 Z M49.0542112,20.2133154 C48.3350964,22.7127451 47.3848314,25.3147184 46.2034162,27.9807761 C47.3976808,30.6596507 48.3607865,33.2744236 49.0927333,35.7866788 C50.3383607,35.3893382 51.5454574,34.9663467 52.649811,34.4921049 C57.1956671,32.5694693 60.1363557,30.0187635 60.1492051,28.0064099 C60.1492051,25.9940562 57.2085164,23.4561586 52.6626603,21.5207148 C51.532608,21.0464558 50.3255114,20.610656 49.0542112,20.2133154 Z M21.9588272,18.4444911 C20.1225008,18.7136628 18.3503866,19.0597358 16.6681662,19.457085 C17.1561307,21.1233657 17.7468297,22.8409311 18.4402803,24.5584793 C18.9667757,23.5330685 19.5189611,22.5076664 20.1096601,21.4822642 C20.7003677,20.4440365 21.3295888,19.4314426 21.9588272,18.4444911 Z M41.015481,18.4444911 C41.6447194,19.4186344 42.2739491,20.4184028 42.8646481,21.4438049 C43.468205,22.4692071 44.0203905,23.4946265 44.5468858,24.5200287 C45.2146291,22.8152887 45.8053367,21.1105574 46.2804778,19.457085 C44.5982401,19.0469276 42.8389666,18.7136628 41.015481,18.4444911 Z M18.6457318,2.90958705 L18.6457318,2.92241256 C18.0550242,2.92241256 17.5542189,3.0249476 17.1689801,3.25565144 C15.4353881,4.26824535 14.6905833,8.07506577 15.2941229,12.97139 C15.4482202,14.1634289 15.6665297,15.4067266 15.9618835,16.6884836 C18.4788025,16.060422 21.226863,15.5861802 24.1290295,15.2785578 C25.8369314,12.907297 27.6347356,10.7667659 29.4325312,8.88258097 C25.2462324,5.02449304 21.3039073,2.90958705 18.6457318,2.90958705 L18.6457318,2.90958705 Z M44.2893797,2.85888917 L44.1052227,2.86211135 C41.4400355,2.96315468 37.6002894,5.08075027 33.5160955,8.86975546 C35.3267491,10.7539404 37.1245447,12.907297 38.8581367,15.2785578 C41.7474451,15.5861802 44.4955143,16.060422 47.0124247,16.6756668 C47.2949377,15.3810929 47.526088,14.1121527 47.6673358,12.907297 C48.2580434,8.01098137 47.5004065,4.20416095 45.7539738,3.20439255 C45.3558943,2.98649696 44.8807531,2.87113641 44.2900455,2.87113641 L44.2900455,2.87113641 L44.2893797,2.85888917 Z M31.461477,10.8949433 C30.2800531,12.1254328 29.0858145,13.496908 27.9300894,14.9965692 C29.0986466,14.9324675 30.2929025,14.9068424 31.4999991,14.9068424 C32.694255,14.9068424 33.8756616,14.9452931 35.0313867,14.9965692 C33.8499801,13.496908 32.6557242,12.1254328 31.461477,10.8949433 Z" id="path-1"></path>
        <path d="M5.86851921,0 C9.10962873,0 11.7370557,2.62255799 11.7370557,5.857642 C11.7370557,9.09272602 9.10962873,11.7152667 5.86851921,11.7152667 C2.62741834,11.7152667 0,9.09272602 0,5.857642 C0,2.62255799 2.62741834,0 5.86851921,0 Z" id="path-3"></path>
    </defs>
    <g id="Page-1" stroke="none" stroke-width="1" fill="none" fill-rule="evenodd">
        <g id="react">
            <g id="Group-3">
                <mask id="mask-2" fill="white">
                    <use xlink:href="#path-1"></use>
                </mask>
                <g id="Clip-2"></g>
                <polygon id="Fill-1" fill="#61DAFB" mask="url(#mask-2)" points="-0.7178668 56.7165342 63.7178655 56.7165342 63.7178655 -0.716533918 -0.7178668 -0.716533918"></polygon>
            </g>
            <g id="Group-6" transform="translate(25.618631, 22.148768)">
                <mask id="mask-4" fill="white">
                    <use xlink:href="#path-3"></use>
                </mask>
                <g id="Clip-5"></g>
                <polygon id="Fill-4" fill="#61DAFB" mask="url(#mask-4)" points="-0.71786961 12.4318037 12.4549167 12.4318037 12.4549167 -0.716528308 -0.71786961 -0.716528308"></polygon>
            </g>
        </g>
    </g>
</svg>