<?xml version="1.0" encoding="UTF-8"?>
<svg width="62px" height="57px" viewBox="0 0 62 57" version="1.1" xmlns="http://www.w3.org/2000/svg" xmlns:xlink="http://www.w3.org/1999/xlink">
    <title>sketch-2 (1)</title>
    <g id="Page-1" stroke="none" stroke-width="1" fill="none" fill-rule="evenodd">
        <g id="sketch-2-(1)" fill-rule="nonzero">
            <g id="a-link" transform="translate(0.000000, 20.325183)" fill="#EA6C00">
                <polygon id="a" points="12.5555414 0 30.9973748 36.6748166 0 0"></polygon>
            </g>
            <g id="b-link" transform="translate(46.501313, 38.662592) scale(-1, 1) translate(-46.501313, -38.662592) translate(31.002625, 20.325183)" fill="#EA6C00">
                <polygon id="b" points="12.5555414 0 30.9973748 36.6748166 0 0"></polygon>
            </g>
            <g id="c-link" transform="translate(12.554885, 20.325183)" fill="#FDAD00">
                <polygon id="c" points="0 0 36.8836668 0 18.4418334 36.6748166"></polygon>
            </g>
            <g id="d-link" transform="translate(12.554885, 0.000000)" fill="#FDD231">
                <polygon id="d" points="18.4418334 0 0.970657352 1.87641698 0 20.3251834"></polygon>
            </g>
            <g id="e-link" transform="translate(40.217635, 10.162592) scale(-1, 1) translate(-40.217635, -10.162592) translate(30.996719, 0.000000)" fill="#FDD231">
                <polygon id="e" points="18.4418334 0 0.970657352 1.87641698 0 20.3251834"></polygon>
            </g>
            <g id="f-link" transform="translate(55.236901, 11.100800) scale(-1, 1) translate(-55.236901, -11.100800) translate(48.473801, 1.876417)" fill="#FDAD00">
                <polygon id="f" points="0 18.4487664 13.5261988 0 12.5555414 18.4487664"></polygon>
            </g>
            <g id="g-link" transform="translate(0.000000, 1.876417)" fill="#FDAD00">
                <polygon id="g" points="0 18.4487664 13.5261988 0 12.5555414 18.4487664"></polygon>
            </g>
            <g id="h-link" transform="translate(12.554885, 0.000000)" fill="#FEEEB7">
                <polygon id="h" points="18.4418334 0 0 20.3251834 36.8836668 20.3251834"></polygon>
            </g>
        </g>
    </g>
</svg>