<?xml version="1.0" encoding="UTF-8"?>
<svg width="54px" height="54px" viewBox="0 0 54 54" version="1.1" xmlns="http://www.w3.org/2000/svg" xmlns:xlink="http://www.w3.org/1999/xlink">
    <title>slack</title>
    <defs>
        <path d="M19.7988286,14.399999 C22.7838721,14.4022003 25.2019162,16.8198176 25.199712,19.8011004 C25.2019162,22.7801819 22.7838721,25.1977992 19.7988286,25.2000005 L19.7988286,25.2000005 L5.39869076,25.2000005 C2.41364648,25.1955979 -0.00439444386,22.7779807 5.99654405e-06,19.7988991 C-0.0021882025,16.8198176 2.41585218,14.4022003 5.40089731,14.399999 L5.40089731,14.399999 L19.7988286,14.399999 Z M19.7988286,0 L19.997115,0.00384831657 C22.8923512,0.112129492 25.2040728,2.48822162 25.2019177,5.40110135 L25.2019177,5.40110135 L25.2019177,10.7978001 L19.8010343,10.7978001 C16.8159909,10.7955988 14.3979468,8.37798161 14.400151,5.39890007 C14.3979468,2.41981852 16.8137852,0.00220128548 19.7988286,0 L19.7988286,0 Z" id="path-1"></path>
        <path d="M19.7988226,14.399999 C22.7838661,14.4022003 25.2019102,16.8198176 25.199706,19.7988991 C25.2019102,22.7801819 22.7838661,25.1977992 19.7988226,25.2000005 L19.7988226,25.2000005 L14.3979393,25.2000005 L14.3979393,19.7988991 C14.3957351,16.8198176 16.8137792,14.4022003 19.7988226,14.399999 Z M5.40088532,0 C8.38593729,0.00440257096 10.8017672,2.42201981 10.799563,5.39890007 L10.799563,5.39890007 L10.799563,19.7988991 C10.8017672,22.7801819 8.3837316,25.1977992 5.39867963,25.2000005 C2.41363621,25.1955979 -0.00439934525,22.7779807 6.00994906e-06,19.7988991 L6.00994906e-06,19.7988991 L6.00994906e-06,5.39890007 C-0.00219365445,2.41981852 2.4158419,0.00220128548 5.40088532,0 Z" id="path-3"></path>
        <path d="M5.4008763,14.4044016 C8.38592827,14.4066114 10.8039638,16.8242201 10.8017596,19.8033042 C10.8039638,22.7823866 8.38592827,25.2000014 5.4008763,25.2022032 C2.41583288,25.1977995 -0.00220267726,22.7801854 1.5057354e-06,19.8033042 L1.5057354e-06,19.8033042 L1.5057354e-06,14.4044016 L5.4008763,14.4044016 Z M19.803225,0 C22.7882684,0.00440257096 25.2063125,2.42201981 25.2019072,5.40110135 C25.2041068,8.3801829 22.7860627,10.7978001 19.8010193,10.8000014 L19.8010193,10.8000014 L5.4008763,10.8000014 C2.41583288,10.7978001 3.01353076e-06,8.3801829 0.00220719515,5.39890007 C3.01353076e-06,2.41981852 2.41803857,0.00220128548 5.40308199,0 L5.40308199,0 L19.803225,0 Z" id="path-5"></path>
        <path d="M19.8010208,0.00220128548 C22.7860642,0.00661238855 25.2041083,2.42422109 25.199703,5.40330264 L25.199703,5.40330264 L25.199703,19.801103 C25.2019027,22.7801854 22.7838586,25.1978001 19.7988151,25.2000019 C16.8137717,25.1955982 14.3957276,22.7779841 14.400133,19.7989017 L14.400133,19.7989017 L14.400133,5.39890007 L14.400133,5.39890007 L14.403554,5.2011468 C14.5055861,2.31356275 16.880155,0.00220128548 19.8010208,0.00220128548 Z M10.8017697,0 L10.8017697,5.39890007 C10.8039653,8.37798161 8.38592807,10.7955988 5.40088379,10.7978001 C2.41583866,10.7955988 -0.00220172191,8.37798161 1.50442612e-06,5.39890007 C-0.00220172191,2.41981852 2.41583866,0.00220128548 5.40088379,0 L5.40088379,0 L10.8017697,0 Z" id="path-7"></path>
    </defs>
    <g id="Page-1" stroke="none" stroke-width="1" fill="none" fill-rule="evenodd">
        <g id="slack">
            <g id="Group-3" transform="translate(-0.000000, 0.000000)">
                <mask id="mask-2" fill="white">
                    <use xlink:href="#path-1"></use>
                </mask>
                <g id="Clip-2"></g>
                <polygon id="Fill-1" fill="#36C5F0" mask="url(#mask-2)" points="-1.10311461 26.3009162 26.3050386 26.3009162 26.3050386 -1.10091577 -1.10311461 -1.10091577"></polygon>
            </g>
            <g id="Group-6" transform="translate(28.800283, 0.000000)">
                <mask id="mask-4" fill="white">
                    <use xlink:href="#path-3"></use>
                </mask>
                <g id="Clip-5"></g>
                <polygon id="Fill-4" fill="#2EB67D" mask="url(#mask-4)" points="-1.10313258 26.3009162 26.3028234 26.3009162 26.3028234 -1.10091577 -1.10313258 -1.10091577"></polygon>
            </g>
            <g id="Group-9" transform="translate(28.798087, 28.797797)">
                <mask id="mask-6" fill="white">
                    <use xlink:href="#path-5"></use>
                </mask>
                <g id="Clip-8"></g>
                <polygon id="Fill-7" fill="#ECB22E" mask="url(#mask-6)" points="-1.10311596 26.3031209 26.3050458 26.3031209 26.3050458 -1.10091235 -1.10311596 -1.10091235"></polygon>
            </g>
            <g id="Group-12" transform="translate(0.000014, 28.799998)">
                <mask id="mask-8" fill="white">
                    <use xlink:href="#path-7"></use>
                </mask>
                <g id="Clip-11"></g>
                <polygon id="Fill-10" fill="#E01E5A" mask="url(#mask-8)" points="-1.10311958 26.3009196 26.3028365 26.3009196 26.3028365 -1.10091235 -1.10311958 -1.10091235"></polygon>
            </g>
        </g>
    </g>
</svg>