<?xml version="1.0" encoding="UTF-8"?>
<svg width="54px" height="54px" viewBox="0 0 54 54" version="1.1" xmlns="http://www.w3.org/2000/svg" xmlns:xlink="http://www.w3.org/1999/xlink">
    <title>slack-new-logo (1)</title>
    <g id="Page-1" stroke="none" stroke-width="1" fill="none" fill-rule="evenodd">
        <g id="slack-new-logo-(1)" fill-rule="nonzero">
            <path d="M19.7988265,0 C16.8137813,0.00220183486 14.3979465,2.41981651 14.4001512,5.39889908 C14.3979465,8.37798165 16.8159875,10.7955963 19.8010328,10.7977982 L25.2019144,10.7977982 L25.2019144,5.40110092 C25.2041191,2.42201835 22.786078,0.00440366972 19.7988265,0 C19.8010328,0 19.8010328,0 19.7988265,0 M19.7988265,14.4 L5.40089213,14.4 C2.41584689,14.4022018 -0.00219419955,16.8198165 6.01293232e-06,19.7988991 C-0.00440044141,22.7779817 2.41364064,25.1955963 5.39868589,25.2 L19.7988265,25.2 C22.7838718,25.1977982 25.2019129,22.7801835 25.1997081,19.8011009 C25.2019129,16.8198165 22.7838718,14.4022018 19.7988265,14.4 Z" id="Shape" fill="#36C5F0"></path>
            <path d="M53.9999895,19.7988991 C54.0021942,16.8198165 51.5841531,14.4022018 48.5991079,14.4 C45.6140626,14.4022018 43.1960215,16.8198165 43.1982263,19.7988991 L43.1982263,25.2 L48.5991079,25.2 C51.5841531,25.1977982 54.0021942,22.7801835 53.9999895,19.7988991 Z M39.5998488,19.7988991 L39.5998488,5.39889908 C39.6020535,2.42201835 37.1862187,0.00440366972 34.2011735,0 C31.2161282,0.00220183486 28.7980871,2.41981651 28.8002873,5.39889908 L28.8002873,19.7988991 C28.7958809,22.7779817 31.213922,25.1955963 34.1989672,25.2 C37.1840125,25.1977982 39.6020535,22.7801835 39.5998488,19.7988991 Z" id="Shape" fill="#2EB67D"></path>
            <path d="M34.1989672,54 C37.1840125,53.9977982 39.6020535,51.5801835 39.5998488,48.6011009 C39.6020535,45.6220183 37.1840125,43.2044037 34.1989672,43.2022018 L28.7980856,43.2022018 L28.7980856,48.6011009 C28.7958809,51.5779817 31.213922,53.9955963 34.1989672,54 Z M34.1989672,39.5977982 L48.5991079,39.5977982 C51.5841531,39.5955963 54.0021942,37.1779817 53.999994,34.1988991 C54.0044004,31.2198165 51.5863594,28.8022018 48.6013141,28.7977982 L34.2011735,28.7977982 C31.2161282,28.8 28.7980871,31.2176147 28.8002919,34.1966972 C28.7980871,37.1779817 31.213922,39.5955963 34.1989672,39.5977982 L34.1989672,39.5977982 Z" id="Shape" fill="#ECB22E"></path>
            <path d="M1.05337731e-05,34.1988991 C-0.00219419955,37.1779817 2.41584689,39.5955963 5.40089213,39.5977982 C8.38593738,39.5955963 10.8039785,37.1779817 10.8017737,34.1988991 L10.8017737,28.8 L5.40089213,28.8 C2.41584689,28.8022018 -0.00219419955,31.2198165 1.05337731e-05,34.1988991 Z M14.4001467,34.1988991 L14.4001467,48.5988991 C14.3957402,51.5779817 16.8137813,53.9955963 19.7988265,54 C22.7838718,53.9977982 25.2019129,51.5801835 25.1997127,48.6011009 L25.1997127,34.2033028 C25.2041191,31.2242202 22.786078,28.8066055 19.8010328,28.8022018 C16.8137813,28.8022018 14.3979465,31.2198165 14.4001467,34.1988991 C14.4001467,34.1988991 14.4001467,34.2011009 14.4001467,34.1988991" id="Shape" fill="#E01E5A"></path>
        </g>
    </g>
</svg>