<?xml version="1.0" encoding="UTF-8"?>
<svg width="60px" height="60px" viewBox="0 0 60 60" version="1.1" xmlns="http://www.w3.org/2000/svg" xmlns:xlink="http://www.w3.org/1999/xlink">
    <title>swagger</title>
    <g id="Page-1" stroke="none" stroke-width="1" fill="none" fill-rule="evenodd">
        <g id="swagger" fill-rule="nonzero">
            <path d="M29.7796875,59.9992792 C13.7929687,59.889123 -0.107109375,46.6213925 0.000703125,29.7651475 C0.104296875,13.5459335 13.5825,-0.109921843 30.2601562,0.000703124793 C46.4688281,0.108515593 60.1436719,13.5625741 59.9988281,30.0454599 C60.133125,46.3790488 46.3910156,60.1145916 29.7796875,59.9992792 Z M29.7796875,59.9992792 C13.7929687,59.889123 -0.107109375,46.6213925 0.000703125,29.7651475 C0.104296875,13.5459335 13.5825,-0.109921843 30.2601562,0.000703124793 C46.4688281,0.108515593 60.1436719,13.5625741 59.9988281,30.0454599 C60.133125,46.3790488 46.3910156,60.1145916 29.7796875,59.9992792 Z" id="Shape" fill="#FFFFFF"></path>
            <path d="M29.8089844,56.0149054 C15.945,55.9195148 3.8915625,44.4140494 3.98484375,29.7963193 C4.07484375,15.731011 15.7628906,3.88851448 30.2257031,3.98484257 C44.2816406,4.07835817 56.1403125,15.7457766 56.0146875,30.0396005 C56.1309375,44.2035807 44.2141406,56.1149834 29.8089844,56.0149054 Z M29.8089844,56.0149054 C15.945,55.9195148 3.8915625,44.4140494 3.98484375,29.7963193 C4.07484375,15.731011 15.7628906,3.88851448 30.2257031,3.98484257 C44.2816406,4.07835817 56.1403125,15.7457766 56.0146875,30.0396005 C56.1309375,44.2035807 44.2141406,56.1149834 29.8089844,56.0149054 Z" id="Shape" fill="#49A32B"></path>
            <path d="M39.6860156,29.9896787 C39.6194531,31.229522 38.5361719,32.2591311 37.4688281,32.0795999 L37.4526562,32.0795999 C36.8848261,32.0803463 36.3399665,31.8554441 35.9379884,31.4543891 C35.5360102,31.0533342 35.3098559,30.5089933 35.3092969,29.941163 C35.3495389,28.755617 36.3326893,27.8211708 37.51875,27.8411637 C38.7011719,27.847023 39.75,28.8461634 39.6860156,29.9896787 L39.6860156,29.9896787 Z M20.6721094,42.0046751 C21.1178906,42.0178001 21.5641406,42.0081907 22.0783594,42.0081907 L22.0783594,45.2392835 C18.8826563,45.7795177 16.2503906,44.8722524 15.6044531,42.1710813 C15.3833659,41.1777336 15.2472494,40.1673668 15.1975781,39.150926 C15.1289062,38.0746763 15.2475,36.9864735 15.1654688,35.9120988 C14.938125,32.9561622 14.5553906,31.9469437 11.71875,31.8072562 L11.71875,28.1285073 C11.9221141,28.081101 12.1280966,28.0457271 12.335625,28.0225699 C13.8909375,27.9459293 14.5464844,27.4689763 14.8942969,25.9371017 C15.0527088,25.0764274 15.1462532,24.2050705 15.1741406,23.3303837 C15.2974219,21.6388999 15.2538281,19.9199941 15.5355469,18.2559321 C15.9426563,15.8496047 17.4365625,14.6805425 19.9042969,14.549527 C20.6064844,14.512027 21.3107813,14.543902 22.1064844,14.543902 L22.1064844,17.8462447 C21.7790625,17.8696822 21.4790625,17.9172603 21.1807031,17.9083541 C19.1697656,17.8467135 19.0659375,18.5317914 18.9189844,20.1963222 C18.8275781,21.2402281 18.9539063,22.3019465 18.8826563,23.3496025 C18.8082667,24.3920477 18.6688548,25.4288304 18.4652344,26.4538984 C18.1750781,27.9396011 17.2617188,29.0444446 15.9960938,29.9819443 C18.4530469,31.5810844 18.7326563,34.0654587 18.8922656,36.5885048 C18.9780469,37.9441294 18.9389063,39.3095978 19.0764844,40.6586599 C19.1835938,41.7056127 19.5909375,41.9728001 20.6721094,42.0046751 L20.6721094,42.0046751 Z M22.7430469,27.841398 L22.7810156,27.841398 C23.3452475,27.8506461 23.8826944,28.0836627 24.2751172,28.4891837 C24.6675401,28.8947048 24.8827914,29.4395099 24.8735156,30.0037412 C24.872341,30.5760615 24.6356435,31.1226656 24.2190493,31.5150958 C23.8024552,31.9075259 23.2426986,32.1111787 22.6713281,32.0781937 C21.8960391,32.09261 21.1747255,31.6826296 20.7904342,31.0091306 C20.406143,30.3356316 20.4201848,29.5060655 20.8270495,28.8459581 C21.2339143,28.1858508 21.9686899,27.800517 22.7430469,27.8411637 L22.7430469,27.841398 Z M30.0639844,27.841398 C31.3490625,27.8313199 32.2024219,28.664054 32.2089844,29.9343662 C32.2160156,31.2386627 31.4069531,32.0730374 30.1305469,32.0786911 C28.8321094,32.0842874 27.9775781,31.2630377 27.9705469,30.0004599 C27.934457,29.4289787 28.141135,28.8687907 28.5397431,28.4576885 C28.9383512,28.0465864 29.4918959,27.8227232 30.0642187,27.8411637 L30.0639844,27.841398 Z M45.3921094,26.2319454 C45.7340625,27.5085856 46.3994531,27.9574136 47.7433594,28.0185855 C47.9636719,28.028898 48.1828125,28.0661636 48.4846875,28.0996792 L48.4846875,31.7774906 C48.3213281,31.8313969 48.15375,31.8712406 47.9835938,31.8974906 C46.1826563,32.0095218 45.361875,32.7482716 45.18,34.5541304 C45.06375,35.7070207 45.0733594,36.8725672 44.9934375,38.0294419 C44.9599542,39.2996374 44.8444008,40.5663403 44.6475,41.8216283 C44.188125,44.0957682 42.7680469,45.2303773 40.4219531,45.3688929 C39.6670313,45.4134241 38.9064844,45.3759241 38.0922656,45.3759241 L38.0922656,42.0885813 C38.5305469,42.0616282 38.9172656,42.0241282 39.3049219,42.0149876 C40.7067188,41.981472 41.2024219,41.5295971 41.2710938,40.13741 C41.3470313,38.6081136 41.3800781,37.0767078 41.4485156,35.5469426 C41.5476563,33.3360839 42.1530469,31.360772 44.2129688,29.9817099 C43.0340625,29.1414758 42.0878906,28.1235855 41.8429688,26.7513202 C41.5464844,25.0879614 41.450625,23.3878056 41.2910156,21.7010092 C41.2122656,20.8579626 41.2160156,20.007416 41.13375,19.1648381 C41.0449219,18.2554634 40.4200781,17.9404635 39.5922656,17.9203072 C39.1178906,17.9085885 38.641875,17.9179635 38.0355469,17.9179635 L38.0355469,14.7079644 C41.9048438,14.0655427 44.5776563,15.3529642 44.8260938,19.0551506 C44.9299219,20.6095252 44.9146875,22.1716341 45.0142969,23.726243 C45.0578906,24.5718678 45.1844531,25.4113988 45.3921094,26.2319454 L45.3921094,26.2319454 Z" id="Shape" fill="#FFFFFF"></path>
            <rect id="Rectangle" fill-opacity="0" fill="#000000" x="0" y="0" width="60" height="59.9999823"></rect>
        </g>
    </g>
</svg>