<?xml version="1.0" encoding="UTF-8"?>
<svg width="50px" height="50px" viewBox="0 0 50 50" version="1.1" xmlns="http://www.w3.org/2000/svg" xmlns:xlink="http://www.w3.org/1999/xlink">
    <title>swift-15 (1)</title>
    <defs>
        <linearGradient x1="59.3761636%" y1="-3.56835938%" x2="40.5185722%" y2="103.580469%" id="linearGradient-1">
            <stop stop-color="#FAAE42" offset="0%"></stop>
            <stop stop-color="#EF3E31" offset="100%"></stop>
        </linearGradient>
        <linearGradient x1="59.840562%" y1="5.71369151%" x2="43.6223274%" y2="94.0724917%" id="linearGradient-2">
            <stop stop-color="#E39F3A" offset="0%"></stop>
            <stop stop-color="#D33929" offset="100%"></stop>
        </linearGradient>
    </defs>
    <g id="Page-1" stroke="none" stroke-width="1" fill="none" fill-rule="evenodd">
        <g id="swift-15-(1)" fill-rule="nonzero">
            <path d="M11.1089418,0 L38.7934401,0 C40.1405701,0 41.4486529,0.21484375 42.7176884,0.6640625 C44.552909,1.328125 46.212417,2.5 47.4619289,4.0234375 C48.7309645,5.546875 49.5704803,7.421875 49.8633346,9.375 C49.9804764,10.0976563 50,10.8203125 50,11.5429688 L50,38.5546875 C50,39.4140625 49.9609528,40.2929688 49.7852401,41.1328125 C49.3947677,43.0664063 48.4771574,44.8828125 47.149551,46.3476562 C45.8414682,47.8125 44.1233893,48.90625 42.2686451,49.4921875 C41.1362749,49.84375 39.9648575,50 38.7739164,50 C38.2467786,50 11.0308473,50 10.6208512,49.9804688 C8.62944162,49.8828125 6.65755564,49.2382812 4.99804764,48.125 C3.37758688,47.03125 2.04998048,45.5078125 1.19094104,43.75 C0.449043342,42.2460938 0.0780944943,40.5664062 0.0780944943,38.8867188 L0.0780944943,11.1132813 C0.0390472472,9.453125 0.390472472,7.8125 1.11284654,6.328125 C1.95236236,4.5703125 3.26044514,3.02734375 4.8809059,1.93359375 C6.5404139,0.80078125 8.49277626,0.13671875 10.4841859,0.0390625 C10.6794221,0 10.894182,0 11.1089418,0 Z" id="Path" fill="url(#linearGradient-1)"></path>
            <path d="M42.1710269,40.8984375 C41.9953143,40.625 41.8000781,40.3515625 41.5853182,40.0976563 C41.0972276,39.5117188 40.5310426,39.0039063 39.9062866,38.5742188 C39.1253417,38.046875 38.2077314,37.7148438 37.2705974,37.6757813 C36.6067942,37.6367188 35.942991,37.7539063 35.3182351,37.9882812 C34.6934791,38.203125 34.0882468,38.515625 33.5025381,38.828125 C32.8192112,39.1796875 32.1358844,39.53125 31.4135103,39.8242188 C30.5544709,40.1757813 29.6563842,40.4492188 28.7387739,40.6445312 C27.5868801,40.859375 26.4154627,40.9375 25.2635689,40.9179688 C23.1745412,40.8789063 21.0855135,40.5664062 19.0941039,39.9804688 C17.3369777,39.453125 15.6579461,38.7304688 14.0765326,37.8125 C12.6903553,37.0117188 11.4017962,36.09375 10.1913315,35.0585938 C9.19562671,34.1992188 8.2780164,33.28125 7.41897696,32.3046875 C6.83326825,31.6210938 6.26708317,30.8984375 5.73994533,30.15625 C5.52518547,29.8632813 5.32994924,29.5507813 5.15423663,29.2382813 L0,23.671875 L0,11.0742188 C0,4.9609375 4.93947677,0 11.0503709,0 L20.9098009,0 L28.2116361,7.421875 C44.6895744,18.6328125 39.3596251,30.9960938 39.3596251,30.9960938 C39.3596251,30.9960938 44.0452948,36.2695312 42.1710269,40.8984375 Z" id="Path" fill="url(#linearGradient-2)"></path>
            <path d="M28.2506833,7.421875 C44.7286216,18.6328125 39.3986724,30.9960937 39.3986724,30.9960937 C39.3986724,30.9960937 44.0843421,36.2890625 42.1905506,40.9179688 C42.1905506,40.9179688 40.2577118,37.6757812 37.0167903,37.6757812 C33.8930105,37.6757812 32.0577899,40.9179688 25.7711831,40.9179688 C11.772745,40.9179688 5.15423663,29.21875 5.15423663,29.21875 C17.7664975,37.5195312 26.3764155,31.640625 26.3764155,31.640625 C20.695041,28.3398437 8.609918,12.5585938 8.609918,12.5585938 C19.1331511,21.5234375 23.6821554,23.8867188 23.6821554,23.8867188 C20.9683717,21.640625 13.3541585,10.6640625 13.3541585,10.6640625 C19.4455291,16.8359375 31.5501757,25.4492188 31.5501757,25.4492188 C34.9863335,15.9179688 28.2506833,7.421875 28.2506833,7.421875 Z" id="Path" fill="#FFFFFF"></path>
        </g>
    </g>
</svg>