<?xml version="1.0" encoding="UTF-8"?>
<svg width="49px" height="49px" viewBox="0 0 49 49" version="1.1" xmlns="http://www.w3.org/2000/svg" xmlns:xlink="http://www.w3.org/1999/xlink">
    <title>swift</title>
    <defs>
        <path d="M37.9439112,0 C39.2640998,0 40.5460198,0.210550796 41.7896798,0.65078549 C43.5881912,1.30156231 45.2145112,2.4500078 46.439037,3.94297047 C47.6826884,5.43594181 48.5054112,7.27344766 48.7924083,9.18750325 C48.9072141,9.89571405 48.9263398,10.6039075 48.9263398,11.3121096 L48.9263398,37.7835992 C48.9263398,38.6257764 48.8880798,39.4871127 48.7158798,40.3101568 C48.3332112,42.2050784 47.4339598,43.9851563 46.1329055,45.4207032 C44.8509855,46.8562501 43.1672626,47.9281251 41.3496169,48.5023438 C40.2398883,48.846875 39.0919084,49 37.9247769,49 L30.0181014,48.9991793 C29.8940708,48.9991559 29.7692595,48.9991318 29.6437201,48.999107 L26.5177984,48.9983695 C26.3839628,48.9983325 26.2498184,48.9982946 26.1154176,48.9982558 L23.6798373,48.997461 C23.5442472,48.9974112 23.4087153,48.9973604 23.2732939,48.9973087 L21.6569009,48.9966386 C21.523203,48.9965786 21.3898255,48.9965175 21.2568206,48.9964553 L20.0712556,48.9958656 C19.9409588,48.9957967 19.8111921,48.9957267 19.6820077,48.9956554 L18.5364891,48.9949824 C18.411271,48.994904 18.2867927,48.9948244 18.1631064,48.9947435 L17.0727325,48.9939816 C16.9542708,48.9938931 16.8367584,48.9938033 16.7202478,48.9937121 L16.0336255,48.9931494 C15.9213319,48.9930529 15.8101449,48.992955 15.7001171,48.9928558 L15.0542782,48.9922438 C14.7387327,48.9919293 14.4345626,48.9916021 14.1431834,48.9912617 L13.5778989,48.9905629 C11.6620297,48.9880543 10.4191527,48.9848789 10.334774,48.9808594 C8.38319434,48.8851562 6.45074461,48.2535156 4.82442719,47.1625002 C3.23637489,46.0906253 1.93532061,44.5976557 1.09346175,42.8750004 C0.366402353,41.4011726 0.00287236937,39.7550801 0.00287236937,38.1089833 L0.00287236937,10.8910167 C-0.0353939393,9.26406166 0.309002839,7.65625704 1.01692889,6.20156058 C1.83965518,4.47890534 3.1215769,2.9668009 4.70962747,1.89492249 C6.33594662,0.784769208 8.24926205,0.133992387 10.2008426,0.0382835392 C10.3921683,0 10.6026455,0 10.8131055,0 L37.9439112,0 Z" id="path-1"></path>
        <linearGradient x1="59.3699079%" y1="-3.3964069%" x2="40.5142649%" y2="103.408433%" id="linearGradient-3">
            <stop stop-color="#FAAE42" offset="0%"></stop>
            <stop stop-color="#EF3F31" offset="100%"></stop>
        </linearGradient>
        <path d="M20.4916115,0 L27.6474144,7.27344766 C43.7957829,18.2601559 38.5724401,30.3761678 38.5724401,30.3761678 C38.5724401,30.3761678 43.1643943,35.5441422 41.3276144,40.0804729 C41.1554144,39.8124967 40.9640887,39.5445293 40.7536114,39.2957036 C40.2752886,38.7214852 39.7204286,38.2238339 39.1081744,37.8027323 C38.3428458,37.2859392 37.4435858,36.9605465 36.5251915,36.9222629 C35.87466,36.8839881 35.2241372,36.99883 34.6118743,37.2285139 C33.9996114,37.4390647 33.4064829,37.7453157 32.8324886,38.0515666 C32.1628315,38.3961012 31.4931744,38.740627 30.78524,39.0277362 C29.9433915,39.3722621 29.0632571,39.6402382 28.1640058,39.8316385 C27.0351515,40.0421893 25.8871543,40.1187477 24.7583,40.0996146 C22.7110514,40.0613311 20.6638029,39.7550801 18.7122171,39.1808617 C16.9902429,38.6640686 15.3447886,37.9558578 13.7950058,37.0562466 C12.4365486,36.2714861 11.1737629,35.3718749 9.98750572,34.3574218 C9.01171718,33.515236 8.11245715,32.6156248 7.2705983,31.658597 C6.69660401,30.9886698 6.14174229,30.2804763 5.62514744,29.5531238 C5.41468229,29.2660145 5.22335057,28.9597636 5.05115229,28.6535126 L0,23.1984464 L0,10.8527418 C0,4.8617234 4.84068714,0 10.8293715,0 L20.4916115,0 Z" id="path-4"></path>
        <linearGradient x1="50.9184676%" y1="1.77093593%" x2="37.118332%" y2="79.9398766%" id="linearGradient-6">
            <stop stop-color="#E39F3A" offset="0%"></stop>
            <stop stop-color="#D33A29" offset="100%"></stop>
        </linearGradient>
        <path d="M22.634522,0 C38.7828992,10.9867082 33.5595477,23.1027202 33.5595477,23.1027202 C33.5595477,23.1027202 38.151502,28.2898363 36.2955877,32.826167 C36.2955877,32.826167 34.4014135,29.6488153 31.225302,29.6488153 C28.1640049,29.6488153 26.3654849,32.826167 20.2046135,32.826167 C6.48613626,32.826167 0,21.3609318 0,21.3609318 C12.3600192,29.4956898 20.7977421,23.7343639 20.7977421,23.7343639 C15.2299819,20.4995956 3.386568,5.03397331 3.386568,5.03397331 C13.4701608,13.6242909 17.9563389,16.029412 18.1507451,16.1320641 L18.1573649,16.1355408 C16.3219274,14.6164151 12.199127,9.02218982 9.82037739,5.70120133 L9.40400179,5.11824403 C8.57029697,3.94767473 8.03592776,3.17733436 8.03592776,3.17733436 C9.91762967,5.08390903 12.3848736,7.22821376 14.8815438,9.27093417 L15.3983337,9.6920052 C20.6529241,13.9558945 25.8680191,17.666787 25.8680191,17.666787 C28.5993848,10.0905063 24.7725467,3.18163554 23.2293998,0.841931904 L23.1078902,0.65999672 C22.8178813,0.231282416 22.634522,0 22.634522,0 Z" id="path-7"></path>
    </defs>
    <g id="Page-1" stroke="none" stroke-width="1" fill="none" fill-rule="evenodd">
        <g id="swift">
            <g id="Group-3" transform="translate(0.073660, 0.000000)">
                <mask id="mask-2" fill="white">
                    <use xlink:href="#path-1"></use>
                </mask>
                <g id="Clip-2"></g>
                <polygon id="Fill-1" fill="url(#linearGradient-3)" mask="url(#mask-2)" points="-0.0736602479 49 49.0051734 49 49.0051734 0 -0.0736602479 0"></polygon>
            </g>
            <g id="Group-6">
                <mask id="mask-5" fill="white">
                    <use xlink:href="#path-4"></use>
                </mask>
                <g id="Clip-5"></g>
                <polygon id="Fill-4" fill="url(#linearGradient-6)" mask="url(#mask-5)" points="0 49 49.0788337 49 49.0788337 0 0 0"></polygon>
            </g>
            <g id="Group-9" transform="translate(5.051152, 7.273448)">
                <mask id="mask-8" fill="white">
                    <use xlink:href="#path-7"></use>
                </mask>
                <g id="Clip-8"></g>
                <polygon id="Fill-7" fill="#FFFFFF" mask="url(#mask-8)" points="-0.48980857 33.3161625 37.2271776 33.3161625 37.2271776 -0.490005895 -0.48980857 -0.490005895"></polygon>
            </g>
        </g>
    </g>
</svg>