<?xml version="1.0" encoding="UTF-8"?>
<svg width="61px" height="61px" viewBox="0 0 61 61" version="1.1" xmlns="http://www.w3.org/2000/svg" xmlns:xlink="http://www.w3.org/1999/xlink">
    <title>wordpress</title>
    <defs>
        <path d="M2.2652932,15.51542 L14.7461738,49.7121921 C6.01866931,45.4703935 7.67363848e-06,36.5207953 7.67363848e-06,26.1637319 C-0.00280772266,22.4944203 0.769117173,18.8658384 2.2652932,15.51542 Z M26.1646396,0 C32.976387,0 39.178237,2.60382999 43.833741,6.86853359 C43.72023,6.86205585 43.6102036,6.84762539 43.4941912,6.84762539 C40.9247367,6.84762539 39.1010736,9.08651068 39.1010736,11.4916869 C39.1010736,13.6469394 40.3437346,15.4721114 41.6700365,17.6273639 C42.6662595,19.3703781 43.8277635,21.6097723 43.8277635,24.8434015 C43.8277635,26.9936919 43.0344551,29.4752596 41.9697855,32.872188 L41.8353262,33.3016138 L39.2260393,42.0226881 L29.7706411,13.8963628 C31.3448819,13.813722 32.7652789,13.6469394 32.7652789,13.6469394 C34.1747303,13.4801568 34.0089404,11.4085457 32.5975052,11.4916869 C32.5975052,11.4916869 32.5883396,11.4924053 32.5705856,11.4937753 L32.4921361,11.4997731 C32.0283666,11.5349581 30.104587,11.6767131 28.1411583,11.7606159 L27.7047654,11.7782418 C26.9782805,11.8058084 26.2607892,11.8237685 25.6244531,11.8237685 C24.8471875,11.8237685 23.9099721,11.793416 22.9805632,11.7510636 L22.5527705,11.7307312 C20.5646925,11.6324938 18.732558,11.4916869 18.732558,11.4916869 C17.3226149,11.4085457 17.1573253,13.5642985 18.567277,13.6469394 C18.567277,13.6469394 19.7931196,13.800113 21.1353417,13.8856126 L21.310983,13.8963628 L25.3879776,25.0649559 L19.6615714,42.2377562 L10.1334952,13.8968631 C11.7107203,13.8142222 13.1286333,13.6474397 13.1286333,13.6474397 C14.5370841,13.4806571 14.3707939,11.409046 12.9603592,11.4921872 C12.9603592,11.4921872 10.8983386,11.6538235 8.72215661,11.7515572 L8.28597521,11.770185 C7.48563488,11.802529 6.68740477,11.8242601 5.98730714,11.8242601 C5.49641515,11.8242601 4.91739687,11.8118135 4.30354037,11.7933895 C8.98194495,4.68988013 17.0239067,0 26.1646396,0 Z" id="path-1"></path>
        <path d="M7.85028689,14.841812 L15.8937323,36.8757698 C15.9446483,37.0013613 16.0069759,37.1220173 16.07993,37.2362232 C13.3601165,38.1921204 10.4381654,38.719359 7.39125734,38.719359 C5.08163605,38.719359 2.78306107,38.4133662 0.555402555,37.8099736 L0,37.6529346 L7.85028689,14.841812 Z M30.349644,0 C32.4592668,3.84722963 33.5618504,8.16545443 33.5549395,12.5531317 C33.5549395,22.0663169 28.4733979,30.3890302 20.8808459,34.9699272 L20.5442594,35.1695899 L28.536435,12.0622462 C30.0300191,8.33025314 30.5258794,5.34555578 30.5258794,2.69045584 C30.5258794,1.72858374 30.4621631,0.833421224 30.349644,0 Z" id="path-3"></path>
        <path d="M30.5,0 C47.2159686,0 60.8373307,13.5182923 61,30.1971037 L60.9983671,30.8505672 L60.9912223,31.2956639 C60.5716479,47.5815881 47.323825,60.7306322 31.003547,60.9961625 L30.6255465,60.9992606 L30.3739201,61 C13.7819287,60.9325112 0.273276761,47.548845 0.00409412354,31.0027583 L0,30.49913 C0,13.681795 13.6827345,0 30.5,0 Z M30.4999944,1.39899495 C14.453419,1.39899495 1.3984936,14.4534836 1.3984936,30.49913 C1.3984936,46.5462774 14.4539193,59.601757 30.4999944,59.601757 C46.5450689,59.601757 59.5999995,46.5462774 59.5999995,30.49913 C59.5999995,14.4534836 46.5455692,1.39899495 30.4999944,1.39899495 Z" id="path-5"></path>
    </defs>
    <g id="Page-1" stroke="none" stroke-width="1" fill="none" fill-rule="evenodd">
        <g id="wordpress">
            <g id="Group-3" transform="translate(4.335355, 4.335398)">
                <mask id="mask-2" fill="white">
                    <use xlink:href="#path-1"></use>
                </mask>
                <g id="Clip-2"></g>
                <polygon id="Fill-1" fill="#00749A" mask="url(#mask-2)" points="-0.609982083 50.3221845 44.4437281 50.3221845 44.4437281 -0.609993296 -0.609982083 -0.609993296"></polygon>
            </g>
            <g id="Group-6" transform="translate(23.108737, 17.945998)">
                <mask id="mask-4" fill="white">
                    <use xlink:href="#path-3"></use>
                </mask>
                <g id="Clip-5"></g>
                <polygon id="Fill-4" fill="#00749A" mask="url(#mask-4)" points="-0.609992297 39.3293514 34.1649337 39.3293514 34.1649337 -0.609995022 -0.609992297 -0.609995022"></polygon>
            </g>
            <g id="Group-9">
                <mask id="mask-6" fill="white">
                    <use xlink:href="#path-5"></use>
                </mask>
                <g id="Clip-8"></g>
                <polygon id="Fill-7" fill="#00749A" mask="url(#mask-6)" points="-0.609989882 61.610249 61.611467 61.610249 61.611467 -0.609993641 -0.609989882 -0.609993641"></polygon>
            </g>
        </g>
    </g>
</svg>