<?xml version="1.0" encoding="UTF-8"?>
<svg width="58px" height="58px" viewBox="0 0 58 58" version="1.1" xmlns="http://www.w3.org/2000/svg" xmlns:xlink="http://www.w3.org/1999/xlink">
    <title>wordpress-blue (1)</title>
    <defs>
        <polygon id="path-1" points="0 0 58 0 58 58 0 58"></polygon>
    </defs>
    <g id="Page-1" stroke="none" stroke-width="1" fill="none" fill-rule="evenodd">
        <g id="wordpress-blue-(1)">
            <mask id="mask-2" fill="white">
                <use xlink:href="#path-1"></use>
            </mask>
            <g id="a"></g>
            <g id="Group" mask="url(#mask-2)" fill="#00749A" fill-rule="nonzero">
                <g id="Shape">
                    <path d="M4.12222373,28.9992899 C4.12222373,38.8470246 9.84497478,47.3565127 18.1434028,51.3897146 L6.27613,18.8746276 C4.85351257,22.0602878 4.1195394,25.5104175 4.12222373,28.9992899 Z M45.7952041,27.7438848 C45.7952041,24.6692784 44.6907984,22.5400129 43.7435563,20.8827077 C42.4824603,18.8334435 41.3008929,17.0980306 41.3008929,15.0487664 C41.3008929,12.7618651 43.0348999,10.633073 45.4780366,10.633073 C45.5883352,10.633073 45.6929531,10.646801 45.8008847,10.652955 C41.3742675,6.59797752 35.4773184,4.12219746 29.0004734,4.12219746 C20.3091363,4.12219746 12.6625586,8.58144185 8.21416562,15.3356349 C8.79784855,15.35315 9.34839457,15.3649845 9.81515156,15.3649845 C12.4173455,15.3649845 16.4453731,15.0492397 16.4453731,15.0492397 C17.786471,14.9701852 17.9445814,16.9399215 16.605377,17.098504 C16.605377,17.098504 15.2571783,17.2570864 13.7574966,17.3356676 L22.8171267,44.282853 L28.2619938,27.9545391 L24.3854491,17.3351942 C23.0457714,17.256613 21.7766279,17.0980306 21.7766279,17.0980306 C20.4360033,17.0194494 20.5931669,14.9697118 21.9337915,15.0487664 C21.9337915,15.0487664 26.0422944,15.3645112 28.4868513,15.3645112 C31.0885718,15.3645112 35.1170729,15.0487664 35.1170729,15.0487664 C36.4591175,14.9697118 36.6167545,16.9394481 35.2766034,17.0980306 C35.2766034,17.0980306 33.9260378,17.256613 32.4291964,17.3351942 L41.4197124,44.0783526 L43.9007199,35.7861463 C44.9767225,32.3451434 45.7952041,29.8736237 45.7952041,27.7438848 L45.7952041,27.7438848 Z"></path>
                    <path d="M29.4369338,31.1754201 L21.972609,52.8647682 C24.2546444,53.5372937 26.6214015,53.8787493 29.0004734,53.8787493 C31.8975857,53.8787493 34.6758786,53.3774393 37.2619774,52.4685488 C37.1926064,52.3599602 37.1333429,52.245237 37.0849317,52.1258213 L29.4369338,31.1754201 Z M50.8301203,17.0634738 C50.9371052,17.8559128 50.9976984,18.7070509 50.9976984,19.6216221 C50.9976984,22.1461603 50.5262075,24.9840765 49.1060544,28.5325367 L41.5068151,50.5035463 C48.9029725,46.1905765 53.8778002,38.1776646 53.8778002,28.9992899 C53.8844036,24.8273766 52.8360289,20.7215199 50.8301203,17.0634738 L50.8301203,17.0634738 Z"></path>
                    <path d="M29.0004734,0 C13.0100227,0 0,13.0089697 0,28.9992899 C0,44.9915036 13.0095493,58.0004734 29.0004734,58.0004734 C44.9904507,58.0004734 58.0023669,44.991977 58.0023669,28.9992899 C58.0023669,13.0089697 44.9904507,0 29.0004734,0 Z M29.0004734,56.6707475 C13.7432951,56.6707475 1.3297367,44.2572905 1.3297367,28.9992899 C1.3297367,13.7427095 13.7428217,1.33019923 29.0004734,1.33019923 C44.2571783,1.33019923 56.6697899,13.7427095 56.6697899,28.9992899 C56.6697899,44.2572905 44.2567049,56.6707475 29.0004734,56.6707475 Z"></path>
                </g>
            </g>
        </g>
    </g>
</svg>