<?xml version="1.0" encoding="UTF-8"?>
<svg width="47px" height="46px" viewBox="0 0 47 46" version="1.1" xmlns="http://www.w3.org/2000/svg" xmlns:xlink="http://www.w3.org/1999/xlink">
    <title>adobe-xd</title>
    <g id="Page-1" stroke="none" stroke-width="1" fill="none" fill-rule="evenodd">
        <g id="adobe-xd" fill-rule="nonzero">
            <polygon id="Path" fill="#2E001E" points="1.95833333 1.96581197 45.0416667 1.96581197 45.0416667 44.034188 1.95833333 44.034188"></polygon>
            <path d="M0,0 L0,46 L47,46 L47,0 L0,0 Z M1.95833333,1.96581197 L45.0416667,1.96581197 L45.0416667,44.034188 L1.95833333,44.034188 L1.95833333,1.96581197 Z" id="Shape" fill="#FF2BC2"></path>
            <path d="M34.13375,19.3239316 C33.84,19.1863248 33.4679167,19.1273504 32.9979167,19.1273504 C30.5304167,19.1273504 28.8854167,21.034188 28.8854167,24.1991453 C28.8854167,27.8162393 30.5695833,29.2709402 32.7629167,29.2709402 C33.2329167,29.2709402 33.7420833,29.2119658 34.1141667,29.0547009 L34.1141667,19.3239316 L34.13375,19.3239316 Z M25.3604167,24.3564103 C25.3604167,19.7760684 28.2979167,16.1982906 33.1154167,16.1982906 C33.5266667,16.1982906 33.7420833,16.1982906 34.13375,16.2376068 L34.13375,11.1264957 C34.13375,11.008547 34.2316667,10.9299145 34.3295833,10.9299145 L37.4825,10.9299145 C37.6391667,10.9299145 37.6783333,10.9888889 37.6783333,11.0871795 L37.6783333,29.0547009 C37.6783333,29.5854701 37.6783333,30.2538462 37.77625,30.9811966 C37.77625,31.1188034 37.77625,31.1384615 37.65875,31.1974359 C36.01375,31.9837607 34.2904167,32.3376068 32.6454167,32.3376068 C28.3958333,32.3376068 25.3604167,29.7034188 25.3604167,24.3564103 L25.3604167,24.3564103 Z M18.6825,21.1717949 L24.1658333,31.8461538 C24.26375,32.0034188 24.205,32.1606838 24.0483333,32.1606838 L20.6408333,32.1606838 C20.4254167,32.1606838 20.3275,32.1017094 20.2295833,31.9051282 C18.97625,29.3102564 17.7033333,26.617094 16.39125,23.825641 L16.3520833,23.825641 C15.1770833,26.4598291 13.8845833,29.3299145 12.63125,31.9247863 C12.5333333,32.0820513 12.4354167,32.1410256 12.27875,32.1410256 L9.02791667,32.1410256 C8.83208333,32.1410256 8.8125,31.9837607 8.91041667,31.865812 L14.27625,21.5059829 L9.08666667,11.2051282 C8.96916667,11.0478632 9.08666667,10.9102564 9.22375,10.9102564 L12.5920833,10.9102564 C12.7879167,10.9102564 12.8858333,10.9495726 12.9445833,11.1264957 C14.1783333,13.7410256 15.4316667,16.3162393 16.6066667,18.9504274 L16.6458333,18.9504274 C17.7816667,16.3555556 19.035,13.7410256 20.2295833,11.165812 C20.3275,11.008547 20.38625,10.9102564 20.5820833,10.9102564 L23.735,10.9102564 C23.8916667,10.9102564 23.9504167,11.0282051 23.8525,11.2051282 L18.6825,21.1717949 L18.6825,21.1717949 Z" id="Shape" fill="#FF2BC2"></path>
        </g>
    </g>
</svg>