<?xml version="1.0" encoding="UTF-8"?>
<svg width="49px" height="47px" viewBox="0 0 49 47" version="1.1" xmlns="http://www.w3.org/2000/svg" xmlns:xlink="http://www.w3.org/1999/xlink">
    <title>xd</title>
    <defs>
        <path d="M40.3230802,0 C45.1211633,0 49,3.81591487 49,8.53616441 L49,38.4638394 C49,43.1840821 45.1211633,47 40.3230802,47 L8.67691985,47 C3.87884013,47 0,43.1840821 0,38.4638394 L0,8.53616441 C0,3.81591487 3.87884013,0 8.67691985,0 L40.3230802,0 Z" id="path-1"></path>
        <path d="M37.4850035,0 C41.5892415,0 44.8959305,3.27409034 44.8959305,7.29054761 L44.8959305,35.6717964 C44.915364,39.7075317 41.5872775,42.9816237 37.5046003,42.9816237 L7.41076023,42.9816237 C3.32808041,42.9816237 1.53689971e-15,39.7075317 1.53689971e-15,35.6910838 L1.53689971e-15,7.29054761 C1.53689971e-15,3.27409034 3.32808041,0 7.41076023,0 L37.4850035,0 Z" id="path-3"></path>
        <path d="M29.6256092,0.0192788315 C29.7882836,0.0192788315 29.8294497,0.0790559767 29.8294497,0.179322924 L29.8294497,18.6187465 C29.8294497,19.160571 29.8294497,19.8431608 29.9313614,20.5874429 C29.9313614,20.7089208 29.8902039,20.7474869 29.7686869,20.8091877 C28.0536835,21.6132554 26.2563652,21.9739927 24.5413619,21.9739927 C20.1098024,21.9911801 16.9444076,19.3013363 16.9463621,13.8368047 C16.9463621,9.15704492 20.1117664,5.50116563 25.1332868,5.50116563 C25.5625287,5.50116563 25.7859659,5.50116563 26.1956024,5.54166395 L26.1956024,0.219812726 C26.1956024,0.0983348082 26.2975227,0.0192788315 26.399443,0.0192788315 L29.6256092,0.0192788315 Z M15.5175237,0 C15.6802068,0 15.742925,0.121477918 15.6410047,0.281513498 L10.2274892,10.5627058 L15.9448016,21.3683675 C16.0467219,21.5284116 15.9859677,21.6903793 15.8213292,21.6903793 L12.2678415,21.6903793 C12.0424488,21.6903793 11.9405286,21.6306021 11.8386083,21.4300767 C10.531286,18.7787905 9.20436704,16.1275044 7.83628196,13.2756928 L7.79512451,13.2756928 C6.57012581,15.9674688 5.2216461,18.8000015 3.91628784,21.4512792 C3.81436756,21.6113233 3.71244728,21.6730241 3.54780883,21.6730241 L0.182484253,21.6730241 C-0.021356306,21.6730241 -0.0429170307,21.5129885 0.0609672475,21.3915106 L5.65480729,10.9059286 L0.245202429,0.300800841 C0.121721424,0.140756749 0.245202429,0.0192788315 0.366728086,0.0192788315 L3.87904108,0.0192788315 C4.08288164,0.0192788315 4.1652052,0.0597771451 4.24556475,0.241023696 C5.53132628,2.89230989 6.83864854,5.62457569 8.06364724,8.29514071 L8.10480469,8.29514071 C9.28864594,5.64385452 10.5959682,2.89230989 11.8621244,0.260311039 C11.9640446,0.100266947 12.0248075,0 12.2306034,0 L15.5175237,0 Z M25.0098058,8.49567461 C22.4363274,8.49567461 20.6409645,10.44316 20.6409645,13.6786842 C20.6409645,17.3750533 22.4794489,18.8617023 24.7863685,18.8617023 C25.2763646,18.8617023 25.8075267,18.8019251 26.1956024,18.6399574 L26.1956024,8.6962085 L26.1936471,8.6962085 C25.907483,8.57473058 25.4998018,8.49567461 25.0098058,8.49567461 Z" id="path-5"></path>
    </defs>
    <g id="Page-1" stroke="none" stroke-width="1" fill="none" fill-rule="evenodd">
        <g id="xd">
            <g id="Group-3">
                <mask id="mask-2" fill="white">
                    <use xlink:href="#path-1"></use>
                </mask>
                <g id="Clip-2"></g>
                <polygon id="Fill-1" fill="#FF26BE" mask="url(#mask-2)" points="-0.49 47.4820514 49.4900007 47.4820514 49.4900007 -0.482055734 -0.49 -0.482055734"></polygon>
            </g>
            <g id="Group-6" transform="translate(2.042320, 2.009186)">
                <mask id="mask-4" fill="white">
                    <use xlink:href="#path-3"></use>
                </mask>
                <g id="Clip-5"></g>
                <polygon id="Fill-4" fill="#2E001F" mask="url(#mask-4)" points="-0.489999481 43.4636754 45.3859363 43.4636754 45.3859363 -0.482050797 -0.489999481 -0.482050797"></polygon>
            </g>
            <g id="Group-9" transform="translate(9.147115, 11.430398)">
                <mask id="mask-6" fill="white">
                    <use xlink:href="#path-5"></use>
                </mask>
                <g id="Clip-8"></g>
                <polygon id="Fill-7" fill="#FFD9F2" mask="url(#mask-6)" points="-0.489999249 22.4560425 30.421366 22.4560425 30.421366 -0.482047393 -0.489999249 -0.482047393"></polygon>
            </g>
        </g>
    </g>
</svg>