<?xml version="1.0" encoding="UTF-8"?>
<svg width="61px" height="49px" viewBox="0 0 61 49" version="1.1" xmlns="http://www.w3.org/2000/svg" xmlns:xlink="http://www.w3.org/1999/xlink">
    <title>zeplin</title>
    <defs>
        <path d="M3.36086577,0 C4.4887573,3.13031329 7.25399265,5.37935174 11.0457335,6.65542131 L11.0457335,6.65542131 L0,10.7103107 L0.169816853,1.1716335 L3.36086577,0 Z" id="path-1"></path>
        <path d="M11.0736211,0 C8.97244789,3.44869054 8.27796653,6.97125537 9.40332557,10.0913785 L9.40332557,10.0913785 L6.21227665,11.2630207 L0,4.06507342 L11.0736211,0 Z" id="path-3"></path>
        <path d="M20.8376033,2.76917631 C34.9375172,-2.40640704 48.7054086,-0.116616645 51.5948328,7.88109289 L51.5948328,7.88109289 L0.535547065,26.6247812 C-2.35388575,18.627063 6.7376808,7.94476834 20.8376033,2.76917631 Z" id="path-5"></path>
        <path d="M51.0592944,0 C53.963929,8.04609976 44.857152,18.6800042 30.7572381,23.8555962 C16.6573243,29.0311848 2.90464331,26.7897872 0,18.7411365 L0,18.7411365 L51.0592944,0 Z" id="path-7"></path>
        <path d="M51.056755,0 C53.0312,5.47104577 43.113352,13.8533686 29.0134381,19.0289519 C22.0534572,21.5836343 15.377345,22.8800842 10.1611641,22.8800842 C4.81318483,22.8800842 0.998623911,21.5148637 0,18.7436883 L0,18.7436883 L51.056755,0 Z" id="path-9"></path>
        <path d="M41.1460489,0 C46.4965589,0 50.3085805,1.36266854 51.3097438,4.13385263 L51.3097438,4.13385263 L0.250458039,22.877541 C-1.72398786,17.4064952 8.19386102,9.02672427 22.2937749,3.85113224 C29.2537558,1.29644989 35.9323987,0 41.1460489,0 Z" id="path-11"></path>
        <path d="M1.99376821,0.000625039371 C3.1419404,0.000625039371 5.38251298,0.858976366 9.52149537,4.95462025 L9.61274108,5.04377109 L9.60006998,5.17112199 C9.57218839,5.46657574 9.5468462,5.76203816 9.52403478,6.05494871 L9.47841193,6.63312284 L9.07287644,6.22305155 C4.61199468,1.70714622 2.65022938,1.22065744 2.01150947,1.22065744 C1.82901807,1.22065744 1.68454859,1.25632298 1.58063179,1.33017991 C0.967262709,1.76318339 0.926710024,3.88231906 2.83272078,8.42878618 C4.60439375,12.656876 7.57240117,17.8553916 11.1892602,23.0666405 C14.80865,28.2804412 18.635882,32.8702122 21.9713943,35.9954304 C25.5654419,39.3651663 27.1850445,39.7293932 27.7147774,39.7293932 C27.8972688,39.7293932 28.0442691,39.6911879 28.1557954,39.612229 C28.8021163,39.1563089 28.8021163,36.8868937 26.6781316,31.9914805 L26.5792763,31.7673405 L26.7921887,31.6501711 C27.0050925,31.5330104 27.2129261,31.4183928 27.4055578,31.3063271 L27.661545,31.1611391 L27.7806723,31.4311262 C29.2862177,34.900197 30.6954559,39.3091309 28.8477391,40.6132173 C28.5207782,40.8373565 28.1304446,40.9519731 27.7325187,40.9417856 C26.229504,40.9417856 24.0142736,39.5791179 21.1451215,36.8894412 C17.7513066,33.7081832 13.8657806,29.0470985 10.1982286,23.7670791 C6.53321593,18.4870597 3.52212507,13.2095922 1.71750034,8.9025416 C-0.24680436,4.21088647 -0.528151031,1.32763671 0.883617937,0.329192449 C1.21057882,0.105052432 1.59837305,-0.00956511593 1.99376821,0.000625039371 Z" id="path-13"></path>
        <path d="M4.11814796,0 C5.3246141,0 7.14190992,1.37285869 9.00229782,7.76593124 L7.78823075,8.00026142 C7.16726074,5.86584051 6.49052755,4.12875755 5.81885589,2.93164866 C5.19788587,1.828777 4.59211772,1.2200324 4.11814796,1.2200324 C4.10293746,1.2200324 4.0877356,1.2200324 4.06999434,1.2225756 C3.32481823,1.28880293 2.24001879,3.1022947 1.63679004,8.00280462 C1.07410533,12.5569187 1.0665044,18.5577484 1.61650938,24.8947924 C2.16651435,31.2343797 3.20569958,37.1409722 4.54395547,41.5269782 C5.14212269,43.4907478 5.79858386,45.1106666 6.4449047,46.2084414 C7.03799312,47.2221648 7.61334892,47.7799665 8.06196786,47.7799665 C8.07717835,47.7799665 8.09238021,47.7799665 8.10759071,47.7774198 C8.81980642,47.716291 10.1631411,45.8263852 10.7283566,39.1811558 L11.9753754,38.7532474 L11.9550947,39.0181394 C11.5977215,43.449995 10.6599223,48.7784073 8.2115075,48.994906 C8.16081449,49 8.11012147,49 8.06196786,49 C6.39928185,49 4.82530214,46.6057802 3.38819098,41.8861108 C2.02457563,37.4185975 0.967657774,31.4228628 0.412582637,25.001763 C-0.145031901,18.5806719 -0.137422334,12.4906914 0.435394062,7.8525302 C1.05890347,2.79920268 2.24508895,0.160464566 3.96353814,0.00763827655 C4.01423116,0.0025431989 4.06745494,0 4.11814796,0 Z" id="path-15"></path>
    </defs>
    <g id="Page-1" stroke="none" stroke-width="1" fill="none" fill-rule="evenodd">
        <g id="zeplin">
            <g id="Group-3" transform="translate(6.042460, 33.786519)">
                <mask id="mask-2" fill="white">
                    <use xlink:href="#path-1"></use>
                </mask>
                <g id="Clip-2"></g>
                <polygon id="Fill-1" fill="#FDBD39" mask="url(#mask-2)" points="-1.2672943 11.9838318 12.3130356 11.9838318 12.3130356 -1.27352551 -1.2672943 -1.27352551"></polygon>
            </g>
            <g id="Group-6" transform="translate(0.000000, 23.697684)">
                <mask id="mask-4" fill="white">
                    <use xlink:href="#path-3"></use>
                </mask>
                <g id="Clip-5"></g>
                <polygon id="Fill-4" fill="#F69833" mask="url(#mask-4)" points="-1.2672943 12.5365384 12.3409085 12.5365384 12.3409085 -1.27352638 -1.2672943 -1.27352638"></polygon>
            </g>
            <g id="Group-9" transform="translate(8.867779, 7.161738)">
                <mask id="mask-6" fill="white">
                    <use xlink:href="#path-5"></use>
                </mask>
                <g id="Clip-8"></g>
                <polygon id="Fill-7" fill="#FECF33" mask="url(#mask-6)" points="-1.2672949 27.8982989 52.8621271 27.8982989 52.8621271 -1.27351175 -1.2672949 -1.27351175"></polygon>
            </g>
            <g id="Group-12" transform="translate(9.400786, 15.045382)">
                <mask id="mask-8" fill="white">
                    <use xlink:href="#path-7"></use>
                </mask>
                <g id="Clip-11"></g>
                <polygon id="Fill-10" fill="#EE6723" mask="url(#mask-8)" points="-1.26729085 27.9103432 52.8665103 27.9103432 52.8665103 -1.27352377 -1.26729085 -1.27352377"></polygon>
            </g>
            <g id="Group-15" transform="translate(9.403326, 15.042831)">
                <mask id="mask-10" fill="white">
                    <use xlink:href="#path-9"></use>
                </mask>
                <g id="Clip-14"></g>
                <polygon id="Fill-13" fill="#F69833" mask="url(#mask-10)" points="-1.26729603 24.1536019 52.5745172 24.1536019 52.5745172 -1.2735177 -1.26729603 -1.2735177"></polygon>
            </g>
            <g id="Group-18" transform="translate(9.152868, 10.908978)">
                <mask id="mask-12" fill="white">
                    <use xlink:href="#path-11"></use>
                </mask>
                <g id="Clip-17"></g>
                <polygon id="Fill-16" fill="#FDBD39" mask="url(#mask-12)" points="-1.26729552 24.1510587 52.5770398 24.1510587 52.5770398 -1.2735177 -1.26729552 -1.2735177"></polygon>
            </g>
            <g id="Group-21" transform="translate(19.745399, 4.061905)">
                <mask id="mask-14" fill="white">
                    <use xlink:href="#path-13"></use>
                </mask>
                <g id="Clip-20"></g>
                <polygon id="Fill-19" fill="#EE6723" mask="url(#mask-14)" points="-1.26729822 42.2159308 30.9944057 42.2159308 30.9944057 -1.2735341 -1.26729822 -1.2735341"></polygon>
            </g>
            <g id="Group-24" transform="translate(28.524820, 0.000000)">
                <mask id="mask-16" fill="white">
                    <use xlink:href="#path-15"></use>
                </mask>
                <g id="Clip-23"></g>
                <polygon id="Fill-22" fill="#EE6723" mask="url(#mask-16)" points="-1.26729184 50.2735209 13.2426749 50.2735209 13.2426749 -1.27351856 -1.26729184 -1.27351856"></polygon>
            </g>
        </g>
    </g>
</svg>