<?xml version="1.0" encoding="UTF-8"?>
<svg width="61px" height="49px" viewBox="0 0 61 49" version="1.1" xmlns="http://www.w3.org/2000/svg" xmlns:xlink="http://www.w3.org/1999/xlink">
    <title>zeplin (1)</title>
    <g id="Page-1" stroke="none" stroke-width="1" fill="none" fill-rule="evenodd">
        <g id="zeplin-(1)" fill-rule="nonzero">
            <path d="M9.40332414,33.7865163 L6.21227694,34.9581557 L6.0424595,44.4968292 L17.0881971,40.4419378 C13.2964524,39.1658696 10.5312161,36.9168313 9.40332414,33.7865163" id="Path" fill="#FDBD39"></path>
            <path d="M11.0736181,23.6976817 L0,27.7627612 L6.21227694,34.9607028 L9.40332414,33.7890633 C8.27796675,30.6689365 8.97244405,27.146377 11.0736181,23.6976817" id="Path" fill="#F69833"></path>
            <path d="M29.7053797,9.93091797 C15.6054627,15.106508 6.513893,25.7888034 9.40332414,33.7865163 L60.4626138,15.0428319 C57.5731827,7.04511904 43.8052968,4.755328 29.7053797,9.93091797" id="Path" fill="#FECF33"></path>
            <path d="M40.1580236,38.9009772 C54.2579406,33.7253873 63.3647179,23.0914856 60.4600792,15.0453789 L9.40078955,33.7865163 C12.3054282,41.83517 26.0581066,44.0765672 40.1580236,38.9009772" id="Path" fill="#EE6723"></path>
            <path d="M60.4600792,15.0428319 L9.40332414,33.7865163 C10.4019521,36.5576983 14.2165081,37.922913 19.5644903,37.922913 C24.7806739,37.922913 31.4567806,36.6264684 38.4167612,34.071785 C52.5166782,28.896195 62.4345238,20.5138788 60.4600792,15.0428319" id="Path" fill="#F69833"></path>
            <path d="M50.2989131,10.9089822 C45.0852641,10.9089822 38.4066228,12.2054268 31.4466422,14.7601102 C17.3467252,19.9357002 7.42887953,28.3154694 9.40332414,33.7865163 L60.4626138,15.0428319 C59.4614513,12.2716499 55.6494298,10.9089822 50.2989131,10.9089822" id="Path" fill="#FDBD39"></path>
            <g id="Group" transform="translate(19.745399, 0.000000)" fill="#EE6723">
                <path d="M27.7325164,45.0036906 C26.2295053,45.0036906 24.0142748,43.641023 21.1451203,40.9513463 C17.751306,37.7700904 13.8657815,33.109003 10.1982317,27.8289843 C6.53321638,22.5489656 3.52212499,17.2714939 1.71749782,12.9644454 C-0.24680843,8.27279343 -0.528147777,5.38954153 0.883618137,4.39110095 C1.21058008,4.16696122 1.59837216,4.05234432 1.99376799,4.06253249 C3.14193668,4.06253249 5.38251311,4.92088575 9.52149648,9.01652978 L9.61274167,9.10567627 L9.60006873,9.23302838 C9.57218826,9.52848529 9.54684237,9.8239422 9.52403107,10.1168521 L9.47840847,10.6950307 L9.07287428,10.2849569 C4.61199814,5.76905084 2.65022647,5.28256576 2.01151012,5.28256576 C1.82901973,5.28256576 1.68454817,5.31822435 1.58063003,5.39208857 C0.967259565,5.82508577 0.926706146,7.94422497 2.83271686,12.4906955 C4.60439437,16.7187857 7.57239776,21.9172991 11.1892559,27.1285477 C14.8086485,32.3423433 18.6358775,36.9321135 21.9713963,40.0573344 C25.5654431,43.4270714 27.1850452,43.7912985 27.7147743,43.7912985 C27.8972647,43.7912985 28.0442708,43.7530928 28.1557927,43.6741345 C28.8021128,43.218214 28.8021128,40.9487993 26.6781275,36.0533839 L26.5792785,35.8292442 L26.792184,35.7120803 C27.0050894,35.5949163 27.2129257,35.4802994 27.4055545,35.3682295 L27.6615479,35.2230481 L27.7806736,35.4930346 C29.2862193,38.9621062 30.6954506,43.3710365 28.8477354,44.6751222 C28.5207735,44.8992619 28.1304468,45.0138788 27.7325164,45.0036906 Z M27.7808435,44.4688117 L27.7808435,44.7362512 L27.7808435,44.4688117 Z" id="Shape"></path>
                <path d="M20.7547937,38.7532488 L20.734517,39.0181412 C20.37714,43.4499948 19.4393421,48.7784073 16.9909294,48.9949059 C16.9402377,49 16.8895459,49 16.8413887,49 C15.1786985,49 13.6047189,46.6057802 12.1676071,41.8861108 C10.8039984,37.4185986 9.74707488,31.422861 9.19199995,25.0017673 C8.63439043,18.5806737 8.6419942,12.4906955 9.21481125,7.85253145 C9.83832007,2.7991995 11.0245076,0.160463666 12.7429587,0.00764112694 C12.7936505,0.00254704231 12.8468769,-1.15797797e-15 12.8975687,-1.15797797e-15 C14.1040329,-1.15797797e-15 15.921333,1.37285581 17.7817211,7.76593201 L16.5676531,8.0002599 C15.9466789,5.86583844 15.2699437,4.12875559 14.5982777,2.9316457 C13.9773034,1.82877638 13.3715367,1.22003327 12.8975687,1.22003327 C12.8823611,1.22003327 12.8671536,1.22003327 12.8494115,1.22258031 C12.1042424,1.28880341 11.0194384,3.10229754 10.4162063,8.00280694 C9.8535276,12.5569186 9.84592384,18.5577503 10.3959296,24.8947916 C10.9459353,31.2343799 11.9851167,37.140971 13.3233796,41.5269779 C13.9215425,43.4907475 14.578001,45.1106664 15.2243211,46.2084416 C15.8174149,47.2221645 16.3927665,47.7799667 16.8413887,47.7799667 C16.8565962,47.7799667 16.8718038,47.7799667 16.8870113,47.7774197 C17.5992307,47.7162907 18.9425627,45.8263853 19.507776,39.1811519 L20.7547937,38.7532488 Z" id="Path"></path>
            </g>
        </g>
    </g>
</svg>