<?xml version="1.0" encoding="UTF-8"?>
<svg width="103px" height="72px" viewBox="0 0 103 72" version="1.1" xmlns="http://www.w3.org/2000/svg" xmlns:xlink="http://www.w3.org/1999/xlink">
    <title>Group 16</title>
    <defs>
        <path d="M0.547453698,0.0105829385 L62.9136067,13.7688429 C63.2106967,13.8343829 63.4546367,14.0454429 63.5621967,14.3300329 L72.1783667,37.1264129 L61.1663367,46.0882229 L14.9341567,17.9821129 L0.108929698,0.744112938 C-0.053272302,0.555522938 -0.031873302,0.271132938 0.156728698,0.108922938 C0.264229698,0.0164729385 0.408991698,-0.0199670615 0.547453698,0.0105829385 Z" id="path-1"></path>
        <path d="M0.505688679,0.00340739168 L59.5044487,7.29827739 C59.7979287,7.33456739 60.0549287,7.51259739 60.1920487,7.77461739 L68.6264187,23.8916974 C68.8357187,24.2916474 69.3087087,24.4749274 69.7328387,24.3204574 L84.2129787,19.0467774 C84.4388987,18.9644974 84.6883287,18.9759474 84.9057687,19.0785674 L100.237239,26.3149974 C100.462139,26.4211774 100.558439,26.6896174 100.452339,26.9145674 C100.390239,27.0460174 100.268539,27.1394374 100.125639,27.1654574 L81.8529587,30.4898874 C81.7799187,30.5031674 81.7113087,30.5342974 81.6532187,30.5804974 L50.8152987,55.1060704 C50.6305987,55.2529624 50.3638387,55.2323914 50.2038487,55.0589204 L0.119324979,0.755787392 C-0.0493269205,0.572927392 -0.0378111205,0.287977392 0.145046379,0.119317392 C0.242378379,0.0295573917 0.374279679,-0.0128426083 0.505688679,0.00340739168 Z" id="path-3"></path>
    </defs>
    <g id="Page-1" stroke="none" stroke-width="1" fill="none" fill-rule="evenodd">
        <g id="Desktop-HD" transform="translate(-363.000000, -3148.000000)">
            <g id="Group-16" transform="translate(364.000000, 3149.000000)">
                <g id="Group-3" transform="translate(1.617522, 0.000000)">
                    <mask id="mask-2" fill="white">
                        <use xlink:href="#path-1"></use>
                    </mask>
                    <g id="Clip-2"></g>
                    <polygon id="Fill-1" fill="#C6D3FF" mask="url(#mask-2)" points="-4.3902443 50.4784629 76.5686157 50.4784629 76.5686157 -4.39024706 -4.3902443 -4.39024706"></polygon>
                </g>
                <path d="M16.5516739,17.9821104 L1.72645215,0.744118522 C1.56424888,0.555517152 1.58564886,0.271133917 1.77425049,0.10893082 C1.88175176,0.0164757061 2.02651391,-0.0199614752 2.16497606,0.010583823 L64.5311316,13.7688459 C64.8282282,13.8343835 65.0721589,14.0454489 65.1797199,14.3300333 L73.7958986,37.1264191 L73.7958986,37.1264191 L62.7838584,46.0882242 L16.5516739,17.9821104 Z" id="Stroke-4" stroke="#C6D3FF" stroke-width="1.538919"></path>
                <g id="Group-8" transform="translate(0.000000, 14.280086)">
                    <mask id="mask-4" fill="white">
                        <use xlink:href="#path-3"></use>
                    </mask>
                    <g id="Clip-7"></g>
                    <polygon id="Fill-6" fill="#2E5BFF" mask="url(#mask-4)" points="-4.39024432 59.5942154 104.885656 59.5942154 104.885656 -4.39024461 -4.39024432 -4.39024461"></polygon>
                </g>
                <g id="Group-15" transform="translate(0.000000, 14.280082)" stroke-width="1.538919">
                    <path d="M0.505688573,0.00340681353 L59.5044444,7.29827707 C59.7979322,7.33456683 60.0549283,7.51259649 60.1920444,7.77461591 L68.6264232,23.891703 C68.8357237,24.2916455 69.308711,24.4749294 69.7328437,24.320463 L84.2129747,19.046779 C84.4388967,18.964497 84.6883328,18.9759468 84.905764,19.0785731 L100.23719,26.3149948 C100.462146,26.4211772 100.558468,26.6896143 100.452312,26.9145704 C100.390234,27.0460143 100.268536,27.1394387 100.12559,27.1654553 L81.8529552,30.4898885 C81.7799191,30.5031734 81.7113083,30.5343002 81.6532166,30.5805032 L50.8152998,55.1060744 C50.6306023,55.2529632 50.3638423,55.2323905 50.2038442,55.0589232 L0.119324974,0.755789708 C-0.0493269515,0.572932182 -0.0378110781,0.287977513 0.14504636,0.119325587 C0.242378421,0.0295551068 0.37427979,-0.0128411283 0.505688573,0.00340681353 Z" id="Stroke-9" stroke="#2E5BFF"></path>
                    <polyline id="Stroke-11" stroke="#FFFFFF" points="18.2415487 21.7019486 45.5769376 18.3359459 43.3428214 16.371871"></polyline>
                    <polyline id="Stroke-13" stroke="#FFFFFF" points="31.3035987 36.1152399 58.0106383 30.1426545 55.7670305 28.336991"></polyline>
                </g>
            </g>
        </g>
    </g>
</svg>