<?xml version="1.0" encoding="UTF-8"?>
<svg width="1205px" height="699px" viewBox="0 0 1205 699" version="1.1" xmlns="http://www.w3.org/2000/svg" xmlns:xlink="http://www.w3.org/1999/xlink">
    <title>Group</title>
    <g id="Page-1" stroke="none" stroke-width="1" fill="none" fill-rule="evenodd">
        <g id="Desktop-HD" transform="translate(-118.000000, -1122.000000)">
            <g id="Group" transform="translate(118.000000, 1122.000000)">
                <path d="M252.841406,221.500568 C252.841406,466.87992 451.320411,665.799187 696.156671,665.799187 C940.992931,665.799187 1139.47194,466.87992 1139.47194,221.500568" id="Path" stroke="#FFFFFF" stroke-width="4.212"></path>
                <ellipse id="Oval" stroke="#FFFFFF" stroke-width="4.212" cx="445.000874" cy="220.23476" rx="191.739078" ry="191.984565"></ellipse>
                <ellipse id="Oval" stroke="#FFFFFF" stroke-width="1.6848" opacity="0.300497" cx="445.000874" cy="220.23476" rx="186.26024" ry="186.497188"></ellipse>
                <ellipse id="Oval" stroke="#FFFFFF" stroke-width="1.6848" opacity="0.300497" cx="445.422277" cy="220.656696" rx="181.624815" ry="181.855892"></ellipse>
                <ellipse id="Oval" stroke="#FFFFFF" stroke-width="4.212" cx="784.651163" cy="220.23476" rx="147.070429" ry="147.259348"></ellipse>
                <ellipse id="Oval" stroke="#FFFFFF" stroke-width="1.667952" opacity="0.302758" cx="785.072565" cy="220.656696" rx="141.178614" ry="141.358459"></ellipse>
                <ellipse id="Oval" stroke="#FFFFFF" stroke-width="1.6848" opacity="0.302758" cx="785.072565" cy="220.656696" rx="136.113361" ry="136.286803"></ellipse>
                <ellipse id="Oval" stroke="#FFFFFF" stroke-width="1.6848" opacity="0.302758" cx="784.651163" cy="220.23476" rx="131.477936" ry="131.645507"></ellipse>
                <ellipse id="Oval" stroke="#FFFFFF" stroke-width="1.6848" opacity="0.302758" cx="784.651163" cy="220.23476" rx="127.263912" ry="127.426147"></ellipse>
                <ellipse id="Oval" stroke="#FFFFFF" stroke-width="1.6848" opacity="0.302758" cx="784.651163" cy="220.23476" rx="123.049889" ry="123.206787"></ellipse>
                <ellipse id="Oval" stroke="#FFFFFF" stroke-width="4.212" cx="1034.96415" cy="220.23476" rx="102.401781" ry="102.534131"></ellipse>
                <ellipse id="Oval" stroke="#FFFFFF" stroke-width="1.6848" opacity="0.297592" cx="1034.96415" cy="220.23476" rx="96.9229436" ry="97.0467543"></ellipse>
                <ellipse id="Oval" stroke="#FFFFFF" stroke-width="1.6848" opacity="0.297592" cx="1034.96415" cy="220.23476" rx="93.5517248" ry="93.6712663"></ellipse>
                <ellipse id="Oval" stroke="#FFFFFF" stroke-width="1.6848" opacity="0.297592" cx="1035.38556" cy="219.812824" rx="89.7591038" ry="89.8738422"></ellipse>
                <ellipse id="Oval" stroke="#FFFFFF" stroke-width="1.6848" opacity="0.297592" cx="1034.96415" cy="219.390888" rx="85.9664827" ry="86.0764181"></ellipse>
                <path d="M58.996328,414.325325 C166.054008,414.325325 252.841406,327.428019 252.841406,220.23476" id="Path" stroke="#FFFFFF" stroke-width="4.212"></path>
                <ellipse id="Oval" stroke="#000000" stroke-width="10.1088" fill="#FFFFFF" cx="202.273125" cy="351.878795" rx="11.7968375" ry="11.8053762"></ellipse>
                <ellipse id="Oval" stroke="#000000" stroke-width="10.1088" fill="#FFFFFF" cx="50.5682812" cy="414.325325" rx="11.7968375" ry="11.8053762"></ellipse>
                <ellipse id="Oval" stroke="#000000" stroke-width="10.1088" fill="#FFFFFF" cx="279.811156" cy="122.345606" rx="11.7968375" ry="11.8053762"></ellipse>
                <ellipse id="Oval" stroke="#000000" stroke-width="10.1088" fill="#FFFFFF" cx="387.690156" cy="36.2706597" rx="11.7968375" ry="11.8053762"></ellipse>
                <ellipse id="Oval" stroke="#000000" stroke-width="10.1088" fill="#FFFFFF" cx="548.665851" cy="58.2113322" rx="11.7968375" ry="11.8053762"></ellipse>
                <ellipse id="Oval" stroke="#000000" stroke-width="10.1088" fill="#FFFFFF" cx="778.75153" cy="72.5571566" rx="11.7968375" ry="11.8053762"></ellipse>
                <ellipse id="Oval" stroke="#000000" stroke-width="10.1088" fill="#FFFFFF" cx="1034.96415" cy="117.282374" rx="11.7968375" ry="11.8053762"></ellipse>
                <ellipse id="Oval" stroke="#000000" stroke-width="10.1088" fill="#FFFFFF" cx="1136.94352" cy="221.922504" rx="11.7968375" ry="11.8053762"></ellipse>
                <ellipse id="Oval" stroke="#000000" stroke-width="10.1088" fill="#FFFFFF" cx="1015.57965" cy="319.811658" rx="11.7968375" ry="11.8053762"></ellipse>
                <ellipse id="Oval" stroke="#000000" stroke-width="10.1088" fill="#FFFFFF" cx="702.056304" cy="665.799187" rx="11.7968375" ry="11.8053762"></ellipse>
                <ellipse id="Oval" stroke="#000000" stroke-width="10.1088" fill="#FFFFFF" cx="865.560413" cy="342.596203" rx="11.7968375" ry="11.8053762"></ellipse>
                <ellipse id="Oval" stroke="#000000" stroke-width="10.1088" fill="#FFFFFF" cx="702.056304" cy="342.596203" rx="11.7968375" ry="11.8053762"></ellipse>
                <ellipse id="Oval" stroke="#000000" stroke-width="10.1088" fill="#FFFFFF" cx="545.294632" cy="383.945932" rx="11.7968375" ry="11.8053762"></ellipse>
                <ellipse id="Oval" stroke="#000000" stroke-width="10.1088" fill="#FFFFFF" cx="384.318937" cy="402.511116" rx="11.7968375" ry="11.8053762"></ellipse>
                <text id="Ideate" font-family="Avenir-Heavy, Avenir" font-size="23.5872" font-weight="600" fill="#FFFFFF">
                    <tspan x="409.832359" y="228.229538">Ideate</tspan>
                </text>
                <text id="Discover" font-family="Avenir-Heavy, Avenir" font-size="23.5872" font-weight="600" fill="#FFFFFF">
                    <tspan x="26.5560492" y="228.22693">Discover</tspan>
                </text>
                <text id="Brief" font-family="Avenir-Book, Avenir" font-size="13.4784" font-weight="normal" fill="#FFFFFF">
                    <tspan x="0.485362864" y="418.900082">Brief</tspan>
                </text>
                <text id="Product-Research" font-family="Avenir-Book, Avenir" font-size="13.4784" font-weight="normal" fill="#FFFFFF">
                    <tspan x="77.4063341" y="342.107728">Product Research</tspan>
                </text>
                <text id="Conceptualise" font-family="Avenir-Book, Avenir" font-size="13.4784" font-weight="normal" fill="#FFFFFF">
                    <tspan x="170.083441" y="116.793898">Conceptualise</tspan>
                </text>
                <text id="User-Personas" font-family="Avenir-Book, Avenir" font-size="13.4784" font-weight="normal" fill="#FFFFFF">
                    <tspan x="321.693531" y="12.9976399">User Personas</tspan>
                </text>
                <text id="User-Flows" font-family="Avenir-Book, Avenir" font-size="13.4784" font-weight="normal" fill="#FFFFFF">
                    <tspan x="528.647972" y="420.587826">User Flows</tspan>
                </text>
                <text id="UI-Design" font-family="Avenir-Book, Avenir" font-size="13.4784" font-weight="normal" fill="#FFFFFF">
                    <tspan x="749.171395" y="50.9718808">UI Design</tspan>
                </text>
                <text id="Development" font-family="Avenir-Book, Avenir" font-size="13.4784" font-weight="normal" fill="#FFFFFF">
                    <tspan x="848.007603" y="373.330992">Development</tspan>
                </text>
                <text id="Research" font-family="Avenir-Book, Avenir" font-size="13.4784" font-weight="normal" fill="#FFFFFF">
                    <tspan x="675.718129" y="694.00236">Research</tspan>
                </text>
                <text id="Launch" font-family="Avenir-Book, Avenir" font-size="13.4784" font-weight="normal" fill="#FFFFFF">
                    <tspan x="1013.39693" y="94.8532258">Launch</tspan>
                </text>
                <text id="Fix" font-family="Avenir-Book, Avenir" font-size="13.4784" font-weight="normal" fill="#FFFFFF">
                    <tspan x="1003.38503" y="345.483216">Fix</tspan>
                </text>
                <text id="Testing" font-family="Avenir-Book, Avenir" font-size="13.4784" font-weight="normal" fill="#FFFFFF">
                    <tspan x="661.003482" y="369.111632">Testing</tspan>
                </text>
                <text id="Wireframes" font-family="Avenir-Book, Avenir" font-size="13.4784" font-weight="normal" fill="#FFFFFF">
                    <tspan x="350.857428" y="432.402034">Wireframes</tspan>
                </text>
                <text id="Style-Guide" font-family="Avenir-Book, Avenir" font-size="13.4784" font-weight="normal" fill="#FFFFFF">
                    <tspan x="541.324952" y="34.0944404">Style Guide</tspan>
                </text>
                <text id="Build" font-family="Avenir-Heavy, Avenir" font-size="23.5872" font-weight="600" fill="#FFFFFF">
                    <tspan x="756.887445" y="228.22693">Build</tspan>
                </text>
                <text id="Improve" font-family="Avenir-Heavy, Avenir" font-size="23.5872" font-weight="600" fill="#FFFFFF">
                    <tspan x="656.838058" y="563.244122">Improve</tspan>
                </text>
                <text id="Maintain" font-family="Avenir-Heavy, Avenir" font-size="23.5872" font-weight="600" fill="#FFFFFF">
                    <tspan x="986.906818" y="228.22693">Maintain</tspan>
                </text>
                <polygon id="Path" fill="#FFFFFF" fill-rule="nonzero" transform="translate(151.493546, 391.118618) rotate(150.000000) translate(-151.493546, -391.118618) " points="150.111794 391.12114 156.546852 397.351195 154.706685 399.132868 146.433409 391.123156 154.715466 383.104369 156.553683 384.884025"></polygon>
                <polygon id="Path" fill="#FFFFFF" fill-rule="nonzero" transform="translate(259.373923, 170.023239) rotate(108.000000) translate(-259.373923, -170.023239) " points="257.991576 170.024951 264.433067 176.250978 262.591689 178.030852 254.310144 170.026319 262.597649 162.015627 264.437703 163.794132"></polygon>
                <polygon id="Path" fill="#FFFFFF" fill-rule="nonzero" transform="translate(658.863144, 143.864259) rotate(123.000000) translate(-658.863144, -143.864259) " points="657.480506 143.866919 663.919072 150.093205 662.077795 151.873911 653.80001 143.869046 662.087059 135.854607 663.926277 137.633186"></polygon>
                <polygon id="Path" fill="#FFFFFF" fill-rule="nonzero" transform="translate(603.237920, 111.791941) rotate(234.000000) translate(-603.237920, -111.791941) " points="601.855293 111.789173 608.300815 118.023443 606.461752 119.802089 598.175025 111.786958 606.452108 103.781794 608.293314 105.562654"></polygon>
                <polygon id="Path" fill="#FFFFFF" fill-rule="nonzero" transform="translate(912.547420, 147.234804) rotate(239.000000) translate(-912.547420, -147.234804) " points="911.164787 147.232233 917.610694 153.465593 915.771367 155.244138 907.484145 147.230177 915.762415 139.225469 917.60373 141.00607"></polygon>
                <polygon id="Path" fill="#FFFFFF" fill-rule="nonzero" transform="translate(1114.820322, 155.673250) rotate(233.000000) translate(-1114.820322, -155.673250) " points="1113.4377 155.670452 1119.88313 161.904895 1118.04412 163.683567 1109.75751 155.668213 1118.03437 147.662933 1119.87555 149.443843"></polygon>
                <polygon id="Path" fill="#FFFFFF" fill-rule="nonzero" transform="translate(468.389118, 410.524745) rotate(-7.000000) translate(-468.389118, -410.524745) " points="467.009007 410.52545 473.44461 416.759903 471.605693 418.541379 463.331717 410.526013 471.608146 402.508112 473.446518 404.289024"></polygon>
                <polygon id="Path" fill="#FFFFFF" fill-rule="nonzero" transform="translate(1007.783558, 536.259399) rotate(-47.000000) translate(-1007.783558, -536.259399) " points="1006.40105 536.262303 1012.83791 542.489576 1010.99693 544.27076 1002.72134 536.264626 1011.00705 528.248038 1012.84578 530.026899"></polygon>
                <polygon id="Path" fill="#FFFFFF" fill-rule="nonzero" transform="translate(780.226506, 367.487892) rotate(1.000000) translate(-780.226506, -367.487892) " points="778.846829 367.48779 785.283405 373.723487 783.444833 375.504673 775.169607 367.487709 783.444479 359.471111 785.283129 361.252379"></polygon>
                <polygon id="Path" fill="#FFFFFF" fill-rule="nonzero" transform="translate(955.529478, 284.791115) rotate(51.000000) translate(-955.529478, -284.791115) " points="954.146886 284.788267 960.592102 291.023047 958.753187 292.801775 950.466853 284.78599 958.743269 276.780455 960.584388 278.56146"></polygon>
                <polygon id="Path" fill="#FFFFFF" fill-rule="nonzero" transform="translate(417.820524, 567.488307) rotate(42.000000) translate(-417.820524, -567.488307) " points="416.438173 567.485411 422.882181 573.72149 421.043648 575.500551 412.758868 567.483096 421.033564 559.476062 422.874337 561.257439"></polygon>
                <text id="Analyse" font-family="Avenir-Book, Avenir" font-size="13.4784" font-weight="normal" fill="#FFFFFF">
                    <tspan x="1158.05014" y="225.653389">Analyse</tspan>
                </text>
            </g>
        </g>
    </g>
</svg>