<?xml version="1.0" encoding="UTF-8"?>
<svg width="92px" height="83px" viewBox="0 0 92 83" version="1.1" xmlns="http://www.w3.org/2000/svg" xmlns:xlink="http://www.w3.org/1999/xlink">
    <title>Breadcrumbs_logo</title>
    <defs>
        <path d="M40.1826313,5.29197891 C42.9487813,5.17821891 45.7294313,5.50040891 48.3924913,6.25779891 C48.4520513,6.27459891 48.5116113,6.29138891 48.5711513,6.30894891 C48.9658813,6.49523891 49.3674713,6.68228891 49.7782413,6.87088891 C53.9247813,9.86072891 57.4719813,17.5315589 58.0926913,24.8473689 C58.1362113,25.3680789 58.4897213,25.8109089 58.9875113,25.9697089 C59.4853113,26.1285089 60.0296913,25.9719889 60.3679113,25.5734489 C62.0025513,23.6402889 63.4577713,21.8017789 64.7473113,20.0571989 C65.4062213,21.4299589 65.9437213,22.8599889 66.3506613,24.3266689 C66.7782113,25.8681589 67.0622413,27.4501289 67.1989013,29.0442989 C67.3951213,31.3286789 67.2920513,33.6397789 66.8881513,35.8966589 C66.7751713,36.5273189 66.6385013,37.1533889 66.4796913,37.7733389 C64.9633913,35.5431689 62.4194213,34.2795889 59.8319413,34.6911089 C56.1457913,35.2774789 53.5972413,39.0720389 54.2584313,43.2330889 C54.4607513,44.5035389 54.9387013,45.6518389 55.6082813,46.6153789 L55.6082813,46.6153789 L57.7422513,51.4353189 C56.2313013,52.6721789 54.5821413,53.7402989 52.8329813,54.6091689 C50.6135013,55.7131689 48.2367513,56.4949989 45.7958513,56.9233189 C43.2129413,57.3768289 40.5605613,57.4379089 37.9593413,57.1065589 C35.2512313,56.7622189 32.6018913,55.9872689 30.1358013,54.8160689 C28.3820613,53.9838589 26.7222113,52.9531489 25.1959913,51.7521689 C28.7050113,50.1129389 31.6055313,48.2057289 33.1416813,46.2404989 C34.1563613,44.9417889 34.6312613,43.5949889 34.5190313,42.2695489 C34.4083313,40.9555889 33.7242313,39.6095489 32.2048713,38.3345089 C31.6582113,37.8764189 30.8420413,37.9474089 30.3831813,38.4940689 C29.9243113,39.0407289 29.9960813,39.8569089 30.5427413,40.3157789 C31.4024413,41.0372789 31.8796313,41.7427489 31.9430013,42.4863989 C32.0040813,43.2178289 31.6643313,43.9316889 31.1046813,44.6478489 C28.8554313,47.5262289 23.3124513,50.1289789 17.5022513,51.9346489 C13.9291013,53.0455189 10.2437113,53.8365089 7.09734429,54.1579389 C4.85114229,54.3869789 2.89430529,54.3831689 1.48794829,54.0510489 C1.04359429,53.9464489 0.664136593,53.8128389 0.372482293,53.6265489 C0.166339093,53.4952189 0.0113485931,53.3432889 0.00142399314,53.1180589 C-0.0107929069,52.8225789 0.115184993,52.4897089 0.328199293,52.0949789 C0.635887993,51.5261689 1.12376129,50.8886589 1.80021729,50.1671589 C4.06092529,47.7575589 9.14274829,44.3691789 15.9752713,40.2294989 C16.5853013,39.8599689 16.7807513,39.0644089 16.4112113,38.4536089 C16.3364013,38.3314589 16.2455413,38.2260889 16.1417113,38.1382889 L16.1417113,38.1382889 L16.1569813,38.1275989 C16.1264413,38.0161189 16.0966613,37.9046689 16.0684113,37.7931889 C15.2323813,34.5468089 15.0346313,31.1400889 15.4789913,27.8173689 C15.7034613,26.1369089 16.0936113,24.4785989 16.6425513,22.8744989 C17.2228213,21.1787689 17.9794413,19.5448989 18.8963913,18.0049189 C20.5241613,15.2723789 22.6535513,12.8437089 25.1478913,10.8715989 C27.4551713,9.04684891 30.0701513,7.61605891 32.8530813,6.66320891 C35.2145813,5.85542891 37.6905913,5.39504891 40.1826313,5.29197891 Z M48.2527713,27.2768189 C46.0363513,27.2768189 44.2367913,29.0763689 44.2367913,31.2927889 C44.2367913,33.5092189 46.0363513,35.3087689 48.2527713,35.3087689 C50.4692113,35.3087689 52.2687613,33.5092189 52.2687613,31.2927889 C52.2687613,29.0763689 50.4692113,27.2768189 48.2527713,27.2768189 Z M14.3413813,21.6223689 C13.8130513,23.0920989 13.4053413,24.6061089 13.1259113,26.1430189 C13.0495513,26.5629389 12.9823613,26.9836289 12.9251013,27.4058389 C10.4819213,27.8807389 8.33191729,27.8708089 6.65299129,27.5302989 C5.75359429,27.3478089 5.00384229,27.0744789 4.44725429,26.7194589 C4.08001329,26.4858289 3.79904829,26.2399789 3.70513729,25.9361189 C3.64100429,25.7292089 3.72193429,25.5161889 3.87463329,25.2909689 C4.07466929,24.9970089 4.38388429,24.7114689 4.79540829,24.4236289 C6.10632829,23.5066789 8.30824929,22.6759889 11.5637913,22.0430489 C12.3753813,21.8857789 13.3244113,21.7414689 14.3413813,21.6223689 Z M3.91128029,3.58784891 C6.74919229,3.40538891 10.5094013,4.99420891 14.3925413,9.13693891 C15.0438013,9.83171891 16.8395513,11.6725089 18.6383313,13.8003689 C18.2252813,14.3348089 17.8305513,14.8829989 17.4556713,15.4449289 C16.7166213,16.5527589 16.0554313,17.7117389 15.4774613,18.9111889 C14.8162813,18.9699889 14.1680713,19.0394589 13.5473613,19.1173389 C13.2137013,18.9883089 12.8709013,18.8539389 12.5181613,18.7134589 C5.71389329,15.9954089 2.01475929,12.7215389 0.612219793,9.74390891 C-0.165017907,8.09399891 -0.187159427,6.58379891 0.460284193,5.45841891 C1.09245729,4.36050891 2.33466429,3.68863891 3.91128029,3.58784891 Z M16.5791813,0.401788906 C17.1770013,0.0131789065 17.9626513,-0.0700410935 18.8261513,0.0521089065 C19.8744313,0.200228906 21.0204413,0.658328906 22.1549913,1.38058891 C23.9171413,2.50139891 25.6342313,4.24903891 26.9253113,6.54105891 C25.6472213,7.28393891 24.4263813,8.12606891 23.2773313,9.05676891 C22.2305713,9.90576891 21.2433813,10.8288389 20.3249013,11.8152689 C18.7505713,9.97066891 17.2396213,8.38565891 16.4929213,7.59542891 C15.8775313,5.98750891 15.5637413,4.61551891 15.5019013,3.46569891 C15.4209613,1.95549891 15.7813313,0.920958906 16.5791813,0.401788906 Z" id="path-1"></path>
        <path d="M3.49834451,0.0463633968 C5.78196451,-0.316306603 7.90904451,1.4901334 8.43509451,4.0150034 C8.45800451,4.1211334 8.49312451,4.2234334 8.53970451,4.3188834 L8.53970451,4.3188834 L13.4474545,18.2335634 L2.66155451,9.4732234 L2.36990451,9.2815934 C1.86523451,8.9609334 1.41628451,8.5326134 1.04752451,8.0225934 C1.03912451,8.0103734 1.02995451,7.9989134 1.02080451,7.9867034 C0.548194508,7.3201734 0.213794508,6.5169834 0.0725445081,5.6290334 C-0.352715492,2.9568034 1.13074451,0.422763397 3.49834451,0.0463633968 Z" id="path-3"></path>
        <path d="M18.9528293,0.67208364 C19.3971893,0.0666336399 20.1660193,-0.0845363601 20.9982393,0.0406736399 C24.5965893,0.58122364 29.0103493,5.79437364 26.5541893,14.2409136 C26.3724793,14.8654536 26.6824593,15.5274036 27.2787393,15.7869936 C27.8750293,16.0465836 28.5713393,15.8236436 28.9049893,15.2655236 C29.9066993,13.5896536 31.0320793,12.3176736 32.1628193,11.4610436 C34.2005893,9.91800364 36.2536193,9.74012364 36.9636793,11.6297636 C37.4713993,12.9803836 37.3645093,15.0250336 36.4910693,17.7728436 C35.1725093,21.9155636 32.1116593,27.4738136 26.4923393,34.4636036 C25.1814293,27.2890536 21.4807593,20.3901036 17.4044693,17.5208936 C17.3395693,17.4758536 17.2708593,17.4361436 17.1990893,17.4033136 C8.61281935,13.4705536 3.74324935,10.1844636 1.44054935,7.52521364 C0.269349347,6.17230364 -0.203260653,5.10723364 0.079989347,4.21775364 C0.270869347,3.61688364 0.803799347,3.17863364 1.49170935,2.82361364 C2.39644935,2.35711364 3.56305935,2.06776364 4.85031935,1.93643364 C8.85713935,1.52872364 14.0443193,2.63578364 16.5714893,5.59816364 C16.9631593,6.05777364 17.6205393,6.18451364 18.1549793,5.90431364 C18.6894193,5.62488364 18.9596993,5.01179364 18.8047093,4.42847364 C18.3412693,2.67626364 18.3947093,1.43176364 18.9528293,0.67208364 Z" id="path-5"></path>
        <path d="M8.66872,0 C8.74279,0.13437 8.73515,0.30387 8.72522,0.46573 L8.24421,8.321328 L15.2554,8.321328 C15.9685,8.321328 16.54798,8.900058 16.54798,9.613926 C16.54798,10.32703 15.9685,10.9065225 15.2554,10.9065225 L1.2926,10.9065225 C0.57949,10.9065225 -7.10542736e-15,10.32703 -7.10542736e-15,9.613926 C-7.10542736e-15,8.900058 0.57949,8.321328 1.2926,8.321328 L5.65367,8.321328 L6.12934,0.55429 C6.12934,0.55429 7.16082,0.41839 8.66872,0 Z" id="path-7"></path>
        <path d="M7.95639,0 C7.95639,0 8.04021776,0.0446873469 8.19255945,0.12179312 L8.36717194,0.20925063 C8.79252351,0.420186122 9.51554667,0.764109524 10.38048,1.11623 L8.65879,10.552258 L15.25463,10.552258 C15.9685,10.552258 16.54798,11.130988 16.54798,11.844856 C16.54798,12.55796 15.9685,13.1374525 15.25463,13.1374525 L7.13181,13.1374525 C7.1173,13.138216 7.10279,13.138216 7.08829,13.1374525 L1.2926,13.1374525 C0.57949,13.1374525 -3.55271368e-15,12.55796 -3.55271368e-15,11.844856 C-3.55271368e-15,11.130988 0.57949,10.552258 1.2926,10.552258 L6.03085,10.552258 L7.95639,0 Z" id="path-9"></path>
        <path d="M3.18683,0 C4.94515,0 6.37289,1.427735 6.37289,3.186827 C6.37289,4.945156 4.94515,6.372892 3.18683,6.372892 C1.42773,6.372892 0,4.945156 0,3.186827 C0,1.427735 1.42773,0 3.18683,0 Z M13.77879,0 C15.53788,0 16.96562,1.427735 16.96562,3.186827 C16.96562,4.945156 15.53788,6.372892 13.77879,6.372892 C12.02046,6.372892 10.59273,4.945156 10.59273,3.186827 C10.59273,1.427735 12.02046,0 13.77879,0 Z M24.73494,0 C26.49327,0 27.92101,1.427735 27.92101,3.186827 C27.92101,4.945156 26.49327,6.372892 24.73494,6.372892 C22.97584,6.372892 21.54811,4.945156 21.54811,3.186827 C21.54811,1.427735 22.97584,0 24.73494,0 Z" id="path-11"></path>
    </defs>
    <g id="Page-1" stroke="none" stroke-width="1" fill="none" fill-rule="evenodd">
        <g id="Desktop-HD" transform="translate(-360.000000, -4846.000000)">
            <g id="Breadcrumbs_logo" transform="translate(360.000000, 4846.000000)">
                <g id="Group-3" transform="translate(0.000000, 12.829025)">
                    <mask id="mask-2" fill="white">
                        <use xlink:href="#path-1"></use>
                    </mask>
                    <g id="Clip-2"></g>
                    <polygon id="Fill-1" fill="#FFFFFF" mask="url(#mask-2)" points="-6.76158771 64.0779809 74.0569223 64.0779809 74.0569223 -6.76159909 -6.76158771 -6.76159909"></polygon>
                </g>
                <g id="Group-6" transform="translate(56.739777, 50.026900)">
                    <mask id="mask-4" fill="white">
                        <use xlink:href="#path-3"></use>
                    </mask>
                    <g id="Clip-5"></g>
                    <polygon id="Fill-4" fill="#FFDE00" mask="url(#mask-4)" points="-6.76159549 24.9951584 20.2090345 24.9951584 20.2090345 -6.7615816 -6.76159549 -6.7615816"></polygon>
                </g>
                <g id="Group-9" transform="translate(33.773262, 0.000000)">
                    <mask id="mask-6" fill="white">
                        <use xlink:href="#path-5"></use>
                    </mask>
                    <g id="Clip-8"></g>
                    <polygon id="Fill-7" fill="#FFDE00" mask="url(#mask-6)" points="-6.76158065 41.2251936 44.0298693 41.2251936 44.0298693 -6.76158636 -6.76158065 -6.76158636"></polygon>
                </g>
                <g id="Group-12" transform="translate(39.978781, 71.768734)">
                    <mask id="mask-8" fill="white">
                        <use xlink:href="#path-7"></use>
                    </mask>
                    <g id="Clip-11"></g>
                    <polygon id="Fill-10" fill="#FFFFFF" mask="url(#mask-8)" points="-6.76159 17.66811 23.30957 17.66811 23.30957 -6.76159 -6.76159 -6.76159"></polygon>
                </g>
                <g id="Group-15" transform="translate(20.177541, 69.537804)">
                    <mask id="mask-10" fill="white">
                        <use xlink:href="#path-9"></use>
                    </mask>
                    <g id="Clip-14"></g>
                    <polygon id="Fill-13" fill="#FFFFFF" mask="url(#mask-10)" points="-6.76159 19.899612 23.30957 19.899612 23.30957 -6.761588 -6.76159 -6.761588"></polygon>
                </g>
                <g id="Group-18" transform="translate(64.016661, 75.009768)">
                    <mask id="mask-12" fill="white">
                        <use xlink:href="#path-11"></use>
                    </mask>
                    <g id="Clip-17"></g>
                    <polygon id="Fill-16" fill="#FFDE00" mask="url(#mask-12)" points="-6.76159 13.134479 34.6826 13.134479 34.6826 -6.761591 -6.76159 -6.761591"></polygon>
                </g>
            </g>
        </g>
    </g>
</svg>