<?xml version="1.0" encoding="UTF-8"?>
<svg width="12px" height="12px" viewBox="0 0 12 12" version="1.1" xmlns="http://www.w3.org/2000/svg" xmlns:xlink="http://www.w3.org/1999/xlink">
    <title>chevron-double-down</title>
    <g id="Page-1" stroke="none" stroke-width="1" fill="none" fill-rule="evenodd">
        <g id="Desktop-HD" transform="translate(-139.000000, -959.000000)" fill="#FFFFFF" fill-rule="nonzero">
            <g id="chevron-double-down" transform="translate(139.000000, 959.000000)">
                <path d="M10.7618956,0.180570946 C11.0763893,-0.0889953685 11.5498632,-0.0525742548 11.8194293,0.261919769 C12.0889953,0.576413792 12.0525742,1.04988826 11.7380805,1.31945456 L6.48809244,5.81944945 C6.20722573,6.06019258 5.79277427,6.06019258 5.51190755,5.81944945 L0.261919472,1.31945456 C-0.0525741951,1.04988826 -0.0889952676,0.576413792 0.180570741,0.261919769 C0.450136735,-0.0525742548 0.923610661,-0.0889953685 1.23810433,0.180570946 L6,4.26220042 L10.7618956,0.180570946 Z M10.7618956,6.18056415 C11.0763893,5.9109978 11.5498632,5.94741896 11.8194293,6.26191295 C12.0889953,6.57640695 12.0525742,7.04988141 11.7380805,7.31944775 L6.48809244,11.8194427 C6.20722573,12.0601858 5.79277427,12.0601858 5.51190755,11.8194427 L0.261919472,7.31944775 C-0.0525741951,7.04988141 -0.0889952676,6.57640695 0.180570741,6.26191295 C0.450136735,5.94741896 0.923610661,5.9109978 1.23810433,6.18056415 L6,10.2621936 L10.7618956,6.18056415 Z" id="Shape"></path>
            </g>
        </g>
    </g>
</svg>