<?xml version="1.0" encoding="UTF-8"?>
<svg width="63px" height="83px" viewBox="0 0 63 83" version="1.1" xmlns="http://www.w3.org/2000/svg" xmlns:xlink="http://www.w3.org/1999/xlink">
    <title>Grindbid_logo</title>
    <defs>
        <path d="M54.3741768,0 C55.0303034,2.21050155e-15 55.6748348,0.172974679 56.2427976,0.501486984 C58.0270347,1.5334978 58.6368345,3.81651778 57.6048314,5.60075929 C55.7666902,8.77871022 54.8822376,10.4063156 54.9514737,10.4835753 C59.9558289,16.0678772 63,23.4496431 63,31.5433927 C63,48.9643275 48.8969696,63.0867855 31.5,63.0867855 C14.1030304,63.0867855 0,48.9643275 0,31.5433927 C0,14.122458 14.1030304,0 31.5,0 L31.5,0 Z M32.1774194,13.5670506 C22.2630173,13.5670506 14.2258065,21.6153331 14.2258065,31.5433927 C14.2258065,41.4714523 22.2630173,49.5197348 32.1774194,49.5197348 C42.0918214,49.5197348 50.1290323,41.4714523 50.1290323,31.5433927 C50.1290323,21.6153331 42.0918214,13.5670506 32.1774194,13.5670506 Z" id="path-1"></path>
    </defs>
    <g id="Page-1" stroke="none" stroke-width="1" fill="none" fill-rule="evenodd">
        <g id="Desktop-HD" transform="translate(-361.000000, -4010.000000)">
            <g id="Grindbid_logo" transform="translate(361.000000, 4010.000000)">
                <path d="M10.5,72.0991834 C16.7557389,75.2352147 23.8160966,77 31.2880749,77 C38.6375101,77 45.5887154,75.2926262 51.7677133,72.2523712" id="Path" stroke="#0765D1" stroke-width="11.9428571" stroke-linecap="round"></path>
                <g id="Rectangle">
                    <mask id="mask-2" fill="white">
                        <use xlink:href="#path-1"></use>
                    </mask>
                    <use id="Mask" fill="" xlink:href="#path-1"></use>
                </g>
                <path d="M54.8307381,10.3373292 C55.0904948,10.6343067 55.2603824,10.8290402 55.3404007,10.9215298 C55.420419,11.0140194 55.5619519,11.1826436 55.7649994,11.4274023 L55.0617828,12.3135242 L52.2969933,13.9983752 L54.8307381,10.3373292 Z" id="Path-7" fill="#0064D9"></path>
                <path d="M57.5127616,5.72667914 L54.934379,10.4358605 L47.00318,21.4095356 C46.7352078,21.0155126 46.448419,20.6295192 46.1428136,20.2515553 C45.8372082,19.8735914 45.5193038,19.5117177 45.1891003,19.1659343 L57.5127616,5.72667914 Z" id="Path-6" fill="#98BFEC"></path>
            </g>
        </g>
    </g>
</svg>