<?xml version="1.0" encoding="UTF-8"?>
<svg width="75px" height="75px" viewBox="0 0 75 75" version="1.1" xmlns="http://www.w3.org/2000/svg" xmlns:xlink="http://www.w3.org/1999/xlink">
    <title>PP App Icon</title>
    <g id="Page-1" stroke="none" stroke-width="1" fill="none" fill-rule="evenodd">
        <g id="Desktop-HD" transform="translate(-360.000000, -2277.000000)" fill="#7BC146" fill-rule="nonzero">
            <g id="Group" transform="translate(360.000000, 2277.000000)">
                <path d="M45.6418383,0.904274321 C25.4439496,-3.5987521 5.354753,9.15779087 0.846246176,29.3410579 C0.37376797,31.4579126 0.103146651,33.5747672 0,35.6705642 L7.99441997,35.7481452 C8.08647558,34.1998489 8.29942351,32.6404696 8.64768209,31.079982 C12.1912686,15.1947057 28.0070884,5.15682474 43.9016545,8.70006261 C59.7917842,12.237759 69.8380462,28.041021 66.2966778,43.9218641 C62.7508731,59.8038155 46.9383806,69.8439131 31.0427054,66.3040001 C27.468064,65.5071318 24.1917714,64.0873984 21.2981197,62.1866624 L16.673157,68.7023632 C20.4108367,71.199365 24.6609223,73.0624188 29.306958,74.0975718 C49.4981921,78.5950567 69.5929342,65.8407303 74.0958955,45.6596799 C78.5999659,25.4786294 65.8330725,5.39843433 45.6418383,0.904274321 Z" id="Path"></path>
                <path d="M41.3906436,19.9570745 C31.7081677,17.7981044 22.0722741,23.9126003 19.9161764,33.5847419 C19.7475926,34.3461446 19.6455551,35.1042224 19.5756815,35.8600836 L25.6557884,35.9188236 C25.7012617,35.5807918 25.7533895,35.2449766 25.8276995,34.9069449 C27.2584433,28.4909912 33.645772,24.4301768 40.069701,25.8621015 C46.4914118,27.2940262 50.5485134,33.6789475 49.1210969,40.0949012 C47.6870257,46.5108549 41.3008062,50.570561 34.8768771,49.137528 C33.6579721,48.8659943 32.5277954,48.4126992 31.5007653,47.8164334 L37.9524219,38.727258 C37.9524219,38.727258 38.3439355,38.178649 38.4226819,37.8273177 C38.6633574,36.7578073 37.985695,35.6949468 36.9143008,35.4533372 C36.1778559,35.2915253 35.5855944,35.4976692 34.9888966,36.0928268 L7.82029068,60.5308609 C8.19738596,61.0007804 8.678737,61.5549309 9.22996157,62.1511967 C11.3949321,64.634899 13.8937429,66.8426343 16.6742661,68.7012549 L16.7130847,68.6458398 L21.2992288,62.1855541 L27.9860154,52.7649967 C29.6574348,53.8067995 31.5273838,54.5903682 33.5570437,55.042555 C43.2395196,57.1982002 52.8720858,51.0848126 55.0304017,41.4137793 C57.1898268,31.7349878 51.0709013,22.1116114 41.3906436,19.9570745 Z" id="Path"></path>
            </g>
        </g>
    </g>
</svg>